<svg id="Ico-inv-backup-electric-power" xmlns="http://www.w3.org/2000/svg" width="20" height="20" viewBox="0 0 20 20">
  <rect id="Rectángulo_3173" data-name="Rectángulo 3173" width="20" height="20" fill="none"/>
  <path id="Trazado_2815" data-name="Trazado 2815" d="M397.022,557.126h-4.873l1.737-6.222a.409.409,0,0,0-.722-.354l-7.654,10.281a.54.54,0,0,0,.473.8h4.874l-1.737,6.223a.409.409,0,0,0,.721.354l7.655-10.281A.541.541,0,0,0,397.022,557.126Z" transform="translate(-384.137 -549.379)" fill="#6a6b75"/>
  <path id="Trazado_2816" data-name="Trazado 2816" d="M391.581,556.815v8.808c0,1.832,2.794,2.79,5.554,2.79s5.555-.958,5.555-2.79v-8.808C402.69,553.152,391.581,553.15,391.581,556.815Zm5.554-1.29c2.635,0,4.055.916,4.055,1.29s-1.42,1.289-4.055,1.289-4.054-.915-4.054-1.289S394.5,555.525,397.135,555.525Zm0,11.388c-2.634,0-4.054-.916-4.054-1.29v-1a10.341,10.341,0,0,0,8.109,0v1C401.19,566,399.77,566.913,397.135,566.913Zm0-2.965c-2.634,0-4.054-.916-4.054-1.29v-.948a10.341,10.341,0,0,0,8.109,0v.948C401.19,563.032,399.77,563.948,397.135,563.948Zm0-2.91c-2.634,0-4.054-.915-4.054-1.289v-.973a10.341,10.341,0,0,0,8.109,0v.973C401.19,560.123,399.77,561.038,397.135,561.038Z" transform="translate(-384.137 -549.379)" fill="#6a6b75"/>
</svg>
