<svg xmlns="http://www.w3.org/2000/svg" xmlns:xlink="http://www.w3.org/1999/xlink" width="20" height="20" viewBox="0 0 20 20"><defs><clipPath id="a"><rect width="20" height="20" fill="none"/></clipPath></defs><g transform="translate(0 0)"><g transform="translate(0 0)" clip-path="url(#a)"><path d="M.555,19.878a.734.734,0,0,1-.43-.773c.016-1.112.009-2.224,0-3.336a2.9,2.9,0,0,1,.882-2.146c.154-.154.3-.315.465-.462.09-.082.1-.135,0-.225-.18-.164-.348-.342-.52-.515a.586.586,0,0,1,0-.926c1.009-1.01,2.015-2.021,3.03-3.024a.218.218,0,0,0,.036-.334c-.162-.246-.31-.5-.459-.757a.579.579,0,0,1,.1-.771q1.2-1.2,2.4-2.4a.576.576,0,0,1,.871,0c.188.184.377.368.558.56.076.081.121.075.195,0,.263-.273.533-.539.8-.806a.575.575,0,0,1,.91-.011c.1.1.138.054.21-.017.658-.66,1.3-1.332,1.982-1.972A6.565,6.565,0,0,1,16.044.134c.469-.015.938-.007,1.408,0a.578.578,0,0,1,.61.6q.006,1.137,0,2.276a.579.579,0,0,1-.6.594c-.558.015-1.118-.037-1.676.031a3.114,3.114,0,0,0-1.84.883c-.64.623-1.265,1.262-1.9,1.89-.079.079-.08.125,0,.195a.637.637,0,0,1,.21.4q.264,1.606.533,3.21a.588.588,0,0,1-.179.542c-1.55,1.55-3.088,3.112-4.654,4.646a2.855,2.855,0,0,1-4.028-.013c-.471-.455-.933-.921-1.389-1.392-.11-.113-.17-.1-.267,0-.15.167-.317.32-.475.48a1.739,1.739,0,0,0-.51,1.268c0,1.138-.007,2.277,0,3.413a.665.665,0,0,1-.467.719ZM11.592,10.06c0-.029,0-.054-.009-.079Q11.37,8.7,11.158,7.417a.314.314,0,0,0-.1-.177c-.669-.668-1.338-1.335-2-2.007-.091-.092-.133-.067-.207.009-.269.277-.542.549-.817.819a.576.576,0,0,1-.882,0c-.184-.18-.369-.359-.543-.548-.083-.091-.129-.077-.209,0q-.751.763-1.514,1.514c-.082.08-.1.139-.035.242.15.231.287.47.428.707a.627.627,0,0,1-.111.952q-1.453,1.451-2.906,2.9c-.095.094-.117.142-.007.247.38.364.752.738,1.118,1.118.1.107.155.108.262,0q1.451-1.466,2.914-2.921a.617.617,0,0,1,.876-.142q1.324.663,2.646,1.327c.088.045.147.059.23-.026.4-.415.815-.821,1.225-1.23.041-.041.088-.077.069-.143m4.749-8.774a5.424,5.424,0,0,0-3.6,1.217c-.851.7-1.569,1.535-2.36,2.3-.077.074-.018.109.025.151.208.209.423.412.624.628.087.092.134.085.22,0,.632-.638,1.265-1.276,1.907-1.906a4.316,4.316,0,0,1,1.775-1.04,5.567,5.567,0,0,1,1.829-.185c.111,0,.157-.017.152-.144-.011-.288-.009-.578,0-.867,0-.113-.018-.163-.144-.151s-.282,0-.423,0M6.462,11.99,4.446,14.007a.548.548,0,0,1-.068.067c-.068.053-.035.093.012.139.121.116.235.236.356.351a1.718,1.718,0,0,0,2.427-.013c.693-.679,1.371-1.371,2.06-2.054.091-.089.093-.123-.027-.18-.5-.243-1-.495-1.5-.744-.03-.015-.055-.031-.091,0,0,.375,0,.754,0,1.132a.875.875,0,0,1-.022.229.581.581,0,0,1-.613.421.589.589,0,0,1-.518-.578c-.009-.246,0-.494,0-.784" transform="translate(-0.001 -0.001)" fill="#666"/><path d="M.847,20H.528L.5,19.991A.866.866,0,0,1,0,19.1c.014-.983.01-1.983.006-2.95v-.384a3.038,3.038,0,0,1,.919-2.235l.139-.14c.106-.108.216-.22.33-.325l.023-.023L1.4,13.029c-.136-.124-.267-.258-.393-.386l-.132-.134a.707.707,0,0,1,0-1.1l.577-.578c.8-.8,1.632-1.635,2.454-2.448.079-.078.075-.092.019-.177-.142-.216-.275-.443-.4-.661l-.059-.1a.7.7,0,0,1,.116-.922c.934-.938,1.7-1.7,2.4-2.4a.732.732,0,0,1,.517-.233.757.757,0,0,1,.529.237l.033.032c.175.172.357.349.529.532l.005.006L7.6,4.684c.231-.24.471-.478.7-.708l.1-.1a.7.7,0,0,1,1.086-.011l.009.008.023-.022c.178-.178.353-.356.528-.533.473-.478.961-.973,1.459-1.444A6.7,6.7,0,0,1,16.041.009C16.23,0,16.432,0,16.675,0L17.2,0l.252,0a.7.7,0,0,1,.735.726c0,.783,0,1.549,0,2.277a.7.7,0,0,1-.721.718c-.2.005-.4,0-.605,0-.122,0-.244,0-.366,0a5.683,5.683,0,0,0-.693.035,3,3,0,0,0-1.768.848c-.374.364-.749.74-1.112,1.1-.258.258-.524.525-.788.786l-.008.008,0,0a.753.753,0,0,1,.252.475c.162.984.336,2.034.533,3.21a.711.711,0,0,1-.214.651q-.685.685-1.369,1.373C10.258,13.29,9.149,14.4,8.045,15.486a2.964,2.964,0,0,1-2.082.861,3.045,3.045,0,0,1-2.12-.873c-.43-.416-.886-.872-1.392-1.395a.291.291,0,0,0-.043-.038.315.315,0,0,0-.041.04c-.1.113-.211.22-.317.324-.054.053-.109.106-.162.16a1.6,1.6,0,0,0-.474,1.18q0,.53,0,1.06c0,.771,0,1.569.006,2.352A.787.787,0,0,1,.867,20Zm-.263-.25H.8a.542.542,0,0,0,.364-.593c-.008-.784-.007-1.583-.006-2.355q0-.53,0-1.059a1.868,1.868,0,0,1,.546-1.356c.055-.055.11-.11.165-.164.1-.1.209-.2.306-.312a.311.311,0,0,1,.226-.127.323.323,0,0,1,.224.118c.5.521.958.975,1.386,1.389a2.8,2.8,0,0,0,1.947.8,2.716,2.716,0,0,0,1.907-.789c1.1-1.081,2.212-2.195,3.284-3.271q.684-.687,1.37-1.374a.462.462,0,0,0,.144-.433C12.47,9.054,12.3,8,12.134,7.018a.514.514,0,0,0-.168-.325.26.26,0,0,1-.105-.182.268.268,0,0,1,.1-.2c.264-.261.53-.527.788-.785.363-.364.739-.74,1.114-1.106a3.241,3.241,0,0,1,1.912-.917,5.917,5.917,0,0,1,.723-.037c.123,0,.247,0,.37,0,.2,0,.4.006.595,0a.453.453,0,0,0,.478-.469c0-.727.005-1.492,0-2.274a.455.455,0,0,0-.486-.477l-.252,0-.524,0c-.241,0-.44,0-.627.009a6.461,6.461,0,0,0-4.37,1.8c-.495.467-.982.961-1.453,1.438q-.263.266-.527.532a.283.283,0,0,1-.2.11.273.273,0,0,1-.187-.093.531.531,0,0,0-.36-.182.552.552,0,0,0-.374.193l-.1.1c-.231.229-.47.466-.7.7a.268.268,0,0,1-.189.1.264.264,0,0,1-.187-.1c-.169-.179-.348-.354-.522-.524L6.848,4.3a.514.514,0,0,0-.354-.166.489.489,0,0,0-.341.16c-.7.7-1.466,1.462-2.4,2.4a.454.454,0,0,0-.077.62l.059.1c.127.216.257.439.4.65a.34.34,0,0,1-.052.492c-.821.812-1.651,1.643-2.453,2.446l-.577.577a.465.465,0,0,0,0,.75l.132.134c.124.126.252.257.383.376a.243.243,0,0,1,0,.409c-.109.1-.216.21-.32.316l-.14.142a2.761,2.761,0,0,0-.846,2.057v.384c0,.968.008,1.969-.006,2.954A.61.61,0,0,0,.584,19.753Zm5.374-4.569a1.891,1.891,0,0,1-1.3-.529c-.065-.061-.128-.124-.188-.186S4.36,14.358,4.3,14.3a.235.235,0,0,1-.089-.179.2.2,0,0,1,.086-.149.278.278,0,0,0,.037-.036l.018-.019,2.231-2.232v.3c0,.092,0,.179,0,.263,0,.18,0,.35,0,.516A.466.466,0,0,0,7,13.228l.047,0a.46.46,0,0,0,.43-.333.772.772,0,0,0,.017-.2c0-.284,0-.568,0-.85v-.343l.048-.038a.185.185,0,0,1,.116-.042.221.221,0,0,1,.1.029l.35.175c.376.189.765.384,1.149.57.046.022.144.069.161.168a.251.251,0,0,1-.1.214c-.283.28-.569.568-.846.846-.4.4-.805.809-1.214,1.208A1.861,1.861,0,0,1,5.957,15.184ZM4.493,14.139c.052.05.1.1.155.154s.122.122.183.181a1.641,1.641,0,0,0,1.125.461,1.612,1.612,0,0,0,1.128-.472c.407-.4.816-.809,1.212-1.206.273-.274.555-.558.835-.835-.38-.185-.763-.377-1.133-.563l-.255-.128v.121c0,.283,0,.567,0,.851a.992.992,0,0,1-.026.261.708.708,0,0,1-.671.517.627.627,0,0,1-.078,0,.712.712,0,0,1-.628-.7c-.006-.158,0-.317,0-.484L4.522,14.108Zm-1-.739a.313.313,0,0,1-.22-.119c-.393-.408-.757-.772-1.114-1.114a.3.3,0,0,1-.112-.208.312.312,0,0,1,.118-.218c.694-.689,1.4-1.392,2.077-2.073l.829-.829c.3-.3.312-.432.092-.8l-.1-.174c-.1-.176-.211-.357-.323-.529a.282.282,0,0,1,.052-.4C5.339,6.4,5.834,5.9,6.3,5.424a.28.28,0,0,1,.2-.1.269.269,0,0,1,.193.1c.156.17.326.335.49.5l.049.047a.455.455,0,0,0,.707,0c.317-.311.576-.571.815-.817a.282.282,0,0,1,.2-.106.276.276,0,0,1,.189.1c.574.583,1.163,1.171,1.733,1.74l.268.267a.437.437,0,0,1,.14.245q.14.854.282,1.706l.142.859a.574.574,0,0,1,.008.064v.014a.25.25,0,0,1-.093.242l-.011.011-.268.267c-.315.314-.641.638-.955.961a.286.286,0,0,1-.208.1.374.374,0,0,1-.169-.049q-.916-.462-1.833-.92l-.812-.407a.8.8,0,0,0-.341-.107c-.118,0-.228.064-.391.227l-.648.647c-.744.744-1.514,1.513-2.266,2.273A.323.323,0,0,1,3.5,13.4ZM2.308,11.957a.333.333,0,0,0,.028.029c.359.344.726.711,1.122,1.122a.351.351,0,0,0,.04.038.353.353,0,0,0,.043-.038c.753-.76,1.522-1.53,2.267-2.273l.648-.647a.793.793,0,0,1,.568-.3,1.021,1.021,0,0,1,.453.134l.812.407q.917.459,1.834.92a.176.176,0,0,0,.056.022.127.127,0,0,0,.029-.024c.315-.325.642-.65.958-.964l.281-.28.021-.021,0-.035a.364.364,0,0,0,0-.04l-.143-.863q-.141-.853-.282-1.706a.192.192,0,0,0-.069-.108L10.7,7.061c-.57-.569-1.16-1.158-1.734-1.741l-.01-.01-.018.018c-.241.248-.5.509-.819.821a.7.7,0,0,1-1.058,0L7.01,6.1c-.166-.163-.338-.331-.5-.505l-.01-.01L6.483,5.6c-.472.479-.967.975-1.515,1.515a.162.162,0,0,0-.038.046.184.184,0,0,0,.021.04c.115.177.224.361.329.539l.1.173a.745.745,0,0,1-.13,1.1l-.829.829c-.68.68-1.384,1.384-2.078,2.073C2.326,11.936,2.315,11.949,2.308,11.957ZM11.134,5.77a.28.28,0,0,1-.2-.105c-.134-.145-.278-.286-.417-.423l-.205-.2L10.3,5.026a.219.219,0,0,1-.086-.16.215.215,0,0,1,.076-.157c.281-.27.557-.554.825-.83a18.92,18.92,0,0,1,1.543-1.472,5.574,5.574,0,0,1,3.682-1.245c.085,0,.17,0,.254,0,.062,0,.112,0,.158-.006a.254.254,0,0,1,.217.062.287.287,0,0,1,.063.217c-.009.33-.009.6,0,.859a.274.274,0,0,1-.062.207.263.263,0,0,1-.2.068h-.016c-.127,0-.237,0-.339,0a4.738,4.738,0,0,0-1.451.184,4.215,4.215,0,0,0-1.724,1.01c-.625.612-1.233,1.225-1.906,1.9A.289.289,0,0,1,11.134,5.77Zm-.643-.907.2.2c.141.138.286.282.424.43l.017.016.022-.021c.674-.681,1.283-1.294,1.909-1.907a4.462,4.462,0,0,1,1.825-1.07,5.092,5.092,0,0,1,1.525-.2c.1,0,.217,0,.344,0h.024s0-.009,0-.015c-.01-.262-.01-.54,0-.875,0-.01,0-.018,0-.024h-.008c-.055,0-.112.007-.181.007-.085,0-.17,0-.254,0A5.265,5.265,0,0,0,12.817,2.6,18.731,18.731,0,0,0,11.3,4.053C11.035,4.321,10.766,4.6,10.492,4.863Z" transform="translate(-0.001 -0.001)" fill="#666"/><path d="M20.046,10.065c-.07.035-.059.108-.074.165A2.119,2.119,0,0,1,15.8,9.723a2.986,2.986,0,0,1,.39-1.335,15.9,15.9,0,0,1,1.242-2.1.563.563,0,0,1,.957-.024A13.222,13.222,0,0,1,19.867,8.89c.071.181.12.372.179.559Zm-2.109-2.39A8.331,8.331,0,0,0,17,9.484a.817.817,0,0,0,.011.492.969.969,0,0,0,1.22.621.949.949,0,0,0,.6-1.2,11.888,11.888,0,0,0-.891-1.719" transform="translate(-0.17 -0.064)" fill="#666"/><path d="M17.94,11.931a2.083,2.083,0,0,1-.239-.014A2.267,2.267,0,0,1,15.68,9.725a3.126,3.126,0,0,1,.4-1.391,15.875,15.875,0,0,1,1.251-2.118.723.723,0,0,1,.6-.333.683.683,0,0,1,.565.309,13.355,13.355,0,0,1,1.487,2.652c.05.128.09.261.128.389.018.059.035.119.054.178l.006.018v.713l-.063.031c0,.008,0,.021,0,.03a.5.5,0,0,1-.011.058A2.268,2.268,0,0,1,17.94,11.931Zm-.009-5.8a.477.477,0,0,0-.391.224,15.636,15.636,0,0,0-1.232,2.085,2.836,2.836,0,0,0-.378,1.279,2.017,2.017,0,0,0,1.8,1.948,1.833,1.833,0,0,0,.21.012A2.014,2.014,0,0,0,19.851,10.2a.277.277,0,0,0,0-.029.292.292,0,0,1,.065-.164V9.468c-.017-.054-.033-.109-.049-.164-.038-.129-.074-.251-.121-.369a13.132,13.132,0,0,0-1.461-2.6A.43.43,0,0,0,17.931,6.134Zm0,4.635h0a1.1,1.1,0,0,1-1.042-.756.94.94,0,0,1-.011-.565A8.414,8.414,0,0,1,17.841,7.6l.113-.136.091.152a12.112,12.112,0,0,1,.9,1.737,1.011,1.011,0,0,1-.04.8,1.088,1.088,0,0,1-.64.572A1.074,1.074,0,0,1,17.929,10.769Zm0-2.868a8.819,8.819,0,0,0-.811,1.618.689.689,0,0,0,.01.419.845.845,0,0,0,.8.581h0a.824.824,0,0,0,.258-.041.837.837,0,0,0,.492-.441.761.761,0,0,0,.033-.6A11.076,11.076,0,0,0,17.926,7.9Z" transform="translate(-0.17 -0.064)" fill="#666"/></g></g></svg>