<svg id="Ico-inv-cooling" xmlns="http://www.w3.org/2000/svg" width="20" height="20" viewBox="0 0 20 20">
  <rect id="Rectángulo_3174" data-name="Rectángulo 3174" width="20" height="20" fill="none"/>
  <path id="Trazado_2817" data-name="Trazado 2817" d="M377.241,526.853h-1.886l.985-.984-1.061-1.061-2.045,2.045h-3.116l2.2-2.2h2.893v-1.5h-1.393l1.333-1.333-1.061-1.061-1.333,1.333V520.7h-1.5v2.893l-2.2,2.2v-3.115l2.045-2.046-1.061-1.061-.985.985V518.67h-1.5v1.886l-.985-.985-1.061,1.061,2.045,2.046v3.115l-2.2-2.2V520.7h-1.5v1.393l-1.333-1.333-1.061,1.061,1.333,1.333H361.4v1.5h2.893l2.2,2.2h-3.116l-2.045-2.045-1.061,1.061.985.984h-1.886v1.5h1.886l-.985.985,1.061,1.061,2.046-2.046H366.5l-2.2,2.2H361.4v1.5h1.393l-1.334,1.334,1.061,1.061,1.333-1.334v1.393h1.5v-2.893l2.2-2.2v3.116l-2.045,2.046,1.061,1.061.985-.985v1.886h1.5v-1.886l.985.985,1.061-1.061-2.045-2.046v-3.116l2.2,2.2v2.893h1.5v-1.393l1.333,1.333,1.061-1.061-1.334-1.334h1.393v-1.5h-2.893l-2.2-2.2h3.116l2.046,2.046,1.061-1.061-.985-.985h1.886Z" transform="translate(-357.967 -517.603)" fill="#6a6b75"/>
</svg>
