<svg xmlns="http://www.w3.org/2000/svg" xmlns:xlink="http://www.w3.org/1999/xlink" width="20.714" height="20" viewBox="0 0 20.714 20"><defs><clipPath id="a"><rect width="20.714" height="20" fill="none"/></clipPath></defs><g clip-path="url(#a)"><path d="M20.339,0V8.925A.7.7,0,0,1,20.3,8.82a2.1,2.1,0,0,0-1.818-1.682c-.453-.055-.629.1-.629.554,0,.656,0,1.313,0,1.969,0,.069-.006.137-.01.209h-.791v-1.8c0-.45-.129-.578-.581-.579H14.809c-.1-.346-.207-.681-.309-1.015s-.192-.405-.543-.405H11.5c-.069,0-.137-.005-.2-.008v-1c.56,0,1.105,0,1.651,0,.339,0,.489-.151.491-.486,0-.364,0-.728,0-1.092,0-.416-.13-.546-.549-.547q-.974,0-1.949,0H7.55c-.484,0-.592.11-.592.6v.78c0,.694.051.745.739.745H9.1V6.068H8.865c-1.241,0-2.483,0-3.724,0a.523.523,0,0,0-.526.316c-.166.331-.356.649-.526.978a.217.217,0,0,1-.227.133c-.409-.006-.819,0-1.228,0-.447,0-.575.131-.575.584v1.8H1.166V7.212a1.5,1.5,0,0,0-.012-.233A.372.372,0,0,0,.8,6.653.367.367,0,0,0,.4,6.929a1.058,1.058,0,0,0-.026.27q0,3.948,0,7.9a.894.894,0,0,0,.039.306.353.353,0,0,0,.4.235.356.356,0,0,0,.333-.3,1.329,1.329,0,0,0,.015-.253q0-1.218,0-2.437v-.221h.893v1.915c0,.453.124.577.579.577.982,0,1.963,0,2.944,0a.34.34,0,0,1,.307.154c.424.559.865,1.105,1.283,1.668a.664.664,0,0,0,.594.29q4.349-.008,8.7,0c.47,0,.591-.12.591-.587V12.65c0-.075.007-.15.011-.228h.791v.224c0,.669,0,1.339,0,2.008,0,.381.164.535.545.506a2.064,2.064,0,0,0,1.411-.7,2.341,2.341,0,0,0,.529-1.128V20" fill="#fff"/><line y1="20" transform="translate(0.339)" fill="#fff"/><path d="M20.339,13.332a2.341,2.341,0,0,1-.529,1.128,2.062,2.062,0,0,1-1.41.7c-.381.029-.544-.125-.545-.506,0-.669,0-1.339,0-2.008v-.224h-.791c0,.078-.01.153-.01.228q0,1.892,0,3.783c0,.467-.12.587-.59.587q-4.349,0-8.695,0a.663.663,0,0,1-.594-.29c-.419-.563-.859-1.109-1.283-1.668a.342.342,0,0,0-.307-.154c-.982.005-1.963,0-2.944,0-.455,0-.58-.124-.58-.577V12.422H1.167v.221q0,1.218,0,2.437a1.252,1.252,0,0,1-.015.253.355.355,0,0,1-.333.3.353.353,0,0,1-.4-.235.92.92,0,0,1-.04-.306q0-3.949,0-7.9A1.015,1.015,0,0,1,.4,6.929.367.367,0,0,1,.8,6.653a.371.371,0,0,1,.356.326,1.5,1.5,0,0,1,.012.233q0,1.218,0,2.437V9.87h.892v-1.8c0-.453.129-.583.575-.584.41,0,.819,0,1.228,0a.217.217,0,0,0,.227-.133c.17-.329.36-.647.526-.978a.525.525,0,0,1,.527-.316c1.241.008,2.482,0,3.723,0H9.1V5.061H7.7c-.689,0-.74-.051-.74-.745v-.78c0-.49.108-.6.592-.6h3.392q.975,0,1.95,0c.418,0,.548.131.548.547,0,.364,0,.728,0,1.092,0,.335-.152.484-.492.486-.545,0-1.09,0-1.651,0v1c.067,0,.136.008.2.008h2.456c.351,0,.441.068.544.405s.2.669.309,1.015h1.661c.452,0,.581.129.581.579,0,.526,0,1.053,0,1.579V9.87h.791c0-.072.01-.14.01-.209q0-.984,0-1.969c0-.454.176-.609.629-.554A2.1,2.1,0,0,1,20.3,8.82a.825.825,0,0,0,.038.105ZM3.945,8.277v5.838c.651,0,1.287,0,1.924,0a.535.535,0,0,1,.465.229c.441.579.892,1.15,1.332,1.729a.345.345,0,0,0,.307.153q3.519-.008,7.037,0h.2V8.289c-.213,0-.414,0-.614,0a.441.441,0,0,1-.5-.373c-.092-.3-.189-.594-.266-.9-.034-.136-.1-.165-.229-.164-.844.005-1.689,0-2.534,0q-2.817,0-5.633,0a.257.257,0,0,0-.269.16c-.115.233-.255.454-.368.687-.174.361-.353.7-.861.575m14.721,6.01a.57.57,0,0,0,.082-.018,1.057,1.057,0,0,0,.123-.057,1.321,1.321,0,0,0,.677-1.232q0-1.831,0-3.665a1.8,1.8,0,0,0-.027-.329,1.274,1.274,0,0,0-.854-.993ZM12.641,3.751H7.76v.5h4.881Zm3.6,4.554h-.214v7.907h.214Zm-13.114,0H2.871v5.8h.256ZM1.176,11.6h.869v-.914H1.176Zm16.668-.915h-.778v.918h.778ZM9.926,6.053h.541V5.077H9.926Z" fill="#4d4d4d"/><path d="M7.762,17.4a1.04,1.04,0,0,1-.891-.442c-.235-.315-.482-.633-.721-.94-.184-.236-.374-.481-.559-.725l0-.006c-.594,0-1.188,0-1.64,0H2.639c-.66,0-.955-.294-.955-.952V12.8H1.542q0,1.141,0,2.283V15.1a1.436,1.436,0,0,1-.023.306.73.73,0,0,1-.66.6.91.91,0,0,1-.1.006.718.718,0,0,1-.694-.481A1.252,1.252,0,0,1,0,15.1q0-3.955,0-7.9a1.355,1.355,0,0,1,.041-.371.737.737,0,0,1,.778-.55.743.743,0,0,1,.705.645,1.82,1.82,0,0,1,.016.288q0,1.141,0,2.283h.142V8.072c0-.662.293-.958.949-.959h.615c.215,0,.387,0,.544,0,.069-.131.14-.259.209-.383.1-.178.191-.346.278-.52a.9.9,0,0,1,.858-.523h.006c.537,0,1.11.005,1.86.005H8.73V5.436H7.7A1.192,1.192,0,0,1,6.8,5.213a1.208,1.208,0,0,1-.221-.9v-.78c0-.7.271-.975.967-.975h5.343a.812.812,0,0,1,.922.922c0,.358,0,.729,0,1.094a.79.79,0,0,1-.865.859c-.364,0-.726,0-1.094,0h-.184v.256h2.285a.8.8,0,0,1,.9.67l.135.443.093.307h1.383c.661,0,.956.3.956.954q0,.525,0,1.053v.375h.051q0-.9,0-1.8c0-.818.529-.94.844-.94a1.693,1.693,0,0,1,.205.013,2.479,2.479,0,0,1,2.138,1.967l.007.017.017.044.023.063v4.514l-.008.039a2.745,2.745,0,0,1-.619,1.3,2.438,2.438,0,0,1-1.659.821.8.8,0,0,1-.948-.879c0-.478,0-.965,0-1.436V12.8h-.051q0,.872,0,1.745,0,.946,0,1.892c0,.674-.289.962-.965.962H12.6c-1.333,0-3.086,0-4.83,0ZM5.587,14.536a.715.715,0,0,1,.6.3c.183.241.372.484.554.718.242.31.491.631.731.954a.3.3,0,0,0,.288.139v.375l0-.375c1.745,0,3.5,0,4.832,0h3.865a.954.954,0,0,0,.2-.015.946.946,0,0,0,.015-.2q0-.946,0-1.892t0-1.892c0-.066,0-.128.007-.188l.022-.415h1.522V13.22c0,.47,0,.956,0,1.432a.474.474,0,0,0,.014.13.343.343,0,0,0,.07.006l.057,0a1.688,1.688,0,0,0,1.162-.579,1.918,1.918,0,0,0,.431-.916V9a.687.687,0,0,1-.029-.1l0-.008a1.731,1.731,0,0,0-1.47-1.38l.337.129a1.641,1.641,0,0,1,1.087,1.269,2.155,2.155,0,0,1,.034.4q0,.921,0,1.836t0,1.832a1.682,1.682,0,0,1-.864,1.557,1.429,1.429,0,0,1-.171.08.618.618,0,0,1-.128.034l-.017,0-.453.1V7.5a.273.273,0,0,0-.041.005.586.586,0,0,0-.021.183q0,.984,0,1.97c0,.062,0,.119-.007.175l-.023.409H16.677V9.12q0-.526,0-1.052a.808.808,0,0,0-.015-.188.814.814,0,0,0-.191-.016H14.533L14.451,7.6c-.059-.194-.117-.385-.175-.574l-.134-.442a.966.966,0,0,0-.048-.132.947.947,0,0,0-.137-.007H11.5c-.059,0-.114,0-.167-.006l-.411-.019V4.686h2.025a.389.389,0,0,0,.107-.012.38.38,0,0,0,.011-.1c0-.362,0-.732,0-1.089a.739.739,0,0,0-.013-.16.738.738,0,0,0-.161-.013H7.55a1.126,1.126,0,0,0-.2.013,1.156,1.156,0,0,0-.014.212v.78a3.08,3.08,0,0,0,.014.356,3.108,3.108,0,0,0,.351.014H9.48V6.443H7c-.752,0-1.327,0-1.864-.005-.121,0-.146.022-.19.11-.093.186-.194.369-.292.546-.079.143-.161.29-.236.436a.585.585,0,0,1-.555.336H3.849l.188.048a.464.464,0,0,0,.111.016c.1,0,.16-.059.319-.391.063-.131.133-.255.2-.374s.118-.212.17-.316a.627.627,0,0,1,.605-.369c1.272,0,2.528,0,4.023,0H12.2c.388,0,.9,0,1.405,0h.009a.552.552,0,0,1,.586.448c.058.229.129.454.2.692l.057.184a.446.446,0,0,0,.039.1.438.438,0,0,0,.1.011c.128,0,.26,0,.394,0h.589V16.6H13c-1.867,0-3.436,0-5.026,0a.721.721,0,0,1-.605-.3c-.227-.3-.46-.6-.685-.889-.213-.275-.433-.559-.648-.841a.166.166,0,0,0-.159-.081h0c-.448,0-.893,0-1.343,0H3.57V7.863H2.634a.778.778,0,0,0-.184.016.8.8,0,0,0-.016.193v2.173H.792v-.6q0-1.218,0-2.437a1.238,1.238,0,0,0-.007-.175l0-.009H.765A.764.764,0,0,0,.751,7.2q0,3.948,0,7.9a.794.794,0,0,0,.014.169l.017,0,0-.007a.875.875,0,0,0,.007-.151V15.08q0-1.218,0-2.437v-.6H2.434v2.29a.862.862,0,0,0,.015.187.871.871,0,0,0,.19.015H3.947c.451,0,1.044,0,1.634,0ZM7.968,15.85h0c1.589,0,3.159,0,5.026,0h1.84V8.665h-.245a.8.8,0,0,1-.848-.638l-.056-.181c-.062-.2-.127-.4-.183-.614-.476,0-.943,0-1.3,0H9.466c-1.478,0-2.723,0-3.981,0-.053.1-.109.2-.163.3-.065.115-.125.224-.179.334a1.229,1.229,0,0,1-.823.8V13.74H5.1l.763,0h.01a.908.908,0,0,1,.755.377c.213.279.432.562.644.836.226.292.46.594.688.893Zm11.073-7.1v4.8a1.1,1.1,0,0,0,.132-.567q0-.915,0-1.832t0-1.833a1.461,1.461,0,0,0-.02-.257A1.033,1.033,0,0,0,19.041,8.749Zm-2.425,7.838h-.964V7.93h.964ZM3.5,14.481H2.5V7.931H3.5Zm14.717-2.5H16.691V10.315h1.528Zm-15.8,0H.8V10.316H2.42Zm8.422-5.552H9.551V4.7h1.291Zm2.174-1.8H7.385V3.376h5.631Z" fill="#4d4d4d"/><path d="M3.945,8.277c.508.129.687-.214.861-.575.113-.233.252-.454.367-.687a.257.257,0,0,1,.269-.16q2.817.008,5.634,0c.844,0,1.689,0,2.534,0,.13,0,.194.028.229.164.077.3.174.6.265.9a.44.44,0,0,0,.495.373c.2,0,.4,0,.615,0v7.932h-.2q-3.518,0-7.037,0a.342.342,0,0,1-.306-.153c-.441-.579-.891-1.15-1.332-1.729a.536.536,0,0,0-.466-.229c-.636.005-1.272,0-1.923,0Z" fill="#fff"/><path d="M18.666,14.287V7.992a1.275,1.275,0,0,1,.854.993,1.658,1.658,0,0,1,.027.33c0,1.222,0,2.443,0,3.665a1.287,1.287,0,0,1-.677,1.231.915.915,0,0,1-.123.057.529.529,0,0,1-.082.019" fill="#fff"/><rect width="4.881" height="0.498" transform="translate(7.76 3.751)" fill="#fff"/><rect width="0.214" height="7.907" transform="translate(16.027 8.305)" fill="#fff"/><rect width="0.256" height="5.8" transform="translate(2.871 8.306)" fill="#fff"/><rect width="0.869" height="0.914" transform="translate(1.176 10.69)" fill="#fff"/><rect width="0.778" height="0.918" transform="translate(17.066 10.69)" fill="#fff"/><rect width="0.541" height="0.976" transform="translate(9.926 5.078)" fill="#fff"/></g></svg>