<svg id="Ico-inv-lightning" xmlns="http://www.w3.org/2000/svg" width="20" height="20" viewBox="0 0 20 20">
  <rect id="Rectángulo_3190" data-name="Rectángulo 3190" width="20" height="20" fill="none"/>
  <g id="Grupo_7906" data-name="Grupo 7906" transform="translate(-168.431 -650.458)">
    <g id="Trazado_680" data-name="Trazado 680" transform="translate(173.924 655.184)" fill="none">
      <path d="M4.523,0A4.576,4.576,0,0,1,9.046,4.627c0,1.794-2.743,3.6-2.743,5.082-.334-.02-1.142-.01-2.165,0-.721.007-1.154.017-1.638,0C2.5,8.463,0,6.383,0,4.627A4.576,4.576,0,0,1,4.523,0Z" stroke="none"/>
      <path d="M 4.522815704345703 1.500001907348633 C 2.856025695800781 1.500001907348633 1.499995708465576 2.902852058410645 1.499995708465576 4.62719202041626 C 1.499995708465576 5.105941772460938 2.184265613555908 6.080302238464355 2.63705587387085 6.725051879882812 C 2.990995407104492 7.229037284851074 3.335042476654053 7.718951225280762 3.588836669921875 8.214938163757324 C 3.641822814941406 8.214351654052734 3.696398735046387 8.213722229003906 3.752675533294678 8.213071823120117 C 3.867665767669678 8.211742401123047 3.99021577835083 8.210321426391602 4.122065544128418 8.209012031555176 L 4.258135795593262 8.207621574401855 C 4.604188919067383 8.204074859619141 4.919904708862305 8.200841903686523 5.200326919555664 8.198984146118164 C 5.510261535644531 7.592399597167969 5.960837364196777 7.027843475341797 6.402985572814941 6.473821640014648 C 6.858005523681641 5.903672218322754 7.54563570022583 5.042061805725098 7.54563570022583 4.62719202041626 C 7.54563570022583 2.902852058410645 6.189605712890625 1.500001907348633 4.522815704345703 1.500001907348633 M 4.522815704345703 1.9073486328125e-06 C 7.020695686340332 1.9073486328125e-06 9.045636177062988 2.071661949157715 9.045636177062988 4.62719202041626 C 9.045636177062988 6.421161651611328 6.302575588226318 8.228681564331055 6.302575588226318 9.708931922912598 C 6.159714221954346 9.700470924377441 5.930376052856445 9.697338104248047 5.634757041931152 9.697338104248047 C 5.2385573387146 9.697338104248047 4.723278999328613 9.702964782714844 4.137345790863037 9.708931922912598 C 3.710246562957764 9.713196754455566 3.384218692779541 9.71846866607666 3.088804721832275 9.71846866607666 C 2.885500431060791 9.71846866607666 2.696699619293213 9.715971946716309 2.499415874481201 9.708931922912598 C 2.499415874481201 8.462672233581543 -4.76837158203125e-06 6.382842063903809 -4.76837158203125e-06 4.62719202041626 C -4.76837158203125e-06 2.071661949157715 2.024935722351074 1.9073486328125e-06 4.522815704345703 1.9073486328125e-06 Z" stroke="none" fill="#6a6b75"/>
    </g>
    <g id="Elipse_41" data-name="Elipse 41" transform="translate(176.335 657.499)" fill="none" stroke="#6a6b75" stroke-width="1.5">
      <circle cx="2.087" cy="2.087" r="2.087" stroke="none"/>
      <circle cx="2.087" cy="2.087" r="1.337" fill="none"/>
    </g>
    <line id="Línea_144" data-name="Línea 144" y2="3.437" transform="translate(178.422 660.944)" fill="none" stroke="#6a6b75" stroke-width="1.5"/>
    <line id="Línea_146" data-name="Línea 146" y1="1.392" transform="translate(178.422 652)" fill="none" stroke="#6a6b75" stroke-linecap="round" stroke-width="1.5"/>
    <path id="Trazado_682" data-name="Trazado 682" d="M0,1.69,1.411,0" transform="translate(182.926 654.435)" fill="none" stroke="#6a6b75" stroke-linecap="round" stroke-width="1.5"/>
    <path id="Trazado_681" data-name="Trazado 681" d="M.814,1.836,0,0" transform="translate(172.526 654.678) rotate(-20)" fill="none" stroke="#6a6b75" stroke-linecap="round" stroke-width="1.5"/>
    <g id="Rectángulo_3191" data-name="Rectángulo 3191" transform="translate(175.431 664.458)" fill="none" stroke="#6a6b75" stroke-width="1.5">
      <rect width="6" height="5" rx="2" stroke="none"/>
      <rect x="0.75" y="0.75" width="4.5" height="3.5" rx="1.25" fill="none"/>
    </g>
  </g>
</svg>
