<svg id="Ico-inv-gas-air_" data-name="Ico-inv-gas-air " xmlns="http://www.w3.org/2000/svg" width="20" height="20" viewBox="0 0 20 20">
  <rect id="Rectángulo_3184" data-name="Rectángulo 3184" width="20" height="20" fill="none"/>
  <g id="Grupo_7904" data-name="Grupo 7904" transform="translate(-411.334 -548.915)">
    <path id="Trazado_2827" data-name="Trazado 2827" d="M412.785,561.612h3.737v-2.94a4.337,4.337,0,0,0,.735.074,4.242,4.242,0,0,0,.818-.083v2.949h11.833a.75.75,0,0,0,0-1.5h-4.7v-.932h-2.029v.932h-3.6v-2.054a4.317,4.317,0,1,0-4.553.045v2.009h-2.237a.75.75,0,0,0,0,1.5Zm4.472-9.989a2.811,2.811,0,1,1-2.812,2.812A2.815,2.815,0,0,1,417.257,551.623Z" fill="#6a6b75"/>
    <path id="Trazado_2828" data-name="Trazado 2828" d="M429.908,564.586H412.785a.75.75,0,0,0,0,1.5h17.123a.75.75,0,0,0,0-1.5Z" fill="#6a6b75"/>
    <path id="Trazado_2829" data-name="Trazado 2829" d="M417.6,555.22a.826.826,0,0,0,.4-1.1l-.75-1.627-.75,1.627a.826.826,0,0,0,1.1,1.1Z" fill="#6a6b75"/>
    <path id="Trazado_2830" data-name="Trazado 2830" d="M426.118,558.032l1.141-.738h1.886a.5.5,0,0,0,0-1h-2.181l-1.86,1.2H422.27v1.682h3.848Z" fill="#6a6b75"/>
  </g>
</svg>
