<svg id="Ico-inv-heating" xmlns="http://www.w3.org/2000/svg" width="20" height="20" viewBox="0 0 20 20">
  <rect id="Rectángulo_3189" data-name="Rectángulo 3189" width="20" height="20" fill="none"/>
  <circle id="Elipse_580" data-name="Elipse 580" cx="1.674" cy="1.674" r="1.674" transform="translate(5.063 12.402)" fill="#6a6b75"/>
  <path id="Trazado_2838" data-name="Trazado 2838" d="M420.2,591.992v-7.208a2.123,2.123,0,0,0-2.122-2.123h0a2.123,2.123,0,0,0-2.122,2.123v7.208a3.867,3.867,0,1,0,4.244,0Z" transform="translate(-411.346 -581.145)" fill="none" stroke="#6a6b75" stroke-linecap="round" stroke-miterlimit="10" stroke-width="1.5"/>
  <line id="Línea_1463" data-name="Línea 1463" y1="7.881" transform="translate(6.737 6.194)" fill="none" stroke="#6a6b75" stroke-linecap="round" stroke-miterlimit="10" stroke-width="1"/>
  <path id="Trazado_2839" data-name="Trazado 2839" d="M428.924,590.595l1.41-1.176-1.7-.682.978-1.553-1.832-.122.45-1.78-1.779.45-.122-1.832-1.554.978-.682-1.7-1.176,1.41-1.071-1.285v2.8a4.623,4.623,0,1,1,1.922,9.041c0,.027,0,.052,0,.079a5.955,5.955,0,0,1-.347,1.994l.668.8.682-1.705,1.554.978.122-1.831,1.779.45-.45-1.78,1.832-.122-.978-1.554,1.7-.682Z" transform="translate(-411.346 -581.145)" fill="#6a6b75"/>
</svg>
