<svg xmlns="http://www.w3.org/2000/svg" xmlns:xlink="http://www.w3.org/1999/xlink" width="20" height="20" viewBox="0 0 20 20"><defs><clipPath id="a"><rect width="20" height="20" fill="none"/></clipPath></defs><g clip-path="url(#a)"><path d="M7.134,0H20V20H0V0H3.859C3.8.476,3.726.951,3.671,1.428A.351.351,0,0,1,3.5,1.7a.487.487,0,0,1-.552.025c-.394-.177-.8-.328-1.21-.494L.1,4.07l1.143.892a.466.466,0,0,1,0,.681L.1,6.535c.548.949,1.088,1.886,1.638,2.837.074-.029.139-.054.2-.081.391-.158.781-.318,1.172-.473a.261.261,0,0,1,.18-.023c.2.1.428.183.394.48a.636.636,0,0,0,.019.154c.055.389.11.778.165,1.164H7.145c.011-.066.021-.123.029-.18.059-.424.116-.848.179-1.272a.468.468,0,0,1,.569-.32l1.359.551,1.638-2.839L9.78,5.645a.446.446,0,0,1,0-.687l1.138-.887c-.552-.956-1.1-1.9-1.641-2.839-.47.192-.914.373-1.359.551-.057.023-.136.054-.181.033-.215-.1-.4-.2-.42-.508C7.294.87,7.2.436,7.134,0m3.19,10.237c-.566.979-1.125,1.948-1.688,2.924l1.2.935a.5.5,0,0,1,0,.718l-1.195.931,1.689,2.925,1.352-.548a.494.494,0,0,1,.684.4c.063.475.132.949.2,1.43h3.38c.069-.5.137-.986.2-1.475a.515.515,0,0,1,.633-.376l1.4.57,1.689-2.925c-.407-.317-.8-.619-1.185-.923a.5.5,0,0,1-.009-.728c.393-.308.787-.615,1.194-.932l-1.689-2.924-1.371.557a.5.5,0,0,1-.664-.388c-.064-.482-.133-.963-.2-1.451h-3.38c-.069.5-.138.988-.2,1.477a.506.506,0,0,1-.63.371l-1.4-.566M7.389,16.932,5.472,15.045l-.823.836.5.416a3,3,0,0,1-.608.035,1.726,1.726,0,0,1-1.657-1.546c-.043-.51-.02-1.025-.026-1.538,0-.147,0-.3,0-.445H1.7c0,.684-.029,1.353.008,2.019a2.749,2.749,0,0,0,1.14,2.085,2.859,2.859,0,0,0,1.814.6h.466c.012.025.025.051.038.076l-.469.39.792.815,1.9-1.854M14.963,3.686l.028-.06h.4a1.765,1.765,0,0,1,1.865,1.852c0,.494,0,.987,0,1.481,0,.068.006.136.009.2h1.16c0-.367.006-.723,0-1.079a7.909,7.909,0,0,0-.05-1.185A2.9,2.9,0,0,0,15.44,2.456h-.455L14.96,2.4l.466-.42-.784-.8L12.7,3.078l1.88,1.876.843-.853-.461-.415" fill="#fff"/><path d="M7.134,0c.065.435.16.87.185,1.308.018.3.205.406.42.507.045.022.124-.009.181-.032.445-.178.889-.36,1.359-.551L10.92,4.07l-1.138.887a.447.447,0,0,0,0,.688l1.139.887c-.544.944-1.087,1.884-1.638,2.839L7.922,8.82a.469.469,0,0,0-.569.321c-.063.423-.12.848-.179,1.272-.008.057-.018.113-.029.18H3.869c-.055-.386-.11-.776-.165-1.165a.63.63,0,0,1-.019-.154c.034-.3-.2-.376-.394-.479a.255.255,0,0,0-.18.022c-.391.155-.781.315-1.172.474l-.2.08L.1,6.534,1.24,5.642a.464.464,0,0,0,0-.68L.1,4.069,1.736,1.231c.41.166.816.317,1.21.5A.485.485,0,0,0,3.5,1.7a.352.352,0,0,0,.173-.273C3.726.95,3.8.475,3.859,0Zm-1,1.182H4.886c-.052.371-.108.73-.151,1.09a.267.267,0,0,1-.173.223c-.342.182-.68.373-1.007.581a.278.278,0,0,1-.3.037c-.332-.142-.67-.274-1.017-.415L1.62,3.773c.3.235.584.463.876.68a.258.258,0,0,1,.109.262,5.773,5.773,0,0,0-.016,1.026.465.465,0,0,1-.22.512c-.26.178-.5.384-.75.579l.622,1.073c.357-.145.7-.289,1.044-.416a.33.33,0,0,1,.239.029q.536.292,1.057.608a.328.328,0,0,1,.143.195c.064.363.11.729.163,1.1H6.13c.05-.358.105-.71.145-1.064a.29.29,0,0,1,.191-.254,11.067,11.067,0,0,0,.974-.561A.315.315,0,0,1,7.789,7.5c.323.144.655.268.989.4L9.4,6.831c-.288-.226-.565-.45-.851-.663a.292.292,0,0,1-.133-.288c.018-.387.016-.776,0-1.163a.279.279,0,0,1,.122-.275c.291-.216.574-.444.863-.669L8.776,2.7c-.347.14-.674.265-.994.406a.3.3,0,0,1-.332-.039A10.441,10.441,0,0,0,6.478,2.5a.316.316,0,0,1-.206-.285c-.038-.347-.094-.692-.143-1.036" fill="#4d4d4d"/><path d="M10.324,10.236l1.4.567a.506.506,0,0,0,.63-.371c.066-.489.134-.977.2-1.477h3.38c.068.488.138.969.2,1.451a.5.5,0,0,0,.664.388l1.371-.557,1.688,2.924-1.193.932a.5.5,0,0,0,.009.728l1.184.923-1.688,2.925-1.4-.57a.517.517,0,0,0-.634.376c-.065.488-.134.977-.2,1.475h-3.38c-.068-.481-.138-.955-.2-1.43a.494.494,0,0,0-.684-.4l-1.352.548L8.636,15.745l1.194-.931a.5.5,0,0,0,.005-.718l-1.2-.935c.564-.976,1.123-1.945,1.688-2.925m-.166,2.627c.31.242.6.478.9.7a.3.3,0,0,1,.13.292c-.014.394-.016.788,0,1.182a.315.315,0,0,1-.136.309c-.3.223-.594.458-.9.694l.671,1.161c.372-.151.727-.291,1.079-.44a.265.265,0,0,1,.281.03c.35.22.71.425,1.074.62a.243.243,0,0,1,.155.213c.047.385.107.768.162,1.155h1.34c.055-.387.115-.765.16-1.144a.256.256,0,0,1,.165-.226q.54-.285,1.057-.611a.282.282,0,0,1,.3-.036c.351.15.706.29,1.071.438.226-.39.445-.77.67-1.16-.313-.245-.612-.484-.918-.713a.273.273,0,0,1-.117-.26c.012-.407.013-.815,0-1.221a.284.284,0,0,1,.123-.276c.306-.228.6-.467.911-.708l-.671-1.16c-.38.154-.74.3-1.1.449a.235.235,0,0,1-.246-.028c-.357-.22-.726-.421-1.085-.638a.328.328,0,0,1-.15-.188c-.067-.389-.116-.78-.173-1.176H13.58c-.055.389-.118.767-.159,1.146a.276.276,0,0,1-.184.237c-.353.189-.7.387-1.039.6a.277.277,0,0,1-.3.031c-.351-.148-.707-.287-1.074-.434l-.67,1.158" fill="#4d4d4d"/><path d="M7.389,16.932l-1.9,1.854L4.7,17.971l.469-.391L5.132,17.5H4.666a2.859,2.859,0,0,1-1.814-.6,2.756,2.756,0,0,1-1.14-2.085c-.037-.666-.007-1.335-.007-2.019H2.858c0,.15,0,.3,0,.445.006.512-.017,1.028.026,1.537a1.727,1.727,0,0,0,1.657,1.547A3.009,3.009,0,0,0,5.15,16.3l-.5-.416.823-.836,1.917,1.887" fill="#4d4d4d"/><path d="M14.963,3.686l.461.415-.843.853L12.7,3.078l1.941-1.9.784.8-.466.42.025.055h.455A2.9,2.9,0,0,1,18.377,4.9a7.909,7.909,0,0,1,.05,1.185c.007.356,0,.712,0,1.079h-1.16c0-.066-.009-.134-.009-.2,0-.494,0-.987,0-1.481a1.765,1.765,0,0,0-1.865-1.852h-.4l-.028.06" fill="#4d4d4d"/><path d="M6.13,1.183c.048.343.105.688.143,1.035a.317.317,0,0,0,.206.286,10.222,10.222,0,0,1,.972.563.3.3,0,0,0,.332.039c.32-.141.647-.266.993-.406.207.356.41.707.622,1.074-.289.225-.571.452-.862.669a.278.278,0,0,0-.122.274c.016.388.018.777,0,1.164a.29.29,0,0,0,.133.288c.285.213.563.437.85.662L8.778,7.9c-.333-.134-.666-.258-.988-.4a.314.314,0,0,0-.349.044,11.057,11.057,0,0,1-.974.56.292.292,0,0,0-.192.254c-.04.354-.1.707-.145,1.064H4.888c-.053-.374-.1-.74-.163-1.1a.327.327,0,0,0-.143-.194Q4.06,7.81,3.524,7.519a.322.322,0,0,0-.238-.029c-.347.127-.687.271-1.044.415L1.62,6.833c.25-.2.49-.4.749-.58a.462.462,0,0,0,.22-.512,5.775,5.775,0,0,1,.017-1.026.26.26,0,0,0-.11-.262c-.291-.216-.574-.444-.876-.68L2.241,2.7c.347.141.684.272,1.017.415a.279.279,0,0,0,.3-.038c.327-.207.665-.4,1.006-.58a.265.265,0,0,0,.173-.224c.043-.36.1-.718.152-1.089ZM7.258,5.289a1.753,1.753,0,1,0-1.746,1.76,1.723,1.723,0,0,0,1.746-1.76" fill="#fff"/><path d="M10.158,12.863c.229-.4.446-.772.67-1.158.367.147.722.285,1.074.434a.277.277,0,0,0,.3-.031c.337-.216.686-.414,1.038-.6a.272.272,0,0,0,.184-.236c.042-.38.1-.757.16-1.146h1.339c.056.4.106.787.172,1.175a.335.335,0,0,0,.15.189c.359.217.729.417,1.086.638a.234.234,0,0,0,.245.028c.358-.151.719-.3,1.1-.449l.671,1.16c-.309.241-.606.48-.912.707a.284.284,0,0,0-.123.276c.013.407.011.815,0,1.222a.271.271,0,0,0,.117.26c.306.229.6.468.917.712l-.67,1.161c-.365-.148-.72-.288-1.07-.438a.282.282,0,0,0-.3.036q-.516.326-1.057.611a.256.256,0,0,0-.165.226c-.046.379-.1.756-.161,1.144H13.58c-.056-.388-.116-.771-.162-1.155a.244.244,0,0,0-.155-.213c-.365-.195-.724-.4-1.074-.62a.265.265,0,0,0-.282-.03c-.351.149-.706.289-1.078.44-.224-.386-.443-.766-.672-1.161.3-.236.6-.471.9-.694a.316.316,0,0,0,.137-.309c-.015-.394-.014-.789,0-1.182a.3.3,0,0,0-.129-.292c-.3-.224-.594-.46-.9-.7m4.1,3.293A1.717,1.717,0,0,0,16,14.4a1.751,1.751,0,0,0-3.5-.006,1.718,1.718,0,0,0,1.757,1.765" fill="#fff"/><path d="M7.258,5.288a1.753,1.753,0,1,1-3.5-.012,1.753,1.753,0,0,1,3.5.012m-1.17.018a.572.572,0,0,0-.571-.586.585.585,0,0,0-.6.587.6.6,0,0,0,.586.579.582.582,0,0,0,.58-.58" fill="#4d4d4d"/><path d="M14.256,16.156A1.719,1.719,0,0,1,12.5,14.391,1.751,1.751,0,0,1,16,14.4a1.719,1.719,0,0,1-1.745,1.759m-.014-2.32a.566.566,0,0,0-.573.585.581.581,0,1,0,1.162-.015.567.567,0,0,0-.589-.57" fill="#4d4d4d"/><path d="M6.088,5.306a.582.582,0,0,1-.58.58.6.6,0,0,1-.586-.579.585.585,0,0,1,.6-.587.572.572,0,0,1,.571.586" fill="#fff"/><path d="M14.242,13.836a.567.567,0,0,1,.589.57.581.581,0,1,1-1.162.015.566.566,0,0,1,.573-.585" fill="#fff"/></g></svg>