<svg xmlns="http://www.w3.org/2000/svg" width="20" height="20" viewBox="0 0 20 20"><g transform="translate(-522.043 -581.274)"><g transform="translate(522.043 581.274)"><g transform="translate(-522.043 -581.274)"><rect width="20" height="20" transform="translate(522.043 581.274)" fill="none"/></g><path d="M538.975,597.163h-4.919v3h4.919v-3Z" transform="translate(-522.043 -581.274)" fill="#6a6b75"/><path d="M529.861,597.163h-4.919v3h4.919v-3Z" transform="translate(-522.043 -581.274)" fill="#6a6b75"/><path d="M539.373,587.167H538.06v-2.7a.694.694,0,0,0-.694-.694h-7.879a.694.694,0,0,0-.694.694v2.7h-4.1a1.662,1.662,0,0,0-1.662,1.662v8.676a1.662,1.662,0,0,0,1.662,1.662h14.676a1.662,1.662,0,0,0,1.662-1.662v-8.676A1.662,1.662,0,0,0,539.373,587.167Zm-6.624-2.445a1,1,0,0,1,1.851.759l-.655,1.595h1.876l-1.71,4.412a1,1,0,0,1-.932.639,1.021,1.021,0,0,1-.362-.067,1,1,0,0,1-.571-1.294l.655-1.69h-1.938Zm6.286,12.445h-14v-8h3.758V592.1a.694.694,0,0,0,.694.694h7.879a.694.694,0,0,0,.694-.694v-2.935h.975Z" transform="translate(-522.043 -581.274)" fill="#6a6b75"/><path d="M530.742,593.644h-1v2.371h1v-2.371Z" transform="translate(-522.043 -581.274)" fill="#6a6b75"/><path d="M528.912,593.644h-1v2.371h1v-2.371Z" transform="translate(-522.043 -581.274)" fill="#6a6b75"/><path d="M527.081,593.644h-1v2.371h1v-2.371Z" transform="translate(-522.043 -581.274)" fill="#6a6b75"/></g></g></svg>