<svg id="Ico-inv-alarm" xmlns="http://www.w3.org/2000/svg" width="20" height="20" viewBox="0 0 20 20">
  <rect id="Rectángulo_3176" data-name="Rectángulo 3176" width="20" height="20" fill="none"/>
  <g id="Grupo_7896" data-name="Grupo 7896" transform="translate(-411.334 -517.603)">
    <path id="Trazado_2819" data-name="Trazado 2819" d="M427.049,533.538H415.618L417,526.306a2.093,2.093,0,0,1,2.053-1.7h4.563a2.093,2.093,0,0,1,2.053,1.7Zm-9.617-1.5h7.8l-1.041-5.451a.592.592,0,0,0-.58-.481h-4.563a.591.591,0,0,0-.579.481Z" fill="#6a6b75"/>
  </g>
  <g id="Grupo_7897" data-name="Grupo 7897" transform="translate(-411.334 -517.603)">
    <path id="Trazado_2820" data-name="Trazado 2820" d="M428.413,536.031H414.254v-.75a3.247,3.247,0,0,1,3.244-3.243h7.672a3.247,3.247,0,0,1,3.243,3.243Zm-12.489-1.5h10.819a1.744,1.744,0,0,0-1.573-.993H417.5A1.746,1.746,0,0,0,415.924,534.531Z" fill="#6a6b75"/>
  </g>
  <g id="Grupo_7898" data-name="Grupo 7898" transform="translate(-411.334 -517.603)">
    <path id="Trazado_2821" data-name="Trazado 2821" d="M423.292,529.822a.749.749,0,0,1-.728-.573l-.27-1.111h-.782a.75.75,0,0,1,0-1.5h1.372a.75.75,0,0,1,.729.573l.409,1.685a.749.749,0,0,1-.552.905A.774.774,0,0,1,423.292,529.822Z" fill="#6a6b75"/>
  </g>
  <g id="Grupo_7899" data-name="Grupo 7899" transform="translate(-411.334 -517.603)">
    <path id="Trazado_2822" data-name="Trazado 2822" d="M421.333,522.95a.75.75,0,0,1-.75-.75v-2.5a.75.75,0,0,1,1.5,0v2.5A.75.75,0,0,1,421.333,522.95Z" fill="#6a6b75"/>
  </g>
  <g id="Grupo_7900" data-name="Grupo 7900" transform="translate(-411.334 -517.603)">
    <path id="Trazado_2823" data-name="Trazado 2823" d="M416.652,524.889a.75.75,0,0,1-.53-.22l-1.768-1.768a.75.75,0,0,1,1.061-1.06l1.768,1.767a.75.75,0,0,1-.531,1.281Z" fill="#6a6b75"/>
  </g>
  <g id="Grupo_7901" data-name="Grupo 7901" transform="translate(-411.334 -517.603)">
    <path id="Trazado_2824" data-name="Trazado 2824" d="M414.713,529.57h-2.5a.75.75,0,0,1,0-1.5h2.5a.75.75,0,0,1,0,1.5Z" fill="#6a6b75"/>
  </g>
  <g id="Grupo_7902" data-name="Grupo 7902" transform="translate(-411.334 -517.603)">
    <path id="Trazado_2825" data-name="Trazado 2825" d="M430.455,529.57h-2.5a.75.75,0,0,1,0-1.5h2.5a.75.75,0,0,1,0,1.5Z" fill="#6a6b75"/>
  </g>
  <g id="Grupo_7903" data-name="Grupo 7903" transform="translate(-411.334 -517.603)">
    <path id="Trazado_2826" data-name="Trazado 2826" d="M426.015,524.889a.75.75,0,0,1-.531-1.281l1.769-1.767a.75.75,0,1,1,1.06,1.06l-1.768,1.768A.75.75,0,0,1,426.015,524.889Z" fill="#6a6b75"/>
  </g>
</svg>
