<svg id="Ico-inv-cables" xmlns="http://www.w3.org/2000/svg" width="20" height="20" viewBox="0 0 20 20">
  <rect id="Rectángulo_3185" data-name="Rectángulo 3185" width="20" height="20" fill="none"/>
  <path id="Trazado_2831" data-name="Trazado 2831" d="M455.611,556.627" transform="translate(-438.424 -548.915)" fill="none" stroke="#6a6b75" stroke-miterlimit="10" stroke-width="1.5"/>
  <path id="Trazado_2832" data-name="Trazado 2832" d="M452.306,566.492h-8.619a2.467,2.467,0,0,1-2.466-2.466h0a2.467,2.467,0,0,1,2.466-2.467h9.458a2.466,2.466,0,0,0,2.466-2.466h0a2.466,2.466,0,0,0-2.466-2.466h-9.458a2.466,2.466,0,0,1-2.466-2.466h0a2.466,2.466,0,0,1,2.466-2.466h8.619" transform="translate(-438.424 -548.915)" fill="none" stroke="#6a6b75" stroke-miterlimit="10" stroke-width="1.5"/>
  <path id="Trazado_2833" data-name="Trazado 2833" d="M455.611,561.728" transform="translate(-438.424 -548.915)" fill="none" stroke="#6a6b75" stroke-miterlimit="10" stroke-width="1.5"/>
  <path id="Rectángulo_3186" data-name="Rectángulo 3186" d="M1.169,0h1.7a0,0,0,0,1,0,0V2.339a0,0,0,0,1,0,0h-1.7A1.169,1.169,0,0,1,0,1.169v0A1.169,1.169,0,0,1,1.169,0Z" transform="translate(13.781 16.178)" fill="none" stroke="#6a6b75" stroke-miterlimit="10" stroke-width="1.5"/>
  <path id="Rectángulo_3187" data-name="Rectángulo 3187" d="M1.169,0h1.7a0,0,0,0,1,0,0V2.339a0,0,0,0,1,0,0h-1.7A1.169,1.169,0,0,1,0,1.169v0A1.169,1.169,0,0,1,1.169,0Z" transform="translate(13.781 1.539)" fill="none" stroke="#6a6b75" stroke-miterlimit="10" stroke-width="1.5"/>
</svg>
