<svg id="Ico-inv-fire-extinguishing_" data-name="Ico-inv-fire-extinguishing " xmlns="http://www.w3.org/2000/svg" width="20" height="20" viewBox="0 0 20 20">
  <rect id="Rectángulo_3177" data-name="Rectángulo 3177" width="20" height="20" fill="none"/>
  <rect id="Rectángulo_3178" data-name="Rectángulo 3178" width="6.597" height="8.932" transform="translate(7.108 7.014)" fill="none" stroke="#6a6b75" stroke-miterlimit="10" stroke-width="1.5"/>
  <path id="Rectángulo_3179" data-name="Rectángulo 3179" d="M3.251,0h.1A3.251,3.251,0,0,1,6.6,3.251v0a0,0,0,0,1,0,0H0a0,0,0,0,1,0,0v0A3.251,3.251,0,0,1,3.251,0Z" transform="translate(7.108 1.332)" fill="none" stroke="#6a6b75" stroke-miterlimit="10" stroke-width="1.5"/>
  <rect id="Rectángulo_3180" data-name="Rectángulo 3180" width="9.343" height="2.431" rx="1.216" transform="translate(5.735 4.583)" fill="none" stroke="#6a6b75" stroke-miterlimit="10" stroke-width="1.5"/>
  <rect id="Rectángulo_3181" data-name="Rectángulo 3181" width="9.343" height="2.431" rx="1.216" transform="translate(5.735 15.901)" fill="none" stroke="#6a6b75" stroke-miterlimit="10" stroke-width="1.5"/>
  <circle id="Elipse_579" data-name="Elipse 579" cx="1.297" cy="1.297" r="1.297" transform="translate(9.11 9.664)" fill="none" stroke="#6a6b75" stroke-miterlimit="10" stroke-width="1.5"/>
  <path id="Rectángulo_3182" data-name="Rectángulo 3182" d="M1.3,0H3.051a0,0,0,0,1,0,0V2.593a0,0,0,0,1,0,0H1.3A1.3,1.3,0,0,1,0,1.3v0A1.3,1.3,0,0,1,1.3,0Z" transform="translate(4.057 9.664)" fill="none" stroke="#6a6b75" stroke-miterlimit="10" stroke-width="1.5"/>
  <path id="Rectángulo_3183" data-name="Rectángulo 3183" d="M0,0H1.754a1.3,1.3,0,0,1,1.3,1.3v0a1.3,1.3,0,0,1-1.3,1.3H0a0,0,0,0,1,0,0V0A0,0,0,0,1,0,0Z" transform="translate(13.705 9.664)" fill="none" stroke="#6a6b75" stroke-miterlimit="10" stroke-width="1.5"/>
</svg>
