<svg id="Ico-inv-sanitary-installation" xmlns="http://www.w3.org/2000/svg" width="20" height="20" viewBox="0 0 20 20">
  <rect id="Rectángulo_3188" data-name="Rectángulo 3188" width="20" height="20" fill="none"/>
  <g id="Grupo_7905" data-name="Grupo 7905" transform="translate(-438.424 -581.145)">
    <path id="Trazado_2834" data-name="Trazado 2834" d="M446.409,596.623c0,.948-.01,1.9.006,2.843,0,.279-.042.4-.364.388q-1.352-.038-2.7,0c-.322.009-.366-.109-.364-.388.011-1.865-.005-3.73.015-5.594,0-.374-.079-.5-.468-.483-.831.029-.832.007-.832-.817,0-1.253,0-2.506,0-3.759a1.683,1.683,0,0,1,1.848-1.844c.81,0,1.62-.008,2.43,0a1.684,1.684,0,0,1,1.714,1.708c.015,1.467,0,2.935.01,4.4,0,.269-.09.322-.339.324-.954.008-.954.017-.954.972Z" fill="none" stroke="#6a6b75" stroke-width="1.5"/>
    <path id="Trazado_2835" data-name="Trazado 2835" d="M448.57,594.692c.75-2.24,1.47-4.416,2.21-6.584a1.775,1.775,0,0,1,3.29-.061c.743,2.155,1.449,4.323,2.167,6.487a.571.571,0,0,1,0,.158c-.722,0-1.439.015-2.155-.007-.3-.01-.382.073-.379.374.016,1.468,0,2.937.013,4.4,0,.282-.044.406-.368.39-.61-.029-1.223-.024-1.834,0-.281.01-.359-.063-.355-.351.016-1.437-.006-2.875.016-4.312.006-.381-.054-.538-.486-.51C450.006,594.725,449.317,594.692,448.57,594.692Z" fill="none" stroke="#6a6b75" stroke-width="1.5"/>
    <path id="Trazado_2836" data-name="Trazado 2836" d="M442.99,584.39a1.672,1.672,0,0,1,1.687-1.729,1.706,1.706,0,1,1,.045,3.411A1.672,1.672,0,0,1,442.99,584.39Z" fill="none" stroke="#6a6b75" stroke-width="1.5"/>
    <path id="Trazado_2837" data-name="Trazado 2837" d="M454.137,584.372a1.672,1.672,0,0,1-1.715,1.7,1.706,1.706,0,1,1,.009-3.411A1.673,1.673,0,0,1,454.137,584.372Z" fill="none" stroke="#6a6b75" stroke-width="1.5"/>
  </g>
</svg>
