<svg id="ic_modulos_exportImport" xmlns="http://www.w3.org/2000/svg" width="74" height="58" viewBox="0 0 74 58">
  <rect id="Rectángulo_3093" data-name="Rectángulo 3093" width="74" height="58" fill="none"/>
  <g id="Grupo_7858" data-name="Grupo 7858" transform="translate(-511.01 -331.397)">
    <g id="Grupo_7835" data-name="Grupo 7835">
      <g id="Rectángulo_3094" data-name="Rectángulo 3094">
        <g id="Grupo_7831" data-name="Grupo 7831">
          <path id="Trazado_2732" data-name="Trazado 2732" d="M550.73,337.238h26a2,2,0,0,1,2,2v16h-30v-16A2,2,0,0,1,550.73,337.238Z" fill="none"/>
        </g>
        <g id="Grupo_7832" data-name="Grupo 7832">
          <path id="Trazado_2733" data-name="Trazado 2733" d="M578.73,355.238h-30v-16a2,2,0,0,1,2-2h26a2,2,0,0,1,2,2Zm-28-2h26v-14h-26Z" fill="#707070"/>
        </g>
      </g>
      <g id="Rectángulo_3095" data-name="Rectángulo 3095">
        <g id="Grupo_7833" data-name="Grupo 7833">
          <path id="Trazado_2734" data-name="Trazado 2734" d="M546.23,355.238h35a1.5,1.5,0,0,1,1.5,1.5h0a1.5,1.5,0,0,1-1.5,1.5h-35a1.5,1.5,0,0,1-1.5-1.5h0A1.5,1.5,0,0,1,546.23,355.238Z" fill="none"/>
        </g>
        <g id="Grupo_7834" data-name="Grupo 7834">
          <path id="Trazado_2735" data-name="Trazado 2735" d="M581.23,358.238h-35a1.5,1.5,0,0,1,0-3h35a1.5,1.5,0,0,1,0,3Z" fill="#707070"/>
        </g>
      </g>
      <g id="Elipse_558" data-name="Elipse 558">
        <circle id="Elipse_558-2" data-name="Elipse 558" cx="1" cy="1" r="1" transform="translate(562.73 354.238)" fill="#fff"/>
      </g>
    </g>
    <g id="Grupo_7836" data-name="Grupo 7836">
      <path id="Trazado_2736" data-name="Trazado 2736" d="M531.323,358.933c-.56.3-2.593,1.222-1.475,2.39s2.6.808,2.159,2.339A3.631,3.631,0,0,1,529.035,366c-.966.153-3.441.586-3.661,1.424s-.934,2.521-.631,3.34a4.482,4.482,0,0,0,2.766,2.185c.81-.005,7.068-1.508,7.576-2.626s1.577-3.255,2.746-3.153,4.068.488,4.068.488l-2.8-5.878-5.51-2.39Z" fill="#58e5a9"/>
    </g>
    <g id="Grupo_7837" data-name="Grupo 7837">
      <path id="Trazado_2737" data-name="Trazado 2737" d="M514.436,370.583c.565.35,3.964,3.454,3.964,3.454l-1.545,1.688h-2.769Z" fill="#58e5a9"/>
    </g>
    <g id="Grupo_7838" data-name="Grupo 7838">
      <path id="Trazado_2738" data-name="Trazado 2738" d="M530.611,386.339c0-.2,1.322-3.864.407-4.627s-2.075-3-1.882-3.574a3.635,3.635,0,0,1,2.535-1.606c1.069-.121,4.746-.543,5.245-.129s3.794,3.853,3.794,3.853l-4.3,4.151-3.661,2.644Z" fill="#58e5a9"/>
    </g>
    <g id="Grupo_7839" data-name="Grupo 7839">
      <path id="Trazado_2739" data-name="Trazado 2739" d="M528.7,388.052A15.407,15.407,0,1,1,544.1,372.645,15.425,15.425,0,0,1,528.7,388.052Zm0-28.814A13.407,13.407,0,1,0,542.1,372.645,13.422,13.422,0,0,0,528.7,359.238Z" fill="#707070"/>
    </g>
    <g id="Grupo_7840" data-name="Grupo 7840">
      <path id="Trazado_2740" data-name="Trazado 2740" d="M528.041,373.952a4.579,4.579,0,0,1-3.416-1.236,3.71,3.71,0,0,1-.86-1.746,4.575,4.575,0,0,1,1.268-4.177,4.288,4.288,0,0,1,2.763-1.026,8.894,8.894,0,0,0,.99-.147l.154-.023a4.722,4.722,0,0,0,1.767-.914c0-.052-.093-.411-.124-.529-.09-.345-.277-1.064-.586-1.213a2,2,0,0,0-.955.026,6.187,6.187,0,0,1-1,.1h-.013a3.512,3.512,0,0,1-1.908-.579,1.425,1.425,0,0,1-.121-2.373c.188-.189.484-.522.8-.88.534-.6,1.087-1.217,1.445-1.531l1.32,1.5c-.267.235-.825.859-1.273,1.361-.153.172-.3.338-.438.488a.876.876,0,0,0,.184.012,4.688,4.688,0,0,0,.688-.078,3.459,3.459,0,0,1,2.138.148,3.562,3.562,0,0,1,1.652,2.51,2.768,2.768,0,0,1-.067,2,5.5,5.5,0,0,1-3.28,1.93,11.112,11.112,0,0,1-1.157.171,2.17,2.17,0,0,0-2.293,2.8,1.725,1.725,0,0,0,.381.809,3.034,3.034,0,0,0,2.421.569,1.309,1.309,0,0,0,.68-.146,1.339,1.339,0,0,1-.048-.331,2.046,2.046,0,0,1,.508-1.815,2.109,2.109,0,0,1,1.047-.487,3.767,3.767,0,0,1,3.059.3,3.934,3.934,0,0,1,.9.992,2.186,2.186,0,0,0,.41.489,1.372,1.372,0,0,0,.488-.5l.125-.187a3.364,3.364,0,0,1,1.622-1.505,5.379,5.379,0,0,1,2.7.067,4.624,4.624,0,0,0,1.7.143l.781,1.841a5.107,5.107,0,0,1-2.85-.018,4.874,4.874,0,0,0-1.655-.15c-.194.07-.423.417-.626.724l-.138.207a2.541,2.541,0,0,1-2.473,1.349,2.661,2.661,0,0,1-1.713-1.307,2.539,2.539,0,0,0-.435-.523c-.316-.227-1.061-.063-1.462.025h-.007c0,.058.009.118.013.168a2.726,2.726,0,0,1-.111,1.286c-.225.577-.825,1.283-2.405,1.368C528.489,373.941,528.285,373.952,528.041,373.952Z" fill="#707070"/>
    </g>
    <g id="Grupo_7841" data-name="Grupo 7841">
      <path id="Trazado_2741" data-name="Trazado 2741" d="M533.86,386.144l-1.973-.332a3.725,3.725,0,0,0-.335-1.647,4.357,4.357,0,0,0-1.366-.346l-1.819-.268a3.352,3.352,0,0,1-2.47-1.249,3.281,3.281,0,0,1-.423-1.885l.047-.3,1.078-3.4.494-.156a2.507,2.507,0,0,1,1.136-.081,2.362,2.362,0,0,0,1.879-.218c.112-.06.219-.13.327-.2a4.079,4.079,0,0,1,.908-.481,4.182,4.182,0,0,1,1.394-.176l3.425-.008a2.287,2.287,0,0,1,2.215,1.016,9.545,9.545,0,0,0,2.271,1.739c.219.136.425.264.609.384l-1.093,1.676c-.173-.113-.367-.235-.573-.363a10.776,10.776,0,0,1-2.737-2.136l-.069-.09a1.866,1.866,0,0,0-.163-.2,2.141,2.141,0,0,0-.456-.029l-3.424.008a2.62,2.62,0,0,0-.743.066,2.555,2.555,0,0,0-.475.268c-.154.1-.309.2-.471.286a4.141,4.141,0,0,1-2.919.465l-.66,2.081a1.453,1.453,0,0,0,.1.629c.149.228.807.325,1.089.366l1.819.268a5.674,5.674,0,0,1,2.173.65C533.726,383.14,533.989,385.374,533.86,386.144Z" fill="#707070"/>
    </g>
    <g id="Grupo_7842" data-name="Grupo 7842">
      <path id="Trazado_2742" data-name="Trazado 2742" d="M515.627,377.5l-.782-1.841c.509-.216,1.609-.852,2.266-1.231l.295-.17a3.163,3.163,0,0,0-1.08-1.338,2.73,2.73,0,0,1-.791-.766,2.169,2.169,0,0,1,.034-2.2,5.2,5.2,0,0,1,.544-.775c.087-.107.174-.214.252-.326a3.052,3.052,0,0,0-.231-3l1.675-1.093a4.981,4.981,0,0,1,.2,5.234c-.1.15-.219.294-.335.437a3.632,3.632,0,0,0-.346.479.5.5,0,0,0-.071.233c0-.021.109.055.182.108a5.1,5.1,0,0,1,1.914,2.472,1.811,1.811,0,0,1-.061,1.469,1.92,1.92,0,0,1-.789.74l-.388.224C517.326,376.611,516.249,377.232,515.627,377.5Zm1.987-3.366Z" fill="#707070"/>
    </g>
    <g id="Grupo_7849" data-name="Grupo 7849">
      <g id="Grupo_7843" data-name="Grupo 7843">
        <path id="Trazado_2743" data-name="Trazado 2743" d="M559.89,378.761a1,1,0,0,1-.734-1.68,13.361,13.361,0,0,0,3.574-9.113,1,1,0,0,1,2,0,15.358,15.358,0,0,1-4.107,10.473A1,1,0,0,1,559.89,378.761Z" fill="#707070"/>
      </g>
      <g id="Grupo_7847" data-name="Grupo 7847">
        <g id="Grupo_7844" data-name="Grupo 7844">
          <path id="Trazado_2744" data-name="Trazado 2744" d="M549.32,383.37a.985.985,0,0,1-.38-.07,1.015,1.015,0,0,1-.32-.22,1,1,0,0,1-.3-.71.976.976,0,0,1,.3-.7,1.034,1.034,0,0,1,1.41,0,.929.929,0,0,1,.29.7.99.99,0,0,1-1,1Z" fill="#707070"/>
        </g>
        <g id="Grupo_7845" data-name="Grupo 7845">
          <path id="Trazado_2745" data-name="Trazado 2745" d="M551.16,382.29a1,1,0,0,1,.79-1.17h0a.987.987,0,0,1,1.17.78h0a1,1,0,0,1-.78,1.18h0a1.354,1.354,0,0,1-.2.02h0A1.011,1.011,0,0,1,551.16,382.29Zm2.77-.63a1,1,0,0,1,.54-1.31h0a.993.993,0,0,1,1.3.54h0a1,1,0,0,1-.54,1.31h0a1,1,0,0,1-.38.08h0A1.008,1.008,0,0,1,553.93,381.66Zm2.58-1.16a1.017,1.017,0,0,1,.27-1.39h.01a.987.987,0,0,1,1.38.27h0a1,1,0,0,1-.27,1.39h0a1.023,1.023,0,0,1-.56.17h0A1.012,1.012,0,0,1,556.51,380.5Z" fill="#707070"/>
        </g>
        <g id="Grupo_7846" data-name="Grupo 7846">
          <path id="Trazado_2746" data-name="Trazado 2746" d="M559.53,379.14a1.052,1.052,0,0,1-.71-.29,1.014,1.014,0,0,1,0-1.42,1.119,1.119,0,0,1,.33-.22,1,1,0,1,1,.38,1.93Z" fill="#707070"/>
        </g>
      </g>
      <g id="Grupo_7848" data-name="Grupo 7848">
        <path id="Trazado_2747" data-name="Trazado 2747" d="M567.7,370.641a1,1,0,0,1-.707-.293l-3.26-3.259-3.259,3.259a1,1,0,0,1-1.414-1.414l4.673-4.673,4.674,4.673a1,1,0,0,1-.707,1.707Z" fill="#707070"/>
      </g>
    </g>
    <g id="Grupo_7856" data-name="Grupo 7856">
      <g id="Grupo_7850" data-name="Grupo 7850">
        <path id="Trazado_2748" data-name="Trazado 2748" d="M528.167,353.132a1,1,0,0,1-1-1,15.357,15.357,0,0,1,4.107-10.474,1,1,0,0,1,1.467,1.361,13.357,13.357,0,0,0-3.574,9.113A1,1,0,0,1,528.167,353.132Z" fill="#707070"/>
      </g>
      <g id="Grupo_7854" data-name="Grupo 7854">
        <g id="Grupo_7851" data-name="Grupo 7851">
          <path id="Trazado_2749" data-name="Trazado 2749" d="M542.57,338.73a1,1,0,0,1-.7-1.71,1.034,1.034,0,0,1,1.41,0,1,1,0,0,1,0,1.41A1,1,0,0,1,542.57,338.73Z" fill="#707070"/>
        </g>
        <g id="Grupo_7852" data-name="Grupo 7852">
          <path id="Trazado_2750" data-name="Trazado 2750" d="M533.72,340.72a1.01,1.01,0,0,1,.28-1.39h0a.994.994,0,0,1,1.38.27h0a1,1,0,0,1-.27,1.39h0a.939.939,0,0,1-.55.17h0A1,1,0,0,1,533.72,340.72Zm2.4-1.51a1,1,0,0,1,.54-1.31h0a1,1,0,0,1,1.31.54h0a1.008,1.008,0,0,1-.54,1.31h0a.986.986,0,0,1-.38.07h0A1.012,1.012,0,0,1,536.12,339.21Zm2.65-1.01a1.011,1.011,0,0,1,.79-1.18h0a1.009,1.009,0,0,1,1.18.79h0a1,1,0,0,1-.79,1.17h0a1.358,1.358,0,0,1-.2.02h0A1,1,0,0,1,538.77,338.2Z" fill="#707070"/>
        </g>
        <g id="Grupo_7853" data-name="Grupo 7853">
          <path id="Trazado_2751" data-name="Trazado 2751" d="M532.37,342.96a1.052,1.052,0,0,1-.71-.29,1.033,1.033,0,0,1-.29-.71,1.052,1.052,0,0,1,.29-.71,1.037,1.037,0,0,1,1.09-.21,1.155,1.155,0,0,1,.33.21,1.014,1.014,0,0,1,0,1.42,1.156,1.156,0,0,1-.33.21A.839.839,0,0,1,532.37,342.96Z" fill="#707070"/>
        </g>
      </g>
      <g id="Grupo_7855" data-name="Grupo 7855">
        <path id="Trazado_2752" data-name="Trazado 2752" d="M528.167,355.838l-4.674-4.672a1,1,0,0,1,1.414-1.415l3.26,3.259,3.259-3.259a1,1,0,0,1,1.414,1.415Z" fill="#707070"/>
      </g>
    </g>
    <g id="Grupo_7857" data-name="Grupo 7857">
      <rect id="Rectángulo_3094-2" data-name="Rectángulo 3094" width="8.121" height="9.794" transform="translate(566.594 341.338)" fill="#58e5a9"/>
    </g>
  </g>
</svg>
