<svg id="ic_modulos_Activos" xmlns="http://www.w3.org/2000/svg" width="74" height="58" viewBox="0 0 74 58">
  <path id="Trazado_1487" data-name="Trazado 1487" d="M3077.75-1892.195h15.487" transform="translate(-3027 1944)" fill="none" stroke="#58e5a9" stroke-width="1.5"/>
  <path id="Trazado_1488" data-name="Trazado 1488" d="M3077.75-1892.195h15.487" transform="translate(-3027 1939)" fill="none" stroke="#58e5a9" stroke-width="1.5"/>
  <path id="Trazado_1489" data-name="Trazado 1489" d="M3077.75-1892.195h10.1" transform="translate(-3036 1925)" fill="none" stroke="#58e5a9" stroke-width="1.5"/>
  <rect id="Rectángulo_567" data-name="Rectángulo 567" width="74" height="58" fill="none"/>
  <path id="Trazado_1477" data-name="Trazado 1477" d="M3229.7-1378.267c1.416-5.41,5.1-17.122,10.3-24.4,2.491-3.493,5.407-6.037,9.883-6.037s6.943,2.108,9.5,6.037c4.479,6.886,9.211,18.455,10.586,24.885.473,2.206-.486,3.816-3.267,3.816h-33.924C3229.941-1373.967,3228.907-1375.312,3229.7-1378.267Z" transform="translate(-3221.262 1426.998)" fill="none" stroke="#5b5c64" stroke-width="2"/>
  <path id="Trazado_1478" data-name="Trazado 1478" d="M.3,6.2C.963,4.092,1.893,3.228,2.808.09c.515-.479,3.817,1.425,5.757,1.425s6-1.949,6.248-1.425c1.942,2.57,2.744,3.406,4.259,5.572,2.012,2.547-.578,4.938-3,4.023s-4.636-2.052-6.9-.468c-3.307,2.207-5.659,2.841-7.906,1.106C-.073,9.125-.268,8.389.3,6.2Z" transform="translate(37.429 18.723) rotate(180)" fill="none" stroke="#5b5c64" stroke-width="2"/>
  <path id="Trazado_1479" data-name="Trazado 1479" d="M3247.829-1400.359l-2.769-3.941" transform="translate(-3220.296 1417.504)" fill="none" stroke="#5b5c64" stroke-width="2"/>
  <g id="Trazado_1483" data-name="Trazado 1483" transform="translate(46.353 47.964)" fill="none">
    <path d="M2.242,0H7.836c.6,0,1.09,1.081,1.09,2.415V3.622c0,1.334-.488,2.415-1.09,2.415H-.05c-.6,0,2.292-1.081,2.292-2.415V1.8C2.242.462,1.64,0,2.242,0Z" stroke="none"/>
    <path d="M 3.839326858520508 1.60000467300415 C 3.841384887695312 1.663495540618896 3.842477321624756 1.728586196899414 3.842477321624756 1.795284748077393 L 3.842477321624756 3.621824741363525 C 3.842477321624756 3.911572217941284 3.795404434204102 4.182808399200439 3.712555408477783 4.436364650726318 L 7.229068756103516 4.436364650726318 C 7.279601097106934 4.248020172119141 7.326267242431641 3.975097417831421 7.326267242431641 3.621824741363525 L 7.326267242431641 2.414544582366943 C 7.326267242431641 2.061271905899048 7.279601097106934 1.788349151611328 7.229068756103516 1.60000467300415 L 3.839326858520508 1.60000467300415 M 2.242477416992188 4.76837158203125e-06 L 7.836017608642578 4.76837158203125e-06 C 8.43814754486084 4.76837158203125e-06 8.926267623901367 1.081034660339355 8.926267623901367 2.414544582366943 L 8.926267623901367 3.621824741363525 C 8.926267623901367 4.955334663391113 8.43814754486084 6.036364555358887 7.836017608642578 6.036364555358887 L -0.04980278015136719 6.036364555358887 C -0.6519327163696289 6.036364555358887 2.242477416992188 4.955334663391113 2.242477416992188 3.621824741363525 L 2.242477416992188 1.795284748077393 C 2.242477416992188 0.4617748260498047 1.640347480773926 4.76837158203125e-06 2.242477416992188 4.76837158203125e-06 Z" stroke="none" fill="#5b5c64"/>
  </g>
  <g id="Rectángulo_569" data-name="Rectángulo 569" transform="translate(54 48)" fill="none" stroke="#5b5c64" stroke-width="1.6">
    <rect width="16" height="6" rx="2" stroke="none"/>
    <rect x="0.8" y="0.8" width="14.4" height="4.4" rx="1.2" fill="none"/>
  </g>
  <g id="Trazado_1484" data-name="Trazado 1484" transform="translate(45.481 43.135)" fill="none">
    <path d="M1.811,0H8.569C9.248,0,9.8,1.081,9.8,2.415V3.622c0,1.334-.55,2.415-1.229,2.415H3.443C2.765,6.036,1.132,0,1.811,0Z" stroke="none"/>
    <path d="M 3.419677257537842 1.60000467300415 C 3.486241340637207 1.914782047271729 3.575564861297607 2.287087440490723 3.693241119384766 2.712704658508301 C 3.908409595489502 3.490947961807251 4.11368465423584 4.066700458526611 4.266299247741699 4.436364650726318 L 8.080255508422852 4.436364650726318 C 8.138792991638184 4.260909557342529 8.198101043701172 3.988088607788086 8.198101043701172 3.621824741363525 L 8.198101043701172 2.414544582366943 C 8.198101043701172 2.048280715942383 8.138792991638184 1.775459766387939 8.080255508422852 1.60000467300415 L 3.419677257537842 1.60000467300415 M 1.810710906982422 4.76837158203125e-06 L 8.569271087646484 4.76837158203125e-06 C 9.247931480407715 4.76837158203125e-06 9.798101425170898 1.081034660339355 9.798101425170898 2.414544582366943 L 9.798101425170898 3.621824741363525 C 9.798101425170898 4.955334663391113 9.247931480407715 6.036364555358887 8.569271087646484 6.036364555358887 L 3.443361282348633 6.036364555358887 C 2.764691352844238 6.036364555358887 1.132040977478027 4.76837158203125e-06 1.810710906982422 4.76837158203125e-06 Z" stroke="none" fill="#5b5c64"/>
  </g>
  <g id="Rectángulo_570" data-name="Rectángulo 570" transform="translate(54 43)" fill="none" stroke="#5b5c64" stroke-width="1.6">
    <rect width="16" height="6" rx="2" stroke="none"/>
    <rect x="0.8" y="0.8" width="14.4" height="4.4" rx="1.2" fill="none"/>
  </g>
  <g id="Rectángulo_571" data-name="Rectángulo 571" transform="translate(54 38)" fill="none" stroke="#5b5c64" stroke-width="1.6">
    <rect width="16" height="6" rx="2" stroke="none"/>
    <rect x="0.8" y="0.8" width="14.4" height="4.4" rx="1.2" fill="none"/>
  </g>
  <g id="Trazado_1485" data-name="Trazado 1485" transform="translate(45.188 38.306)" fill="none">
    <path d="M1.345,0h7.4c.743,0,1.345,1.081,1.345,2.415V3.622c0,1.334-.6,2.415-1.345,2.415H2.655c-.743,0-.544-.551-1.89-3.622C.765,1.081.6,0,1.345,0Z" stroke="none"/>
    <path d="M 2.35329532623291 1.60000467300415 C 2.354310035705566 1.657824993133545 2.355442047119141 1.714273929595947 2.356509208679199 1.767504692077637 C 2.358530044555664 1.868440628051758 2.36058521270752 1.971081256866455 2.362154960632324 2.076429843902588 C 2.776251792907715 3.042273044586182 3.039560794830322 3.758539199829102 3.219449043273926 4.247884750366211 C 3.24222469329834 4.309842109680176 3.26569128036499 4.373677730560303 3.288912773132324 4.436364650726318 L 8.352546691894531 4.436364650726318 C 8.417863845825195 4.274114608764648 8.490578651428223 4.001845359802246 8.490578651428223 3.621824741363525 L 8.490578651428223 2.414544582366943 C 8.490578651428223 2.034523963928223 8.417863845825195 1.76225471496582 8.352546691894531 1.60000467300415 L 2.35329532623291 1.60000467300415 M 1.345409393310547 4.76837158203125e-06 L 8.745168685913086 4.76837158203125e-06 C 9.488219261169434 4.76837158203125e-06 10.09057903289795 1.081034660339355 10.09057903289795 2.414544582366943 L 10.09057903289795 3.621824741363525 C 10.09057903289795 4.955334663391113 9.488219261169434 6.036364555358887 8.745168685913086 6.036364555358887 L 2.654788970947266 6.036364555358887 C 1.911739349365234 6.036364555358887 2.110299110412598 5.485374450683594 0.7648887634277344 2.414544582366943 C 0.7648887634277344 1.081034660339355 0.6023588180541992 4.76837158203125e-06 1.345409393310547 4.76837158203125e-06 Z" stroke="none" fill="#5b5c64"/>
  </g>
  <g id="Trazado_1486" data-name="Trazado 1486" transform="translate(44 34)" fill="none">
    <path d="M2,0H9a1.878,1.878,0,0,1,2,1.726V4.314A1.878,1.878,0,0,1,9,6.04H2C2.524,7.2.607,4.02.069,2.376.069,1.422.9,0,2,0Z" stroke="none"/>
    <path d="M 2.070051193237305 1.600003242492676 C 1.939048767089844 1.692266941070557 1.773846626281738 1.968822002410889 1.703423500061035 2.191925525665283 C 1.973814010620117 2.88264274597168 2.440584182739258 3.784673929214478 2.806578636169434 4.439823150634766 L 8.999996185302734 4.439823150634766 C 9.22917652130127 4.439823150634766 9.365506172180176 4.338409423828125 9.399995803833008 4.291425228118896 L 9.399995803833008 1.748382568359375 C 9.365487098693848 1.70140266418457 9.229161262512207 1.600003242492676 8.999996185302734 1.600003242492676 L 2.070051193237305 1.600003242492676 M 1.999996185302734 3.337860107421875e-06 L 8.999996185302734 3.337860107421875e-06 C 10.10456562042236 3.337860107421875e-06 10.99999618530273 0.7726035118103027 10.99999618530273 1.725663185119629 L 10.99999618530273 4.314153671264648 C 10.99999618530273 5.267213344573975 10.10456562042236 6.039823532104492 8.999996185302734 6.039823532104492 L 1.999996185302734 6.039823532104492 C 2.07802677154541 6.213235855102539 2.101930618286133 6.290299892425537 2.0843505859375 6.290299892425537 C 1.983838081359863 6.290299892425537 0.5266580581665039 3.774908781051636 0.06909561157226562 2.375523567199707 C 0.06909561157226562 1.422463417053223 0.8954257965087891 3.337860107421875e-06 1.999996185302734 3.337860107421875e-06 Z" stroke="none" fill="#5b5c64"/>
  </g>
  <g id="Rectángulo_572" data-name="Rectángulo 572" transform="translate(42 29)" fill="none" stroke="#5b5c64" stroke-width="1.6">
    <rect width="13" height="6" rx="2" stroke="none"/>
    <rect x="0.8" y="0.8" width="11.4" height="4.4" rx="1.2" fill="none"/>
  </g>
  <path id="Trazado_1481" data-name="Trazado 1481" d="M3242.666-1398.656c1.016-2.738,4.021-3.1,7.4,1.645s8.547,15.316,9.721,21.855c0,2.905-6.62,2.383-13.9,2.281S3241.39-1394.45,3242.666-1398.656Z" transform="translate(-3215.134 1422.474)" fill="#58e5a9"/>
  <text id="_" data-name="$" transform="translate(21 45)" fill="#5b5c64" font-size="25" font-family="Dosis-Bold, Dosis" font-weight="700"><tspan x="0" y="0">$</tspan></text>
  <path id="Trazado_1482" data-name="Trazado 1482" d="M3244.97-1405.6c-2.392-.914-.031-3.714,1.05-4.443s4.126-.29,2.192,3.015C3247.482-1405.714,3247.363-1404.691,3244.97-1405.6Z" transform="translate(-3214.538 1420.466)" fill="#58e5a9"/>
  <path id="Trazado_1480" data-name="Trazado 1480" d="M3230.912-1381.934c-.02,2.093.774,4.531,5.615,5.288a43.24,43.24,0,0,1-6.951,0C3226.615-1376.866,3230.932-1384.028,3230.912-1381.934Z" transform="translate(-3216.522 1426.276)" fill="#58e5a9"/>
</svg>
