<svg id="ic_modulos_Medio_Ambiente" xmlns="http://www.w3.org/2000/svg" width="74" height="58" viewBox="0 0 74 58">
  <rect id="Rectángulo_509" data-name="Rectángulo 509" width="74" height="58" fill="none"/>
  <g id="Grupo_1096" data-name="Grupo 1096" transform="translate(248 398)">
    <g id="Grupo_1095" data-name="Grupo 1095" transform="translate(0 -2)">
      <path id="Trazado_783" data-name="Trazado 783" d="M0,0A104.622,104.622,0,0,0,13.758,15.426" transform="translate(-181.915 -390.105) rotate(90)" fill="none" stroke="#5b5c64" stroke-width="2"/>
      <path id="Trazado_794" data-name="Trazado 794" d="M1981.7,405.3c-.036-.342,3.157-2.7,3.157-2.7l6.363.967s-3.713,6.773-6.363,7.409C1984.561,410.633,1981.97,404.936,1981.7,405.3Z" transform="translate(-2176.874 -777.771)" fill="#58e5a9"/>
      <path id="Trazado_795" data-name="Trazado 795" d="M0,2.679A6.916,6.916,0,0,1,1.255,0L7.818.941S4.327,6.906,1.679,7.554C1.389,7.213.275,2.315,0,2.679Z" transform="translate(-199.163 -380.309) rotate(-161)" fill="#58e5a9"/>
      <path id="Trazado_785" data-name="Trazado 785" d="M12.758,0V11.783H0" transform="translate(-181.513 -392.813) rotate(90)" fill="none" stroke="#5b5c64" stroke-width="2"/>
      <line id="Línea_36" data-name="Línea 36" x2="5.389" y2="4.253" transform="translate(-195.997 -348.161)" fill="none" stroke="#5b5c64" stroke-linecap="round" stroke-width="3"/>
      <path id="Trazado_790" data-name="Trazado 790" d="M17.449,0c1.361-.027,7.2,4.989,12.122,12.422.118.254-6.991,14.775-7,14.9.187.054,10.546-8.482,10.827-8.982C36.592,34.572,29.5,44.6,19.089,45.258S-.362,34.7.011,24.684C.563,9.815,15.366.042,17.449,0Z" transform="translate(-244.414 -372.54) rotate(-42)" fill="#58e5a9"/>
      <path id="Trazado_791" data-name="Trazado 791" d="M0-.005c5.333,6.983,24.851,27.839,37.906,38.56" transform="translate(-234.444 -387.247)" fill="none" stroke="#5b5c64" stroke-width="2"/>
      <path id="Trazado_792" data-name="Trazado 792" d="M1919.554,410.478v18.607h-18.142" transform="translate(-2137.924 -798.527)" fill="none" stroke="#5b5c64" stroke-width="2"/>
      <path id="Trazado_793" data-name="Trazado 793" d="M1935.009,417.505v27h-28.132" transform="translate(-2139.654 -800.213)" fill="none" stroke="#5b5c64" stroke-width="2"/>
      <path id="Trazado_869" data-name="Trazado 869" d="M-212.243-385.913s3.889-3.667,11.69-5.462,16.237-1.219,17.485.389,1.14,11.677-1.62,17.967-8.224,9.715-9.206,10.4" transform="translate(1.889 0.172)" fill="none" stroke="#5b5c64" stroke-width="2"/>
      <path id="Trazado_870" data-name="Trazado 870" d="M-234.994-387.9c-3.781,3.543-4.162,21.481,1.628,31.622s22.482,18.171,35.867,7.054c8.653-10.707,4.82-21.657-3.808-30.649C-212.774-390.54-231.029-391.486-234.994-387.9Z" transform="translate(0.397 0.347)" fill="none" stroke="#5b5c64" stroke-width="2"/>
    </g>
  </g>
</svg>
