<svg id="ic_modulos_Ampliaciones" xmlns="http://www.w3.org/2000/svg" width="74" height="58" viewBox="0 0 74 58">
  <rect id="Rectángulo_507" data-name="Rectángulo 507" width="74" height="58" fill="none"/>
  <g id="Grupo_2070" data-name="Grupo 2070" transform="translate(-1144 -560)">
    <g id="Grupo_2069" data-name="Grupo 2069" transform="translate(694.597 143)">
      <rect id="Rectángulo_199" data-name="Rectángulo 199" width="47.257" height="47.257" transform="translate(463 421)" fill="none"/>
      <path id="Trazado_43" data-name="Trazado 43" d="M138.327,587.623a3.315,3.315,0,0,1,3.679-3.557c3.886.131,28.319-.166,29.794,0s4.551.837,4.551,5.784.105,29.545.051,29.579,4.439,0,4.439,0,0,6.708,0,6.7c0,1.918-.858,4.236-4.439,4.236H149.778s-5,.362-4.739-4.744,0-28.733,0-28.733h-6.713Z" transform="translate(327.038 -160.439)" fill="none" stroke="#5b5c64" stroke-width="2"/>
      <path id="Trazado_44" data-name="Trazado 44" d="M168.591,602.332h0l-23.148,0v6.824a3.862,3.862,0,0,1-4.219,4.121" transform="translate(335.452 -143.344)" fill="none" stroke="#5b5c64" stroke-width="2"/>
      <path id="Trazado_45" data-name="Trazado 45" d="M145.073,597.032h0v-9.59c0-4.539-6.721-4.608-6.721,0" transform="translate(327.005 -160.252)" fill="none" stroke="#5b5c64" stroke-width="2"/>
    </g>
    <g id="Elipse_179" data-name="Elipse 179" transform="translate(1190 579)" fill="#fff" stroke="#5b5c64" stroke-width="2">
      <circle cx="8" cy="8" r="8" stroke="none"/>
      <circle cx="8" cy="8" r="7" fill="none"/>
    </g>
    <path id="Trazado_1445" data-name="Trazado 1445" d="M5212.383-275.959c.008.047-.023-4.409,0-4.529,0-1.847-.489-3.6-3.345-3.609s-12.582,0-12.582,0l.117,29.051h15.81s-.017-3.387,0-3.471c-3.693-.161-6.166-3.818-6.3-8.466C5206.082-271.683,5210.233-275.959,5212.383-275.959Z" transform="translate(-4018 854)" fill="#58e5a9"/>
    <path id="Trazado_1446" data-name="Trazado 1446" d="M0,0H12.486" transform="translate(1173.137 590.331)" fill="none" stroke="#5b5c64" stroke-linecap="round" stroke-width="2"/>
    <path id="Trazado_1447" data-name="Trazado 1447" d="M0,.346H6.243" transform="translate(1173.137 594.985)" fill="none" stroke="#5b5c64" stroke-linecap="round" stroke-width="2"/>
    <path id="Trazado_1448" data-name="Trazado 1448" d="M0,0H12.486" transform="translate(1173.137 584.604)" fill="none" stroke="#5b5c64" stroke-linecap="round" stroke-width="2"/>
    <path id="Trazado_1449" data-name="Trazado 1449" d="M0,0H12.486" transform="translate(1173.137 578.878)" fill="none" stroke="#5b5c64" stroke-linecap="round" stroke-width="2"/>
    <line id="Línea_394" data-name="Línea 394" y2="6" transform="translate(1198 584)" fill="none" stroke="#5b5c64" stroke-linecap="round" stroke-width="2"/>
    <line id="Línea_395" data-name="Línea 395" y2="6" transform="translate(1201 587) rotate(90)" fill="none" stroke="#5b5c64" stroke-linecap="round" stroke-width="2"/>
  </g>
</svg>
