<svg id="ic_modulos_Financiero" xmlns="http://www.w3.org/2000/svg" width="74" height="58" viewBox="0 0 74 58">
  <rect id="Rectángulo_509" data-name="Rectángulo 509" width="74" height="58" fill="none"/>
  <g id="Grupo_1090" data-name="Grupo 1090" transform="translate(73 247)">
    <g id="Grupo_87" data-name="Grupo 87" transform="translate(-58 -245)">
      <g id="Trazado_139" data-name="Trazado 139" transform="translate(0 0)" fill="none">
        <path d="M2.75,0h31.9C34.987.09,43.923,9.433,44,9.388V51.971a2.767,2.767,0,0,1-2.75,2.784H2.75A2.767,2.767,0,0,1,0,51.971V2.784A2.767,2.767,0,0,1,2.75,0Z" stroke="none"/>
        <path d="M 2.75 1.999996185302734 C 2.336448669433594 1.999996185302734 2 2.351776123046875 2 2.784175872802734 L 2 51.97137832641602 C 2 52.40377807617188 2.336448669433594 52.75555801391602 2.75 52.75555801391602 L 41.25 52.75555801391602 C 41.66355133056641 52.75555801391602 42 52.40377807617188 42 51.97137832641602 L 42 10.23983383178711 C 41.86845016479492 10.1076774597168 41.71462249755859 9.952159881591797 41.53636169433594 9.7711181640625 C 40.91596984863281 9.141067504882812 40.06705093383789 8.270217895507812 39.16828918457031 7.348247528076172 C 37.53033447265625 5.667980194091797 34.96073913574219 3.032020568847656 33.89632034301758 1.999996185302734 L 2.75 1.999996185302734 M 2.75 -3.814697265625e-06 L 34.65430068969727 -3.814697265625e-06 C 34.98658752441406 0.09014511108398438 43.87962341308594 9.388298034667969 43.99929428100586 9.388298034667969 C 43.99958801269531 9.388298034667969 43.99981307983398 9.388248443603516 44 9.388137817382812 L 44 51.97137832641602 C 44 53.50902557373047 42.76877975463867 54.75555801391602 41.25 54.75555801391602 L 2.75 54.75555801391602 C 1.231220245361328 54.75555801391602 0 53.50902557373047 0 51.97137832641602 L 0 2.784175872802734 C 0 1.246517181396484 1.231220245361328 -3.814697265625e-06 2.75 -3.814697265625e-06 Z" stroke="none" fill="#5b5c64"/>
      </g>
      <path id="Trazado_146" data-name="Trazado 146" d="M2.071,0H21.292a2.261,2.261,0,0,1,2.059,2.42V36.3a2.261,2.261,0,0,1-2.059,2.42H4.316a2.134,2.134,0,0,0-.884-2.42c-.724-.5-3.4-.468-3.419-1.114-.027-.244,0-32.762,0-32.762A2.261,2.261,0,0,1,2.071,0Z" transform="translate(37.285 46.209) rotate(180)" fill="#58e5a9"/>
      <path id="Trazado_140" data-name="Trazado 140" d="M-270.983,444.509v9h9" transform="translate(303.983 -443.495)" fill="none" stroke="#5b5c64" stroke-linecap="round" stroke-linejoin="round" stroke-width="2"/>
      <path id="Trazado_141" data-name="Trazado 141" d="M-378.5,461.375h9" transform="translate(385.499 -429.941)" fill="none" stroke="#5b5c64" stroke-linecap="round" stroke-width="2"/>
      <path id="Trazado_143" data-name="Trazado 143" d="M-378.5,461.375h26" transform="translate(385.499 -423.857)" fill="none" stroke="#5b5c64" stroke-linecap="round" stroke-width="2"/>
      <path id="Trazado_144" data-name="Trazado 144" d="M-378.5,461.375h26" transform="translate(385.499 -418.787)" fill="none" stroke="#5b5c64" stroke-linecap="round" stroke-width="2"/>
    </g>
    <g id="Grupo_88" data-name="Grupo 88" transform="translate(-52.491 -232.89)">
      <path id="Trazado_229" data-name="Trazado 229" d="M-.035-1.39a1.123,1.123,0,0,1-.236-.744A1.221,1.221,0,0,1-.035-2.9a.731.731,0,0,1,.606-.309h.942V-4.447H.571a.748.748,0,0,1-.606-.286,1.128,1.128,0,0,1-.236-.744,1.219,1.219,0,0,1,.236-.766A.73.73,0,0,1,.571-6.55h.942v-.456a4.534,4.534,0,0,1,1.3-3.582,5.025,5.025,0,0,1,3.437-1.144A5.525,5.525,0,0,1,9.77-10.66,3.49,3.49,0,0,1,11.136-7.77a1.208,1.208,0,0,1-.308.97A1.653,1.653,0,0,1,9.8-6.55q-1.331,0-1.333-.785A2.292,2.292,0,0,0,8-8.751a1.928,1.928,0,0,0-1.64-.628q-2.173,0-2.175,2.372v.456H6.109a.766.766,0,0,1,.595.32,1.137,1.137,0,0,1,.269.754,1.064,1.064,0,0,1-.269.733.783.783,0,0,1-.595.3H4.181v1.239H6.109a.765.765,0,0,1,.595.321,1.109,1.109,0,0,1,.269.732A1.082,1.082,0,0,1,6.7-1.4a.785.785,0,0,1-.595.3H4.181v.321A2.044,2.044,0,0,0,4.675.512a2.064,2.064,0,0,0,1.7.614A1.968,1.968,0,0,0,7.986.54,2.176,2.176,0,0,0,8.468-.895a.848.848,0,0,1,.317-.755A1.846,1.846,0,0,1,9.8-1.866a1.47,1.47,0,0,1,1.038.288,1.532,1.532,0,0,1,.3,1.1A3.48,3.48,0,0,1,9.77,2.4,5.515,5.515,0,0,1,6.252,3.478,4.952,4.952,0,0,1,2.765,2.324,4.01,4.01,0,0,1,1.513-.768V-1.1H.571A.751.751,0,0,1-.035-1.39" transform="translate(0.271 11.732)" fill="#5b5c64"/>
    </g>
  </g>
</svg>
