<svg id="ic_modulos_Calidad" xmlns="http://www.w3.org/2000/svg" width="74" height="58" viewBox="0 0 74 58">
  <rect id="Rectángulo_509" data-name="Rectángulo 509" width="74" height="58" fill="none"/>
  <g id="Grupo_1105" data-name="Grupo 1105" transform="translate(-504 -473)">
    <path id="Trazado_825" data-name="Trazado 825" d="M1755.221,550.143v7.611l3.491-2.225,3.383,2.225v-7.611l-3.383,1.086Z" transform="translate(-1217.429 -38.208)" fill="#58e5a9"/>
    <g id="Elipse_51" data-name="Elipse 51" transform="translate(521 474)" fill="none" stroke="#5b5c64" stroke-width="2">
      <ellipse cx="20" cy="19.766" rx="20" ry="19.766" stroke="none"/>
      <ellipse cx="20" cy="19.766" rx="19" ry="18.766" fill="none"/>
    </g>
    <path id="Trazado_820" data-name="Trazado 820" d="M1815.189,520.95v18.906l10.234-8.04,10.636,8.04V520.95" transform="translate(-1284.624 -10.856)" fill="none" stroke="#5b5c64" stroke-linecap="round" stroke-linejoin="round" stroke-width="2"/>
    <path id="Trazado_821" data-name="Trazado 821" d="M1821.221,523.161v13.365" transform="translate(-1286.116 -11.21)" fill="none" stroke="#5b5c64" stroke-width="2"/>
    <path id="Trazado_822" data-name="Trazado 822" d="M1821.221,523.745v14.109" transform="translate(-1273.942 -12.538)" fill="none" stroke="#5b5c64" stroke-width="2"/>
    <path id="Trazado_824" data-name="Trazado 824" d="M1.128.4-3.5-.308l-2.079-4.43a1.073,1.073,0,0,0-.972-.618,1.074,1.074,0,0,0-.973.618L-9.606-.308-14.236.4a1.074,1.074,0,0,0-.856.721,1.075,1.075,0,0,0,.25,1.092l3.38,3.466-.8,4.9a1.078,1.078,0,0,0,.442,1.051,1.076,1.076,0,0,0,1.14.062l4.127-2.282L-2.428,11.7a1.076,1.076,0,0,0,.521.134,1.077,1.077,0,0,0,.619-.2,1.076,1.076,0,0,0,.442-1.051l-.8-4.9,3.38-3.466A1.074,1.074,0,0,0,1.128.4" transform="translate(547.452 488.809)" fill="#58e5a9"/>
  </g>
</svg>
