<svg id="ic_modulos_Desinstalaciones" xmlns="http://www.w3.org/2000/svg" width="74" height="58.211" viewBox="0 0 74 58.211">
  <rect id="Rectángulo_507" data-name="Rectángulo 507" width="74" height="58" fill="none"/>
  <g id="Grupo_1083" data-name="Grupo 1083" transform="translate(-275.685 -334)">
    <path id="Trazado_716" data-name="Trazado 716" d="M1781.3,361.081s-.058-8.774,0-10.518,1.348-2.338,2.907-1.465,10.086,5.372,10.086,5.372a3.254,3.254,0,0,1,1.684,2.945c-.062,2.084-.007,8.8,0,10.178s0,2.579-2.492,2.548-29.275.054-31.022,0-2.814.268-2.776-1.866c.026,0-.015-2.866,0-4.809s.85-2.315,3.281-2.384S1781.3,361.081,1781.3,361.081Z" transform="translate(-1477 5.398)" fill="none" stroke="#5b5c64" stroke-linecap="round" stroke-linejoin="round" stroke-width="2"/>
    <path id="Trazado_717" data-name="Trazado 717" d="M1767.367,361.472s-.007-4.543,0-5.651-.268-2.452,2.465-2.379,12.434,0,12.434,0" transform="translate(-1478.218 4.647)" fill="none" stroke="#5b5c64" stroke-linecap="round" stroke-linejoin="round" stroke-width="2"/>
    <g id="Elipse_41" data-name="Elipse 41" transform="translate(320.81 335)" fill="none" stroke="#5b5c64" stroke-linecap="round" stroke-linejoin="round" stroke-width="2">
      <circle cx="5.048" cy="5.048" r="5.048" stroke="none"/>
      <circle cx="5.048" cy="5.048" r="4.048" fill="none"/>
    </g>
    <g id="Elipse_42" data-name="Elipse 42" transform="translate(325.858 361.923)" fill="none" stroke="#5b5c64" stroke-linecap="round" stroke-linejoin="round" stroke-width="2">
      <circle cx="8.413" cy="8.413" r="8.413" stroke="none"/>
      <circle cx="8.413" cy="8.413" r="7.413" fill="none"/>
    </g>
    <path id="Trazado_718" data-name="Trazado 718" d="M1792.355,348.425l11.647-13.4" transform="translate(-1482.183 7.568)" fill="none" stroke="#5b5c64" stroke-linecap="round" stroke-width="2"/>
    <path id="Trazado_719" data-name="Trazado 719" d="M1807.172,337.211l-7.422,14.752" transform="translate(-1483.089 7.221)" fill="none" stroke="#5b5c64" stroke-linecap="round" stroke-width="2"/>
    <path id="Trazado_720" data-name="Trazado 720" d="M1812.892,337.469l4.79,17.995" transform="translate(-1485.442 7.18)" fill="none" stroke="#5b5c64" stroke-linecap="round" stroke-width="2"/>
    <g id="Trazado_721" data-name="Trazado 721" transform="translate(290.765 379.591)" fill="none" stroke-linecap="round" stroke-linejoin="round">
      <path d="M-.539,0H24.729a6.31,6.31,0,0,1,0,12.62H-.539a6.3,6.3,0,0,1-6.3-6.31A6.3,6.3,0,0,1-.539,0Z" stroke="none"/>
      <path d="M -0.5385150909423828 2 C -2.907445907592773 2 -4.834714889526367 3.933480262756348 -4.834714889526367 6.310050010681152 C -4.834714889526367 8.686619758605957 -2.907445907592773 10.6201000213623 -0.5385150909423828 10.6201000213623 L 24.72938346862793 10.6201000213623 C 27.09831428527832 10.6201000213623 29.02558517456055 8.686619758605957 29.02558517456055 6.310050010681152 C 29.02558517456055 3.933480262756348 27.09831428527832 2 24.72938346862793 2 L -0.5385150909423828 2 M -0.5385150909423828 0 L 24.72938346862793 0 C 28.20668411254883 0 31.02558517456055 2.82511043548584 31.02558517456055 6.310050010681152 C 31.02558517456055 9.795000076293945 28.20668411254883 12.6201000213623 24.72938346862793 12.6201000213623 L -0.5385150909423828 12.6201000213623 C -4.015815734863281 12.6201000213623 -6.834714889526367 9.795000076293945 -6.834714889526367 6.310050010681152 C -6.834714889526367 2.82511043548584 -4.015815734863281 0 -0.5385150909423828 0 Z" stroke="none" fill="#5b5c64"/>
    </g>
    <path id="Trazado_722" data-name="Trazado 722" d="M1792.355,374.206v4.35" transform="translate(-1482.183 1.352)" fill="none" stroke="#5b5c64" stroke-linecap="round" stroke-width="2"/>
    <path id="Trazado_723" data-name="Trazado 723" d="M1792.355,374.206v4.35" transform="translate(-1488.914 1.352)" fill="none" stroke="#5b5c64" stroke-linecap="round" stroke-width="2"/>
    <path id="Trazado_724" data-name="Trazado 724" d="M-6.242,0H16.591c2.295,0,3.381,1.318,3.381,2.945s-1.086,2.945-3.381,2.945H-6.242c-2.295,0-3.233-1.318-3.233-2.945S-8.537,0-6.242,0Z" transform="translate(297.474 382.956)" fill="#58e5a9"/>
    <circle id="Elipse_43" data-name="Elipse 43" cx="5.048" cy="5.048" r="5.048" transform="translate(329.224 365.288)" fill="#58e5a9"/>
    <line id="Línea_27" data-name="Línea 27" y2="8.413" transform="translate(314.5 363.185)" fill="none" stroke="#58e5a9" stroke-linecap="round" stroke-width="4"/>
    <line id="Línea_28" data-name="Línea 28" x1="3.365" transform="translate(296.832 362.344)" fill="none" stroke="#58e5a9" stroke-linecap="round" stroke-width="4"/>
    <circle id="Elipse_44" data-name="Elipse 44" cx="1.683" cy="1.683" r="1.683" transform="translate(293.887 384.639)" fill="#5c5c5c"/>
    <circle id="Elipse_45" data-name="Elipse 45" cx="1.683" cy="1.683" r="1.683" transform="translate(308.19 384.639)" fill="#5c5c5c"/>
  </g>
</svg>
