<svg id="ic_modulos_Desplieque" xmlns="http://www.w3.org/2000/svg" width="74" height="58" viewBox="0 0 74 58">
  <rect id="Rectángulo_509" data-name="Rectángulo 509" width="74" height="58" fill="none"/>
  <g id="Grupo_1114" data-name="Grupo 1114" transform="translate(276.222 425)">
    <path id="Trazado_875" data-name="Trazado 875" d="M2.929,0h8.723a2.954,2.954,0,0,1,2.929,2.979V41.508c0,1.645-1.311,0-2.929,0H2.929c-1.618,0-2.929,1.645-2.929,0V27.557l10.883-6.768L0,13.7V2.979A2.954,2.954,0,0,1,2.929,0Z" transform="translate(-215.236 -404.862) rotate(90)" fill="#58e5a9"/>
    <path id="Trazado_874" data-name="Trazado 874" d="M2.929,0h8.723a2.954,2.954,0,0,1,2.929,2.979V41.508a2.954,2.954,0,0,1-2.929,2.979H8.818C8.775,41.542,0,43.154,0,41.508V2.979A2.954,2.954,0,0,1,2.929,0Z" transform="translate(-215.236 -388.459) rotate(90)" fill="#58e5a9"/>
    <path id="Trazado_37" data-name="Trazado 37" d="M-638.576,227.179s-.611-3.178,9.047-3.242c.19.086,0-31.1,0-31.1s-9.161-2.109-9.047,5.666,0,21.547,0,21.547Z" transform="translate(372.362 -603.819)" fill="none" stroke="#5b5c64" stroke-linecap="round" stroke-linejoin="round" stroke-width="2"/>
    <g id="Trazado_39" data-name="Trazado 39" transform="translate(-247.029 -424)" fill="none" stroke-linecap="round" stroke-linejoin="round">
      <path d="M10.967,0A10.952,10.952,0,0,1,21.935,10.936c0,6.04-10.856,20.709-10.967,20.9S0,16.975,0,10.936A10.952,10.952,0,0,1,10.967,0Z" stroke="none"/>
      <path d="M 10.96737003326416 1.999998092651367 C 6.022749900817871 1.999998092651367 2 6.008586883544922 2 10.9358081817627 C 2 12.91326713562012 3.733579635620117 16.95608901977539 6.756239891052246 22.02764892578125 C 8.288840293884277 24.59912490844727 9.826891899108887 26.90106391906738 10.91158390045166 28.44867324829102 C 12.58074474334717 26.04345703125 14.07525634765625 23.73886680603027 15.36804962158203 21.5758171081543 C 19.34145927429199 14.92767715454102 19.93474006652832 12.05591773986816 19.93474006652832 10.9358081817627 C 19.93474006652832 6.008586883544922 15.91199016571045 1.999998092651367 10.96737003326416 1.999998092651367 M 10.96737003326416 -3.814697265625e-06 C 17.02447891235352 -3.814697265625e-06 21.93474006652832 4.896127700805664 21.93474006652832 10.9358081817627 C 21.93474006652832 16.97548675537109 11.07843971252441 31.64527702331543 10.96737003326416 31.83709716796875 C 10.96667194366455 31.83830451965332 10.96552181243896 31.83891296386719 10.96397972106934 31.83891296386719 C 10.7202033996582 31.83891296386719 0 16.93751907348633 0 10.9358081817627 C 0 4.896127700805664 4.910259246826172 -3.814697265625e-06 10.96737003326416 -3.814697265625e-06 Z" stroke="none" fill="#5b5c64"/>
    </g>
    <g id="Elipse_11" data-name="Elipse 11" transform="translate(-238.804 -416.709)" fill="none" stroke="#5b5c64" stroke-width="2">
      <circle cx="2.66" cy="2.66" r="2.66" stroke="none"/>
      <circle cx="2.66" cy="2.66" r="1.66" fill="none"/>
    </g>
    <path id="Trazado_872" data-name="Trazado 872" d="M-256.276-407.7h11.7" transform="translate(-0.069 -0.385)" fill="none" stroke="#5b5c64" stroke-width="2"/>
    <path id="Trazado_873" data-name="Trazado 873" d="M-227.48-407.615s9.532-.081,11.805-.081a3.191,3.191,0,0,1,3.332,3.422c.055,1.825.087,28.946,0,30.571s-.2,4.122-4.749,3.923-37.55.455-41.314,0-7.9-1.849-7.883-6.748" transform="translate(0.066 -0.385)" fill="none" stroke="#5b5c64" stroke-width="2"/>
  </g>
</svg>
