<svg id="ic_modulos_energia" xmlns="http://www.w3.org/2000/svg" width="74" height="58" viewBox="0 0 74 58">
  <rect id="Rectángulo_509" data-name="Rectángulo 509" width="74" height="58" fill="none"/>
  <g id="Grupo_1093" data-name="Grupo 1093" transform="translate(-864 -397.273)">
    <g id="Trazado_762" data-name="Trazado 762" transform="translate(-993.027 105.749)" fill="none" stroke-linecap="round" stroke-linejoin="round">
      <path d="M1892.385,308.741l-4.93,15.4h4.255s-2.11,6.976-2.681,8.987,1.556,2.43,2.681.8,9.749-14.933,9.749-14.933h-5.424L1901,308.741Z" stroke="none"/>
      <path d="M 1892.384887695312 308.7414855957031 L 1887.455322265625 324.1396789550781 L 1891.710083007812 324.1396789550781 C 1891.710083007812 324.1396789550781 1889.599609375 331.1161193847656 1889.029052734375 333.1265563964844 C 1888.696655273438 334.2976989746094 1889.279663085938 334.9291076660156 1890.046752929688 334.9291076660156 C 1890.596435546875 334.9291076660156 1891.240600585938 334.6049194335938 1891.710083007812 333.9226684570312 C 1892.834594726562 332.2884521484375 1901.459106445312 318.9895629882812 1901.459106445312 318.9895629882812 L 1896.03515625 318.9895629882812 L 1900.998657226562 308.7414855957031 L 1892.384887695312 308.7414855957031 M 1892.384887695312 306.7414855957031 L 1900.998657226562 306.7414855957031 C 1901.687377929688 306.7414855957031 1902.327514648438 307.0957946777344 1902.693237304688 307.6793212890625 C 1903.05908203125 308.2628479003906 1903.098876953125 308.9934997558594 1902.798706054688 309.61328125 L 1899.22607421875 316.9895629882812 L 1901.459106445312 316.9895629882812 C 1902.192138671875 316.9895629882812 1902.866455078125 317.3905944824219 1903.216430664062 318.0346984863281 C 1903.56640625 318.6788024902344 1903.536010742188 319.4627380371094 1903.137084960938 320.0777893066406 C 1902.784423828125 320.6217346191406 1894.484741210938 333.41845703125 1893.357666015625 335.056396484375 C 1892.550659179688 336.2290649414062 1891.31298828125 336.9291076660156 1890.046752929688 336.9291076660156 C 1889.048828125 336.9291076660156 1888.145385742188 336.4908142089844 1887.56787109375 335.7265625 C 1886.932250976562 334.8854675292969 1886.767944335938 333.7681274414062 1887.105102539062 332.5804443359375 C 1887.453735351562 331.3519897460938 1888.353637695312 328.3469848632812 1889.017822265625 326.1396789550781 L 1887.455322265625 326.1396789550781 C 1886.816650390625 326.1396789550781 1886.21630859375 325.8346252441406 1885.83984375 325.3187561035156 C 1885.463256835938 324.8028564453125 1885.355834960938 324.1381530761719 1885.550537109375 323.5298767089844 L 1890.480102539062 308.1317138671875 C 1890.745239257812 307.303466796875 1891.515258789062 306.7414855957031 1892.384887695312 306.7414855957031 Z" stroke="none" fill="#5b5c64"/>
    </g>
    <path id="Trazado_760" data-name="Trazado 760" d="M1909.192,310.349c.019.037-2.312,1.48-3.449,2.14s-1.336,1.6.367,2.083,6.238,1.8,7.464,2.135c1.337.336,2.661.377,3.214-1.381.532-1.578,2.174-7.116,2.433-7.967.478-1.343-.035-2.46-1.527-1.7a21.189,21.189,0,0,1-3.7,1.7c-3.756-3.65-8.385-11.118-20.929-11.241s-19.847,6.861-23.247,13.32c-.988,2.108-1.643,4.567.385,5.476,1.869.741,2.952-.261,4.157-2.425,3.327-5.987,9.723-11.428,18.7-11.254S1905.977,305.973,1909.192,310.349Z" transform="translate(-991.394 103.883)" fill="none" stroke="#5b5c64" stroke-width="2"/>
    <path id="Trazado_761" data-name="Trazado 761" d="M40.314,14.232c.019.037-2.218,1.289-3.268,1.865s-1.108,1.971.6,2.46,5.829,1.7,7.055,2.034c1.337.336,2.661.377,3.214-1.381.532-1.578,2.174-7.116,2.433-7.967.478-1.343-.035-2.46-1.527-1.7s-3.7,1.7-3.7,1.7S36.732.124,24.188,0,4.341,6.863.941,13.322C-.048,15.43-.7,17.889,1.325,18.8c1.869.741,2.952-.261,4.157-2.425,3.327-5.987,9.723-11.428,18.7-11.254S36.86,10.037,40.314,14.232Z" transform="translate(924.516 452.798) rotate(180)" fill="none" stroke="#5b5c64" stroke-width="2"/>
    <path id="Trazado_766" data-name="Trazado 766" d="M1823.417,300.474c3.976,4.475,9,9.984,19.2,9.716a22.9,22.9,0,0,0,20.458-13.5" transform="translate(-941.215 140.261)" fill="none" stroke="#58e5a9" stroke-linecap="round" stroke-linejoin="round" stroke-width="2"/>
    <path id="Trazado_767" data-name="Trazado 767" d="M0,2.615C4.024,7.8,9.474,13.765,19.678,13.5A22.884,22.884,0,0,0,40.133,0" transform="translate(919.947 415.121) rotate(178)" fill="none" stroke="#58e5a9" stroke-linecap="round" stroke-linejoin="round" stroke-width="2"/>
    <path id="Trazado_769" data-name="Trazado 769" d="M1842.56,282.492l4.511-7.964h-5.882l3.445-8.707" transform="translate(-943.508 153.066)" fill="none" stroke="#58e5a9" stroke-linecap="round" stroke-linejoin="round" stroke-width="2"/>
  </g>
</svg>
