<svg id="ic_modulos_GIS" xmlns="http://www.w3.org/2000/svg" width="62" height="61" viewBox="0 0 62 61">
  <ellipse id="Elipse_52" data-name="Elipse 52" cx="11" cy="1.5" rx="11" ry="1.5" transform="translate(0 51)" fill="#58e5a9"/>
  <ellipse id="Elipse_55" data-name="Elipse 55" cx="11" cy="1.5" rx="11" ry="1.5" transform="translate(40 51)" fill="#58e5a9"/>
  <ellipse id="Elipse_53" data-name="Elipse 53" cx="18" cy="2.5" rx="18" ry="2.5" transform="translate(13 56)" fill="#58e5a9"/>
  <g id="Trazado_844" data-name="Trazado 844" transform="translate(1 23)" fill="#fff" stroke-linecap="round" stroke-linejoin="round">
    <path d="M 9.956315994262695 28.29803848266602 C 8.998302459716797 26.93670272827148 7.258583068847656 24.3282413482666 5.527849197387695 21.33787727355957 C 2.608019113540649 16.2929859161377 0.9999990463256836 12.37447643280029 0.9999990463256836 10.30418682098389 C 0.9999990463256836 5.173836708068848 5.037379264831543 0.9999966621398926 9.999999046325684 0.9999966621398926 C 14.96261882781982 0.9999966621398926 19 5.173836708068848 19 10.30418682098389 C 19 13.30741786956787 15.63303565979004 19.99453163146973 9.956315994262695 28.29803848266602 Z" stroke="none"/>
    <path d="M 9.999999046325684 1.999996185302734 C 5.588788986206055 1.999996185302734 1.999998092651367 5.725236892700195 1.999998092651367 10.30418586730957 C 1.999998092651367 12.15486717224121 3.573808670043945 15.9463062286377 6.317898750305176 20.70633697509766 C 7.638191223144531 22.99658966064453 8.969826698303223 25.06925392150879 9.948738098144531 26.52353096008301 C 11.40434741973877 24.34625244140625 12.71081829071045 22.25886535644531 13.8465690612793 20.29510688781738 C 17.46039962768555 14.04666709899902 18 11.35344696044922 18 10.30418586730957 C 18 5.725236892700195 14.41120910644531 1.999996185302734 9.999999046325684 1.999996185302734 M 9.999999046325684 -3.814697265625e-06 C 15.52284908294678 -3.814697265625e-06 20 4.613346099853516 20 10.30418586730957 C 20 15.99503707885742 10.10126876831055 29.81754684448242 9.999999046325684 29.99828720092773 C 9.999361991882324 29.99942207336426 9.998313903808594 29.99999809265137 9.996908187866211 29.99999809265137 C 9.774636268615723 29.99999809265137 -1.9073486328125e-06 15.95925998687744 -1.9073486328125e-06 10.30418586730957 C -1.9073486328125e-06 4.613346099853516 4.47714900970459 -3.814697265625e-06 9.999999046325684 -3.814697265625e-06 Z" stroke="none" fill="#5b5c64"/>
  </g>
  <g id="Trazado_849" data-name="Trazado 849" transform="translate(41 23)" fill="#fff" stroke-linecap="round" stroke-linejoin="round">
    <path d="M 9.956315994262695 28.29803848266602 C 8.998302459716797 26.93670272827148 7.258583068847656 24.3282413482666 5.527849197387695 21.33787727355957 C 2.608019113540649 16.2929859161377 0.9999990463256836 12.37447643280029 0.9999990463256836 10.30418682098389 C 0.9999990463256836 5.173836708068848 5.037379264831543 0.9999966621398926 9.999999046325684 0.9999966621398926 C 14.96261882781982 0.9999966621398926 19 5.173836708068848 19 10.30418682098389 C 19 13.30741786956787 15.63303565979004 19.99453163146973 9.956315994262695 28.29803848266602 Z" stroke="none"/>
    <path d="M 9.999999046325684 1.999996185302734 C 5.588788986206055 1.999996185302734 1.999998092651367 5.725236892700195 1.999998092651367 10.30418586730957 C 1.999998092651367 12.15486717224121 3.573808670043945 15.9463062286377 6.317898750305176 20.70633697509766 C 7.638191223144531 22.99658966064453 8.969826698303223 25.06925392150879 9.948738098144531 26.52353096008301 C 11.40434741973877 24.34625244140625 12.71081829071045 22.25886535644531 13.8465690612793 20.29510688781738 C 17.46039962768555 14.04666709899902 18 11.35344696044922 18 10.30418586730957 C 18 5.725236892700195 14.41120910644531 1.999996185302734 9.999999046325684 1.999996185302734 M 9.999999046325684 -3.814697265625e-06 C 15.52284908294678 -3.814697265625e-06 20 4.613346099853516 20 10.30418586730957 C 20 15.99503707885742 10.10126876831055 29.81754684448242 9.999999046325684 29.99828720092773 C 9.999361991882324 29.99942207336426 9.998313903808594 29.99999809265137 9.996908187866211 29.99999809265137 C 9.774636268615723 29.99999809265137 -1.9073486328125e-06 15.95925998687744 -1.9073486328125e-06 10.30418586730957 C -1.9073486328125e-06 4.613346099853516 4.47714900970459 -3.814697265625e-06 9.999999046325684 -3.814697265625e-06 Z" stroke="none" fill="#5b5c64"/>
  </g>
  <g id="Trazado_842" data-name="Trazado 842" transform="translate(11)" fill="#fff" stroke-linecap="round" stroke-linejoin="round">
    <path d="M 19.92768669128418 58.34001922607422 C 18.29489135742188 56.12025833129883 14.2832612991333 50.22743606567383 10.31034851074219 43.38393020629883 C 7.579768180847168 38.68040084838867 5.402247905731201 34.45051956176758 3.838258028030396 30.8117790222168 C 1.954928040504456 26.43004989624023 0.9999980926513672 22.99712944030762 0.9999980926513672 20.60837936401367 C 0.9999980926513672 17.9571590423584 1.503598093986511 15.38601970672607 2.496798038482666 12.96639919281006 C 3.455538034439087 10.63071918487549 4.827807903289795 8.533329010009766 6.575488090515137 6.732489585876465 C 8.321127891540527 4.933749675750732 10.35298824310303 3.52191948890686 12.61462783813477 2.536229372024536 C 14.953537940979 1.516859412193298 17.43832778930664 0.999999463558197 19.99999809265137 0.999999463558197 C 22.56166839599609 0.999999463558197 25.04645729064941 1.516859412193298 27.38536834716797 2.536229372024536 C 29.64700889587402 3.52191948890686 31.67886734008789 4.933749675750732 33.42450714111328 6.732489585876465 C 35.17218780517578 8.533329010009766 36.54445648193359 10.63071918487549 37.50319671630859 12.96639919281006 C 38.49639892578125 15.38601970672607 39 17.9571590423584 39 20.60837936401367 C 39 24.81103897094727 35.9881591796875 32.24002075195312 30.29008865356445 42.09217834472656 C 27.3614616394043 47.15586471557617 23.87724113464355 52.61888122558594 19.92768669128418 58.34001922607422 Z" stroke="none"/>
    <path d="M 19.99999809265137 2 C 15.20337867736816 2 10.69064903259277 3.928028106689453 7.293109893798828 7.428920745849609 C 3.879787445068359 10.94606018066406 1.999996185302734 15.62662124633789 1.999996185302734 20.60837936401367 C 1.999996185302734 24.74895858764648 5.216049194335938 32.58596801757812 11.05570793151855 42.67575836181641 C 14.51716804504395 48.6564826965332 17.99647521972656 53.87322235107422 19.91250228881836 56.59589767456055 C 23.5154857635498 51.32362747192383 26.71031188964844 46.28433609008789 29.42450714111328 41.59140777587891 C 36.51222991943359 29.33646965026855 38 23.41656875610352 38 20.60837936401367 C 38 15.62662124633789 36.12020874023438 10.94606018066406 32.70688629150391 7.428920745849609 C 29.30934906005859 3.928028106689453 24.7966194152832 2 19.99999809265137 2 M 19.99999809265137 0 C 31.04568862915039 0 40 9.226680755615234 40 20.60837936401367 C 40 31.99007034301758 20.20253753662109 59.63508987426758 19.99999809265137 59.99657821655273 C 19.99872398376465 59.99885177612305 19.99662780761719 60.00000381469727 19.99381637573242 60.00000381469727 C 19.54927444458008 60.00000381469727 -3.814697265625e-06 31.91851615905762 -3.814697265625e-06 20.60837936401367 C -3.814697265625e-06 9.226680755615234 8.954307556152344 0 19.99999809265137 0 Z" stroke="none" fill="#5b5c64"/>
  </g>
  <path id="Trazado_848" data-name="Trazado 848" d="M13.407,0A13.615,13.615,0,0,1,26.814,13.815c0,7.63-13.271,26.162-13.407,26.4S0,21.445,0,13.815A13.615,13.615,0,0,1,13.407,0Z" transform="translate(17.593 7.89)" fill="#58e5a9"/>
  <g id="Trazado_845" data-name="Trazado 845" transform="translate(25.417 6)" fill="#fff">
    <path d="M 5.958320617675781 10.91664028167725 C 3.224290609359741 10.91664028167725 1.000000596046448 8.692350387573242 1.000000596046448 5.958320617675781 C 1.000000596046448 3.224290609359741 3.224290609359741 1.000000596046448 5.958320617675781 1.000000596046448 C 8.692350387573242 1.000000596046448 10.91664028167725 3.224290609359741 10.91664028167725 5.958320617675781 C 10.91664028167725 8.692350387573242 8.692350387573242 10.91664028167725 5.958320617675781 10.91664028167725 Z" stroke="none"/>
    <path d="M 5.958320617675781 2.000000953674316 C 3.775691032409668 2.000000953674316 2.000000953674316 3.775691032409668 2.000000953674316 5.958320617675781 C 2.000000953674316 8.140951156616211 3.775691032409668 9.916640281677246 5.958320617675781 9.916640281677246 C 8.140951156616211 9.916640281677246 9.916640281677246 8.140951156616211 9.916640281677246 5.958320617675781 C 9.916640281677246 3.775691032409668 8.140951156616211 2.000000953674316 5.958320617675781 2.000000953674316 M 5.958320617675781 9.5367431640625e-07 C 9.24901008605957 9.5367431640625e-07 11.91664028167725 2.667630195617676 11.91664028167725 5.958320617675781 C 11.91664028167725 9.24901008605957 9.24901008605957 11.91664028167725 5.958320617675781 11.91664028167725 C 2.667630195617676 11.91664028167725 9.5367431640625e-07 9.24901008605957 9.5367431640625e-07 5.958320617675781 C 9.5367431640625e-07 2.667630195617676 2.667630195617676 9.5367431640625e-07 5.958320617675781 9.5367431640625e-07 Z" stroke="none" fill="#5b5c64"/>
  </g>
  <g id="Trazado_847" data-name="Trazado 847" transform="translate(7.341 27.924)" fill="#fff">
    <path d="M 3 5 C 1.897199988365173 5 1 4.102799892425537 1 3 C 1 1.897199988365173 1.897199988365173 1 3 1 C 4.102799892425537 1 5 1.897199988365173 5 3 C 5 4.102799892425537 4.102799892425537 5 3 5 Z" stroke="none"/>
    <path d="M 3 2 C 2.448600053787231 2 2 2.448600053787231 2 3 C 2 3.551399946212769 2.448600053787231 4 3 4 C 3.551399946212769 4 4 3.551399946212769 4 3 C 4 2.448600053787231 3.551399946212769 2 3 2 M 3 0 C 4.65684986114502 0 6 1.34315013885498 6 3 C 6 4.65684986114502 4.65684986114502 6 3 6 C 1.34315013885498 6 0 4.65684986114502 0 3 C 0 1.34315013885498 1.34315013885498 0 3 0 Z" stroke="none" fill="#5b5c64"/>
  </g>
  <g id="Trazado_850" data-name="Trazado 850" transform="translate(47.341 27.924)" fill="#fff">
    <path d="M 3 5 C 1.897199988365173 5 1 4.102799892425537 1 3 C 1 1.897199988365173 1.897199988365173 1 3 1 C 4.102799892425537 1 5 1.897199988365173 5 3 C 5 4.102799892425537 4.102799892425537 5 3 5 Z" stroke="none"/>
    <path d="M 3 2 C 2.448600053787231 2 2 2.448600053787231 2 3 C 2 3.551399946212769 2.448600053787231 4 3 4 C 3.551399946212769 4 4 3.551399946212769 4 3 C 4 2.448600053787231 3.551399946212769 2 3 2 M 3 0 C 4.65684986114502 0 6 1.34315013885498 6 3 C 6 4.65684986114502 4.65684986114502 6 3 6 C 1.34315013885498 6 0 4.65684986114502 0 3 C 0 1.34315013885498 1.34315013885498 0 3 0 Z" stroke="none" fill="#5b5c64"/>
  </g>
</svg>
