<svg id="ic_modulos_Instalaciones" xmlns="http://www.w3.org/2000/svg" width="74" height="58" viewBox="0 0 74 58">
  <rect id="Rectángulo_510" data-name="Rectángulo 510" width="74" height="58" fill="none"/>
  <g id="Grupo_1117" data-name="Grupo 1117" transform="translate(253 358)">
    <g id="Trazado_160" data-name="Trazado 160" transform="translate(-243 -333.492) rotate(-3)" fill="none">
      <path d="M6.968,0A37.829,37.829,0,0,0,6.083,7.31a28.1,28.1,0,0,0,.882,6.671C6.858,14.168,0,12.78,0,6.991S6.968,0,6.968,0Z" stroke="none"/>
      <path d="M 4.391525268554688 3.111148834228516 C 2.7817063331604 4.091403961181641 1.998682975769043 5.36173152923584 1.998399257659912 6.991428852081299 C 1.998128890991211 8.547848701477051 2.682609081268311 9.782278060913086 4.090959072113037 10.76524925231934 C 4.17328929901123 10.82271194458008 4.255873680114746 10.87770080566406 4.338622093200684 10.93044757843018 C 4.192955017089844 9.848165512084961 4.082753658294678 8.602002143859863 4.082979202270508 7.309608459472656 C 4.083230018615723 5.865968704223633 4.221353530883789 4.38652515411377 4.391525268554688 3.111148834228516 M 6.967809200286865 -0.001601219177246094 C 6.967809200286865 -0.001601219177246094 6.08358907699585 3.814229011535645 6.082979202270508 7.309958457946777 C 6.082368850708008 10.80568885803223 6.96536922454834 13.98131847381592 6.96536922454834 13.98131847381592 C 6.959297180175781 13.991868019104 6.931686878204346 13.99739933013916 6.885015964508057 13.99739933013916 C 6.105030059814453 13.99739933013916 -0.002553939819335938 12.45327472686768 -0.001600742340087891 6.991078853607178 C -0.0005908012390136719 1.202058792114258 6.967809200286865 -0.001601219177246094 6.967809200286865 -0.001601219177246094 Z" stroke="none" fill="#5b5c64"/>
    </g>
    <g id="Trazado_161" data-name="Trazado 161" transform="matrix(-0.999, 0.035, -0.035, -0.999, -189, -319.745)" fill="none">
      <path d="M6.968,0A30.287,30.287,0,0,0,5.261,7.458a38.245,38.245,0,0,0,0,6.261C5.152,13.906,0,12.781,0,6.991S6.968,0,6.968,0Z" stroke="none"/>
      <path d="M 3.866789102554321 3.463595390319824 C 2.611526966094971 4.391312599182129 1.999155044555664 5.550843238830566 1.998935222625732 6.991799831390381 C 1.998723030090332 8.392624855041504 2.3821120262146 9.535310745239258 3.139770030975342 10.39589405059814 C 3.146778345108032 9.497419357299805 3.181734323501587 8.457517623901367 3.266375064849854 7.310959815979004 C 3.365138053894043 5.973091125488281 3.598413705825806 4.644162178039551 3.866789102554321 3.463595390319824 M 6.968165397644043 -0.001070022583007812 C 6.968165397644043 -0.001070022583007812 5.535775184631348 3.735289573669434 5.260945320129395 7.458199977874756 C 4.986115455627441 11.18111038208008 5.259984970092773 13.71920967102051 5.259984970092773 13.71920967102051 C 5.252922534942627 13.73148155212402 5.224074363708496 13.73809432983398 5.176366806030273 13.73809432983398 C 4.49764347076416 13.73809432983398 -0.001896381378173828 12.40034103393555 -0.001064777374267578 6.991489887237549 C -0.0001850128173828125 1.20244026184082 6.968165397644043 -0.001070022583007812 6.968165397644043 -0.001070022583007812 Z" stroke="none" fill="#5b5c64"/>
    </g>
    <path id="Sustracción_4" data-name="Sustracción 4" d="M21.423,30.537a18.928,18.928,0,0,1-8.237-1.883A21.157,21.157,0,0,1,6.46,23.518,24.278,24.278,0,0,1,1.924,15.9,26.561,26.561,0,0,1,.261,6.574,27.408,27.408,0,0,0,.073,3.3C-.076,1.931-.1,1.721,1.014,1.024,2.14.3,4.281,0,8.4,0c1.5,0,3.208.036,5.014.074,2.171.046,4.631.1,7.244.1,2.171,0,4.23-.027,6.045-.052C28.29.1,29.782.08,31.148.08c3.916,0,6.95.161,9.028.944.186.068.374.129.557.188a6.286,6.286,0,0,1,1.2.482c-4.15-.35-14.761-.907-25.572-.907C11.747.787,8.373.859,6.335,1c-1.421.1-1.8.212-1.8.257,0,0,0,.006.009.006a.021.021,0,0,0,.015-.006l0,.032c.055.778.071,1.013.066,1.021a.226.226,0,0,1-.012-.051l-.007-.039c-.007-.039-.018-.091-.028-.091a1.324,1.324,0,0,0-.023.405A28.332,28.332,0,0,0,5.725,13.472a22.313,22.313,0,0,0,4.78,8.406A17.586,17.586,0,0,0,23.54,27.761c.156,0,.319,0,.5-.007a17.29,17.29,0,0,0,13.256-7.011,27.486,27.486,0,0,0,4.091-7.349,36.982,36.982,0,0,0,2.129-8.959,13.54,13.54,0,0,1,.148,2.138,24.687,24.687,0,0,1-6.736,16.945,22.979,22.979,0,0,1-7.1,5.136A19.977,19.977,0,0,1,21.423,30.537Z" transform="translate(-237.499 -334.226)" fill="#58e5a9"/>
    <path id="Sustracción_3" data-name="Sustracción 3" d="M31.879,11.243H0A17.73,17.73,0,0,1,3.394,4.326,10.28,10.28,0,0,1,8.317.742C8.476,2.21,8.769,3.18,9.8,3.8s2.782.867,5.9.867h.209c2.89-.025,4.572-.447,5.455-1.366A4.334,4.334,0,0,0,22.2,0a13.338,13.338,0,0,1,6.144,4.06,16.2,16.2,0,0,1,3.535,7.181Z" transform="translate(-231.509 -349.714)" fill="#58e5a9"/>
    <g id="Rectángulo_66" data-name="Rectángulo 66" transform="translate(-224.058 -356.855)" fill="none" stroke="#5b5c64" stroke-width="2">
      <rect width="15.794" height="12.915" rx="3" stroke="none"/>
      <rect x="1" y="1" width="13.794" height="10.915" rx="2" fill="none"/>
    </g>
    <path id="Trazado_163" data-name="Trazado 163" d="M273.5,504.509v9.322h3.716" transform="translate(-489.197 -829.669)" fill="none" stroke="#5b5c64" stroke-linecap="round" stroke-linejoin="round" stroke-width="2"/>
    <line id="Línea_15" data-name="Línea 15" x2="34.376" transform="translate(-232.885 -333.084)" fill="none" stroke="#6ae6d2" stroke-linecap="round" stroke-width="2"/>
    <g id="Unión_1" data-name="Unión 1" transform="translate(-238.915 -356.855)" fill="none">
      <path d="M14.158,52.949a23.171,23.171,0,0,1-7.369-5.594,26.417,26.417,0,0,1-4.967-8.3A28.784,28.784,0,0,1,0,28.9a41.117,41.117,0,0,1,.5-6.5,5.321,5.321,0,0,0,1.309.157H44.557a5.337,5.337,0,0,0,1.309-.157,41.167,41.167,0,0,1,.5,6.5,28.784,28.784,0,0,1-1.822,10.16,26.4,26.4,0,0,1-4.968,8.3A23.167,23.167,0,0,1,32.2,52.949a20.872,20.872,0,0,1-18.046,0ZM1.313,18.666h0A21.79,21.79,0,0,1,8.61,7.149a19.728,19.728,0,0,1,6.246-3.281V3a3,3,0,0,1,3-3h9.795a3,3,0,0,1,3,3v.613a19.977,19.977,0,0,1,7.1,3.536,21.782,21.782,0,0,1,7.3,11.516c-.161-.013-.326-.02-.49-.02H1.8c-.165,0-.329.007-.491.021Z" stroke="none"/>
      <path d="M 23.18040084838867 52.99990081787109 C 26.01179122924805 52.99990081787109 28.75823020935059 52.37525939941406 31.34368133544922 51.1431999206543 C 33.86190032958984 49.94361877441406 36.12721252441406 48.22235870361328 38.07672119140625 46.02719879150391 C 40.04268264770508 43.81362152099609 41.58732986450195 41.23236083984375 42.66785049438477 38.35486221313477 C 43.79180908203125 35.36294937133789 44.36170196533203 32.18122863769531 44.36170196533203 28.89809989929199 C 44.36170196533203 27.40505981445312 44.28610229492188 25.95001792907715 44.13636779785156 24.55220031738281 L 2.225148677825928 24.55220031738281 C 2.075541019439697 25.94876289367676 2.000000953674316 27.4038200378418 2.000000953674316 28.89809989929199 C 2.000000953674316 32.18122863769531 2.569890975952148 35.36294937133789 3.693950891494751 38.35512161254883 C 4.774200916290283 41.23191070556641 6.318641185760498 43.81327056884766 8.283830642700195 46.02692031860352 C 10.23509120941162 48.22312164306641 12.5007209777832 49.94445037841797 15.01827144622803 51.1433219909668 C 17.60347175598145 52.37525939941406 20.34960174560547 52.99990081787109 23.18040084838867 52.99990081787109 M 42.251220703125 16.64529991149902 C 40.92644119262695 13.34075260162354 39.00318908691406 10.68188762664795 36.51346206665039 8.71953010559082 C 34.68804931640625 7.280960559844971 32.53549194335938 6.21103048324585 30.11558151245117 5.539470195770264 L 28.65040016174316 5.132850646972656 L 28.65040016174316 3.612300395965576 L 28.65040016174316 2.999700307846069 C 28.65040016174316 2.448460340499878 28.20194053649902 2.000000476837158 27.65070152282715 2.000000476837158 L 17.85600090026855 2.000000476837158 C 17.30476188659668 2.000000476837158 16.85630035400391 2.448460340499878 16.85630035400391 2.999700307846069 L 16.85630035400391 3.867650508880615 L 16.85630035400391 5.326910495758057 L 15.46665096282959 5.77224063873291 C 13.36584091186523 6.445480346679688 11.47554111480713 7.437090396881104 9.848140716552734 8.719610214233398 C 7.359092712402344 10.68091773986816 5.435514450073242 13.33986568450928 4.109511375427246 16.64529991149902 L 42.251220703125 16.64529991149902 M 23.18040084838867 54.99990081787109 C 20.05110168457031 54.99990081787109 17.01540184020996 54.31050109863281 14.1579008102417 52.94879913330078 C 11.39670085906982 51.6338996887207 8.91810131072998 49.75199890136719 6.788701057434082 47.35530090332031 C 4.660201072692871 44.95769882202148 2.988900899887085 42.16680145263672 1.821601033210754 39.05820083618164 C 0.612900972366333 35.84070205688477 9.826660516409902e-07 32.42250061035156 9.826660516409902e-07 28.89809989929199 C 9.826660516409902e-07 26.63100051879883 0.166500985622406 24.44309997558594 0.4959009885787964 22.39560127258301 C 0.8937009572982788 22.49819946289062 1.345500946044922 22.55220031738281 1.804500937461853 22.55220031738281 L 44.55720138549805 22.55220031738281 C 45.01440048217773 22.55220031738281 45.46710205078125 22.49819946289062 45.86580276489258 22.39560127258301 C 46.1952018737793 24.44580078125 46.36170196533203 26.63370132446289 46.36170196533203 28.89809989929199 C 46.36170196533203 32.42250061035156 45.74880218505859 35.84070205688477 44.54010009765625 39.05820083618164 C 43.372802734375 42.16680145263672 41.70149993896484 44.95769882202148 39.57210159301758 47.35530090332031 C 37.44359970092773 49.75199890136719 34.9640998840332 51.6338996887207 32.20380020141602 52.94879913330078 C 29.34630012512207 54.31050109863281 26.31060028076172 54.99990081787109 23.18040084838867 54.99990081787109 Z M 1.314000964164734 18.66600036621094 L 1.313100934028625 18.66600036621094 L 1.313100934028625 18.66510009765625 C 2.7135009765625 13.73580074310303 5.167800903320312 9.861300468444824 8.61030101776123 7.14870023727417 C 10.43445110321045 5.71112060546875 12.52150058746338 4.615870475769043 14.85630130767822 3.867650508880615 L 14.85630130767822 2.999700307846069 C 14.85630130767822 1.342800378799438 16.19910049438477 4.089355343239731e-07 17.85600090026855 4.089355343239731e-07 L 27.65070152282715 4.089355343239731e-07 C 29.30760192871094 4.089355343239731e-07 30.65040016174316 1.342800378799438 30.65040016174316 2.999700307846069 L 30.65040016174316 3.612300395965576 C 33.33333969116211 4.356860637664795 35.70741271972656 5.537870407104492 37.75139999389648 7.14870023727417 C 41.19300079345703 9.861300468444824 43.64820098876953 13.73580074310303 45.04680252075195 18.66510009765625 C 44.88570022583008 18.65250015258789 44.72100067138672 18.64529991149902 44.55720138549805 18.64529991149902 L 1.804500937461853 18.64529991149902 C 1.639801025390625 18.64529991149902 1.475100994110107 18.65250015258789 1.314000964164734 18.66600036621094 Z" stroke="none" fill="#5b5c64"/>
    </g>
    <g id="Trazado_878" data-name="Trazado 878" transform="translate(-239.853 -340.279)" fill="none">
      <path d="M2.738,0H45.575a2.672,2.672,0,0,1,2.738,2.6V5.32a2.672,2.672,0,0,1-2.738,2.6H2.738A2.672,2.672,0,0,1,0,5.32V2.6A2.672,2.672,0,0,1,2.738,0Z" stroke="none"/>
      <path d="M 2.737628936767578 2.000001430511475 C 2.337787628173828 2.000001430511475 1.999996185302734 2.275311470031738 1.999996185302734 2.601191520690918 L 1.999996185302734 5.319951057434082 C 1.999996185302734 5.645831108093262 2.337787628173828 5.921141624450684 2.737628936767578 5.921141624450684 L 45.57469940185547 5.921141624450684 C 45.97453689575195 5.921141624450684 46.31233978271484 5.645831108093262 46.31233978271484 5.319951057434082 L 46.31233978271484 2.601191520690918 C 46.31233978271484 2.275311470031738 45.97453689575195 2.000001430511475 45.57469940185547 2.000001430511475 L 2.737628936767578 2.000001430511475 M 2.737628936767578 1.430511474609375e-06 L 45.57469940185547 1.430511474609375e-06 C 47.0866584777832 1.430511474609375e-06 48.31233978271484 1.164591312408447 48.31233978271484 2.601191520690918 L 48.31233978271484 5.319951057434082 C 48.31233978271484 6.756551265716553 47.0866584777832 7.921141147613525 45.57469940185547 7.921141147613525 L 2.737628936767578 7.921141147613525 C 1.225677490234375 7.921141147613525 -3.814697265625e-06 6.756551265716553 -3.814697265625e-06 5.319951057434082 L -3.814697265625e-06 2.601191520690918 C -3.814697265625e-06 1.164591312408447 1.225677490234375 1.430511474609375e-06 2.737628936767578 1.430511474609375e-06 Z" stroke="none" fill="#5b5c64"/>
    </g>
  </g>
</svg>
