<svg id="ic_modulos_Incidencias" xmlns="http://www.w3.org/2000/svg" width="74" height="58" viewBox="0 0 74 58">
  <g id="Grupo_1080" data-name="Grupo 1080" transform="translate(127.545 482)">
    <g id="Grupo_66" data-name="Grupo 66" transform="translate(-106.742 -478.459)">
      <path id="Trazado_67" data-name="Trazado 67" d="M-253.306,392.694c.05.057.047,4.847,0,4.948-.014.983.382,3.438-5.4,3.607s-41.3,0-41.3,0-4.234.2-4.229-3.607c-.111.038-.04-4.909,0-4.948.09-1.563.694-3.308,4.229-5.13s14.564-6.48,14.564-6.48H-271.7s13.466,4.859,15.488,6.48A6.718,6.718,0,0,1-253.306,392.694Z" transform="translate(304.292 -350.406)" fill="none" stroke="#5b5c64" stroke-width="2"/>
      <g id="Rectángulo_38" data-name="Rectángulo 38" transform="translate(12.902 0)" fill="none" stroke="#5b5c64" stroke-width="2">
        <rect width="26.18" height="33.303" rx="13.09" stroke="none"/>
        <rect x="1" y="1" width="24.18" height="31.303" rx="12.09" fill="none"/>
      </g>
      <path id="Trazado_150" data-name="Trazado 150" d="M1708.081,103.427s-2.151,7.348,0,13.039,9.5,5.12,13.868,3.989c.176.149-3.932,2.99-7.781,3.154s-8.072-2.614-9.744-6.008a11.9,11.9,0,0,1-1.262-6.322l3.019-8.345Z" transform="translate(-1688.359 -92.083)" fill="#58e5a9"/>
      <path id="Trazado_68" data-name="Trazado 68" d="M-288.891,366.461c.207-.095,3.838-7.466,3.719-7.512-.045-.136,3.765-.009,5.529,0-.016.066,1.919-4.6,1.919-4.6s2.1,4.589,2.255,4.6,6.824.014,6.931,0,3.451,6.526,3.951,7.512" transform="translate(302.794 -347.734)" fill="none" stroke="#5b5c64" stroke-linejoin="round" stroke-width="2"/>
      <path id="Trazado_69" data-name="Trazado 69" d="M-218.207,384.25s3.223,5.521,11.858,5.065,10.179-6.29,10.179-6.29" transform="translate(232.728 -351.5)" fill="none" stroke="#5b5c64" stroke-width="2"/>
      <path id="Trazado_74" data-name="Trazado 74" d="M1711.6,134.57c-.006-.009,0,7.543,0,7.543h-18.848s-2.423-.216-2.514-3.774a4.516,4.516,0,0,1,2.514-4.554l7.171-3.057A12.427,12.427,0,0,0,1711.6,134.57Z" transform="translate(-1687.19 -93.696)" fill="#58e5a9"/>
    </g>
    <line id="Línea_21" data-name="Línea 21" x2="5.594" transform="translate(-102.814 -461.638)" fill="none" stroke="#5b5c64" stroke-linecap="round" stroke-width="2"/>
    <g id="Grupo_1079" data-name="Grupo 1079" transform="translate(-0.545 0.455)">
      <g id="Trazado_215" data-name="Trazado 215" transform="translate(-125 -473.913)" fill="none">
        <path d="M11.366,0A11.366,11.366,0,1,1,0,11.366,11.366,11.366,0,0,1,11.366,0Z" stroke="none"/>
        <path d="M 11.36569881439209 1.999998092651367 C 6.201438903808594 1.999998092651367 1.999998092651367 6.201438903808594 1.999998092651367 11.36569881439209 C 1.999998092651367 16.52995872497559 6.201438903808594 20.73139953613281 11.36569881439209 20.73139953613281 C 16.52995872497559 20.73139953613281 20.73139953613281 16.52995872497559 20.73139953613281 11.36569881439209 C 20.73139953613281 6.201438903808594 16.52995872497559 1.999998092651367 11.36569881439209 1.999998092651367 M 11.36569881439209 -1.9073486328125e-06 C 17.64279937744141 -1.9073486328125e-06 22.73139953613281 5.088598251342773 22.73139953613281 11.36569881439209 C 22.73139953613281 17.64279937744141 17.64279937744141 22.73139953613281 11.36569881439209 22.73139953613281 C 5.088598251342773 22.73139953613281 -1.9073486328125e-06 17.64279937744141 -1.9073486328125e-06 11.36569881439209 C -1.9073486328125e-06 5.088598251342773 5.088598251342773 -1.9073486328125e-06 11.36569881439209 -1.9073486328125e-06 Z" stroke="none" fill="#5b5c64"/>
      </g>
      <circle id="Elipse_29" data-name="Elipse 29" cx="6.994" cy="6.994" r="6.994" transform="translate(-120.629 -469.541)" fill="#58e5a9"/>
      <g id="Grupo_73" data-name="Grupo 73" transform="translate(-115.002 -469.667)">
        <path id="Trazado_212" data-name="Trazado 212" d="M-.013-.144A.892.892,0,0,1,.321-.881a1.328,1.328,0,0,1,.842-.263,1.311,1.311,0,0,1,.847.273.889.889,0,0,1,.339.727q0,1.2-.131,4t-.133,4a.567.567,0,0,1-.293.509,1.158,1.158,0,0,1-.629.182q-.922,0-.921-.691,0-1.2-.127-4t-.128-4M.264,11.962a1.219,1.219,0,0,1,0-1.746,1.257,1.257,0,0,1,.916-.362,1.251,1.251,0,0,1,.9.362,1.188,1.188,0,0,1,0,1.736,1.232,1.232,0,0,1-.9.372,1.254,1.254,0,0,1-.916-.363" transform="translate(0.104 1.144)" fill="#5b5c64"/>
      </g>
    </g>
  </g>
  <rect id="Rectángulo_507" data-name="Rectángulo 507" width="74" height="58" fill="none"/>
</svg>
