<svg id="ic_modulos_Indoor" xmlns="http://www.w3.org/2000/svg" width="74" height="58" viewBox="0 0 74 58">
  <rect id="Rect치ngulo_507" data-name="Rect치ngulo 507" width="74" height="58" fill="none"/>
  <g id="Grupo_1067" data-name="Grupo 1067" transform="translate(18 1.851)">
    <path id="Trazado_97" data-name="Trazado 97" d="M-642.053,558.861V519.95s-.749-5.2,5.773-6.386,23.962-3.677,26.565-4.087,5.65-.773,5.625,4.087,0,45.3,0,45.3.413,5.374-3.858,5.389h-6.742l.641,0h0c-2.32.047-3.588-.353-3.429-3.38V558.3c0-2.443-.215-4.75-2.922-4.75.067-.006-5.316.021-5.337,0-2.64,0-2.861,1.792-2.861,4.75v2.568a3.256,3.256,0,0,1-3.493,3.376c-3.6,0-5.812,0-5.829,0C-641.138,564.249-642.053,562.29-642.053,558.861Z" transform="translate(642.079 -509.256)" fill="none" stroke="#5b5c64" stroke-linecap="round" stroke-linejoin="round" stroke-width="2"/>
    <path id="Trazado_98" data-name="Trazado 98" d="M1.812.554,16.31-1.2A1.784,1.784,0,0,1,18.122.554V31.3a1.784,1.784,0,0,1-1.812,1.754H1.812A1.784,1.784,0,0,1,0,31.3V2.308A1.784,1.784,0,0,1,1.812.554Z" transform="translate(15.083 7.986)" fill="#58e5a9"/>
    <g id="Trazado_147" data-name="Trazado 147" transform="translate(8.741 13.391)" fill="none">
      <path d="M1.812,0H7.249A1.823,1.823,0,0,1,9.061,1.834v5.5A1.823,1.823,0,0,1,7.249,9.172H1.812A1.823,1.823,0,0,1,0,7.338v-5.5A1.823,1.823,0,0,1,1.812,0Z" stroke="none"/>
      <path d="M 1.999999523162842 2.000000953674316 L 1.999999523162842 7.172440528869629 L 7.061239719390869 7.172440528869629 L 7.061239719390869 2.000000953674316 L 1.999999523162842 2.000000953674316 M 1.812249660491943 9.5367431640625e-07 L 7.248989582061768 9.5367431640625e-07 C 8.249869346618652 9.5367431640625e-07 9.061239242553711 0.8213310241699219 9.061239242553711 1.834490776062012 L 9.061239242553711 7.337950706481934 C 9.061239242553711 8.351110458374023 8.249869346618652 9.172440528869629 7.248989582061768 9.172440528869629 L 1.812249660491943 9.172440528869629 C 0.8113698959350586 9.172440528869629 0 8.351110458374023 0 7.337950706481934 L 0 1.834490776062012 C 0 0.8213310241699219 0.8113698959350586 9.5367431640625e-07 1.812249660491943 9.5367431640625e-07 Z" stroke="none" fill="#5b5c64"/>
    </g>
    <g id="Rect치ngulo_51" data-name="Rect치ngulo 51" transform="translate(19.614 13.391)" fill="none" stroke="#5b5c64" stroke-width="2">
      <rect width="9.061" height="9.172" rx="2" stroke="none"/>
      <rect x="1" y="1" width="7.061" height="7.172" rx="1" fill="none"/>
    </g>
    <g id="Trazado_148" data-name="Trazado 148" transform="translate(8.741 26.232)" fill="none">
      <path d="M1.812,0H7.249A1.823,1.823,0,0,1,9.061,1.834v5.5A1.823,1.823,0,0,1,7.249,9.172H1.812A1.823,1.823,0,0,1,0,7.338v-5.5A1.823,1.823,0,0,1,1.812,0Z" stroke="none"/>
      <path d="M 1.999999523162842 2.000000953674316 L 1.999999523162842 7.172440528869629 L 7.061239719390869 7.172440528869629 L 7.061239719390869 2.000000953674316 L 1.999999523162842 2.000000953674316 M 1.812249660491943 9.5367431640625e-07 L 7.248989582061768 9.5367431640625e-07 C 8.249869346618652 9.5367431640625e-07 9.061239242553711 0.8213310241699219 9.061239242553711 1.834490776062012 L 9.061239242553711 7.337950706481934 C 9.061239242553711 8.351110458374023 8.249869346618652 9.172440528869629 7.248989582061768 9.172440528869629 L 1.812249660491943 9.172440528869629 C 0.8113698959350586 9.172440528869629 0 8.351110458374023 0 7.337950706481934 L 0 1.834490776062012 C 0 0.8213310241699219 0.8113698959350586 9.5367431640625e-07 1.812249660491943 9.5367431640625e-07 Z" stroke="none" fill="#5b5c64"/>
    </g>
    <g id="Trazado_149" data-name="Trazado 149" transform="translate(19.614 26.232)" fill="none">
      <path d="M1.812,0H7.249A1.823,1.823,0,0,1,9.061,1.834v5.5A1.823,1.823,0,0,1,7.249,9.172H1.812A1.823,1.823,0,0,1,0,7.338v-5.5A1.823,1.823,0,0,1,1.812,0Z" stroke="none"/>
      <path d="M 1.999999523162842 2.000000953674316 L 1.999999523162842 7.172440528869629 L 7.061239719390869 7.172440528869629 L 7.061239719390869 2.000000953674316 L 1.999999523162842 2.000000953674316 M 1.812249660491943 9.5367431640625e-07 L 7.248989582061768 9.5367431640625e-07 C 8.249869346618652 9.5367431640625e-07 9.061239242553711 0.8213310241699219 9.061239242553711 1.834490776062012 L 9.061239242553711 7.337950706481934 C 9.061239242553711 8.351110458374023 8.249869346618652 9.172440528869629 7.248989582061768 9.172440528869629 L 1.812249660491943 9.172440528869629 C 0.8113698959350586 9.172440528869629 0 8.351110458374023 0 7.337950706481934 L 0 1.834490776062012 C 0 0.8213310241699219 0.8113698959350586 9.5367431640625e-07 1.812249660491943 9.5367431640625e-07 Z" stroke="none" fill="#5b5c64"/>
    </g>
    <path id="Trazado_99" data-name="Trazado 99" d="M1,0H6.437" transform="translate(3.092 49.961)" fill="none" stroke="#58e5a9" stroke-linecap="round" stroke-width="3"/>
  </g>
</svg>
