<svg id="ic_modulos_Inventario" xmlns="http://www.w3.org/2000/svg" width="74" height="58" viewBox="0 0 74 58">
  <rect id="Rectángulo_508" data-name="Rectángulo 508" width="74" height="58" fill="none"/>
  <g id="Grupo_1089" data-name="Grupo 1089" transform="translate(-486 -339)">
    <path id="Sustracción_7" data-name="Sustracción 7" d="M25.133,20.3H0V4A4.005,4.005,0,0,1,4,0H21.133a4.005,4.005,0,0,1,4,4V20.3Z" transform="translate(510.433 341)" fill="none" stroke="#5b5c64" stroke-linecap="round" stroke-width="2"/>
    <g id="Rectángulo_90" data-name="Rectángulo 90" transform="translate(496.9 360.333)" fill="none" stroke="#5b5c64" stroke-width="2">
      <rect width="52.2" height="24.1" rx="3" stroke="none"/>
      <rect x="1" y="1" width="50.2" height="22.1" rx="2" fill="none"/>
    </g>
    <path id="Trazado_752" data-name="Trazado 752" d="M1714.571,410.609v-8.888c0-2.138,1.5-2.712,3.911-2.712h50.372c2.875,0,3.717.852,3.717,2.712v8.888h-7.135v-4.1h-17.523v4.1h-7.763v-4.1h-17.622v4.1Z" transform="translate(-1220.571 -15.476)" fill="none" stroke="#5b5c64" stroke-linecap="round" stroke-linejoin="round" stroke-width="2"/>
    <rect id="Rectángulo_100" data-name="Rectángulo 100" width="12.567" height="2.9" rx="1.45" transform="translate(517.2 353.567)" fill="#5b5c64"/>
    <rect id="Rectángulo_101" data-name="Rectángulo 101" width="42.533" height="13.533" rx="3" transform="translate(501.733 366.133)" fill="#58e5a9"/>
    <g id="Sustracción_8" data-name="Sustracción 8" transform="translate(506.567 360.333)" fill="none">
      <path d="M5.7,13.533H3a3,3,0,0,1-3-3V0H8.7V10.534A3,3,0,0,1,5.7,13.533Z" stroke="none"/>
      <path d="M 5.699699878692627 11.53330039978027 C 6.251430034637451 11.53330039978027 6.700300216674805 11.08483982086182 6.700300216674805 10.53359985351562 L 6.700300216674805 2.000000238418579 L 2 2.000000238418579 L 2 10.53359985351562 C 2 11.08483982086182 2.448460102081299 11.53330039978027 2.99970006942749 11.53330039978027 L 5.699699878692627 11.53330039978027 M 5.699699878692627 13.53330039978027 L 2.99970006942749 13.53330039978027 C 1.345660090446472 13.53330039978027 1.083374030486084e-07 12.18764019012451 1.083374030486084e-07 10.53359985351562 L 1.083374030486084e-07 1.998901382194163e-07 L 8.700300216674805 1.998901382194163e-07 L 8.700300216674805 10.53359985351562 C 8.700300216674805 12.18764019012451 7.354239940643311 13.53330039978027 5.699699878692627 13.53330039978027 Z" stroke="none" fill="#5b5c64"/>
    </g>
    <g id="Sustracción_9" data-name="Sustracción 9" transform="translate(531.7 360.333)" fill="none">
      <path d="M5.7,13.533H3a3,3,0,0,1-3-3V0H8.7V10.534A3,3,0,0,1,5.7,13.533Z" stroke="none"/>
      <path d="M 5.699699878692627 11.53330039978027 C 6.251430034637451 11.53330039978027 6.700300216674805 11.08483982086182 6.700300216674805 10.53359985351562 L 6.700300216674805 2.000000238418579 L 2 2.000000238418579 L 2 10.53359985351562 C 2 11.08483982086182 2.448460102081299 11.53330039978027 2.99970006942749 11.53330039978027 L 5.699699878692627 11.53330039978027 M 5.699699878692627 13.53330039978027 L 2.99970006942749 13.53330039978027 C 1.345660090446472 13.53330039978027 1.083374030486084e-07 12.18764019012451 1.083374030486084e-07 10.53359985351562 L 1.083374030486084e-07 1.998901382194163e-07 L 8.700300216674805 1.998901382194163e-07 L 8.700300216674805 10.53359985351562 C 8.700300216674805 12.18764019012451 7.354239940643311 13.53330039978027 5.699699878692627 13.53330039978027 Z" stroke="none" fill="#5b5c64"/>
    </g>
    <line id="Línea_32" data-name="Línea 32" y1="22.233" transform="translate(523.483 361.783)" fill="none" stroke="#5b5c64" stroke-width="2"/>
    <path id="Trazado_753" data-name="Trazado 753" d="M-1,0H13.5" transform="translate(517.233 346.8)" fill="none" stroke="#58e5a9" stroke-linecap="round" stroke-width="5"/>
    <line id="Línea_33" data-name="Línea 33" x2="25.133" transform="translate(510.433 349.7)" fill="none" stroke="#5b5c64" stroke-width="2"/>
  </g>
</svg>
