<svg id="ic_modulos_Legalizaciones" xmlns="http://www.w3.org/2000/svg" width="74" height="58" viewBox="0 0 74 58">
  <path id="Trazado_857" data-name="Trazado 857" d="M-71.727-438.652v3.627c0,.664-.17,1.6-1.931,1.6s-.519-4.823-.519-4.823l2.449-1.77Z" transform="translate(126 481)" fill="#6ae6d2"/>
  <g id="Trazado_139" data-name="Trazado 139" transform="translate(17 2)" fill="none">
    <path d="M2.75,0h31.9C34.987.089,43.923,9.3,44,9.259v42A2.748,2.748,0,0,1,41.25,54H2.75A2.748,2.748,0,0,1,0,51.254V2.746A2.748,2.748,0,0,1,2.75,0Z" stroke="none"/>
    <path d="M 2.75 2 C 2.336448669433594 2 2 2.334548950195312 2 2.745761871337891 L 2 51.25424194335938 C 2 51.66545104980469 2.336448669433594 52 2.75 52 L 41.25 52 C 41.66355133056641 52 42 51.66545104980469 42 51.25424194335938 L 42 10.11807250976562 C 41.87060165405273 9.989826202392578 41.71994018554688 9.839595794677734 41.54607009887695 9.665451049804688 C 40.92560958862305 9.044021606445312 40.07662200927734 8.18511962890625 39.17779159545898 7.275798797607422 C 37.53890228271484 5.617782592773438 34.96718597412109 3.016036987304688 33.90439987182617 2 L 2.75 2 M 2.75 0 L 34.65430068969727 0 C 34.98658752441406 0.08890151977539062 43.87961578369141 9.258758544921875 43.99929428100586 9.258758544921875 C 43.99958801269531 9.258758544921875 43.99981307983398 9.258708953857422 44 9.258598327636719 L 44 51.25424194335938 C 44 52.77067947387695 42.76877975463867 54 41.25 54 L 2.75 54 C 1.231220245361328 54 0 52.77067947387695 0 51.25424194335938 L 0 2.745761871337891 C 0 1.229320526123047 1.231220245361328 0 2.75 0 Z" stroke="none" fill="#5b5c64"/>
  </g>
  <path id="Trazado_146" data-name="Trazado 146" d="M8.247,4.471V0H21.28A2.241,2.241,0,0,1,23.34,2.386V35.8a2.241,2.241,0,0,1-2.059,2.386H4.129V35.8L0,34.7S.095,16.508,0,16.513c3.371,1.024,8.68.563,8.68.563,1.581-1.819,3.42-4.774,2.87-7.4C10.957,6.817,7.59,4.471,8.247,4.471Z" transform="translate(54.273 47.572) rotate(180)" fill="#58e5a9"/>
  <path id="Trazado_140" data-name="Trazado 140" d="M-270.983,444.509v9h9" transform="translate(320.983 -441.509)" fill="none" stroke="#5b5c64" stroke-linecap="round" stroke-linejoin="round" stroke-width="2"/>
  <path id="Trazado_141" data-name="Trazado 141" d="M-378.5,461.375h9" transform="translate(402.499 -445.375)" fill="none" stroke="#5b5c64" stroke-linecap="round" stroke-width="2"/>
  <path id="Trazado_142" data-name="Trazado 142" d="M-378.5,461.375h9" transform="translate(402.499 -428.375)" fill="none" stroke="#5b5c64" stroke-linecap="round" stroke-width="2"/>
  <path id="Trazado_143" data-name="Trazado 143" d="M-378.5,461.375h26" transform="translate(402.499 -439.375)" fill="none" stroke="#5b5c64" stroke-linecap="round" stroke-width="2"/>
  <path id="Trazado_144" data-name="Trazado 144" d="M-378.5,461.375h18" transform="translate(402.499 -434.375)" fill="none" stroke="#5b5c64" stroke-linecap="round" stroke-width="2"/>
  <path id="Trazado_145" data-name="Trazado 145" d="M-275.186,496.986v8.6l3.178-3.225,2.822,3.225v-8.6a6.684,6.684,0,0,1-2.822.6A8.022,8.022,0,0,1-275.186,496.986Z" transform="translate(321.186 -453.892)" fill="none" stroke="#5b5c64" stroke-linejoin="round" stroke-width="2"/>
  <g id="Trazado_858" data-name="Trazado 858" transform="translate(41 28.545)" fill="none">
    <path d="M8,0A8,8,0,1,1,0,8,8,8,0,0,1,8,0Z" stroke="none"/>
    <path d="M 8 2 C 4.691590309143066 2 2 4.691590309143066 2 8 C 2 11.30841064453125 4.691590309143066 14 8 14 C 11.30841064453125 14 14 11.30841064453125 14 8 C 14 4.691590309143066 11.30841064453125 2 8 2 M 8 0 C 12.41827964782715 0 16 3.581720352172852 16 8 C 16 12.41827964782715 12.41827964782715 16 8 16 C 3.581720352172852 16 0 12.41827964782715 0 8 C 0 3.581720352172852 3.581720352172852 0 8 0 Z" stroke="none" fill="#5b5c64"/>
  </g>
  <rect id="Rectángulo_507" data-name="Rectángulo 507" width="74" height="58" fill="none"/>
</svg>
