<svg id="ic_modulos_Mantenimiento" xmlns="http://www.w3.org/2000/svg" width="74" height="58" viewBox="0 0 74 58">
  <path id="Trazado_198" data-name="Trazado 198" d="M304.629,253.108l4.886-4.833s-1.29-4.985,1.93-8.631,7.928-4.27,10.835-2.039c.029,0-4.4,4.935-4.4,4.935s-1.926,2.039-.433,3.788,3.372,1.281,4.6,0,4.909-4.535,4.82-4.612c1.48,1.6,1.743,7.061-1.788,10.7s-9.154,2.557-9.154,2.557l-2.886,2.948-1.982,2.113a19.856,19.856,0,0,1-4.145-2.55C305.375,256.117,304.629,253.108,304.629,253.108Z" transform="translate(-266.889 -231.788)" fill="none" stroke="#5b5c64" stroke-linecap="round" stroke-linejoin="round" stroke-width="2"/>
  <path id="Trazado_199" data-name="Trazado 199" d="M.661,16.478l4.481-4.511s-1.29-4.985,1.93-8.631S15-.933,17.907,1.3c.029,0-4.4,4.935-4.4,4.935s-1.926,2.039-.433,3.788,3.372,1.281,4.6,0,4.909-4.535,4.82-4.612c1.48,1.6,1.743,7.061-1.788,10.7s-9.154,2.557-9.154,2.557L6.989,23.5a10.707,10.707,0,0,1-4.055-2.224C1.694,19.884.661,16.478.661,16.478Z" transform="translate(36.774 54) rotate(-180)" fill="none" stroke="#5b5c64" stroke-linecap="round" stroke-linejoin="round" stroke-width="2"/>
  <path id="Trazado_200" data-name="Trazado 200" d="M294.8,253.669h0l-8.576-8.5v-5.05l-8.672-3.411-2.482,2.313,2.482,9.234H282.4l8.663,9.242Z" transform="translate(-262.076 -232.711)" fill="none" stroke="#5b5c64" stroke-width="2"/>
  <path id="Trazado_201" data-name="Trazado 201" d="M292.049,261.9l8.371-8.426,2.607,2.624a13.065,13.065,0,0,0,1.936,4.188,13.351,13.351,0,0,0,3.755,2.314l15.558,15.661s3.251,2.785.874,5.153-4.495,4.291-4.495,4.291a3.111,3.111,0,0,1-4.3,0c-2.158-2.012-14.355-14.8-14.355-14.8a12.659,12.659,0,0,0-2.384-4.92,9.666,9.666,0,0,0-4.995-2.7Z" transform="translate(-265.229 -234.874)" fill="none" stroke="#5b5c64" stroke-width="2"/>
  <path id="Trazado_204" data-name="Trazado 204" d="M296.89,259.165l3.075-2.965,1.557,1.546s.475,2.963,1.606,4.191a13.5,13.5,0,0,0,4.085,2.31l13.5,13.268s3.251,2.785.874,5.153c-.59.587.341-.5-.414.227Z" transform="translate(-265.228 -233.874)" fill="#58e5a9"/>
  <path id="Trazado_205" data-name="Trazado 205" d="M295.171,297.15l-13.706-13.8" transform="translate(-237.845 -246.569)" fill="none" stroke="#5b5c64" stroke-linecap="round" stroke-width="2"/>
  <line id="Línea_20" data-name="Línea 20" x1="3" y1="1" transform="translate(17.5 8.5)" fill="none" stroke="#58e5a9" stroke-linecap="round" stroke-width="2"/>
  <path id="Trazado_206" data-name="Trazado 206" d="M1714.2,234.663s0,.818,1.231,1.876,1.767.691,1.767.691l3.221-3.367a4.318,4.318,0,0,1-1.976-.809,3.1,3.1,0,0,1-.993-1.83Z" transform="translate(-1673.491 -212.503)" fill="#58e5a9"/>
  <path id="Trazado_207" data-name="Trazado 207" d="M1714.2,234.663s0,.818,1.231,1.876,1.767.691,1.767.691l3.221-3.367a4.318,4.318,0,0,1-1.976-.809,3.1,3.1,0,0,1-.993-1.83Z" transform="translate(1748.128 270.014) rotate(180)" fill="#58e5a9"/>
  <path id="Trazado_208" data-name="Trazado 208" d="M1722.928,232.718s3.82,1.2,6.35-.988" transform="translate(-1674 -213)" fill="none" stroke="#58e5a9" stroke-linecap="round" stroke-width="2"/>
  <path id="Trazado_209" data-name="Trazado 209" d="M1722.928,232.718s3.82,1.2,6.35-.988" transform="matrix(0.602, -0.799, 0.799, 0.602, -1197.286, 1286.061)" fill="none" stroke="#58e5a9" stroke-linecap="round" stroke-width="2"/>
  <rect id="Rectángulo_507" data-name="Rectángulo 507" width="74" height="58" fill="none"/>
</svg>
