<svg id="ic_modulos_Reporting" xmlns="http://www.w3.org/2000/svg" width="74" height="58" viewBox="0 0 74 58">
  <g id="Grupo_1108" data-name="Grupo 1108" transform="translate(-625 -473)">
    <g id="Trazado_829" data-name="Trazado 829" transform="translate(636 482.414)" fill="none" stroke-linecap="round" stroke-linejoin="round">
      <path d="M22.4,0c.216.22,0,22.793,0,22.793s22.224-.147,22.4,0A22.6,22.6,0,0,1,22.4,45.586,22.6,22.6,0,0,1,0,22.793,22.6,22.6,0,0,1,22.4,0Z" stroke="none"/>
      <path d="M 22.39980888366699 -7.62939453125e-06 C 10.02873992919922 -7.62939453125e-06 0 10.20471572875977 0 22.7928638458252 C 0 35.38101196289062 10.02873992919922 45.58572387695312 22.39980888366699 45.58572387695312 C 34.77087783813477 45.58572387695312 44.79961776733398 35.38101196289062 44.79961776733398 22.7928638458252 C 44.74084091186523 22.74398040771484 42.23299407958984 22.72769165039062 38.91390228271484 22.72769546508789 C 32.27693176269531 22.72770309448242 22.39980888366699 22.7928638458252 22.39980888366699 22.7928638458252 C 22.39980888366699 22.7928638458252 22.61592864990234 0.2199134826660156 22.39980888366699 -7.62939453125e-06 M 22.39980888366699 -2.000007629394531 C 22.93628883361816 -2.000007629394531 23.45026969909668 -1.784477233886719 23.8262882232666 -1.401847839355469 C 24.37278938293457 -0.8457374572753906 24.40989875793457 -0.2058868408203125 24.43206977844238 0.1764144897460938 C 24.44357872009277 0.3748741149902344 24.45314979553223 0.6430435180664062 24.46131896972656 0.9962348937988281 C 24.47560882568359 1.613502502441406 24.4855785369873 2.504585266113281 24.49095916748047 3.644721984863281 C 24.49995803833008 5.550662994384766 24.49654960632324 8.189662933349609 24.4808292388916 11.48842239379883 C 24.46387100219727 15.04781150817871 24.43600273132324 18.62573051452637 24.41775321960449 20.78050422668457 C 27.66822814941406 20.76158905029297 34.15535736083984 20.72770118713379 38.91389846801758 20.72769355773926 C 40.70970916748047 20.72769355773926 42.11771011352539 20.73252296447754 43.09878921508789 20.74204444885254 C 43.65853881835938 20.74747467041016 44.07723999023438 20.7542839050293 44.37880706787109 20.76287460327148 C 44.96862030029297 20.77965354919434 45.52571868896484 20.79550361633301 46.07838821411133 21.25509452819824 C 46.53532791137695 21.63507461547852 46.79961776733398 22.19857406616211 46.79961776733398 22.7928638458252 C 46.79961776733398 26.13471412658691 46.15583038330078 29.37797355651855 44.88613891601562 32.43253326416016 C 43.65924835205078 35.38412475585938 41.9027099609375 38.03506469726562 39.66532897949219 40.31171417236328 C 37.42556762695312 42.59077453613281 34.81612014770508 44.38065338134766 31.90947914123535 45.63163375854492 C 28.8967399597168 46.92827224731445 25.69721794128418 47.58572387695312 22.39980888366699 47.58572387695312 C 19.1023998260498 47.58572387695312 15.90287971496582 46.92827224731445 12.89013862609863 45.63163375854492 C 9.983497619628906 44.38065338134766 7.374050140380859 42.59077453613281 5.134288787841797 40.31171417236328 C 2.896907806396484 38.03506469726562 1.140369415283203 35.38412475585938 -0.08652114868164062 32.43253326416016 C -1.356212615966797 29.37797355651855 -2 26.13471412658691 -2 22.7928638458252 C -2 19.45101356506348 -1.356212615966797 16.20775413513184 -0.08652114868164062 13.15319442749023 C 1.140369415283203 10.20159530639648 2.896907806396484 7.550662994384766 5.134288787841797 5.274013519287109 C 7.374050140380859 2.994953155517578 9.983497619628906 1.205074310302734 12.89013862609863 -0.04590606689453125 C 15.90287971496582 -1.342555999755859 19.1023998260498 -2.000007629394531 22.39980888366699 -2.000007629394531 Z" stroke="none" fill="#5b5c64"/>
    </g>
    <g id="Trazado_830" data-name="Trazado 830" transform="translate(665.536 498.793) rotate(-90)" fill="none" stroke-linecap="round" stroke-linejoin="round">
      <path d="M0,.064s22.613-.144,22.793,0c0,12.371-11.249,22.176-22.793,22.4C.037,22.606,0,.064,0,.064Z" stroke="none"/>
      <path d="M 16.80386924743652 3.814697265625e-06 C 10.05043792724609 3.814697265625e-06 1.9073486328125e-06 0.06404876708984375 1.9073486328125e-06 0.06404876708984375 C 1.9073486328125e-06 0.06404876708984375 0.03638267517089844 22.32316780090332 1.9073486328125e-06 22.46385955810547 C 11.54345226287842 22.24034881591797 22.79286193847656 12.43511867523193 22.79286193847656 0.06404876708984375 C 22.73305511474609 0.01601028442382812 20.18120193481445 3.814697265625e-06 16.80386924743652 3.814697265625e-06 M 0.000690460205078125 22.46384620666504 C 0.0001163482666015625 22.46430015563965 0.000232696533203125 22.46452522277832 0.000347137451171875 22.46452522277832 C 0.000461578369140625 22.46452522277832 0.000576019287109375 22.46429443359375 1.9073486328125e-06 22.46385955810547 M 16.80387115478516 -1.999990463256836 C 18.63096237182617 -1.999990463256836 20.06333160400391 -1.995250701904297 21.06118202209473 -1.98590087890625 C 21.63010215759277 -1.980571746826172 22.05551147460938 -1.973880767822266 22.36173248291016 -1.965471267700195 C 22.97185134887695 -1.948701858520508 23.49877166748047 -1.934221267700195 24.04530143737793 -1.495241165161133 C 24.51792144775391 -1.115631103515625 24.79286193847656 -0.5421504974365234 24.79286193847656 0.06404876708984375 C 24.79286193847656 3.349119186401367 24.07832145690918 6.55518913269043 22.66908264160156 9.593229293823242 C 21.34715270996094 12.44304847717285 19.47334289550781 15.02661895751953 17.09969139099121 17.27216911315918 C 12.4084644317627 21.71020698547363 6.213325500488281 24.32894897460938 0.09401893615722656 24.46235084533691 C 0.06295013427734375 24.46379661560059 0.03170013427734375 24.46452903747559 0.0003414154052734375 24.46452903747559 C -0.9173984527587891 24.46452903747559 -1.717697143554688 23.83926963806152 -1.940288543701172 22.94892883300781 C -1.977041244506836 22.80191230773926 -1.996623992919922 22.65277290344238 -1.999610900878906 22.50415229797363 C -2.00071907043457 22.44931793212891 -1.999574661254883 22.39440536499023 -1.996145248413086 22.33941841125488 C -1.973796844482422 21.4120922088623 -1.986110687255859 8.56242561340332 -1.999998092651367 0.06731796264648438 C -2.001798629760742 -1.033550262451172 -1.113588333129883 -1.928890228271484 -0.01273727416992188 -1.935911178588867 C 0.08782196044921875 -1.936552047729492 10.12137222290039 -1.999990463256836 16.80387115478516 -1.999990463256836 Z" stroke="none" fill="#5b5c64"/>
    </g>
    <path id="Trazado_831" data-name="Trazado 831" d="M0,.056s19.745-.126,19.9,0c0,10.8-9.822,19.363-19.9,19.558C.032,19.738,0,.056,0,.056Z" transform="translate(665.668 498.669) rotate(-90)" fill="#58e5a9"/>
    <path id="Trazado_832" data-name="Trazado 832" d="M18.934,0c.183.186,0,19.266,0,19.266s18.785-.124,18.934,0A19.1,19.1,0,0,1,18.934,38.532,19.1,19.1,0,0,1,0,19.266,19.1,19.1,0,0,1,18.934,0Z" transform="translate(639.466 485.941)" fill="#58e5a9"/>
  </g>
  <rect id="Rectángulo_509" data-name="Rectángulo 509" width="74" height="58" fill="none"/>
</svg>
