<svg id="ic_modulos_Comparticiones" xmlns="http://www.w3.org/2000/svg" width="74" height="58" viewBox="0 0 74 58">
  <rect id="Rect치ngulo_510" data-name="Rect치ngulo 510" width="74" height="58" fill="none"/>
  <g id="Grupo_1120" data-name="Grupo 1120" transform="translate(255.121 359)">
    <path id="Trazado_881" data-name="Trazado 881" d="M1.818,0A1.828,1.828,0,0,1,3.634,1.841V3.668A1.834,1.834,0,0,1,1.814,5.514,1.828,1.828,0,0,1,0,3.671V1.844A1.834,1.834,0,0,1,1.818,0Z" transform="translate(-239.992 -339.546) rotate(-3)" fill="#5b5c64"/>
    <path id="Trazado_67" data-name="Trazado 67" d="M-252.967,392.941c.05.058.047,4.95,0,5.053-.015,1,.384,3.511-5.431,3.683s-41.577,0-41.577,0-4-.127-4.257-3.683c-.111.039-.04-5.013,0-5.053.143-1.786.7-3.378,4.257-5.239s14.661-6.618,14.661-6.618h13.831s13.555,4.962,15.592,6.618A6.887,6.887,0,0,1-252.967,392.941Z" transform="translate(67.809 -705.999)" fill="none" stroke="#5b5c64" stroke-width="2"/>
    <g id="Rect치ngulo_38" data-name="Rect치ngulo 38" transform="translate(-223.495 -356.244)" fill="none" stroke="#5b5c64" stroke-width="2">
      <rect width="26.355" height="34.01" rx="13.177" stroke="none"/>
      <rect x="1" y="1" width="24.355" height="32.01" rx="12.177" fill="none"/>
    </g>
    <path id="Trazado_150" data-name="Trazado 150" d="M1708.114,103.437s-2.165,7.5,0,13.316,9.665,5.859,13.265,4.758c.177.153-3.262,2.369-7.137,2.537s-8.125-2.67-9.808-6.136a12.306,12.306,0,0,1-1.27-6.456l3.039-8.523Z" transform="translate(-1924.744 -448.097)" fill="#58e5a9"/>
    <path id="Trazado_73" data-name="Trazado 73" d="M1706.549,106.941s-.22,6.059,1.5,10.239a9.943,9.943,0,0,0,11.6,5.628c.275.169-1.97,2-5.845,2.167s-7.73-3.311-9.413-6.777a29,29,0,0,1-2.21-5.93v-4.333Z" transform="translate(-1939.35 -448.383)" fill="#58e5a9"/>
    <path id="Trazado_68" data-name="Trazado 68" d="M-288.891,366.718c.209-.1,3.864-7.624,3.744-7.672-.046-.139,3.79-.009,5.565,0-.016.068,1.932-4.7,1.932-4.7s2.118,4.687,2.27,4.7,6.87.015,6.977,0,3.474,6.665,3.978,7.672" transform="translate(66.404 -703.838)" fill="none" stroke="#5b5c64" stroke-linejoin="round" stroke-width="2"/>
    <path id="Trazado_69" data-name="Trazado 69" d="M-218.207,384.276s3.244,5.639,11.937,5.173,10.247-6.424,10.247-6.424" transform="translate(-3.658 -707.075)" fill="none" stroke="#5b5c64" stroke-width="2"/>
    <path id="Trazado_70" data-name="Trazado 70" d="M-413.292,526.583l16.253-5.708" transform="translate(175.174 -866.688)" fill="none" stroke="#5b5c64" stroke-width="2"/>
    <path id="Trazado_74" data-name="Trazado 74" d="M1711.743,134.652c-.006-.009,0,7.7,0,7.7H1692.77s-2.439-.22-2.531-3.855,2.531-4.651,2.531-4.651l7.219-3.122A12.424,12.424,0,0,0,1711.743,134.652Z" transform="translate(-1923.653 -449.154)" fill="#58e5a9"/>
    <path id="Trazado_75" data-name="Trazado 75" d="M1676.208,134.87v3.924" transform="translate(-1922.464 -447.482)" fill="none" stroke="#58e5a9" stroke-linecap="round" stroke-width="4"/>
    <path id="Trazado_879" data-name="Trazado 879" d="M-219.086-350.856a11.977,11.977,0,0,0-6.633-1.617c-6.388.168-11.77,5.845-11.308,14.383s5.768,15.755,11.765,15.236,8.12-2.793,8.12-2.793" transform="translate(-0.585 -0.104)" fill="none" stroke="#5b5c64" stroke-width="2"/>
    <path id="Trazado_880" data-name="Trazado 880" d="M-231.584-324.022s-13.785,5.732-15.426,6.76-4.047,2.138-4.091,4.338,0,3.7,0,5.762.723,3.575,4.765,3.558,12.961,0,12.961,0" transform="translate(0 -0.893)" fill="none" stroke="#5b5c64" stroke-width="2"/>
  </g>
</svg>
