<svg id="ic_modulos_Renegociaciones" xmlns="http://www.w3.org/2000/svg" width="74" height="58" viewBox="0 0 74 58">
  <rect id="Rectángulo_510" data-name="Rectángulo 510" width="74" height="58" fill="none"/>
  <g id="Grupo_1125" data-name="Grupo 1125" transform="translate(254 449)">
    <path id="Trazado_221" data-name="Trazado 221" d="M500.671,452.974h15.146c1.49,0,4.125.427,3.933-2.678s.557-4.228,3-4.228h7.981a4.569,4.569,0,0,0,4.365-2.086c1.984-2.6,11.066-14.786,11.066-14.786s3.337-3.2,0-6.538-6.182-.789-7.661.8-5.837,6.929-5.837,6.929H512.345c-5.6,0-11.674,5.2-11.674,11.515Z" transform="translate(-739.659 -845.756)" fill="none" stroke="#5b5c64" stroke-linecap="round" stroke-linejoin="round" stroke-width="2"/>
    <path id="Trazado_222" data-name="Trazado 222" d="M522.511,442.4h10.706s4.531.073,5.056-3.341-1.137-5.286-5.056-5.589" transform="translate(-744.257 -848.862)" fill="none" stroke="#5b5c64" stroke-linecap="round" stroke-linejoin="round" stroke-width="2"/>
    <path id="Trazado_223" data-name="Trazado 223" d="M1889.821,278.611c.3-.5-1.739-12.466,6.675-12.466" transform="translate(-2124.203 -676.463)" fill="none" stroke="#58e5a9" stroke-linecap="round" stroke-width="3"/>
    <path id="Trazado_224" data-name="Trazado 224" d="M1926.4,261.838l4.254-5.41" transform="translate(-2128.078 -675.434)" fill="none" stroke="#58e5a9" stroke-linecap="round" stroke-width="3"/>
    <g id="Trazado_882" data-name="Trazado 882" transform="translate(-235.118 -448.334)" fill="none">
      <path d="M17.559,0A17.543,17.543,0,0,1,35.119,17.527c0,7.4-5.244,13.709-9.092,15.686-.5.817-7.47.885-7.488.771-.226-.086-7.256-.067-7.156,0-2.281-.08-4.04-1.543-5.293-2.536C2.337,28.489,0,23.145,0,17.527A17.543,17.543,0,0,1,17.559,0Z" stroke="none"/>
      <path d="M 17.55933380126953 2 C 13.40260314941406 2 9.494853973388672 3.615591049194336 6.555944442749023 6.549171447753906 C 3.618003845214844 9.481781005859375 2.000003814697266 13.38061141967773 2.000003814697266 17.52746200561523 C 2.000003814697266 20.01044082641602 2.508224487304688 22.48498153686523 3.46971321105957 24.68355178833008 C 4.409673690795898 26.83288192749023 5.743574142456055 28.62928199768066 7.330513000488281 29.88116073608398 L 7.472383499145508 29.99374198913574 C 8.524602890014648 30.82949066162109 9.82600212097168 31.8630485534668 11.30427932739258 31.9773063659668 C 11.31488227844238 31.97645950317383 11.32552337646484 31.97567367553711 11.33622360229492 31.97495079040527 C 11.41785430908203 31.96943092346191 11.5185546875 31.9648323059082 11.65316390991211 31.96047210693359 C 11.87124443054199 31.95340156555176 12.17673301696777 31.94718170166016 12.56115341186523 31.94199180603027 C 13.27764320373535 31.93231201171875 14.23170471191406 31.92676162719727 15.17871475219727 31.92676162719727 C 17.7818775177002 31.92676162719727 18.55246543884277 31.95005798339844 18.92570114135742 32.01888275146484 C 19.02419471740723 32.02260208129883 19.20116233825684 32.02692031860352 19.49160385131836 32.02692031860352 C 21.67008590698242 32.02692031860352 23.8266487121582 31.84515380859375 24.67523002624512 31.65863418579102 L 25.11264419555664 31.4339714050293 C 26.86343383789062 30.53476142883301 28.86639404296875 28.57157135009766 30.33989334106445 26.31052207946777 C 31.60755348205566 24.36532211303711 33.1186637878418 21.26253128051758 33.1186637878418 17.52746200561523 C 33.1186637878418 13.38061141967773 31.50066375732422 9.481781005859375 28.56272315979004 6.549171447753906 C 25.62381362915039 3.615591049194336 21.716064453125 2 17.55933380126953 2 M 17.55933380126953 0 C 27.25708389282227 0 35.1186637878418 7.847311019897461 35.1186637878418 17.52746200561523 C 35.1186637878418 24.92304229736328 29.87428283691406 31.23674201965332 26.02638244628906 33.21304321289062 C 25.64522361755371 33.84211349487305 21.42257308959961 34.02692413330078 19.49160003662109 34.02692413330078 C 18.91468048095703 34.02692413330078 18.54249954223633 34.01043701171875 18.53823471069336 33.98437118530273 C 18.43263053894043 33.94393157958984 16.83660697937012 33.9267578125 15.1787166595459 33.9267578125 C 13.29377746582031 33.9267578125 11.32878875732422 33.94894790649414 11.38201332092285 33.98437118530273 C 9.100683212280273 33.90468978881836 7.341924667358398 32.44181060791016 6.088533401489258 31.44879150390625 C 2.336563110351562 28.4890308380127 3.814697265625e-06 23.14533233642578 3.814697265625e-06 17.52746200561523 C 3.814697265625e-06 7.847311019897461 7.861583709716797 0 17.55933380126953 0 Z" stroke="none" fill="#5b5c64"/>
    </g>
    <ellipse id="Elipse_64" data-name="Elipse 64" cx="12.269" cy="12.269" rx="12.269" ry="12.269" transform="translate(-229.859 -443.076)" fill="#58e5a9"/>
    <g id="Grupo_1124" data-name="Grupo 1124" transform="translate(-224.561 -438.815)">
      <path id="Trazado_217" data-name="Trazado 217" d="M-.037-1.586A1.212,1.212,0,0,1-.3-2.394a1.317,1.317,0,0,1,.259-.833.808.808,0,0,1,.668-.336H1.672V-4.909H.631a.831.831,0,0,1-.668-.31A1.219,1.219,0,0,1-.3-6.027a1.322,1.322,0,0,1,.259-.834A.812.812,0,0,1,.631-7.2H1.672V-7.69A4.891,4.891,0,0,1,3.11-11.585,5.592,5.592,0,0,1,6.9-12.829a6.149,6.149,0,0,1,3.881,1.166,3.771,3.771,0,0,1,1.506,3.141,1.3,1.3,0,0,1-.339,1.055,1.84,1.84,0,0,1-1.132.27c-.98,0-1.471-.286-1.471-.853a2.474,2.474,0,0,0-.52-1.538,2.143,2.143,0,0,0-1.81-.683q-2.4,0-2.4,2.58V-7.2H6.743a.845.845,0,0,1,.655.349,1.228,1.228,0,0,1,.3.82,1.143,1.143,0,0,1-.3.8.87.87,0,0,1-.655.322H4.614v1.347H6.743a.842.842,0,0,1,.655.349,1.2,1.2,0,0,1,.3.795,1.168,1.168,0,0,1-.3.82.87.87,0,0,1-.655.324H4.614v.349A2.21,2.21,0,0,0,5.159.482a2.3,2.3,0,0,0,1.879.666A2.2,2.2,0,0,0,8.813.512a2.35,2.35,0,0,0,.53-1.56.918.918,0,0,1,.351-.82,2.063,2.063,0,0,1,1.12-.236,1.641,1.641,0,0,1,1.145.314A1.654,1.654,0,0,1,12.286-.6,3.765,3.765,0,0,1,10.78,2.539,6.144,6.144,0,0,1,6.9,3.706,5.512,5.512,0,0,1,3.052,2.451,4.328,4.328,0,0,1,1.672-.909v-.365H.631a.835.835,0,0,1-.668-.312" transform="translate(0.296 12.829)" fill="#5c5c5c"/>
    </g>
  </g>
</svg>
