<svg xmlns="http://www.w3.org/2000/svg" xmlns:xlink="http://www.w3.org/1999/xlink" width="86.579" height="96.993" viewBox="0 0 86.579 96.993"><defs><clipPath id="a"><rect width="86.579" height="96.993" fill="none"/></clipPath></defs><g clip-path="url(#a)"><path d="M75.406,101.956c-6.279,0-14.417-.04-14.881-.042h-.072a3.431,3.431,0,0,1-2.381-.906,2.857,2.857,0,0,1-.807-1.98,13.4,13.4,0,0,1-.032-1.576c0-.329.007-.671.013-.938,0-.181.007-.33.019-.458h0c.086-1.566.94-2.707,2.769-3.7,1.892-1.03,7.572-3.564,7.812-3.672l.194-.087h7.7l.172.066c.018.007,1.825.7,3.739,1.488,3.83,1.584,4.515,2.1,4.755,2.3a4.794,4.794,0,0,1,1.925,3.609h0c.012.132.014.288.017.485,0,.252,0,.59,0,.953,0,.839,0,1.233-.019,1.452,0,.014,0,.029,0,.044a2.522,2.522,0,0,1-.611,1.835,4.384,4.384,0,0,1-3.229,1.091C81.578,101.941,79.193,101.956,75.406,101.956ZM60.5,99.912h.018c.084,0,8.463.042,14.892.042,3.767,0,6.131-.014,7.027-.042,1.349-.042,1.728-.346,1.812-.439s.092-.219.089-.468c0-.047,0-.091,0-.131l0-.2.008-.019c.011-.477.012-1.853,0-2.314l-.01-.17A2.838,2.838,0,0,0,83.2,94.043l-.031-.022L83.143,94a58.907,58.907,0,0,0-7.771-3.4H68.464c-1.028.46-5.844,2.627-7.477,3.515-1.665.906-1.7,1.626-1.728,2.056l-.012.21c-.007.241-.013.668-.016,1.1l.031-.011V98.89a.894.894,0,0,0,.225.705,1.5,1.5,0,0,0,.966.319h.012Z" transform="translate(-25.951 -39.31)" fill="#494951"/><path d="M77.99,58.918A7.621,7.621,0,0,1,85.417,66.7v4a7.435,7.435,0,1,1-14.854,0v-4A7.621,7.621,0,0,1,77.99,58.918Zm0,17.569A5.621,5.621,0,0,0,83.417,70.7v-4a5.438,5.438,0,1,0-10.854,0v4A5.621,5.621,0,0,0,77.99,76.487Z" transform="translate(-31.894 -26.289)" fill="#494951"/><path d="M75.027,70.046s-1.144,4.124,0,7.318,5.05,2.874,7.372,2.239a7.41,7.41,0,0,1-4.136,1.77A5.955,5.955,0,0,1,73.083,78a7,7,0,0,1-.671-3.548l1.6-4.684Z" transform="translate(-32.264 -30.611)" fill="#4de298"/><path d="M72,73.231l-.87-1.8a.932.932,0,0,0-.379.326c.21-.341,1.6-3.3,1.816-3.864a1,1,0,0,1,.176-.382c.325-.433.742-.432,1.433-.431.368,0,.838.01,1.293.019l.339.007c.218-.553.536-1.361.763-1.938a1,1,0,0,1,1.848-.032c.3.7.658,1.5.886,1.983.983,0,2.88,0,3.037,0-.007,0-.043,0-.091.008a1.016,1.016,0,0,1,1.017.51c.025.042.054.093.091.16.057.105.133.251.231.445.163.32.386.768.663,1.332.515,1.047,1.032,2.118,1.132,2.326l-1.8.867c-.47-.978-1.354-2.789-1.789-3.645-1.126.006-3.151-.006-3.169-.007a1.093,1.093,0,0,1-.88-.635c-.045-.083-.1-.193-.169-.336l-.015-.032-.106.267-.036.089a1,1,0,0,1-.943.65h0c-.284,0-.654-.009-1.047-.016-.36-.007-.83-.016-1.192-.018-.155.355-.387.862-.735,1.6-.256.547-.5,1.056-.685,1.431C72.465,72.824,72.347,73.063,72,73.231Z" transform="translate(-31.894 -28.752)" fill="#494951"/><path d="M77.92,94.989a7.475,7.475,0,0,1-6.639-3.374l1.75-.968,0-.007c.06.1,1.515,2.551,5.377,2.336,3.811-.212,4.49-2.749,4.5-2.775l1.94.486a5.263,5.263,0,0,1-1.217,2.1,7.189,7.189,0,0,1-5.108,2.184C78.313,94.983,78.114,94.989,77.92,94.989Z" transform="translate(-32.158 -39.682)" fill="#494951"/><path d="M72.5,98.106c0-.005,0,4.234,0,4.234H62.479s-1.288-.121-1.336-2.118a2.567,2.567,0,0,1,1.336-2.556l3.812-1.716A6.4,6.4,0,0,0,72.5,98.106" transform="translate(-27.243 -42.098)" fill="#4de298"/><path d="M111,118.191c-6.28,0-14.419-.04-14.882-.042h-.072a3.432,3.432,0,0,1-2.381-.906,2.858,2.858,0,0,1-.807-1.98,13.4,13.4,0,0,1-.032-1.576c0-.329.007-.671.013-.938,0-.181.007-.33.019-.458h0c.086-1.566.94-2.707,2.769-3.7,1.892-1.03,7.572-3.564,7.812-3.672l.194-.087h7.7l.172.066c.018.007,1.825.7,3.739,1.488,3.83,1.584,4.515,2.1,4.755,2.3a4.794,4.794,0,0,1,1.925,3.609h0c.012.132.014.288.017.485,0,.252,0,.59,0,.953,0,.839,0,1.233-.019,1.452,0,.014,0,.029,0,.044a2.522,2.522,0,0,1-.611,1.835,4.384,4.384,0,0,1-3.229,1.091C117.174,118.176,114.789,118.191,111,118.191Zm-14.91-2.043h.018c.084,0,8.463.042,14.892.042,3.767,0,6.131-.014,7.027-.042,1.349-.042,1.728-.346,1.812-.439s.092-.219.089-.468c0-.047,0-.091,0-.131l0-.2.008-.019c.011-.477.012-1.854,0-2.314l-.01-.17a2.838,2.838,0,0,0-1.133-2.127l-.031-.022-.029-.025a58.907,58.907,0,0,0-7.771-3.4H104.06c-1.028.46-5.844,2.627-7.477,3.515-1.665.906-1.7,1.626-1.728,2.056l-.012.211c-.007.241-.013.668-.016,1.1l.031-.011v1.428a.894.894,0,0,0,.225.705,1.5,1.5,0,0,0,.966.319h.012Z" transform="translate(-41.815 -46.433)" fill="#494951"/><path d="M113.587,75.153a7.621,7.621,0,0,1,7.427,7.786v4a7.435,7.435,0,1,1-14.854,0v-4A7.621,7.621,0,0,1,113.587,75.153Zm0,17.569a5.621,5.621,0,0,0,5.427-5.786v-4a5.438,5.438,0,1,0-10.854,0v4A5.621,5.621,0,0,0,113.587,92.722Z" transform="translate(-47.758 -33.412)" fill="#494951"/><path d="M110.624,86.281s-1.144,4.124,0,7.318,5.05,2.874,7.372,2.239a7.41,7.41,0,0,1-4.136,1.77,5.955,5.955,0,0,1-5.18-3.372,7,7,0,0,1-.671-3.548l1.6-4.684Z" transform="translate(-48.128 -37.734)" fill="#4de298"/><path d="M107.6,89.466l-.87-1.8a.932.932,0,0,0-.379.326c.21-.341,1.6-3.3,1.816-3.864a1,1,0,0,1,.176-.382c.325-.433.742-.432,1.433-.431.368,0,.838.01,1.293.019l.34.007c.218-.553.536-1.361.763-1.938a1,1,0,0,1,1.848-.032c.3.7.658,1.5.886,1.983.983,0,2.88,0,3.037,0a.926.926,0,0,0-.092.008,1.016,1.016,0,0,1,1.019.51c.025.042.054.093.091.16.057.105.133.251.231.445.163.32.386.768.663,1.332.515,1.048,1.032,2.118,1.132,2.326l-1.8.867c-.47-.978-1.354-2.789-1.789-3.645-1.126.006-3.151-.006-3.17-.007a1.093,1.093,0,0,1-.88-.635c-.045-.083-.1-.193-.169-.336l-.015-.032-.106.267-.036.089a1,1,0,0,1-.943.65h0c-.284,0-.654-.009-1.047-.016-.36-.007-.83-.016-1.192-.018-.155.355-.388.862-.735,1.6-.256.547-.5,1.056-.685,1.431C108.062,89.059,107.944,89.3,107.6,89.466Z" transform="translate(-47.759 -35.876)" fill="#494951"/><path d="M113.516,111.224a7.475,7.475,0,0,1-6.639-3.374l1.75-.968,0-.007c.06.1,1.515,2.551,5.377,2.336,3.811-.212,4.49-2.749,4.5-2.775l1.94.486a5.263,5.263,0,0,1-1.217,2.1,7.189,7.189,0,0,1-5.108,2.184C113.909,111.218,113.71,111.224,113.516,111.224Z" transform="translate(-48.023 -46.805)" fill="#494951"/><path d="M108.1,114.341c0-.005,0,4.234,0,4.234H98.076s-1.288-.121-1.336-2.118a2.567,2.567,0,0,1,1.336-2.556l3.812-1.716a6.4,6.4,0,0,0,6.207,2.156" transform="translate(-43.108 -49.221)" fill="#4de298"/><path d="M40.168,84.288c-6.279,0-14.418-.04-14.881-.042h-.072a3.431,3.431,0,0,1-2.381-.906,2.857,2.857,0,0,1-.807-1.98,13.394,13.394,0,0,1-.032-1.576c0-.329.007-.671.013-.938,0-.181.007-.33.019-.458h0c.086-1.566.94-2.707,2.769-3.7,1.892-1.03,7.572-3.564,7.812-3.672l.268-.119,3.788.577,3.765-.572.246.094c.018.007,1.825.7,3.739,1.488,3.829,1.583,4.514,2.1,4.755,2.3a4.793,4.793,0,0,1,1.927,3.608h0c.012.132.014.288.017.485,0,.252,0,.59,0,.953,0,.839,0,1.233-.019,1.452,0,.014,0,.029,0,.044a2.522,2.522,0,0,1-.611,1.835,4.384,4.384,0,0,1-3.229,1.091C46.34,84.273,43.955,84.288,40.168,84.288Zm-14.91-2.043h.018c.084,0,8.463.042,14.892.042,3.767,0,6.131-.014,7.027-.042,1.349-.042,1.728-.346,1.812-.439s.092-.219.089-.468c0-.047,0-.091,0-.131l0-.2.008-.019c.011-.477.012-1.858,0-2.316L49.1,78.5a2.838,2.838,0,0,0-1.134-2.127l-.031-.022-.029-.025a58.266,58.266,0,0,0-7.7-3.372l-3.545.539-3.508-.534c-1.165.522-5.807,2.613-7.4,3.482-1.665.906-1.7,1.626-1.728,2.056l-.012.21c-.007.241-.013.668-.016,1.1l.031-.011v1.428a.894.894,0,0,0,.225.705,1.5,1.5,0,0,0,.966.319h.012Z" transform="translate(-10.247 -31.558)" fill="#494951"/><path d="M42.752,41.25a7.621,7.621,0,0,1,7.427,7.786v4a7.435,7.435,0,1,1-14.854,0v-4A7.621,7.621,0,0,1,42.752,41.25Zm0,17.569a5.621,5.621,0,0,0,5.427-5.786v-4a5.438,5.438,0,1,0-10.854,0v4A5.621,5.621,0,0,0,42.752,58.819Z" transform="translate(-16.189 -18.537)" fill="#494951"/><path d="M39.152,57.893a14.669,14.669,0,0,0,.38,4.382c1.611,4.647,5.369,2.835,7.689,2.2a7.408,7.408,0,0,1-4.136,1.77,5.837,5.837,0,0,1-5.1-3.377,6.945,6.945,0,0,1-.683-3.5V57.893Z" transform="translate(-16.619 -25.4)" fill="#4de298"/><path d="M48.443,56.166c-.15-.313-1.253-2.311-2.067-3.778-1.754,2.357-5.1,3.447-9.671,3.1l-.156-.011a.949.949,0,0,0,.434-.1l-.87-1.8a1.286,1.286,0,0,1,.746-.085,14.966,14.966,0,0,0,4.353-.234c2.191-.5,3.6-1.6,4.2-3.271a1,1,0,0,1,1.85-.115l.088.158.313.562c.26.466.608,1.094.965,1.739.953,1.723,1.5,2.723,1.617,2.973Z" transform="translate(-16.288 -22.071)" fill="#494951"/><path d="M35.333,81.073c0-.005-.871,3.6-.871,3.6h-7.22s-1.288-.121-1.336-2.118A2.565,2.565,0,0,1,27.242,80l3.812-1.716s.328,3.584,4.279,2.789" transform="translate(-11.539 -34.347)" fill="#4de298"/><path d="M41.34,77.536l-.789-.191a5.766,5.766,0,0,1-3.909-3.382l1.842-.778a3.841,3.841,0,0,0,1.789,1.94l.944-1.981,1.806.86Z" transform="translate(-16.741 -32.28)" fill="#494951"/><path d="M50.663,77.463l-1.56-3.48,1.825-.818.851,1.9a4.332,4.332,0,0,0,1.59-1.914L55.182,74a5.52,5.52,0,0,1-3.762,3.345Z" transform="translate(-22.291 -32.28)" fill="#494951"/><path d="M43.742,76.2l1.1,2.8-1.1,4.684h4.412L47.176,79l.978-2.8-.779-2.662-2.542.316Z" transform="translate(-19.495 -32.265)" fill="#494951"/><path d="M43.311,64.959h5.316a.75.75,0,0,1,.669,1.088c-.05.1-1.256,2.439-3.406,2.439h-.02C43.679,68.471,42.661,66.1,42.619,66a.75.75,0,0,1,.692-1.04Zm3.783,1.5H44.729a1.69,1.69,0,0,0,1.152.527h.01A1.862,1.862,0,0,0,47.094,66.459Z" transform="translate(-19.303 -28.83)" fill="#4a4a4a"/><path d="M30.77,104.677h0a3.3,3.3,0,0,1,1.855.724l.013.01c.4.291,1.452,1.084,2.383,1.784.578.435,1.12.842,1.452,1.09.979.731,1.017,1.417.876,1.865-.091.289-.433.965-1.645,1-.286.009-.661.026-1.024.045.953,2.4,2.443,4.671,6.41,6.492a13.42,13.42,0,0,0,5.62,1.278A11.777,11.777,0,0,0,53,117.17a4.159,4.159,0,0,1,2.164-.783,2.809,2.809,0,0,1,1.885.783l.028.025a2.158,2.158,0,0,1,.735,1.718,3.529,3.529,0,0,1-1.683,2.462l-.043.031a14.769,14.769,0,0,1-8.373,2.452,20.656,20.656,0,0,1-8.458-1.952,18.1,18.1,0,0,1-6.67-4.86,20.576,20.576,0,0,1-2.871-4.8c-.135-.29-.266-.57-.394-.831a13.41,13.41,0,0,0-1.761-.061h-.049a1.618,1.618,0,0,1-1.228-2.882l.37-.4c.728-.779,2.08-2.225,2.586-2.726A2.118,2.118,0,0,1,30.77,104.677Zm.693,2.352c-.449-.317-.634-.351-.693-.352-.03,0-.093.064-.106.077l-.017.017c-.452.446-1.752,1.836-2.45,2.582a15.731,15.731,0,0,1,1.9.146l.5.069.241.449c.229.428.447.894.677,1.387a15.469,15.469,0,0,0,8.549,8.677,18.677,18.677,0,0,0,7.638,1.776,12.784,12.784,0,0,0,7.23-2.093c.848-.646.873-.966.872-.969a.427.427,0,0,0-.109-.144.81.81,0,0,0-.542-.265,2.38,2.38,0,0,0-1.085.467,13.8,13.8,0,0,1-7.366,2.113,15.4,15.4,0,0,1-6.454-1.46,14.338,14.338,0,0,1-5.612-4.259,15.445,15.445,0,0,1-2.3-4.636l-.028-.084L32.232,110l.288-.346a1.207,1.207,0,0,1,.967-.385c.166-.012.392-.027.654-.042l.234-.013-.555-.417C32.9,108.1,31.855,107.316,31.462,107.028Z" transform="translate(-11.881 -46.365)" fill="#494951"/><path d="M52.214,126.748a18.549,18.549,0,0,1-7.15-1.483,16.958,16.958,0,0,1-6.932-5.041,21.813,21.813,0,0,1-3.183-5.735,1,1,0,0,1,1.856-.745c1.384,3.448,3.337,7.323,9.027,9.675l.006,0c4.906,2.063,10.251,1.687,13.618-.956a1,1,0,0,1,1.235,1.573,13.261,13.261,0,0,1-7.256,2.665Q52.828,126.748,52.214,126.748Z" transform="translate(-15.989 -50.068)" fill="#4de298"/><path d="M105.357,54.974a3.167,3.167,0,0,1-1.945-.855l-.013-.011c-.37-.313-1.31-1.125-2.219-1.911-.562-.486-1.092-.944-1.414-1.22-.915-.786-.916-1.466-.756-1.9a1.564,1.564,0,0,1,1.718-.91c.28.011.655.019,1.022.026-.79-2.464-2.124-4.829-5.96-6.919a13.209,13.209,0,0,0-6.363-1.691,11.546,11.546,0,0,0-5.553,1.389,4.371,4.371,0,0,1-2.032.638,2.768,2.768,0,0,1-2.007-.917l-.026-.027A2.159,2.159,0,0,1,79.2,38.9a3.524,3.524,0,0,1,1.846-2.34l.044-.027a14.588,14.588,0,0,1,7.37-1.909A20.046,20.046,0,0,1,97.911,37.2a18.143,18.143,0,0,1,6.327,5.307,20.616,20.616,0,0,1,2.542,4.981c.116.3.228.588.338.858a13.437,13.437,0,0,0,1.754.183l.049,0a1.619,1.619,0,0,1,1.029,2.959l-.42.391c-.772.721-2.205,2.058-2.74,2.519A2.137,2.137,0,0,1,105.357,54.974Zm-.674-2.4c.455.37.631.4.674.4a.27.27,0,0,0,.1-.069l.019-.016c.481-.414,1.884-1.722,2.618-2.407a15.738,15.738,0,0,1-1.892-.276l-.5-.1-.209-.464c-.2-.443-.386-.923-.582-1.431a15.506,15.506,0,0,0-7.947-9.247,18.077,18.077,0,0,0-8.512-2.334,12.6,12.6,0,0,0-6.342,1.625c-.889.585-.935.9-.935.905a.429.429,0,0,0,.1.152c.3.3.48.3.565.3a2.565,2.565,0,0,0,1.071-.393,13.577,13.577,0,0,1,6.513-1.635,15.185,15.185,0,0,1,7.319,1.935,14.373,14.373,0,0,1,5.311,4.635,15.473,15.473,0,0,1,1.988,4.784l.021.078.052.521-.3.329c-.306.338-.627.338-1.113.338-.2,0-.485,0-.784-.007l.564.488C103.345,51.425,104.316,52.264,104.683,52.575Z" transform="translate(-35.734 -15.631)" fill="#494951"/><path d="M106.231,51.243a1,1,0,0,1-.951-.691c-1.149-3.536-2.838-7.537-8.357-10.276l-.005,0c-4.756-2.4-10.114-2.39-13.65.015a1,1,0,1,1-1.125-1.654,13.243,13.243,0,0,1,7.42-2.159,18.265,18.265,0,0,1,8.252,2.011,17,17,0,0,1,6.578,5.507,21.865,21.865,0,0,1,2.79,5.941,1,1,0,0,1-.951,1.309Z" transform="translate(-36.859 -16.442)" fill="#4de298"/></g></svg>