<svg id="ic_modulos_self_service" xmlns="http://www.w3.org/2000/svg" width="74" height="58" viewBox="0 0 74 58">
  <rect id="Rect치ngulo_573" data-name="Rect치ngulo 573" width="74" height="58" fill="none"/>
  <g id="Grupo_2425" data-name="Grupo 2425" transform="translate(4.63 11.358)">
    <path id="Trazado_67" data-name="Trazado 67" d="M-262.954,390.5c.041.046.038,3.93,0,4.012-.012.8.144,3.262-4.375,3.343s-33.487,0-33.487,0-3.258-.264-3.428-3.343c-.09.031-.032-3.98,0-4.012.073-1.267.563-2.682,3.428-4.159s11.808-5.254,11.808-5.254h11.139s10.918,3.939,12.558,5.254A5.447,5.447,0,0,1-262.954,390.5Z" transform="translate(304.292 -356.211)" fill="none" stroke="#5b5c64" stroke-width="2"/>
    <path id="Trazado_150" data-name="Trazado 150" d="M1706.308,107.438a23.6,23.6,0,0,0,.7,7.2c1.684,4.541,7.441,4.086,10.862,3.183.138.119-1.922,2.043-5.921,2.1a7.96,7.96,0,0,1-7.33-4.38,10.334,10.334,0,0,1-1.1-4.969v-2.9Z" transform="translate(-1691.152 -94.988)" fill="#58e5a9"/>
    <g id="Rect치ngulo_38" data-name="Rect치ngulo 38" transform="translate(10.461 0)" fill="none" stroke="#5b5c64" stroke-width="2">
      <rect width="21.227" height="27.001" rx="10.613" stroke="none"/>
      <rect x="1" y="1" width="19.227" height="25.001" rx="9.613" fill="none"/>
    </g>
    <path id="Trazado_69" data-name="Trazado 69" d="M-218.207,384.018s2.613,4.477,9.614,4.107,8.253-5.1,8.253-5.1" transform="translate(229.98 -357.465)" fill="none" stroke="#5b5c64" stroke-width="2"/>
    <path id="Trazado_74" data-name="Trazado 74" d="M1707.558,133.843c-.005-.007,0,6.116,0,6.116h-15.282s-1.964-.175-2.039-3.06a3.661,3.661,0,0,1,2.039-3.692l5.814-2.478A10.075,10.075,0,0,0,1707.558,133.843Z" transform="translate(-1687.766 -100.703)" fill="#58e5a9"/>
    <path id="Trazado_1499" data-name="Trazado 1499" d="M13.417,12.938c.493-.076,9.424.234,12.828-3.039A30.936,30.936,0,0,0,30.28,4.608s-1.807,6.779,2.437,7.071" transform="translate(-2.539 -0.872)" fill="none" stroke="#5b5c64" stroke-width="2"/>
  </g>
  <path id="Trazado_1500" data-name="Trazado 1500" d="M5324.188-234.361l3.621-1.751v-3.139h5.554v3.139l3.923,1.751,2.114-2.354,3.561,3.32-2.112,2.354,1.448,4.165h3.079v5.312H5342.3l-1.448,3.984,2.112,1.75-3.561,3.743-2.114-2.052-3.923,1.63v3.26h-5.554v-3.26l-3.621-1.63-2.295,2.354-3.8-4.044,2.536-1.75-2.113-3.984h-3.139v-5.312h3.139l2.113-3.742-2.113-2.414,3.38-3.682Z" transform="translate(-5275.629 244.371)" fill="none" stroke="#5b5c64" stroke-linecap="round" stroke-linejoin="round" stroke-width="2"/>
  <g id="Elipse_186" data-name="Elipse 186" transform="translate(49 14)" fill="none" stroke="#5b5c64" stroke-width="2">
    <circle cx="6" cy="6" r="6" stroke="none"/>
    <circle cx="6" cy="6" r="5" fill="none"/>
  </g>
  <g id="Elipse_187" data-name="Elipse 187" transform="translate(46 11)" fill="none" stroke="#58e5a9" stroke-linecap="round" stroke-linejoin="round" stroke-width="2" stroke-dasharray="3 4">
    <circle cx="9" cy="9" r="9" stroke="none"/>
    <circle cx="9" cy="9" r="8" fill="none"/>
  </g>
</svg>
