<svg xmlns="http://www.w3.org/2000/svg" xmlns:xlink="http://www.w3.org/1999/xlink" width="74" height="58" viewBox="0 0 74 58"><defs><clipPath id="a"><rect width="54.999" height="55.41" transform="translate(0 0)" fill="none"/></clipPath></defs><g transform="translate(-1509.5 -419.705)"><g transform="translate(1519 421)"><g clip-path="url(#a)"><path d="M37.814,48.038l4.214-4.306" fill="none" stroke="#4de298" stroke-linecap="round" stroke-miterlimit="4.002" stroke-width="2.001"/><path d="M22.82,5.919H42.886a3,3,0,0,1,3,3V33.008c0,1.291-5.577-.516-10.451,3.537C31.569,42.059,34.235,49,33.867,49H22.82a3,3,0,0,1-3-3V8.919a3,3,0,0,1,3-3" fill="#4de298"/><path d="M3.607,8.624H9.016a2.607,2.607,0,1,1,0,5.213H3.607a2.607,2.607,0,1,1,0-5.213Z" fill="none" stroke="#4a4a4a" stroke-width="2"/><path d="M3.607,24.854H9.016a2.606,2.606,0,1,1,0,5.213H3.607a2.606,2.606,0,1,1,0-5.213Z" fill="none" stroke="#494951" stroke-width="2"/><path d="M3.607,41.083H9.016a2.607,2.607,0,1,1,0,5.213H3.607a2.607,2.607,0,1,1,0-5.213Z" fill="none" stroke="#4a4a4a" stroke-width="2"/><path d="M16.689,14.142l3.79,3.79,6.811-6.811" fill="none" stroke="#494951" stroke-linecap="round" stroke-linejoin="round" stroke-width="3"/><path d="M16.689,26.765l3.79,3.79,6.811-6.811" fill="none" stroke="#494951" stroke-linecap="round" stroke-linejoin="round" stroke-width="3"/><path d="M16.689,39.388l3.79,3.79,6.811-6.811" fill="none" stroke="#494951" stroke-linecap="round" stroke-linejoin="round" stroke-width="3"/><circle cx="10.721" cy="10.721" r="10.721" transform="translate(32.557 32.968)" fill="none" stroke="#494951" stroke-width="2"/><line x2="10.82" transform="translate(32.91 14.837)" fill="none" stroke="#494951" stroke-linecap="round" stroke-width="3"/><line x2="10.82" transform="translate(32.91 25.657)" fill="none" stroke="#494951" stroke-linecap="round" stroke-width="3"/><path d="M7.233,8.211s.063-2.871,0-3.466a3.86,3.86,0,0,1,4-3.71c2.458-.079,35.246-.017,35.234.1,2.514,0,3.978,1.4,4.049,3.611s0,31.294,0,31.294" fill="none" stroke="#494951" stroke-linejoin="round" stroke-width="2"/><line y2="10.195" transform="translate(7.233 14.531)" fill="none" stroke="#494951" stroke-width="2"/><line y2="9.888" transform="translate(7.233 30.559)" fill="none" stroke="#494951" stroke-width="2"/><path d="M7.233,46.952s-.008,2.8,0,2.9c0,1.53.435,3.957,3.407,3.957.056.009,28.884-.157,28.884-.157" fill="none" stroke="#494951" stroke-width="2"/><path d="M42.5,41.862s-3.841,3.9-4.508,4.6-1.347,1.868-.246,2.974c.829.774,1.893.54,2.889-.525s4.356-4.621,4.356-4.621" fill="none" stroke="#575862" stroke-width="1.5"/><path d="M42.826,42.84a3.423,3.423,0,0,1,.233-4.62,4.634,4.634,0,0,1,2.59-1.445.861.861,0,0,1,1.1.549.9.9,0,0,1-.249.958c.022.011-1.309,1.3-1.308,1.333-.914,1-.742,1.7-.34,2.116.554.643,1.536.59,2.422-.456.49-.52,1.073-1.066,1.343-1.356.479-.571,1.483-.439,1.368.861a6.254,6.254,0,0,1-1.716,3.186C46.626,45.493,43.871,44.4,42.826,42.84Z" fill="none" stroke="#575862" stroke-width="1.5"/><path d="M39.024,47.3a.75.75,0,1,1-.732.75.741.741,0,0,1,.732-.75" fill="#575862"/></g></g></g><rect width="74" height="58" fill="none" opacity="0.58"/></svg>