<svg xmlns="http://www.w3.org/2000/svg" width="20" height="20" viewBox="0 0 20 20"><g transform="translate(-494.357 -608.833)"><rect width="20" height="20" transform="translate(494.357 608.833)" fill="none"/></g><path d="M.969,0H9.6a.969.969,0,0,1,.969.969V4.335A3.063,3.063,0,0,1,7.508,7.4H3.063A3.063,3.063,0,0,1,0,4.335V.969A.969.969,0,0,1,.969,0Z" transform="translate(4.751 5.862)" fill="#6a6b75"/><g transform="translate(-494.357 -608.833)"><rect width="1.525" height="5.911" rx="0.763" transform="translate(501 610.843)" fill="#6a6b75"/><rect width="1.525" height="5.911" rx="0.763" transform="translate(506.263 610.843)" fill="#6a6b75"/></g><rect width="2" height="5.911" rx="0.763" transform="translate(9.037 12.383)" fill="#6a6b75"/></svg>