<svg xmlns="http://www.w3.org/2000/svg" width="20" height="20" viewBox="0 0 20 20"><g transform="translate(-494.357 -581.274)"><rect width="20" height="20" transform="translate(494.357 581.274)" fill="none"/></g><path d="M511.348,589.167v8h-14v-8h14m.338-2H497.01a1.662,1.662,0,0,0-1.662,1.662v8.676a1.662,1.662,0,0,0,1.662,1.662h14.676a1.662,1.662,0,0,0,1.662-1.662v-8.676a1.662,1.662,0,0,0-1.662-1.662Z" transform="translate(-494.357 -581.274)" fill="#6a6b75"/><path d="M511.348,583.286v1h-5v-1h5m.338-2H506.01a1.662,1.662,0,0,0-1.662,1.662v1.676a1.662,1.662,0,0,0,1.662,1.662h5.676a1.662,1.662,0,0,0,1.662-1.662v-1.676a1.662,1.662,0,0,0-1.662-1.662Z" transform="translate(-494.357 -581.274)" fill="#6a6b75"/><path d="M511.289,584.35h-4.919v3h4.919v-3Z" transform="translate(-494.357 -581.274)" fill="#6a6b75"/><path d="M511.289,597.163h-4.919v3h4.919v-3Z" transform="translate(-494.357 -581.274)" fill="#6a6b75"/><path d="M510.321,590.173h-1v6h1v-6Z" transform="translate(-494.357 -581.274)" fill="#6a6b75"/><path d="M508.49,590.173h-1v6h1v-6Z" transform="translate(-494.357 -581.274)" fill="#6a6b75"/><path d="M506.66,590.173h-1v6h1v-6Z" transform="translate(-494.357 -581.274)" fill="#6a6b75"/><path d="M499.833,588.99h-1v8.365h1V588.99Z" transform="translate(-494.357 -581.274)" fill="#6a6b75"/><path d="M499.4,591.185h-2.111v1H499.4v-1Z" transform="translate(-494.357 -581.274)" fill="#6a6b75"/><path d="M499.4,594.236h-2.111v1H499.4v-1Z" transform="translate(-494.357 -581.274)" fill="#6a6b75"/><path d="M502.175,597.163h-4.919v3h4.919v-3Z" transform="translate(-494.357 -581.274)" fill="#6a6b75"/></svg>