<svg xmlns="http://www.w3.org/2000/svg" xmlns:xlink="http://www.w3.org/1999/xlink" width="20" height="20" viewBox="0 0 20 20"><defs><clipPath id="a"><rect width="20" height="20" fill="none"/></clipPath></defs><g clip-path="url(#a)"><path d="M13.8,20h-.546a.471.471,0,0,0-.088-.034,2.1,2.1,0,0,1-1.726-1.639,4.631,4.631,0,0,1-.076-.651H8.654c0,.073,0,.131,0,.189a2.12,2.12,0,0,1-1.319,1.966A4.2,4.2,0,0,1,6.783,20H6.237a7.792,7.792,0,0,1-.779-.286,3.793,3.793,0,0,1-.526-.374A2.335,2.335,0,0,1,3.664,20H3.118a.471.471,0,0,0-.088-.034A2.107,2.107,0,0,1,1.3,18.322a4.582,4.582,0,0,1-.077-.662c-.2,0-.4.005-.6,0A.573.573,0,0,1,.042,17.1q-.01-1.58,0-3.158a.573.573,0,0,1,.578-.566c.234-.006.468,0,.7,0a1.343,1.343,0,0,0,.155-.017c-.037-.039-.053-.059-.072-.077A4.472,4.472,0,0,1,.038,9.968c0-.987,0-1.975,0-2.963a4.676,4.676,0,0,1,.052-.757,4.481,4.481,0,0,1,4.485-3.8H7.47V1.211a2.287,2.287,0,0,1-.287-.018A.59.59,0,0,1,6.707.571.589.589,0,0,1,7.318.035q2.427,0,4.853,0c.2,0,.39-.005.585,0A.584.584,0,0,1,12.761,1.2c-.063,0-.126,0-.2,0V2.452h.222c.923,0,1.846-.006,2.768,0a4.474,4.474,0,0,1,4.292,3.335c.062.236.1.479.153.719v3.938a1.288,1.288,0,0,0-.035.149,4.409,4.409,0,0,1-1.051,2.38c-.107.126-.224.244-.364.4.246,0,.458.014.667,0A.712.712,0,0,1,20,13.8v3.431c-.241.574-.768.4-1.21.435,0,.087,0,.152,0,.216A2.1,2.1,0,0,1,17.525,19.8a4.593,4.593,0,0,1-.6.2h-.546a7.7,7.7,0,0,1-.779-.286,3.793,3.793,0,0,1-.526-.374A2.335,2.335,0,0,1,13.8,20M7.85,3.622v9.749h.168q3.732,0,7.465,0a3.312,3.312,0,0,0,3.347-3.354c0-1.013,0-2.027,0-3.041a3.54,3.54,0,0,0-.06-.658,3.3,3.3,0,0,0-3.286-2.694q-3.723,0-7.445,0Zm7.237,12.757.135-.122A2.107,2.107,0,0,1,18.1,16.3c.232.232.461.184.717.183V14.551H1.208v1.924A.839.839,0,0,0,2,16.247a1.956,1.956,0,0,1,1.73-.507,2.191,2.191,0,0,1,1.222.637c.029-.023.05-.038.068-.054a2.133,2.133,0,0,1,3.073.077.367.367,0,0,0,.236.087c1.111.005,2.222,0,3.333.006a.447.447,0,0,0,.354-.144,2.066,2.066,0,0,1,1.868-.606,2.18,2.18,0,0,1,1.207.636M3.927,13.315V3.685c-.068.011-.127.016-.183.03a3.318,3.318,0,0,0-2.535,3.2q-.007,1.578,0,3.156a3.213,3.213,0,0,0,.678,1.99,3.287,3.287,0,0,0,2.04,1.254M11.368,2.452V1.214h-2.7V2.452h2.7Zm-7,15.41a.974.974,0,1,0-.986.968.976.976,0,0,0,.986-.968m2.143-.981a.975.975,0,1,0,.976.977.976.976,0,0,0-.976-.977m6.046.948a.974.974,0,1,0,1.005-.948.977.977,0,0,0-1.005.948m5.067.035a.974.974,0,1,0-.988.966.976.976,0,0,0,.988-.966M5.121,4.62H6.656V3.63H5.121Zm1.537,1.2H5.123v.99H6.658ZM6.662,8H5.121v.986H6.662Zm-.009,2.186H5.117v.99H6.653Zm.005,2.183H5.123v.99H6.658Z" fill="#4d4d4d"/><path d="M20,6.508c-.051-.24-.091-.482-.153-.719a4.476,4.476,0,0,0-4.292-3.335c-.922-.007-1.845,0-2.768,0-.07,0-.14,0-.222,0V1.2c.07,0,.133,0,.2,0a.59.59,0,0,0,.571-.6.585.585,0,0,0-.576-.571c-.195-.006-.39,0-.585,0q-2.427,0-4.853,0a.588.588,0,0,0-.611.535.589.589,0,0,0,.476.622,2.112,2.112,0,0,0,.287.018V2.453h-.2c-.9,0-1.793,0-2.689,0a4.479,4.479,0,0,0-4.485,3.8,4.661,4.661,0,0,0-.052.757c-.006.987,0,1.975,0,2.963A4.468,4.468,0,0,0,1.4,13.276c.019.018.035.038.072.078-.064.007-.109.016-.155.016-.234,0-.468,0-.7,0a.571.571,0,0,0-.578.565q-.01,1.58,0,3.158a.573.573,0,0,0,.582.563c.2.006.4,0,.6,0a4.613,4.613,0,0,0,.077.663A2.1,2.1,0,0,0,3.03,19.966.552.552,0,0,1,3.118,20H0V0H20Z" fill="#fff"/><path d="M6.783,20a4.2,4.2,0,0,0,.552-.169,2.117,2.117,0,0,0,1.318-1.966c0-.058,0-.116,0-.189h2.711a4.487,4.487,0,0,0,.076.651,2.1,2.1,0,0,0,1.726,1.639.5.5,0,0,1,.088.034Z" fill="#fff"/><path d="M16.92,20a4.593,4.593,0,0,0,.6-.2,2.1,2.1,0,0,0,1.265-1.922c0-.064,0-.129,0-.216.441-.038.968.139,1.209-.435V20Z" fill="#fff"/><path d="M20,13.8a.713.713,0,0,0-.783-.432c-.209.017-.421,0-.667,0,.14-.152.257-.27.364-.4a4.406,4.406,0,0,0,1.051-2.38A1.338,1.338,0,0,1,20,10.446Z" fill="#fff"/><path d="M3.664,20a2.335,2.335,0,0,0,1.268-.66,3.793,3.793,0,0,0,.526.374A7.7,7.7,0,0,0,6.237,20Z" fill="#fff"/><path d="M13.8,20a2.335,2.335,0,0,0,1.268-.66,3.793,3.793,0,0,0,.526.374,7.7,7.7,0,0,0,.779.286Z" fill="#fff"/><path d="M7.85,3.622h.187q3.723,0,7.445,0a3.3,3.3,0,0,1,3.286,2.695,3.45,3.45,0,0,1,.06.658q.009,1.521,0,3.041a3.311,3.311,0,0,1-3.347,3.353c-2.488,0-4.977,0-7.465,0H7.85Zm5.291,7.8A2.121,2.121,0,0,0,15.17,8.66a12.7,12.7,0,0,0-1.587-2.872.561.561,0,0,0-.908.016c-.084.108-.157.224-.23.339a13.934,13.934,0,0,0-1.311,2.428,2.127,2.127,0,0,0,2.007,2.849" fill="#fff"/><path d="M15.087,16.379a2.18,2.18,0,0,0-1.208-.636,2.065,2.065,0,0,0-1.867.606.446.446,0,0,1-.354.144c-1.111,0-2.222,0-3.333-.006a.367.367,0,0,1-.236-.087,2.132,2.132,0,0,0-3.072-.078c-.019.017-.04.032-.069.055a2.191,2.191,0,0,0-1.222-.637A1.956,1.956,0,0,0,2,16.247a.839.839,0,0,1-.788.228V14.551H18.82v1.931c-.254,0-.485.049-.717-.183a2.105,2.105,0,0,0-2.881-.042l-.135.122" fill="#fff"/><path d="M3.927,13.315a3.287,3.287,0,0,1-2.04-1.254,3.213,3.213,0,0,1-.678-1.99q-.006-1.578,0-3.156a3.318,3.318,0,0,1,2.535-3.2c.056-.014.115-.019.183-.03Z" fill="#fff"/><path d="M11.368,2.452h-2.7V1.214h2.7Z" fill="#fff"/><path d="M4.365,17.862a.974.974,0,1,1-.972-.981.978.978,0,0,1,.972.981" fill="#fff"/><path d="M6.508,16.881a.975.975,0,1,1-.972.981.977.977,0,0,1,.972-.981" fill="#fff"/><path d="M12.554,17.829a.974.974,0,1,1,.953,1,.977.977,0,0,1-.953-1" fill="#fff"/><path d="M17.621,17.864a.974.974,0,1,1-.97-.983.979.979,0,0,1,.97.983" fill="#fff"/><rect width="1.535" height="0.99" transform="translate(5.121 3.631)" fill="#fff"/><rect width="1.535" height="0.99" transform="translate(5.123 5.819)" fill="#fff"/><rect width="1.541" height="0.986" transform="translate(5.121 8.002)" fill="#fff"/><rect width="1.536" height="0.99" transform="translate(5.117 10.188)" fill="#fff"/><rect width="1.535" height="0.99" transform="translate(5.123 12.37)" fill="#fff"/><path d="M13.14,11.421a2.126,2.126,0,0,1-2.006-2.849,13.938,13.938,0,0,1,1.31-2.429c.074-.115.147-.231.23-.338a.562.562,0,0,1,.909-.016A12.745,12.745,0,0,1,15.169,8.66a2.122,2.122,0,0,1-2.029,2.761M13.2,7.245l-.079.017a9.406,9.406,0,0,0-.9,1.778.854.854,0,0,0-.037.382.974.974,0,0,0,1.19.8.942.942,0,0,0,.671-1.253c-.271-.58-.561-1.15-.842-1.725" fill="#4d4d4d"/><path d="M13.2,7.245c.281.575.571,1.145.842,1.725a.942.942,0,0,1-.671,1.253.974.974,0,0,1-1.19-.8.854.854,0,0,1,.037-.382,9.406,9.406,0,0,1,.9-1.778l.079-.017" fill="#fff"/></g></svg>