<svg xmlns="http://www.w3.org/2000/svg" xmlns:xlink="http://www.w3.org/1999/xlink" width="20" height="20" viewBox="0 0 20 20"><defs><clipPath id="a"><rect width="20" height="20" fill="none"/></clipPath></defs><g clip-path="url(#a)"><path d="M18.367,20H1.6a1.064,1.064,0,0,0-.124-.042,1.874,1.874,0,0,1-1.38-1.246C.057,18.611.031,18.5,0,18.4V5.379a.171.171,0,0,0,.029-.048,1.868,1.868,0,0,1,1.953-1.55H5.605c0-.047.01-.072.009-.1A1.5,1.5,0,0,1,6.669,2.128a.282.282,0,0,0,.195-.3c0-.377,0-.754,0-1.131a.624.624,0,1,1,1.246,0c0,.4,0,.793,0,1.189a1.49,1.49,0,0,1-.971,1.4c-.272.105-.315.189-.251.483H9.355a1.542,1.542,0,0,1,1.084-1.651.272.272,0,0,0,.169-.3q-.006-.565,0-1.13a.623.623,0,1,1,1.245,0c0,.41.015.82,0,1.228a1.454,1.454,0,0,1-.941,1.358c-.3.13-.331.169-.282.5h2.467c0-.037.008-.062.008-.087a1.5,1.5,0,0,1,1.056-1.554.283.283,0,0,0,.194-.3c-.005-.377,0-.754,0-1.131A.624.624,0,1,1,15.6.7c0,.4.005.793,0,1.189a1.49,1.49,0,0,1-.973,1.4c-.269.1-.315.194-.243.5h.209c1.138,0,2.275,0,3.412,0a2.325,2.325,0,0,1,.559.061,1.859,1.859,0,0,1,1.4,1.855q0,3.459,0,6.92,0,2.737,0,5.477a1.872,1.872,0,0,1-1.305,1.816c-.1.032-.195.059-.293.088M9.983,18.752h7.994a.643.643,0,0,0,.741-.737V5.773c0-.514-.234-.745-.752-.745H2c-.522,0-.75.228-.751.746V18c0,.529.229.756.762.756H9.983" fill="#4d4d4d"/><path d="M18.367,20c.1-.029.2-.056.293-.088A1.871,1.871,0,0,0,19.965,18.1q0-2.739,0-5.477,0-3.461,0-6.92a1.857,1.857,0,0,0-1.4-1.854A2.326,2.326,0,0,0,18,3.783c-1.137,0-2.274,0-3.412,0h-.209c-.072-.3-.026-.394.243-.5a1.488,1.488,0,0,0,.973-1.4c.005-.4,0-.793,0-1.189a.624.624,0,1,0-1.246,0c0,.377,0,.753,0,1.13a.284.284,0,0,1-.194.3A1.5,1.5,0,0,0,13.1,3.681c0,.025-.005.05-.008.087H10.627c-.049-.327-.019-.366.282-.5a1.456,1.456,0,0,0,.942-1.357c.017-.409.006-.819,0-1.228a.623.623,0,1,0-1.245,0c0,.377,0,.754,0,1.13a.273.273,0,0,1-.169.3,1.54,1.54,0,0,0-1.084,1.65H6.888c-.064-.294-.021-.377.251-.483a1.49,1.49,0,0,0,.971-1.4c0-.4,0-.793,0-1.189A.624.624,0,1,0,6.864.7c0,.377,0,.753,0,1.13a.283.283,0,0,1-.195.3A1.494,1.494,0,0,0,5.614,3.683a.808.808,0,0,1-.009.1H1.982A1.866,1.866,0,0,0,.03,5.332.17.17,0,0,1,0,5.379V0H20V20Z" fill="#fff"/><path d="M0,18.4c.031.105.057.21.094.311a1.87,1.87,0,0,0,1.381,1.245c.042.012.083.028.124.043H0V18.4" fill="#fff"/><path d="M9.983,18.753H2.009c-.533,0-.761-.227-.761-.756q0-6.111,0-12.222c0-.519.229-.746.75-.746H17.966c.518,0,.752.231.752.745V18.016a.643.643,0,0,1-.741.737H9.983M9.992,6.276H3.207a.631.631,0,0,0-.711.7q0,1.785,0,3.568a.638.638,0,0,0,.721.717H16.748a.637.637,0,0,0,.722-.717V7.022c0-.514-.233-.746-.751-.746H9.992M3.127,13.762a.624.624,0,1,0-.631-.611.628.628,0,0,0,.631.611m13.721,0a.624.624,0,1,0-.625-.617.627.627,0,0,0,.625.617m-13.723.625a.623.623,0,1,0,.617.624.624.624,0,0,0-.617-.624m14.344.628a.623.623,0,1,0-.623.618.627.627,0,0,0,.623-.618M3.114,16.258a.623.623,0,1,0,.628.613.625.625,0,0,0-.628-.613m13.727,0a.623.623,0,1,0,.628.613.625.625,0,0,0-.628-.613" fill="#fff"/><path d="M9.993,6.276h6.726c.518,0,.751.231.751.746q0,1.764,0,3.528a.636.636,0,0,1-.722.716q-6.765,0-13.531,0a.637.637,0,0,1-.721-.717q0-1.784,0-3.567a.633.633,0,0,1,.712-.706H9.993M5.607,7.538H3.759v2.471H5.607ZM14.365,10h1.848V7.532H14.365ZM8.1,7.537H6.878v2.478H8.1Zm2.5,0H9.374v2.478h1.217ZM11.868,10h1.224V7.532H11.868Z" fill="#4d4d4d"/><path d="M3.128,13.761a.623.623,0,1,1,.615-.627.629.629,0,0,1-.615.627" fill="#666"/><path d="M16.848,13.761a.623.623,0,1,1,.622-.62.629.629,0,0,1-.622.62" fill="#4d4d4d"/><path d="M3.126,14.386A.623.623,0,1,1,2.5,15a.627.627,0,0,1,.629-.612" fill="#4d4d4d"/><path d="M17.47,15.015a.623.623,0,1,1-.613-.628.628.628,0,0,1,.613.628" fill="#4d4d4d"/><path d="M3.115,16.258a.623.623,0,1,1-.618.623.627.627,0,0,1,.618-.623" fill="#666"/><path d="M16.841,16.258a.623.623,0,1,1-.618.623.627.627,0,0,1,.618-.623" fill="#4d4d4d"/><rect width="1.848" height="2.471" transform="translate(3.759 7.537)" fill="#fff"/><rect width="1.848" height="2.471" transform="translate(14.365 7.532)" fill="#fff"/><rect width="1.217" height="2.478" transform="translate(6.878 7.536)" fill="#fff"/><rect width="1.217" height="2.478" transform="translate(9.374 7.536)" fill="#fff"/><rect width="1.224" height="2.471" transform="translate(11.868 7.533)" fill="#fff"/></g></svg>