<svg xmlns="http://www.w3.org/2000/svg" width="20" height="20" viewBox="0 0 20 20"><g transform="translate(-522.628 -549.697)"><g transform="translate(522.628 549.697)"><g transform="translate(-522.628 -549.697)"><rect width="20" height="20" transform="translate(522.628 549.697)" fill="none"/></g><g transform="translate(-522.628 -549.697)" fill="none" stroke-miterlimit="10"><path d="M542.252,558.948a22.956,22.956,0,0,0-.3-2.482l-.006-.033a.867.867,0,0,0-.084-.282.7.7,0,0,0-.606-.391c-.421-.018-.848-.014-1.261-.009h-.145a.709.709,0,0,0-.658.5q-.18.557-.357,1.112l-.181.561-.057.179c-.124,0-.248,0-.375,0l-.5-1.81a.734.734,0,0,0-.719-.549h-.72v-.181c0-.114,0-.227,0-.341a.724.724,0,0,0-.734-.733c-.275,0-.547,0-.822,0H533.5v-.4h1.95c.182,0,.238-.056.238-.238v-.762c0-.156-.06-.217-.214-.217h-7.883c-.153,0-.212.06-.212.213v.789c0,.154.061.215.217.215h2.226v.4h-2.293a.729.729,0,0,0-.72.538.767.767,0,0,0-.023.2v.514H526.5c-.334,0-.666,0-1,0a.72.72,0,0,0-.707.55.827.827,0,0,0-.021.207v2.61h-.256v-2.548c0-.162-.057-.219-.216-.219l-1.237,0v6.986h.125c.382,0,.763,0,1.145,0a.183.183,0,0,0,.134-.051.189.189,0,0,0,.05-.136V560.57h.256v2.619a.726.726,0,0,0,.75.748h1.65c.022,0,.024,0,.038.019l1.509,2.029a.755.755,0,0,0,.522.313l.019.007,7.819,0,.037-.008c.029-.006.059-.012.09-.021a.725.725,0,0,0,.513-.526l.349-1.241c.053-.184.1-.368.157-.56.077,0,.152,0,.228,0h.158l.134.431c.141.452.282.9.42,1.355a.745.745,0,0,0,.613.564l1.5.008.054-.011a.8.8,0,0,0,.1-.02.718.718,0,0,0,.529-.589c.1-.591.187-1.208.249-1.888.039-.428.068-.864.09-1.336.029-.635.038-1.264.028-1.869C542.314,560.027,542.291,559.475,542.252,558.948Zm-7.259-2.013a.714.714,0,0,0,.567.267c.3,0,.6,0,.9,0q.249.912.5,1.82a.726.726,0,0,0,.721.544q.711.006,1.419,0a.721.721,0,0,0,.72-.533l.468-1.46.117-.365,0,0h.058c.035,0,.07,0,.108,0l.038.267c.02.137.04.275.058.414.049.368.089.758.119,1.158.02.258.035.515.048.772.024.478.034.911.033,1.321,0,.652-.028,1.293-.074,1.906s-.113,1.211-.2,1.8c-.062,0-.123,0-.186.005l-.539-1.743a.893.893,0,0,0-.228-.418.759.759,0,0,0-.531-.2h-.774c-.213,0-.426,0-.639,0a.728.728,0,0,0-.735.563l-.5,1.792q-3.378,0-6.754,0c-.025,0-.028,0-.043-.022l-.652-.876q-.422-.566-.841-1.131a.777.777,0,0,0-.653-.332h-.008c-.314,0-.63,0-.944,0h-.341V557.2h1.25a.73.73,0,0,0,.761-.761v-.494h6.587v.518A.729.729,0,0,0,534.993,556.935Z" stroke="none"/><path d="M 527.5910034179688 552.8709716796875 L 535.4739990234375 552.8709716796875 C 535.6279907226562 552.8709716796875 535.68798828125 552.9320068359375 535.68798828125 553.0880126953125 L 535.68798828125 553.8499755859375 C 535.68798828125 554.031982421875 535.6320190429688 554.0880126953125 535.4500122070312 554.0880126953125 L 533.5 554.0880126953125 L 533.5 554.4920043945312 L 534.7249755859375 554.4929809570312 C 534.9999389648438 554.4929809570312 535.2719116210938 554.491943359375 535.5469970703125 554.4940185546875 C 535.9619750976562 554.4959716796875 536.2780151367188 554.81201171875 536.281005859375 555.2269897460938 C 536.281982421875 555.3410034179688 536.281005859375 555.4539794921875 536.281005859375 555.5679931640625 L 536.281005859375 555.7490234375 L 537.0009765625 555.7490234375 C 537.344970703125 555.75 537.6270141601562 555.9660034179688 537.719970703125 556.2979736328125 L 538.218017578125 558.1079711914062 C 538.344970703125 558.10498046875 538.4689331054688 558.10595703125 538.593017578125 558.1079711914062 C 538.6119995117188 558.0479736328125 538.6309814453125 557.9879760742188 538.6500244140625 557.9290161132812 L 538.8309936523438 557.3679809570312 C 538.948974609375 556.9979858398438 539.0679931640625 556.6270141601562 539.18798828125 556.2559814453125 C 539.2860107421875 555.9569702148438 539.5499877929688 555.7540283203125 539.8460083007812 555.7520141601562 L 539.9910278320312 555.7509765625 C 540.4039306640625 555.7459716796875 540.8308715820312 555.741943359375 541.2520141601562 555.760009765625 C 541.5150146484375 555.77001953125 541.7249755859375 555.905029296875 541.8579711914062 556.1510009765625 C 541.9099731445312 556.2459716796875 541.927001953125 556.344970703125 541.9420166015625 556.4329833984375 L 541.947998046875 556.4660034179688 C 542.0880126953125 557.2379760742188 542.18798828125 558.0499877929688 542.2520141601562 558.947998046875 C 542.291015625 559.4749755859375 542.3140258789062 560.0269775390625 542.3250122070312 560.5919799804688 C 542.3350219726562 561.197021484375 542.3259887695312 561.8259887695312 542.2969970703125 562.4609985351562 C 542.2750244140625 562.9329833984375 542.2459716796875 563.3690185546875 542.2069702148438 563.7969970703125 C 542.14501953125 564.4769897460938 542.06298828125 565.093994140625 541.9580078125 565.6849975585938 C 541.9039916992188 565.9819946289062 541.7210083007812 566.18701171875 541.4290161132812 566.2739868164062 C 541.39697265625 566.2830200195312 541.3660278320312 566.2890014648438 541.333984375 566.2940063476562 L 541.280029296875 566.3049926757812 L 539.780029296875 566.2969970703125 C 539.4730224609375 566.2440185546875 539.2650146484375 566.0549926757812 539.1669921875 565.7329711914062 C 539.0289916992188 565.281005859375 538.8880004882812 564.8300170898438 538.7470092773438 564.3779907226562 L 538.6129760742188 563.947021484375 L 538.4550170898438 563.947021484375 C 538.4072265625 563.9462890625 538.3597412109375 563.9468994140625 538.31201171875 563.9468994140625 C 538.2838745117188 563.9468994140625 538.2555541992188 563.9467163085938 538.2269897460938 563.9459838867188 C 538.1740112304688 564.1380004882812 538.1229858398438 564.322021484375 538.0700073242188 564.5059814453125 L 537.7210083007812 565.7470092773438 C 537.64599609375 566.0150146484375 537.468994140625 566.1959838867188 537.2080078125 566.2730102539062 C 537.177001953125 566.281982421875 537.14697265625 566.2880249023438 537.1179809570312 566.2940063476562 L 537.0809936523438 566.302001953125 L 529.2620239257812 566.3049926757812 L 529.2429809570312 566.2979736328125 C 529.0280151367188 566.2689819335938 528.85400390625 566.1640014648438 528.7210083007812 565.9849853515625 L 527.2119750976562 563.9559936523438 C 527.197998046875 563.93798828125 527.1959838867188 563.93701171875 527.1740112304688 563.93701171875 C 526.625 563.93798828125 526.073974609375 563.93798828125 525.5239868164062 563.93798828125 C 525.0900268554688 563.93798828125 524.7750244140625 563.6229858398438 524.7739868164062 563.1900024414062 L 524.7739868164062 560.5709838867188 L 524.5180053710938 560.5700073242188 L 524.5180053710938 563.1519775390625 C 524.5180053710938 563.2080078125 524.5009765625 563.2540283203125 524.468017578125 563.2880249023438 C 524.4349975585938 563.3209838867188 524.3900146484375 563.3389892578125 524.333984375 563.3389892578125 C 523.9520263671875 563.3369750976562 523.5709838867188 563.3369750976562 523.1890258789062 563.3369750976562 L 523.0640258789062 563.3369750976562 L 523.0640258789062 556.3510131835938 L 524.301025390625 556.3489990234375 C 524.4600219726562 556.3489990234375 524.5170288085938 556.406005859375 524.5170288085938 556.5679931640625 L 524.5180053710938 559.1160278320312 L 524.7739868164062 559.1170043945312 L 524.7739868164062 556.5070190429688 C 524.7739868164062 556.4459838867188 524.7760009765625 556.375 524.7949829101562 556.2999877929688 C 524.8770141601562 555.9719848632812 525.1619873046875 555.7509765625 525.5020141601562 555.75 C 525.8340454101562 555.748046875 526.166015625 555.7479858398438 526.5 555.7490234375 L 526.7849731445312 555.7490234375 L 526.7860107421875 555.2349853515625 C 526.7860107421875 555.176025390625 526.7890014648438 555.10400390625 526.8090209960938 555.031005859375 C 526.9000244140625 554.7050170898438 527.1829833984375 554.4940185546875 527.5289916992188 554.4929809570312 L 529.822021484375 554.4929809570312 L 529.822021484375 554.0880126953125 L 527.5960083007812 554.0880126953125 C 527.4400024414062 554.0880126953125 527.3790283203125 554.0269775390625 527.3790283203125 553.8729858398438 L 527.3790283203125 553.083984375 C 527.3790283203125 552.9310302734375 527.43798828125 552.8709716796875 527.5910034179688 552.8709716796875 Z M 536.0073852539062 557.2034912109375 C 535.8574829101562 557.2034912109375 535.70849609375 557.2030029296875 535.5599975585938 557.2020263671875 C 535.3300170898438 557.2009887695312 535.1389770507812 557.1099853515625 534.9929809570312 556.9349975585938 C 534.8839721679688 556.802001953125 534.8280029296875 556.6439819335938 534.8270263671875 556.4650268554688 L 534.8270263671875 555.947021484375 L 528.239990234375 555.947021484375 L 528.239990234375 556.4409790039062 C 528.2379760742188 556.8900146484375 527.9249877929688 557.2020263671875 527.47900390625 557.2020263671875 L 526.22900390625 557.2020263671875 L 526.22900390625 562.4849853515625 L 526.5700073242188 562.4849853515625 C 526.8839721679688 562.4849853515625 527.199951171875 562.4859619140625 527.5139770507812 562.4840087890625 L 527.52197265625 562.4840087890625 C 527.7919921875 562.4840087890625 528.0120239257812 562.5960083007812 528.1749877929688 562.8159790039062 C 528.4550170898438 563.1939697265625 528.7349853515625 563.5700073242188 529.0159912109375 563.947021484375 L 529.6680297851562 564.822998046875 C 529.6829833984375 564.843017578125 529.6859741210938 564.844970703125 529.7109985351562 564.844970703125 C 531.9619750976562 564.843017578125 534.2130126953125 564.843017578125 536.4650268554688 564.843017578125 L 536.968994140625 563.051025390625 C 537.0689697265625 562.6950073242188 537.3369750976562 562.489990234375 537.7039794921875 562.4879760742188 C 538.1079711914062 562.4843139648438 538.5131225585938 562.4849243164062 538.9149780273438 562.4869995117188 L 539.1170043945312 562.4869995117188 C 539.3250122070312 562.4869995117188 539.5040283203125 562.5560302734375 539.6480102539062 562.6890258789062 C 539.7769775390625 562.8099975585938 539.8319702148438 562.9619750976562 539.8759765625 563.1069946289062 L 540.4149780273438 564.8499755859375 C 540.47802734375 564.8469848632812 540.5390014648438 564.8460083007812 540.6010131835938 564.844970703125 C 540.68701171875 564.2529907226562 540.7540283203125 563.64599609375 540.7999877929688 563.0419921875 C 540.8460083007812 562.4290161132812 540.8709716796875 561.7880249023438 540.8740234375 561.135986328125 C 540.875 560.7260131835938 540.864990234375 560.2930297851562 540.8410034179688 559.8150024414062 C 540.8280029296875 559.5579833984375 540.81298828125 559.301025390625 540.7930297851562 559.0430297851562 C 540.7630004882812 558.6430053710938 540.7230224609375 558.2529907226562 540.6740112304688 557.885009765625 C 540.656005859375 557.7459716796875 540.635986328125 557.6079711914062 540.6160278320312 557.4710083007812 L 540.5780029296875 557.2039794921875 C 540.5398559570312 557.2059936523438 540.5050048828125 557.2039794921875 540.469970703125 557.2039794921875 L 540.4119873046875 557.2039794921875 L 540.4089965820312 557.2080078125 L 540.2919921875 557.572998046875 C 540.135986328125 558.0599975585938 539.97998046875 558.5469970703125 539.823974609375 559.0330200195312 C 539.7130126953125 559.3740234375 539.4580078125 559.56298828125 539.10400390625 559.5659790039062 C 538.6319580078125 559.5700073242188 538.1589965820312 559.5700073242188 537.6849975585938 559.5659790039062 C 537.3330078125 559.5640258789062 537.0570068359375 559.35498046875 536.9639892578125 559.02197265625 C 536.7949829101562 558.4169921875 536.6259765625 557.8099975585938 536.4600219726562 557.2020263671875 C 536.3080444335938 557.2030029296875 536.1572265625 557.2034912109375 536.0073852539062 557.2034912109375 Z" stroke="none" fill="#6a6b75"/></g></g></g></svg>