<svg xmlns="http://www.w3.org/2000/svg" xmlns:xlink="http://www.w3.org/1999/xlink" width="32" height="32" viewBox="0 0 32 32">
  <defs>
    <clipPath id="clip-path">
      <path id="Trazado_3" data-name="Trazado 3" d="M0-96.833H16V-87.5H0Z" transform="translate(0 96.833)" fill="#fff"/>
    </clipPath>
  </defs>
  <g id="Grupo_5870" data-name="Grupo 5870" transform="translate(-435 -138)">
    <g id="Grupo_5855" data-name="Grupo 5855" transform="translate(-414 -220)">
      <rect id="Rectángulo_1" data-name="Rectángulo 1" width="32" height="32" transform="translate(849 358)" fill="none"/>
      <path id="Trazado_1" data-name="Trazado 1" d="M13-8C20.18-8,26-2.474,26,4.343S13,24,13,24,0,11.16,0,4.343,5.82-8,13-8Z" transform="translate(852 366)" fill="#06a086"/>
    </g>
    <g id="Grupo_4" data-name="Grupo 4" transform="translate(443 144)">
      <g id="Grupo_3" data-name="Grupo 3" transform="translate(0 0)" clip-path="url(#clip-path)">
        <g id="Grupo_1" data-name="Grupo 1" transform="translate(6.451)">
          <path id="Trazado_1-2" data-name="Trazado 1" d="M0-87.5v-4.385a4.809,4.809,0,0,1,4.737-4.949,4.655,4.655,0,0,1,4.812,4.385c0,3.069-1.705,4.948-4.526,4.948Z" transform="translate(0 96.833)" fill="#fff"/>
        </g>
        <g id="Grupo_2" data-name="Grupo 2" transform="translate(0 3.32)">
          <path id="Trazado_2" data-name="Trazado 2" d="M-56.827-56.376V-59.2A3.047,3.047,0,0,0-59.82-62.39a2.971,2.971,0,0,0-3.072,2.825c0,1.978,1.128,3.188,2.945,3.188Z" transform="translate(62.892 62.39)" fill="#fff"/>
        </g>
      </g>
    </g>
  </g>
</svg>
