<svg xmlns="http://www.w3.org/2000/svg" width="32" height="32" viewBox="0 0 32 32">
  <g id="Grupo_5873" data-name="Grupo 5873" transform="translate(-307 -189)">
    <g id="Grupo_5859" data-name="Grupo 5859" transform="translate(-542 -169)">
      <rect id="Rectángulo_1" data-name="Rectángulo 1" width="32" height="32" transform="translate(849 358)" fill="none"/>
      <path id="Trazado_1" data-name="Trazado 1" d="M13-8C20.18-8,26-2.474,26,4.343S13,24,13,24,0,11.16,0,4.343,5.82-8,13-8Z" transform="translate(852 366)" fill="#00bafc"/>
    </g>
    <path id="Trazado_2043" data-name="Trazado 2043" d="M934.937,658.1a12.123,12.123,0,0,0-4.232.505A6.694,6.694,0,0,0,927.5,661a1.926,1.926,0,0,0,0,2.448,1.8,1.8,0,0,0,2.509-.119c.81-.772,1.795-2.079,2.579-2.935a7.578,7.578,0,0,1,1.678-1.452c.344-.16.747-.094.773.528a41.038,41.038,0,0,0,.766,4.892,4.785,4.785,0,0,0,2.384,3.48,2.481,2.481,0,0,0,2.168,0,1.887,1.887,0,0,0,.809-1.808,10.778,10.778,0,0,0-.917-3.3c-.509-1.132-1.682-3.415-3.813-4.131-.788-.16-.6-.906,0-1.047s2.449-.555,3.72-1,2.29-1,2.425-1.423a.948.948,0,0,0-.483-1.011,3.485,3.485,0,0,0-2.617-.38,6.625,6.625,0,0,0-2.825,1.391,3.629,3.629,0,0,0-1.275,1.927c-.144.681.023,1.009-.449,1.043" transform="translate(-612.924 -460.485)" fill="#fff"/>
  </g>
</svg>
