<svg xmlns="http://www.w3.org/2000/svg" width="32" height="32" viewBox="0 0 32 32">
  <g id="Grupo_5867" data-name="Grupo 5867" transform="translate(-307 -138)">
    <g id="Grupo_5849" data-name="Grupo 5849" transform="translate(-542 -220)">
      <rect id="Rectángulo_1" data-name="Rectángulo 1" width="32" height="32" transform="translate(849 358)" fill="none"/>
      <path id="Trazado_1" data-name="Trazado 1" d="M13-8C20.18-8,26-2.474,26,4.343S13,24,13,24,0,11.16,0,4.343,5.82-8,13-8Z" transform="translate(852 366)" fill="#01a5f4"/>
    </g>
    <path id="Trazado_2028" data-name="Trazado 2028" d="M682.833,263.622a.908.908,0,0,0,.524-1.312c-.225-.6-.595-2.05-.766-2.62s-.2-1.34.368-1.527.826.451,1.16,1.029.87,1.6,1.405,2.386a3.455,3.455,0,0,0,2.835,1.689,3,3,0,0,0,2.8-2c.491-1.289.938-2.671,1.3-3.49s.683-1.656,1.4-1.648.8.588.835,1.26c.01.668.028,1.845,0,2.548s.157,1.281.787,1.33,1.1-.476,1.108-1.33.018-1.525,0-2.709a9.966,9.966,0,0,0-.944-4.158,2.067,2.067,0,0,0-2.16-1.207,3.173,3.173,0,0,0-2.017,1.511,24.212,24.212,0,0,0-1.307,2.879c-.508,1.12-1.015,1.392-1.682,1.392s-1.089-.661-1.608-1.392-.993-1.438-1.482-2.2a2.086,2.086,0,0,0-2.193-.811,2.679,2.679,0,0,0-1.707,1.364,6.666,6.666,0,0,0-.886,3.172,13.115,13.115,0,0,0,.412,3.3,11.746,11.746,0,0,0,.736,2.039A.953.953,0,0,0,682.833,263.622Z" transform="translate(-365.42 -108.472)" fill="#fff"/>
  </g>
</svg>
