<svg xmlns="http://www.w3.org/2000/svg" xmlns:xlink="http://www.w3.org/1999/xlink" width="32" height="32" viewBox="0 0 32 32">
  <defs>
    <linearGradient id="linear-gradient" x1="0.168" x2="0.839" y2="0.916" gradientUnits="objectBoundingBox">
      <stop offset="0" stop-color="#fa2b8e"/>
      <stop offset="1" stop-color="#903191"/>
    </linearGradient>
  </defs>
  <g id="Grupo_5871" data-name="Grupo 5871" transform="translate(-479 -138)">
    <g id="Grupo_5857" data-name="Grupo 5857" transform="translate(-370 -220)">
      <rect id="Rectángulo_1" data-name="Rectángulo 1" width="32" height="32" transform="translate(849 358)" fill="none"/>
      <path id="Trazado_1" data-name="Trazado 1" d="M13-8C20.18-8,26-2.474,26,4.343S13,24,13,24,0,11.16,0,4.343,5.82-8,13-8Z" transform="translate(852 366)" fill="url(#linear-gradient)"/>
    </g>
    <path id="Trazado_2037" data-name="Trazado 2037" d="M1041.742,434.717c.18-.751.509-.928.968-.952s1.566-.028,2.134,0,.46.831.46.831-.127,3.167-.1,3.935.354,1.283,1.169,1.28,1.45-.238,1.463-1.28-.01-3.021,0-3.644.178-1.032.823-1.037,1.124,0,1.7,0a.761.761,0,0,1,.817.867c-.013.7.124,7.052,0,8.3,0,0,0,0,0,.01a4.566,4.566,0,0,1-2.221,3.29c-1.626,1.034-4.706.663-6.057,0-1.248-.6-1.594-1.142-1.558-1.713.034-.438.568-1.675,1.194-1.486s1.116.583,2.2,1a2.112,2.112,0,0,0,2.322-.173,4.267,4.267,0,0,0,.782-1.565,5.8,5.8,0,0,1-2.987,0c-1.991-.393-3.177-1.6-3.344-2.561A14.987,14.987,0,0,1,1041.742,434.717Z" transform="translate(-551.199 -290.466)" fill="#fff"/>
  </g>
</svg>
