<svg id="ico-sap" xmlns="http://www.w3.org/2000/svg" width="20" height="20" viewBox="0 0 20 20">
  <rect id="Rectángulo_346" data-name="Rectángulo 346" width="20" height="20" fill="none"/>
  <g id="Rectángulo_182" data-name="Rectángulo 182" transform="translate(0 1)" fill="none" stroke="#666" stroke-linecap="round" stroke-linejoin="round" stroke-width="1.5">
    <rect width="20" height="18" stroke="none"/>
    <rect x="0.75" y="0.75" width="18.5" height="16.5" fill="none"/>
  </g>
  <path id="Trazado_1085" data-name="Trazado 1085" d="M0,0H19" transform="translate(0.5 13.5)" fill="rgba(0,0,0,0)" stroke="#666" stroke-width="1"/>
  <path id="Trazado_1086" data-name="Trazado 1086" d="M.228-4.782A.629.629,0,0,1,.36-5.151a.377.377,0,0,1,.307-.184.414.414,0,0,1,.216.076,1.541,1.541,0,0,1,.22.168.963.963,0,0,0,.281.168.977.977,0,0,0,.381.076A.86.86,0,0,0,2.2-4.956a.353.353,0,0,0,.187-.326.478.478,0,0,0-.21-.382,2.456,2.456,0,0,0-.51-.3q-.3-.135-.6-.3a1.488,1.488,0,0,1-.513-.477,1.282,1.282,0,0,1-.21-.737A1.166,1.166,0,0,1,.829-8.5,1.987,1.987,0,0,1,2-8.844a3.3,3.3,0,0,1,.352.02,3.206,3.206,0,0,1,.413.076.886.886,0,0,1,.375.181.386.386,0,0,1,.145.3.711.711,0,0,1-.107.356.327.327,0,0,1-.294.184,1.038,1.038,0,0,1-.329-.125A1.231,1.231,0,0,0,2-7.975a.834.834,0,0,0-.484.115.337.337,0,0,0-.161.28A.358.358,0,0,0,1.5-7.3a1.389,1.389,0,0,0,.378.214,4.944,4.944,0,0,1,.494.23,3.814,3.814,0,0,1,.494.309,1.294,1.294,0,0,1,.378.471,1.522,1.522,0,0,1,.152.691,1.347,1.347,0,0,1-.446,1.076,1.724,1.724,0,0,1-1.169.385A2.178,2.178,0,0,1,.693-4.189Q.228-4.453.228-4.782Zm3.991.369a.369.369,0,0,1,.013-.072L5.434-8.5a.421.421,0,0,1,.236-.253.961.961,0,0,1,.423-.089.961.961,0,0,1,.423.089.421.421,0,0,1,.236.253L7.959-4.486a.369.369,0,0,1,.013.072.354.354,0,0,1-.21.3.84.84,0,0,1-.436.125q-.278,0-.329-.191l-.22-.823H5.414l-.22.823q-.052.191-.329.191a.84.84,0,0,1-.436-.125A.354.354,0,0,1,4.219-4.413ZM5.621-5.8h.943L6.092-7.56ZM8.992-4.308V-8.5a.283.283,0,0,1,.1-.217A.392.392,0,0,1,9.367-8.8H10.7a1.619,1.619,0,0,1,1.108.365,1.451,1.451,0,0,1,.417,1.149v.033A1.437,1.437,0,0,1,11.792-6.1a1.715,1.715,0,0,1-1.153.372H10v1.422a.256.256,0,0,1-.149.234.722.722,0,0,1-.355.082.722.722,0,0,1-.355-.082A.256.256,0,0,1,8.992-4.308ZM10-6.52h.639q.581,0,.581-.658v-.072q0-.658-.581-.658H10Z" transform="translate(3.772 14.344)" fill="#666"/>
  <line id="Línea_265" data-name="Línea 265" x2="2" transform="translate(9 15.5)" fill="none" stroke="#666" stroke-linecap="round" stroke-width="1.5"/>
</svg>
