<svg xmlns="http://www.w3.org/2000/svg" width="20.403" height="20" viewBox="0 0 20.403 20">
  <g id="ico-descargar-todo" transform="translate(0.403)">
    <path id="Trazado_2719" data-name="Trazado 2719" d="M0,0H20V20H0Z" fill="none"/>
    <g id="Grupo_7817" data-name="Grupo 7817" transform="translate(-397.69 -144.301)">
      <path id="Trazado_2704" data-name="Trazado 2704" d="M414.562,152.274l-2.322-2.318a1.332,1.332,0,0,0-.934-.39h-5.64a1.331,1.331,0,0,0-1.326,1.329v11.5a1.325,1.325,0,0,0,1.326,1.326h7.959a1.326,1.326,0,0,0,1.326-1.326v-9.181A1.341,1.341,0,0,0,414.562,152.274Zm-1.045.832h-2.1v-2.1Zm-7.851,9.285V150.9h4.422v2.871a.661.661,0,0,0,.661.663h2.876v7.958Z" transform="translate(0 -1)" fill="#707070" stroke="rgba(0,0,0,0)" stroke-width="1"/>
    </g>
    <g id="Grupo_7820" data-name="Grupo 7820" transform="translate(5.406 13.208) rotate(180)">
      <path id="Trazado_678" data-name="Trazado 678" d="M0,0,2.182,2.8,4.406,0" transform="translate(4.406 2.797) rotate(180)" fill="none" stroke="#707070" stroke-linecap="round" stroke-linejoin="round" stroke-width="2"/>
      <line id="Línea_352" data-name="Línea 352" y2="5.595" transform="translate(2.203 0.699)" fill="none" stroke="#707070" stroke-linecap="round" stroke-width="2"/>
    </g>
    <path id="Trazado_2724" data-name="Trazado 2724" d="M396.737,592.57h5.437l3.563,3.563v8.432" transform="translate(-386.737 -590)" fill="none" stroke="#707070" stroke-linecap="round" stroke-linejoin="bevel" stroke-width="1.5"/>
  </g>
</svg>
