<svg xmlns="http://www.w3.org/2000/svg" width="36" height="36" viewBox="0 0 36 36">
  <g id="Grupo_8919" data-name="Grupo 8919" transform="translate(-2891 184)">
    <g id="Grupo_8918" data-name="Grupo 8918" transform="translate(2593 -420)">
      <circle id="Elipse_637" data-name="Elipse 637" cx="18" cy="18" r="18" transform="translate(298 236)" fill="#fff" opacity="0.9"/>
    </g>
    <path id="Trazado_3042" data-name="Trazado 3042" d="M2.6,1.652A2.056,2.056,0,0,1,1.52,1.38.939.939,0,0,1,1.065.51q0-1.558-.091-3.441L.793-6.7Q.7-8.58.7-10.112a1.384,1.384,0,0,1,.545-1.169A2.163,2.163,0,0,1,2.6-11.7a2.136,2.136,0,0,1,1.311.416,1.372,1.372,0,0,1,.558,1.169q0,1.532-.091,3.415L4.195-2.931Q4.1-1.048,4.1.51a.915.915,0,0,1-.519.87A2.129,2.129,0,0,1,2.6,1.652Zm.026,5.791a1.9,1.9,0,0,1-1.428-.6,2.023,2.023,0,0,1,0-2.818,1.916,1.916,0,0,1,1.428-.584,1.9,1.9,0,0,1,1.389.584,1.991,1.991,0,0,1,0,2.818A1.878,1.878,0,0,1,2.624,7.444Z" transform="translate(2906.237 -163.874)" fill="#ef5970"/>
  </g>
</svg>
