<svg xmlns="http://www.w3.org/2000/svg" viewBox="0 0 20 20">
  <defs>
    <style>
      .cls-1, .cls-2, .cls-4 {
        fill: none;
      }

      .cls-1 {
        stroke: #333;
        stroke-width: 1.5px;
      }

      .cls-1, .cls-2 {
        stroke-linecap: round;
      }

      .cls-3, .cls-5 {
        stroke: none;
      }

      .cls-5 {
        fill: #333;
      }
    </style>
  </defs>
  <g id="Group_2901" data-name="Group 2901" transform="translate(-104 -380)">
    <g id="Ellipse_3" data-name="Ellipse 3" class="cls-1" transform="translate(104 388.182)">
      <circle class="cls-3" cx="5.909" cy="5.909" r="5.909"/>
      <circle class="cls-4" cx="5.909" cy="5.909" r="5.159"/>
    </g>
    <g id="Path_1867" data-name="Path 1867" class="cls-2" transform="translate(115.818 380)">
      <path class="cls-3" d="M4.091,0A4.091,4.091,0,1,1,0,4.091,4.091,4.091,0,0,1,4.091,0Z"/>
      <path class="cls-5" d="M 4.090909004211426 1.499999046325684 C 2.66227912902832 1.499999046325684 1.499999046325684 2.66227912902832 1.499999046325684 4.090909004211426 C 1.499999046325684 5.519538879394531 2.66227912902832 6.681818962097168 4.090909004211426 6.681818962097168 C 5.519538879394531 6.681818962097168 6.681818962097168 5.519538879394531 6.681818962097168 4.090909004211426 C 6.681818962097168 2.66227912902832 5.519538879394531 1.499999046325684 4.090909004211426 1.499999046325684 M 4.090909004211426 -9.5367431640625e-07 C 6.350258827209473 -9.5367431640625e-07 8.181818962097168 1.831559181213379 8.181818962097168 4.090909004211426 C 8.181818962097168 6.350258827209473 6.350258827209473 8.181818962097168 4.090909004211426 8.181818962097168 C 1.831559181213379 8.181818962097168 -9.5367431640625e-07 6.350258827209473 -9.5367431640625e-07 4.090909004211426 C -9.5367431640625e-07 1.831559181213379 1.831559181213379 -9.5367431640625e-07 4.090909004211426 -9.5367431640625e-07 Z"/>
    </g>
    <line id="Line_4" data-name="Line 4" class="cls-1" y1="3.636" x2="3.636" transform="translate(113.545 386.818)"/>
  </g>
</svg>
