<svg xmlns="http://www.w3.org/2000/svg" width="20" height="20" viewBox="0 0 20 20">
  <g id="Grupo_7479" data-name="Grupo 7479" transform="translate(-754 -395)">
    <rect id="Rectángulo_2586" data-name="Rectángulo 2586" width="20" height="20" transform="translate(754 395)" fill="none"/>
    <g id="Grupo_6381" data-name="Grupo 6381">
      <g id="Rectángulo_2587" data-name="Rectángulo 2587" transform="translate(755 401)" fill="none" stroke="#06a086" stroke-width="1.6">
        <rect width="18" height="10" stroke="none"/>
        <rect x="0.8" y="0.8" width="16.4" height="8.4" fill="none"/>
      </g>
      <line id="Línea_975" data-name="Línea 975" y2="2" transform="translate(758.5 410.5)" fill="none" stroke="#06a086" stroke-width="1.5"/>
      <line id="Línea_976" data-name="Línea 976" y2="2" transform="translate(769.5 410.5)" fill="none" stroke="#06a086" stroke-width="1.5"/>
      <g id="Elipse_452" data-name="Elipse 452" transform="translate(758 404)" fill="none" stroke="#06a086" stroke-width="1.6">
        <circle cx="2" cy="2" r="2" stroke="none"/>
        <circle cx="2" cy="2" r="1.2" fill="none"/>
      </g>
      <g id="Trazado_2507" data-name="Trazado 2507" transform="translate(759 398)" fill="none">
        <path d="M1,0h9l1,4H0Z" stroke="none"/>
        <path d="M 2.249244689941406 1.599999904632568 L 2.04924488067627 2.400000095367432 L 8.95075511932373 2.400000095367432 L 8.750755310058594 1.599999904632568 L 2.249244689941406 1.599999904632568 M 1 0 L 10 0 L 11 4 L 0 4 L 1 0 Z" stroke="none" fill="#06a086"/>
      </g>
      <line id="Línea_977" data-name="Línea 977" x2="5" transform="translate(764 406)" fill="none" stroke="#06a086" stroke-width="1.6"/>
    </g>
  </g>
</svg>
