<svg id="ico-place-16x16" xmlns="http://www.w3.org/2000/svg" width="16" height="16" viewBox="0 0 16 16">
  <rect id="Rectángulo_1736" data-name="Rectángulo 1736" width="16" height="16" fill="none"/>
  <g id="Grupo_3687" data-name="Grupo 3687" transform="translate(-103 -124)">
    <g id="Trazado_8" data-name="Trazado 8" transform="translate(105 124)" fill="none">
      <path d="M6.029,0a6,6,0,0,1,6.029,5.979c0,3.3-5.657,9.685-6.029,9.838C6.062,16.01,0,9.282,0,5.979A6,6,0,0,1,6.029,0Z" stroke="none"/>
      <path d="M 6.0289306640625 1.499996185302734 C 3.531670570373535 1.499996185302734 1.500000953674316 3.509406089782715 1.500000953674316 5.97929573059082 C 1.500000953674316 6.329115867614746 1.677190780639648 7.720215797424316 3.957050323486328 10.93351554870605 C 4.717704772949219 12.00560283660889 5.479889392852783 12.95382213592529 6.052490234375 13.6298885345459 C 6.631928443908691 12.95778560638428 7.405822277069092 12.00091648101807 8.169840812683105 10.91598606109619 C 10.38565063476562 7.769475936889648 10.55786037445068 6.341885566711426 10.55786037445068 5.97929573059082 C 10.55786037445068 3.509406089782715 8.526190757751465 1.499996185302734 6.0289306640625 1.499996185302734 M 6.0289306640625 -3.814697265625e-06 C 9.358610153198242 -3.814697265625e-06 12.05786037445068 2.67702579498291 12.05786037445068 5.97929573059082 C 12.05786037445068 9.281566619873047 6.400960445404053 15.66390609741211 6.0289306640625 15.81747627258301 C 6.029395580291748 15.82018184661865 6.028645992279053 15.82152938842773 6.026741981506348 15.82152938842773 C 5.893032550811768 15.82152938842773 9.5367431640625e-07 9.235208511352539 9.5367431640625e-07 5.97929573059082 C 9.5367431640625e-07 2.67702579498291 2.699240684509277 -3.814697265625e-06 6.0289306640625 -3.814697265625e-06 Z" stroke="none" fill="#fff"/>
    </g>
    <g id="Elipse_1" data-name="Elipse 1" transform="translate(108 127)" fill="none" stroke="#fff" stroke-width="1.5">
      <circle cx="3" cy="3" r="3" stroke="none"/>
      <circle cx="3" cy="3" r="2.25" fill="none"/>
    </g>
  </g>
</svg>
