<svg id="ico-alert" xmlns="http://www.w3.org/2000/svg" width="20" height="20" viewBox="0 0 20 20">
  <rect id="Rectángulo_2442" data-name="Rectángulo 2442" width="20" height="20" fill="none"/>
  <g id="Polígono_10" data-name="Polígono 10" fill="none" stroke-linecap="round" stroke-linejoin="round">
    <path d="M9.138,1.465a1,1,0,0,1,1.724,0l8.252,14.028A1,1,0,0,1,18.252,17H1.748a1,1,0,0,1-.862-1.507Z" stroke="none"/>
    <path d="M 9.999999046325684 3.944626808166504 L 3.496826171875 15.00000095367432 L 16.50316619873047 15.00000095367432 L 9.999999046325684 3.944626808166504 M 9.999999046325684 0.9723091125488281 C 10.33430194854736 0.9723091125488281 10.66860389709473 1.136634826660156 10.86192893981934 1.465290069580078 L 19.1135196685791 15.49298095703125 C 19.50564956665039 16.15961074829102 19.02499961853027 17 18.25157928466797 17 L 1.748418807983398 17 C 0.9749984741210938 17 0.4943485260009766 16.15961074829102 0.8864784240722656 15.49298095703125 L 9.138069152832031 1.465290069580078 C 9.331394195556641 1.136634826660156 9.665696144104004 0.9723091125488281 9.999999046325684 0.9723091125488281 Z" stroke="none" fill="#707070"/>
  </g>
  <g id="Grupo_7650" data-name="Grupo 7650" transform="translate(0.5 -1)">
    <line id="Línea_1443" data-name="Línea 1443" y2="3" transform="translate(9.5 8.5)" fill="none" stroke="#707070" stroke-linecap="round" stroke-width="1.5"/>
    <line id="Línea_1444" data-name="Línea 1444" transform="translate(9.5 14.5)" fill="none" stroke="#707070" stroke-linecap="round" stroke-width="1.5"/>
  </g>
</svg>
