<svg id="ico-typedoc-16px" xmlns="http://www.w3.org/2000/svg" width="16" height="16" viewBox="0 0 16 16">
  <rect id="Rectángulo_2896" data-name="Rectángulo 2896" width="16" height="16" fill="none"/>
  <path id="Trazado_2704" data-name="Trazado 2704" d="M10.222,2.608,7.9.29A1.326,1.326,0,0,0,6.966-.1H1.326A1.331,1.331,0,0,0,0,1.229v11.5a1.327,1.327,0,0,0,1.326,1.326H9.285a1.327,1.327,0,0,0,1.326-1.326V3.548A1.333,1.333,0,0,0,10.222,2.608ZM9.177,3.44h-2.1v-2.1ZM1.326,12.725V1.229H5.748V4.1a.662.662,0,0,0,.663.663H9.285v7.958Z" transform="translate(3.098 0.949)" fill="#707070"/>
</svg>
