<svg id="Componente_1930_2" data-name="Componente 1930 – 2" xmlns="http://www.w3.org/2000/svg" width="20" height="20" viewBox="0 0 20 20">
  <path id="Trazado_2758" data-name="Trazado 2758" d="M0,0H19.948V20H0Z" transform="translate(0.052)" fill="none"/>
  <g id="Grupo_1650" data-name="Grupo 1650" transform="translate(-2346.442 -350.718)">
    <path id="Trazado_818" data-name="Trazado 818" d="M1779.56,231.891s-4.4,4.368-5.169,5.145-1.544,2.089-.282,3.327c.95.866,2.17.6,3.313-.586s4.994-5.169,4.994-5.169" transform="translate(577 128.847)" fill="none" stroke="#6a6b75" stroke-width="1.5"/>
    <path id="Trazado_819" data-name="Trazado 819" d="M1.129,7.1C-.217,5.47-.458,3.6.945,1.93A5.341,5.341,0,0,1,3.762.06a.993.993,0,0,1,1.12,1.593c.027.01-1.367,1.584-1.364,1.616-.946,1.21-.682,1.969-.182,2.394.7.661,1.811.5,2.722-.751.509-.629,1.121-1.295,1.4-1.645.492-.684,1.652-.638,1.647.823a6.946,6.946,0,0,1-1.65,3.722C5.728,9.678,2.476,8.735,1.129,7.1Z" transform="translate(2356.37 354.718) rotate(5)" fill="none" stroke="#6a6b75" stroke-width="1.5"/>
  </g>
  <path id="Trazado_2761" data-name="Trazado 2761" d="M-2999.882,1503.715l2.466,2.5,4.421-4.448" transform="translate(3001.882 -1499.765)" fill="none" stroke="#6a6b75" stroke-linecap="round" stroke-linejoin="round" stroke-width="2"/>
</svg>
