<?xml version="1.0" encoding="UTF-8"?><svg id="a" xmlns="http://www.w3.org/2000/svg" viewBox="0 0 20 20"><defs><style>.d{fill:none;}.e{fill:#ef5970;}.f{fill:#ed4f65;}</style></defs><g id="b"><path class="d" d="M10.02,1c5,0,9,4,9,9s-4,9-9,9S1.02,15,1.02,10,5.02,1,10.02,1Z"/><path class="e" d="M10.02,3c-3.9,0-7,3.1-7,7s3.1,7,7,7,7-3.1,7-7-3.1-7-7-7m0-2c5,0,9,4,9,9s-4,9-9,9S1.02,15,1.02,10,5.02,1,10.02,1Z"/></g><polygon class="f" points="10.72 11.4 9.32 11.4 9.12 5.5 10.92 5.5 10.72 11.4"/><rect id="c" class="d" width="20" height="20"/><circle class="f" cx="10.02" cy="13.66" r=".92"/></svg>