<svg xmlns="http://www.w3.org/2000/svg" width="16.257" height="16.249" viewBox="0 0 16.257 16.249">
  <g id="ico-contracts-gr-16p" transform="translate(0 0.249)">
    <rect id="Rectángulo_199" data-name="Rectángulo 199" width="16" height="16" fill="none"/>
    <path id="Trazado_43" data-name="Trazado 43" d="M138.325,585.157a1.085,1.085,0,0,1,1.27-1.127c1.342.042,9.778-.053,10.288,0a1.61,1.61,0,0,1,1.572,1.832c0,1.567.019,9.336,0,9.346s1.55,0,1.55,0v2.422s.193,1.066-1.707,1.066h-8.956a1.662,1.662,0,0,1-1.69-1.73c0-1.169-.01-8.875-.01-8.875h-2.318Z" transform="translate(-137.509 -583.516)" fill="none" stroke="#05a086" stroke-width="1.5"/>
    <path id="Trazado_44" data-name="Trazado 44" d="M151.583,602.332l-7.993.024v1.819s.07,1.644-1.183,1.644" transform="translate(-137.411 -590.637)" fill="none" stroke="#05a086" stroke-width="1.5"/>
    <path id="Trazado_45" data-name="Trazado 45" d="M141.28,587.638s-.025-2.249,0-2.273c0-1.465-1.279-1.8-1.627-1.1" transform="translate(-138.145 -583.389)" fill="none" stroke="#05a086" stroke-width="1.5"/>
    <path id="Trazado_1096" data-name="Trazado 1096" d="M0,0H5.711" transform="translate(5.711 8.657)" fill="none" stroke="#05a086" stroke-width="1.5"/>
    <path id="Trazado_1346" data-name="Trazado 1346" d="M0,0H5.711" transform="translate(5.711 6.21)" fill="none" stroke="#05a086" stroke-width="1.5"/>
    <path id="Trazado_1347" data-name="Trazado 1347" d="M0,0H5.711" transform="translate(5.711 3.762)" fill="none" stroke="#05a086" stroke-width="1.5"/>
  </g>
</svg>
