<svg xmlns="http://www.w3.org/2000/svg" width="20.009" height="20" viewBox="0 0 20.009 20">
  <g id="Grupo_6320" data-name="Grupo 6320" transform="translate(-718 -329)">
    <g id="Componente_64_1" data-name="Componente 64 – 1" transform="translate(718 329)">
      <path id="Trazado_2371" data-name="Trazado 2371" d="M0,0H20V20H0Z" fill="none"/>
      <path id="Unión_18" data-name="Unión 18" d="M-151.464,668.615c-.43-.542-1.172-1.552-1.876-2.5A7.952,7.952,0,0,1-157,667a8.008,8.008,0,0,1-8-8,8.009,8.009,0,0,1,8-8,8.013,8.013,0,0,1,7.914,6.833,1.524,1.524,0,0,1,.324.929v4.506c.617,0,1.064,0,1.184-.006.4-.014.851.083.367.872-.333.545-1.918,2.851-2.957,4.48a.779.779,0,0,1-.635.385A.861.861,0,0,1-151.464,668.615Z" transform="translate(166 -650)" fill="none" stroke="#6a6b75" stroke-width="2"/>
      <path id="Trazado_1171" data-name="Trazado 1171" d="M1061.364,50.11c0-2.493-4.764-2.284-4.764,0-.012.047.026,4.4,0,4.448.035.089-2.187-.4-1.231,1.145.051.072,3.356,4.342,3.356,4.342" transform="translate(-1044.129 -41.393)" fill="none" stroke="#6a6b75" stroke-width="2"/>
    </g>
    <path id="Trazado_2372" data-name="Trazado 2372" d="M-3.318-4.393a.741.741,0,0,1,.167-.443.471.471,0,0,1,.376-.224.5.5,0,0,1,.281.114,3.208,3.208,0,0,1,.3.252,1.407,1.407,0,0,0,.424.252,1.578,1.578,0,0,0,.609.114A1.313,1.313,0,0,0-.4-4.536a.7.7,0,0,0,.3-.619.831.831,0,0,0-.167-.509A1.324,1.324,0,0,0-.7-6.035q-.271-.148-.595-.286t-.652-.309a3.8,3.8,0,0,1-.6-.385,1.543,1.543,0,0,1-.438-.571A1.9,1.9,0,0,1-3.147-8.4a1.87,1.87,0,0,1,.2-.89,1.542,1.542,0,0,1,.547-.6,2.585,2.585,0,0,1,.733-.314,3.327,3.327,0,0,1,.828-.1,4.377,4.377,0,0,1,.523.033,4.927,4.927,0,0,1,.585.109,1.244,1.244,0,0,1,.5.238.482.482,0,0,1,.2.381.846.846,0,0,1-.133.433.406.406,0,0,1-.362.224,1.8,1.8,0,0,1-.466-.181,1.949,1.949,0,0,0-.847-.181,1.381,1.381,0,0,0-.795.2.62.62,0,0,0-.281.538.627.627,0,0,0,.228.481,1.794,1.794,0,0,0,.566.333q.338.128.733.324a6.244,6.244,0,0,1,.733.424,1.776,1.776,0,0,1,.566.661,2.142,2.142,0,0,1,.228,1.014A1.908,1.908,0,0,1,.522-3.751a2.425,2.425,0,0,1-1.642.538,3.068,3.068,0,0,1-1.551-.371Q-3.318-3.956-3.318-4.393Z" transform="translate(727.318 344.73)" fill="#6a6b75" stroke="#6a6b75" stroke-width="0.25"/>
    <line id="Línea_948" data-name="Línea 948" y1="0.9" transform="translate(725.813 334)" fill="none" stroke="#6a6b75" stroke-linecap="round" stroke-width="1.5"/>
    <line id="Línea_949" data-name="Línea 949" y1="0.9" transform="translate(725.813 341.203)" fill="none" stroke="#6a6b75" stroke-linecap="round" stroke-width="1.5"/>
  </g>
</svg>
