<svg xmlns="http://www.w3.org/2000/svg" width="20" height="20.077" viewBox="0 0 20 20.077">
  <g id="btn_edit_grid" transform="translate(0 0.077)">
    <rect id="Rectángulo_883" data-name="Rectángulo 883" width="20" height="20" fill="none"/>
    <path id="Trazado_1296" data-name="Trazado 1296" d="M11918.965,326.55s8.186-9.215,8.105-9.223c2.247-2.719,1.642-4.1.241-5.391s-3.069-1.169-4.855.741-8,9.029-8,9.029l-1.976,6.5Z" transform="translate(-11911.481 -310.086)" fill="none" stroke="#6a6b75" stroke-linecap="round" stroke-linejoin="round" stroke-width="2"/>
    <path id="Trazado_1304" data-name="Trazado 1304" d="M-.592,0H14.74" transform="translate(1.5 18.5)" fill="#6a6b75" stroke="#6a6b75" stroke-linecap="round" stroke-width="1.5"/>
    <path id="Trazado_1298" data-name="Trazado 1298" d="M11936.181,314.3l5.83,5.2" transform="translate(-11925.789 -311.865)" fill="none" stroke="#6a6b75" stroke-width="1.5"/>
    <path id="Trazado_1299" data-name="Trazado 1299" d="M11925.986,331.638l-2.238-2.285-1.178,3.28C11922.565,332.7,11925.986,331.638,11925.986,331.638Z" transform="translate(-11920.999 -314.971)" fill="#6a6b75"/>
    <path id="Trazado_1303" data-name="Trazado 1303" d="M11929.653,326.237l6.821-7.766" transform="translate(-11922.943 -313.636)" fill="none" stroke="#6a6b75" stroke-width="1.5"/>
    <path id="Trazado_1305" data-name="Trazado 1305" d="M11925.284,325.573a6.955,6.955,0,0,1,3.7,1.7,4.405,4.405,0,0,1,1.246,2.85" transform="translate(-11921.999 -314.157)" fill="none" stroke="#6a6b75" stroke-linecap="round" stroke-width="1.5"/>
  </g>
</svg>
