<svg xmlns="http://www.w3.org/2000/svg" width="20" height="21.168" viewBox="0 0 20 21.168"><g transform="translate(0 0.564)"><g transform="translate(-736.545 -288.546)"><path d="M741.294,299.987a6.888,6.888,0,0,1-1.681-4.346,6.438,6.438,0,1,1,12.47,2.257" transform="translate(0.692 -0.421)" fill="none" stroke="#6a6b75" stroke-linecap="round" stroke-linejoin="round" stroke-width="1.6"/><ellipse cx="3.867" cy="1.429" rx="3.867" ry="1.429" transform="translate(738.613 300.145)" fill="none" stroke="#6a6b75" stroke-linecap="round" stroke-linejoin="round" stroke-width="1.6"/><path d="M738.613,303.77v2.059a8.079,8.079,0,0,0,3.866.929,6.84,6.84,0,0,0,3.867-.929V303.77" transform="translate(0 -1)" fill="none" stroke="#6a6b75" stroke-linecap="round" stroke-linejoin="round" stroke-width="1.6"/><path d="M738.613,305.361v2.059a8.079,8.079,0,0,0,3.866.929,6.84,6.84,0,0,0,3.867-.929v-2.059" fill="none" stroke="#6a6b75" stroke-linecap="round" stroke-linejoin="round" stroke-width="1.6"/><ellipse cx="3.867" cy="1.429" rx="3.867" ry="1.429" transform="translate(746.743 297.546)" fill="none" stroke="#6a6b75" stroke-linecap="round" stroke-linejoin="round" stroke-width="1.6"/><path d="M746.743,301.509v2.059a8.08,8.08,0,0,0,3.867.929,6.84,6.84,0,0,0,3.867-.929v-2.059" transform="translate(0 -1.494)" fill="none" stroke="#6a6b75" stroke-linecap="round" stroke-linejoin="round" stroke-width="1.6"/><path d="M746.743,303.357v2.059a8.08,8.08,0,0,0,3.867.929,6.84,6.84,0,0,0,3.867-.929v-2.059" transform="translate(0 -0.587)" fill="none" stroke="#6a6b75" stroke-linecap="round" stroke-linejoin="round" stroke-width="1.6"/><path d="M746.743,305.23v2.06a8.087,8.087,0,0,0,3.867.928,6.845,6.845,0,0,0,3.867-.928v-2.06" fill="none" stroke="#6a6b75" stroke-linecap="round" stroke-linejoin="round" stroke-width="1.6"/><rect width="20" height="20" transform="translate(736.545 288.546)" fill="none"/><g transform="translate(0 -0.55)"><path d="M745.11,295.444a1.209,1.209,0,0,1-.732-.213.825.825,0,0,1-.292-.717v-1.045a.824.824,0,0,1,.292-.72,1.221,1.221,0,0,1,.732-.21,1.418,1.418,0,0,1,.526.091.776.776,0,0,1,.367.291.968.968,0,0,1,.137.548v1.045a.968.968,0,0,1-.137.544.768.768,0,0,1-.367.3A1.439,1.439,0,0,1,745.11,295.444Zm0-.54a.44.44,0,0,0,.3-.1.368.368,0,0,0,.112-.292v-1.045a.37.37,0,0,0-.109-.295.444.444,0,0,0-.3-.094.434.434,0,0,0-.3.094.37.37,0,0,0-.108.295v1.045a.373.373,0,0,0,.108.292A.426.426,0,0,0,745.11,294.9Zm.36,3.192a.318.318,0,0,1-.245-.1.314.314,0,0,1-.094-.217.271.271,0,0,1,.029-.122l2.6-5.254a.262.262,0,0,1,.259-.152.4.4,0,0,1,.242.09.281.281,0,0,1,.119.235.285.285,0,0,1-.029.129l-2.6,5.233a.226.226,0,0,1-.108.115A.355.355,0,0,1,745.47,298.1Zm2.883-.266a1.232,1.232,0,0,1-.728-.209.823.823,0,0,1-.295-.721v-1.045a.824.824,0,0,1,.295-.717,1.213,1.213,0,0,1,.728-.213,1.435,1.435,0,0,1,.526.09.766.766,0,0,1,.368.3.968.968,0,0,1,.137.544V296.9a.968.968,0,0,1-.137.544.766.766,0,0,1-.368.3A1.436,1.436,0,0,1,748.353,297.83Zm.007-.541a.44.44,0,0,0,.3-.093.372.372,0,0,0,.108-.3v-1.045a.373.373,0,0,0-.108-.292.5.5,0,0,0-.6,0,.379.379,0,0,0-.1.292V296.9a.378.378,0,0,0,.1.3A.437.437,0,0,0,748.36,297.289Z" fill="#6a6b75" stroke="#6a6b75" stroke-width="0.2"/></g></g></g></svg>