<svg id="ico-treatments" xmlns="http://www.w3.org/2000/svg" width="20" height="20" viewBox="0 0 20 20">
  <rect id="Rectángulo_3163" data-name="Rectángulo 3163" width="20" height="20" fill="none"/>
  <g id="Grupo_7894" data-name="Grupo 7894" transform="translate(-332.284 -549.648)">
    <g id="Grupo_7891" data-name="Grupo 7891">
      <path id="Trazado_2811" data-name="Trazado 2811" d="M342.284,558.915a4.014,4.014,0,0,1-4.009-4.009v-1.249a4.008,4.008,0,1,1,8.017,0v1.249A4.013,4.013,0,0,1,342.284,558.915Zm0-7.767a2.511,2.511,0,0,0-2.509,2.509v1.249a2.508,2.508,0,1,0,5.017,0v-1.249A2.511,2.511,0,0,0,342.284,551.148Z" fill="#6a6b75"/>
    </g>
    <path id="Trazado_2812" data-name="Trazado 2812" d="M347.508,559.841h-1.375l-1.921,7.69-1.285-5.464,1.285-2.25h-3.857l1.286,2.25-1.286,5.464-1.92-7.69H337.06a3.776,3.776,0,0,0-3.776,3.776v3.271a1.929,1.929,0,0,0,1.928,1.929h14.143a1.929,1.929,0,0,0,1.929-1.929v-3.271A3.776,3.776,0,0,0,347.508,559.841Z" fill="#6a6b75"/>
  </g>
</svg>
