<svg id="Componente_2016_1" data-name="Componente 2016 – 1" xmlns="http://www.w3.org/2000/svg" width="24" height="20" viewBox="0 0 24 20">
  <g id="Componente_2015_2" data-name="Componente 2015 – 2">
    <g id="Grupo_10728" data-name="Grupo 10728" transform="translate(-2558 1205)">
      <g id="Grupo_10727" data-name="Grupo 10727">
        <g id="ico-template-settings" transform="translate(2558 -1205)">
          <rect id="Rectángulo_207" data-name="Rectángulo 207" width="20" height="20" fill="none"/>
          <g id="Grupo_7821" data-name="Grupo 7821" transform="translate(-230.533 -169.667)">
            <path id="Trazado_2720" data-name="Trazado 2720" d="M243.552,187.146h-8.294V172.192h5.752v3.738a.861.861,0,0,0,.859.863h5.464v-1.585a1.733,1.733,0,0,0-.5-1.222l-3.019-3.016a1.723,1.723,0,0,0-1.219-.507h-7.337a1.731,1.731,0,0,0-1.725,1.729v14.954a1.726,1.726,0,0,0,1.725,1.725h10.353a1.727,1.727,0,0,0,1.722-1.725h-3.781Zm-.819-14.814,2.738,2.731h-2.738Z" fill="#6a6b75"/>
            <rect id="Rectángulo_3081" data-name="Rectángulo 3081" width="1.725" height="0.966" transform="translate(245.608 176.747)" fill="#6a6b75"/>
            <rect id="Rectángulo_3082" data-name="Rectángulo 3082" width="1.725" height="0.966" transform="translate(245.608 186.223)" fill="#6a6b75"/>
          </g>
        </g>
        <g id="Grupo_10726" data-name="Grupo 10726" transform="translate(-15 -1)">
          <g id="Grupo_10724" data-name="Grupo 10724" transform="translate(-1)">
            <circle id="Elipse_584" data-name="Elipse 584" cx="0.5" cy="0.5" r="0.5" transform="translate(2596 -1188.558) rotate(-90)" fill="none" stroke="#6a6b75" stroke-miterlimit="10" stroke-width="2"/>
            <path id="Trazado_10110" data-name="Trazado 10110" d="M.3-3.3V7.106" transform="translate(2587.796 -1193.804) rotate(-90)" fill="none" stroke="#6a6b75" stroke-width="2"/>
            <path id="Trazado_2841" data-name="Trazado 2841" d="M0,6.89V3.335L4.942,0" transform="translate(2589.573 -1189.058) rotate(-90)" fill="none" stroke="#6a6b75" stroke-miterlimit="10" stroke-width="2"/>
            <circle id="Elipse_638" data-name="Elipse 638" cx="0.5" cy="0.5" r="0.5" transform="translate(2594.398 -1193.606) rotate(-90)" fill="none" stroke="#6a6b75" stroke-miterlimit="10" stroke-width="2"/>
          </g>
        </g>
      </g>
    </g>
  </g>
</svg>
