<svg xmlns="http://www.w3.org/2000/svg" xmlns:xlink="http://www.w3.org/1999/xlink" viewBox="0 0 24.001 24">
  <defs>
    <style>
      .cls-1 {
        fill: #e8e8e8;
      }

      .cls-2 {
        fill: none;
      }

      .cls-3 {
        clip-path: url(#clip-path);
      }
    </style>
    <clipPath id="clip-path">
      <path id="Path_56" data-name="Path 56" class="cls-1" d="M0-16H24V8H0Z" transform="translate(0 16)"/>
    </clipPath>
  </defs>
  <g id="Group_3917" data-name="Group 3917" transform="translate(-398 -394)">
    <rect id="Rectangle_542" data-name="Rectangle 542" class="cls-2" width="24.001" height="24" transform="translate(398 394)"/>
    <g id="Group_74" data-name="Group 74" transform="translate(398.001 394)">
      <g id="Group_73" data-name="Group 73" class="cls-3" transform="translate(0 0)">
        <g id="Group_72" data-name="Group 72">
          <path id="Path_53" data-name="Path 53" class="cls-1" d="M7.5,5.5H-9.75L-13.5,9.25V-9.5h21ZM7.5-11h-21A1.5,1.5,0,0,0-15-9.5V13l6-6H7.5A1.5,1.5,0,0,0,9,5.5v-15A1.5,1.5,0,0,0,7.5-11" transform="translate(15 11)"/>
        </g>
        <path id="Path_54" data-name="Path 54" class="cls-1" d="M16-9H4v1.5H16Z" transform="translate(2 19.5)"/>
        <path id="Path_55" data-name="Path 55" class="cls-1" d="M16-12H4v1.5H16Z" transform="translate(2 18)"/>
      </g>
    </g>
  </g>
</svg>
