<svg id="ico-user-empty" xmlns="http://www.w3.org/2000/svg" width="95" height="95" viewBox="0 0 95 95">
  <g id="Grupo_7103" data-name="Grupo 7103">
    <rect id="Rectángulo_1604" data-name="Rectángulo 1604" width="95" height="95" transform="translate(0)" fill="none"/>
    <path id="Trazado_673" data-name="Trazado 673" d="M47,0A47,47,0,1,1,0,47,47,47,0,0,1,47,0Z" fill="#ededed"/>
    <g id="Elipse_314" data-name="Elipse 314" transform="translate(8 8)" fill="#d8d8d8" stroke="#f6f6f6" stroke-width="2">
      <circle cx="38.999" cy="38.999" r="38.999" stroke="none"/>
      <circle cx="38.999" cy="38.999" r="37.999" fill="none"/>
    </g>
    <path id="Trazado_1527" data-name="Trazado 1527" d="M-354.093-510.526a39.43,39.43,0,0,1-18.44,6.157l-.12.009c-.2.013-.407.027-.612.038l-.044,0c-.216.011-.433.021-.649.028-.051,0-.1,0-.152,0q-.248.008-.5.013l-.178,0q-.319.005-.639.006t-.639-.006l-.179,0c-.166,0-.334-.008-.5-.013-.051,0-.1,0-.152,0-.216-.007-.432-.018-.649-.028l-.044,0c-.2-.011-.408-.024-.612-.038l-.121-.009a39.424,39.424,0,0,1-18.44-6.157c9.06-3.8,11.9-7.631,11.9-15.346a7.236,7.236,0,0,0-1.5-4.742c-.792-1.183-1.777-2.655-2.529-6.813a3.6,3.6,0,0,0-2.257-2.94c-.807-.4-1.645-.81-1.937-4.7,0-2.121.884-2.683.884-2.687a1.34,1.34,0,0,0,.738-1.45c0-.01-.4-2.216-.756-4.766-1.092-6.85-1.074-14.325,7.349-17.812,8.522-3.527,14.7-1.028,15.407.213a2.072,2.072,0,0,0,1.088.7,2.047,2.047,0,0,0,.349.043,9.005,9.005,0,0,1,6.846,2.879c3.485,4.151,2.422,15.2,1.775,18.742a1.43,1.43,0,0,0,.688,1.432c.037.021.93.576.934,2.613-.295,4-1.129,4.408-1.94,4.806a3.6,3.6,0,0,0-2.255,2.94c-.754,4.158-1.739,5.63-2.532,6.813a7.256,7.256,0,0,0-1.494,4.743c0,7.706,2.844,11.54,11.9,15.341" transform="translate(422.426 590.263)" fill="#f6f6f6"/>
  </g>
</svg>
