<svg xmlns="http://www.w3.org/2000/svg" width="20.055" height="20" viewBox="0 0 20.055 20">
  <g id="ico-rentals" transform="translate(0.055)">
    <rect id="Rectángulo_248" data-name="Rectángulo 248" width="20" height="20" fill="none"/>
    <path id="Trazado_20" data-name="Trazado 20" d="M815.955,276.377v9.568a1.986,1.986,0,0,0,2.156,2.307h7.995" transform="translate(-813.058 -269.142)" fill="none" stroke="#3a3a40" stroke-linecap="round" stroke-width="1.5"/>
    <path id="Trazado_19" data-name="Trazado 19" d="M814.522,264.834c.14-.083,9.193-7.458,9.193-7.458l8.319,6.607" transform="translate(-813.522 -256.376)" fill="none" stroke="#3a3a40" stroke-linecap="round" stroke-linejoin="round" stroke-width="1.5"/>
    <g id="Elipse_73" data-name="Elipse 73" transform="translate(6 5.854)" fill="none" stroke="#3a3a40" stroke-width="1.5">
      <ellipse cx="7" cy="7" rx="7" ry="7" stroke="none"/>
      <ellipse cx="7" cy="7" rx="6.25" ry="6.25" fill="none"/>
    </g>
    <path id="Trazado_892" data-name="Trazado 892" d="M.416-6.015a.774.774,0,0,1,.166-.454A.47.47,0,0,1,.962-6.7a.593.593,0,0,1,.346.161,4.862,4.862,0,0,0,.5.346,1.587,1.587,0,0,0,.673.224V-7.908q-.361-.137-.551-.215a4.013,4.013,0,0,1-.487-.254,1.752,1.752,0,0,1-.453-.361,1.834,1.834,0,0,1-.278-.478,1.686,1.686,0,0,1-.122-.654A1.665,1.665,0,0,1,1.128-11.2a2.518,2.518,0,0,1,1.355-.571v-.273a.211.211,0,0,1,.1-.171.379.379,0,0,1,.234-.073.385.385,0,0,1,.229.073.209.209,0,0,1,.1.171v.254a3.775,3.775,0,0,1,1.14.2q.526.185.526.566a.868.868,0,0,1-.136.444.423.423,0,0,1-.38.229,1.456,1.456,0,0,1-.439-.166,1.969,1.969,0,0,0-.712-.2V-8.99a5.781,5.781,0,0,1,.663.283,3.786,3.786,0,0,1,.57.376,1.464,1.464,0,0,1,.458.6,2.133,2.133,0,0,1,.151.829,1.963,1.963,0,0,1-.5,1.4,2.285,2.285,0,0,1-1.345.663v.3a.209.209,0,0,1-.1.171.385.385,0,0,1-.229.073.379.379,0,0,1-.234-.073.211.211,0,0,1-.1-.171v-.273a2.822,2.822,0,0,1-1.457-.4Q.416-5.586.416-6.015ZM1.781-10a.584.584,0,0,0,.195.463,2.063,2.063,0,0,0,.585.327v-1.473Q1.781-10.551,1.781-10Zm1.287,4.02a.775.775,0,0,0,.731-.8.758.758,0,0,0-.19-.537,1.634,1.634,0,0,0-.541-.361Z" transform="translate(10.184 21.127)" fill="#3a3a40"/>
  </g>
</svg>
