<svg xmlns="http://www.w3.org/2000/svg" viewBox="0 0 20 20">
  <defs>
    <style>
      .cls-1, .cls-3 {
        fill: none;
      }

      .cls-2 {
        fill: #333;
      }

      .cls-3 {
        stroke: #333;
        stroke-linecap: round;
        stroke-width: 1.5px;
      }
    </style>
  </defs>
  <g id="Group_3445" data-name="Group 3445" transform="translate(-1159 -248)">
    <rect id="Rectangle_262" data-name="Rectangle 262" class="cls-1" width="20" height="20" transform="translate(1159 248)"/>
    <circle id="Ellipse_169" data-name="Ellipse 169" class="cls-2" cx="2.683" cy="2.683" r="2.683" transform="translate(1166.438 255.292)"/>
    <path id="Path_1186" data-name="Path 1186" class="cls-3" d="M0,4.292A7.808,7.808,0,0,1,7.157,0,7.517,7.517,0,0,1,13.95,4.292" transform="translate(1160 264.95) rotate(-90)"/>
    <path id="Path_1198" data-name="Path 1198" class="cls-3" d="M0,0A7.808,7.808,0,0,0,7.157,4.292,7.517,7.517,0,0,0,13.95,0" transform="translate(1173.949 264.95) rotate(-90)"/>
    <path id="Path_1194" data-name="Path 1194" class="cls-3" d="M0,2.146A4.2,4.2,0,0,1,3.825,0,4.1,4.1,0,0,1,7.511,2.146" transform="translate(1163.219 261.73) rotate(-90)"/>
    <path id="Path_1199" data-name="Path 1199" class="cls-3" d="M0,0A4.2,4.2,0,0,0,3.825,2.146,4.1,4.1,0,0,0,7.511,0" transform="translate(1172.876 261.73) rotate(-90)"/>
  </g>
</svg>
