<svg xmlns="http://www.w3.org/2000/svg" xmlns:xlink="http://www.w3.org/1999/xlink" width="20" height="20" viewBox="0 0 20 20">
  <defs>
    <clipPath id="clip-path">
      <rect id="Rectángulo_3837" data-name="Rectángulo 3837" width="20" height="20" fill="none"/>
    </clipPath>
  </defs>
  <g id="Grupo_8506" data-name="Grupo 8506" transform="translate(0 0)">
    <g id="Grupo_8505" data-name="Grupo 8505" transform="translate(0 0)" clip-path="url(#clip-path)">
      <path id="Trazado_3022" data-name="Trazado 3022" d="M17.37,4.655c0,2.956-.257,11.03-.276,11.04s1.9,0,1.9,0v2.635s.237,1.162-2.092,1.162H5.852a1.881,1.881,0,0,1-2.033-1.675,1.562,1.562,0,0,1,.023-.341c.048-1.609,0-9.54,0-9.54H1V4.74A1.244,1.244,0,0,1,2.258,3.5a1.409,1.409,0,0,1,.3.016c.381.011,1.627.012,2.633.011,1.217,0,8.054-.021,9.634-.028" transform="translate(0 -0.387)" fill="none" stroke="#6a6b75" stroke-width="1.5"/>
      <path id="Trazado_3023" data-name="Trazado 3023" d="M17.37,17.211l-9.692.026v2.312s.089,1.46-2.054,1.46" transform="translate(0 -1.908)" fill="none" stroke="#6a6b75" stroke-width="1.5"/>
      <path id="Trazado_3024" data-name="Trazado 3024" d="M3.842,7.587s-.03-2.461,0-2.49c0-1.36-1.144-1.956-2.415-1.251" transform="translate(0 -0.393)" fill="none" stroke="#6a6b75" stroke-width="1.5"/>
      <line id="Línea_1679" data-name="Línea 1679" x2="3" transform="translate(6 9.33)" fill="none" stroke="#6a6b75" stroke-width="1.5"/>
      <line id="Línea_1680" data-name="Línea 1680" x2="5" transform="translate(6 11.998)" fill="none" stroke="#6a6b75" stroke-width="1.5"/>
      <path id="Trazado_3025" data-name="Trazado 3025" d="M14.447,8.906l-2.166.489-.6-1.941L15.888.927l1.522.51,1.264.91Z" transform="translate(0 -0.103)" fill="none" stroke="#6a6b75" stroke-width="1.5"/>
    </g>
  </g>
</svg>
