<svg id="ico-location" xmlns="http://www.w3.org/2000/svg" width="20" height="20" viewBox="0 0 20 20">
  <rect id="Rectángulo_212" data-name="Rectángulo 212" width="20" height="20" fill="none"/>
  <g id="Trazado_1102" data-name="Trazado 1102" transform="translate(2)" fill="none">
    <path d="M8,0a7.789,7.789,0,0,1,8,7.558C16,11.733,8.494,19.8,8,19.995c.044.244-8-8.262-8-12.436A7.789,7.789,0,0,1,8,0Z" stroke="none"/>
    <path d="M 8 1.500003814697266 C 4.415889739990234 1.500003814697266 1.5 4.217803955078125 1.5 7.558423042297363 C 1.5 8.16053295135498 1.827389717102051 9.999552726745605 4.859930038452148 14.06185340881348 C 6.04948902130127 15.65535259246826 7.241545677185059 17.03378868103027 8.026830673217773 17.89440155029297 C 8.820812225341797 17.04557800292969 10.03165817260742 15.65814876556396 11.22471046447754 14.04937362670898 C 13.30620002746582 11.24258327484131 14.5 8.876723289489746 14.5 7.558423042297363 C 14.5 4.217803955078125 11.58411026000977 1.500003814697266 8 1.500003814697266 M 8 3.814697265625e-06 C 12.41827964782715 3.814697265625e-06 16 3.384023666381836 16 7.558423042297363 C 16 11.73283290863037 8.493659973144531 19.80073356628418 8 19.994873046875 C 8.000617027282715 19.99829292297363 7.999622344970703 19.99999618530273 7.997096061706543 19.99999618530273 C 7.819674491882324 19.99999618530273 0 11.67423248291016 0 7.558423042297363 C 0 3.384023666381836 3.581720352172852 3.814697265625e-06 8 3.814697265625e-06 Z" stroke="none" fill="#3a3a40"/>
  </g>
  <g id="Elipse_152" data-name="Elipse 152" transform="translate(7.29 2.917)" fill="none" stroke="#3a3a40" stroke-width="1.5">
    <circle cx="2.917" cy="2.917" r="2.917" stroke="none"/>
    <circle cx="2.917" cy="2.917" r="2.167" fill="none"/>
  </g>
</svg>
