<svg xmlns="http://www.w3.org/2000/svg" viewBox="0 0 20 20">
  <defs>
    <style>
      .cls-1, .cls-2, .cls-3, .cls-4, .cls-7 {
        fill: none;
      }

      .cls-1 {
        opacity: 0.5;
      }

      .cls-3, .cls-4 {
        stroke: #6a6b75;
        stroke-width: 1.5px;
      }

      .cls-4 {
        stroke-linecap: square;
        stroke-linejoin: round;
      }

      .cls-5, .cls-6 {
        stroke: none;
      }

      .cls-6 {
        fill: #6a6b75;
      }
    </style>
  </defs>
  <g id="Group_4000" data-name="Group 4000" transform="translate(-1530 -353)">
    <rect id="Rectangle_311" data-name="Rectangle 311" class="cls-1" width="20" height="20" transform="translate(1530 353)"/>
    <g id="Path_1253" data-name="Path 1253" class="cls-2" transform="translate(1535.089 353.754)">
      <path class="cls-5" d="M4.733,0A4.739,4.739,0,0,1,9.467,4.745V6.993a6.175,6.175,0,0,1-1.482,3.754h-6.6A7.389,7.389,0,0,1,0,6.993V4.745A4.739,4.739,0,0,1,4.733,0Z"/>
      <path class="cls-6" d="M 4.73333740234375 1.500001907348633 C 2.950467586517334 1.500001907348633 1.499997615814209 2.955661773681641 1.499997615814209 4.74490213394165 L 1.499997615814209 6.992901802062988 C 1.499997615814209 7.599058628082275 1.870304107666016 8.618442535400391 2.188724994659424 9.247282028198242 L 7.258569717407227 9.247282028198242 C 7.649135589599609 8.610312461853027 7.966677665710449 7.648079872131348 7.966677665710449 6.992901802062988 L 7.966677665710449 4.74490213394165 C 7.966677665710449 2.955661773681641 6.516207695007324 1.500001907348633 4.73333740234375 1.500001907348633 M 4.73333740234375 1.9073486328125e-06 C 7.347487449645996 1.9073486328125e-06 9.466677665710449 2.124361991882324 9.466677665710449 4.74490213394165 L 9.466677665710449 6.992901802062988 C 9.466677665710449 8.166892051696777 8.823697090148926 9.910931587219238 7.984737396240234 10.74728202819824 C 6.78452730178833 10.74728202819824 2.846377372741699 10.74728202819824 1.383907318115234 10.74728202819824 C 0.8315877914428711 10.14725208282471 -2.86102294921875e-06 8.211462020874023 -2.86102294921875e-06 6.992901802062988 L -2.86102294921875e-06 4.74490213394165 C -2.86102294921875e-06 2.124361991882324 2.119187355041504 1.9073486328125e-06 4.73333740234375 1.9073486328125e-06 Z"/>
    </g>
    <path id="Path_1254" data-name="Path 1254" class="cls-3" d="M-410.927,518.438l6.048,2.254" transform="translate(1948.756 -159.607)"/>
    <path id="Path_1255" data-name="Path 1255" class="cls-3" d="M-411.256,519.453l2.934-3.2" transform="translate(1946.936 -157.593)"/>
    <g id="Rectangle_312" data-name="Rectangle 312" class="cls-4" transform="translate(1532.602 363)">
      <rect class="cls-5" width="14.796" height="9.247"/>
      <rect class="cls-7" x="0.75" y="0.75" width="13.296" height="7.747"/>
    </g>
    <path id="Path_1257" data-name="Path 1257" class="cls-3" d="M1702.635-359.067s-1.936.412-1.982,1.491.012,1.536,0,2.514,1.982,1,1.982,1" transform="translate(-169.635 725.067)"/>
    <path id="Path_1256" data-name="Path 1256" class="cls-3" d="M1700.635-359.067s1.936.412,1.982,1.491-.012,1.536,0,2.514-1.982,1-1.982,1" transform="translate(-153.635 725.067)"/>
  </g>
</svg>
