<svg xmlns="http://www.w3.org/2000/svg" width="20" height="26.75" viewBox="0 0 20 26.75"><g transform="translate(-931 -958)"><g transform="translate(931 964)"><rect width="20" height="20" fill="none"/><path d="M735.738,280.226h11.494a3.176,3.176,0,0,0,2.846-1.374c1.154-1.333,2.154-2.585,3.1-3.882s1.177-2.252.372-3.03c-1.058-1.022-1.985-.1-3,1.1s-2.706,3.1-2.706,3.1,0-1.7-1.182-1.939-2.76-.412-4.132-.543a8.839,8.839,0,0,0-3.151,0c-1.081.245-3.5,3.334-3.5,3.334Z" transform="translate(-734.85 -260.226)" fill="none" stroke="#6a6b75" stroke-linejoin="round" stroke-width="1.5"/><path d="M747.658,276.023s-1.038,1.139-5.657.569" transform="translate(-734.516 -259.986)" fill="none" stroke="#6a6b75" stroke-linecap="round" stroke-linejoin="round" stroke-width="1.6"/></g><path d="M1775.4,231.561h4.753a.75.75,0,0,1,.691,1.042l-1.687,4a.75.75,0,0,1-.809.449l-4.589-.73a.75.75,0,0,1-.562-1.057l1.523-3.27A.75.75,0,0,1,1775.4,231.561Zm3.623,1.5h-3.145l-.9,1.935,3.027.482Z" transform="translate(-839.431 734.689)" fill="#6a6b75"/><path d="M1781.232,241.072a.752.752,0,0,1-.144-.014l-5.164-1.012a.75.75,0,0,1-.606-.736v-3.841a.75.75,0,1,1,1.5,0v3.224l4.413.865,4.347-.863v-3.225a.75.75,0,1,1,1.5,0v3.841a.75.75,0,0,1-.6.736l-5.1,1.012A.75.75,0,0,1,1781.232,241.072Z" transform="translate(-840.088 735.188)" fill="#6a6b75"/><path d="M1782.94,231.561h5.222a.75.75,0,0,1,.64.359l1.777,2.9a.75.75,0,0,1-.478,1.124l-4.956,1.1a.75.75,0,0,1-.83-.391l-2.044-4a.75.75,0,0,1,.668-1.091Zm4.8,1.5h-3.577l1.223,2.393,3.363-.743Z" transform="translate(-841.94 734.689)" fill="#6a6b75"/><path d="M0,9.259a.75.75,0,0,1-.75-.75V0A.75.75,0,0,1,0-.75.75.75,0,0,1,.75,0V8.509A.75.75,0,0,1,0,9.259Z" transform="translate(941 967)" fill="#6a6b75"/><rect width="20" height="20" transform="translate(931 958)" fill="none" opacity="0.5"/></g></svg>