<svg xmlns="http://www.w3.org/2000/svg" viewBox="0 0 28 28">
  <defs>
    <style>
      .cls-1 {
        fill: #6a6b75;
      }

      .cls-2, .cls-3, .cls-4 {
        fill: none;
      }

      .cls-3, .cls-4 {
        stroke: #6a6b75;
        stroke-width: 1.6px;
      }

      .cls-4 {
        stroke-linecap: round;
      }
    </style>
  </defs>
  <g id="Group_3435" data-name="Group 3435" transform="translate(855 839)">
    <rect id="Rectangle_531" data-name="Rectangle 531" class="cls-2" width="24.267" height="28" transform="translate(-853 -839)"/>
    <g id="Group_3434" data-name="Group 3434" transform="translate(1)">
      <path id="Subtraction_2" data-name="Subtraction 2" class="cls-1" d="M12,26H10.5a1.434,1.434,0,0,1-1.061-.476A1.684,1.684,0,0,1,9,24.374V22.182a8.752,8.752,0,0,1-.872-.393L6.7,23.341a1.421,1.421,0,0,1-2.121,0l-2.121-2.3a1.722,1.722,0,0,1,0-2.3l1.432-1.552c-.136-.308-.258-.626-.363-.944H1.5A1.568,1.568,0,0,1,0,14.624v-3.25A1.568,1.568,0,0,1,1.5,9.749H3.523c.1-.32.227-.638.362-.945L2.454,7.255a1.726,1.726,0,0,1,0-2.3l2.122-2.3a1.422,1.422,0,0,1,2.122,0l1.43,1.55A8.853,8.853,0,0,1,9,3.815V1.626A1.568,1.568,0,0,1,10.5,0H12V1.626h-.75a.719.719,0,0,0-.532.238.84.84,0,0,0-.218.573v2.6A7.125,7.125,0,0,0,7.866,6.223l-1.7-1.841a.709.709,0,0,0-1.061,0L4.045,5.531a.86.86,0,0,0,0,1.149l1.7,1.84A8.44,8.44,0,0,0,4.65,11.374H2.25a.784.784,0,0,0-.75.813v1.625a.784.784,0,0,0,.75.813h2.4a8.409,8.409,0,0,0,1.095,2.853l-1.7,1.842a.863.863,0,0,0,0,1.15l1.061,1.149a.708.708,0,0,0,1.06,0l1.7-1.842A7.154,7.154,0,0,0,10.5,20.96v2.6a.785.785,0,0,0,.75.813H12V26Z" transform="translate(-854 -838)"/>
      <g id="Group_1029" data-name="Group 1029" transform="translate(-845 -832)">
        <path id="Path_692" data-name="Path 692" class="cls-3" d="M2329.052,1008.83a14.207,14.207,0,0,0,4.554-3.225c1.217-1.615,3.264-6.421,2.606-7.085s-4.957.69-7.4,2.676a10.171,10.171,0,0,0-3.186,4.669Z" transform="translate(-2322.34 -998.35)"/>
        <path id="Path_693" data-name="Path 693" class="cls-3" d="M2326.375,1003.749c-1.24.2-2.164.168-3.009,1.261a11.3,11.3,0,0,0-1.8,2.677c-.024.087,1.668-.675,2.272-.809a1.583,1.583,0,0,1,.909,0S2326.293,1003.825,2326.375,1003.749Z" transform="translate(-2321.567 -999.406)"/>
        <path id="Path_694" data-name="Path 694" class="cls-3" d="M2332.25,1009.544a5.08,5.08,0,0,1-.732,2.8,7.662,7.662,0,0,1-2.949,2.186,8.868,8.868,0,0,0,1.125-3.382C2329.684,1011.121,2332.25,1009.544,2332.25,1009.544Z" transform="translate(-2322.901 -1000.539)"/>
        <line id="Line_147" data-name="Line 147" class="cls-3" x2="4.048" y2="4.023" transform="translate(8.85 0.925)"/>
        <path id="Path_695" data-name="Path 695" class="cls-4" d="M1.739,0,.628,1.176" transform="translate(2.255 11.384)"/>
        <line id="Line_149" data-name="Line 149" class="cls-4" x1="1.619" y2="1.609" transform="translate(0.755 9.774)"/>
      </g>
    </g>
    <rect id="Rectangle_1607" data-name="Rectangle 1607" class="cls-2" width="28" height="28" transform="translate(-855 -839)"/>
  </g>
</svg>
