<svg xmlns="http://www.w3.org/2000/svg" viewBox="0 0 16 16.184">
  <defs>
    <style>
      .cls-1, .cls-2 {
        fill: none;
      }

      .cls-2, .cls-3 {
        stroke: #b56c15;
        stroke-width: 1.5px;
      }

      .cls-3 {
        fill: #9999a1;
      }

      .cls-4 {
        stroke: none;
      }
    </style>
  </defs>
  <g id="Group_3510" data-name="Group 3510" transform="translate(-545 -463)">
    <rect id="Rectangle_197" data-name="Rectangle 197" class="cls-1" width="16" height="16" transform="translate(545 463)"/>
    <g id="Ellipse_14" data-name="Ellipse 14" class="cls-2" transform="translate(545 463)">
      <circle class="cls-4" cx="8" cy="8" r="8"/>
      <circle class="cls-1" cx="8" cy="8" r="7.25"/>
    </g>
    <path id="Path_675" data-name="Path 675" class="cls-2" d="M359.637,395.823c.081.022-3.921,3.19-3.806,6.993s3.806,7.406,3.806,7.406,4.112-3.059,4.191-7.406S359.556,395.8,359.637,395.823Z" transform="translate(193.172 67.977)"/>
    <path id="Path_1532" data-name="Path 1532" class="cls-3" d="M0,0V14.4" transform="translate(553 463.8)"/>
    <path id="Path_1373" data-name="Path 1373" class="cls-2" d="M359.162,527.556a15.533,15.533,0,0,0,6.168,1.745,13.3,13.3,0,0,0,5.96-1.745" transform="translate(187.568 -59.911)"/>
    <path id="Path_1374" data-name="Path 1374" class="cls-2" d="M359.162,529.364a16.1,16.1,0,0,1,6.391-1.808,13.774,13.774,0,0,1,6.175,1.808" transform="translate(187.349 -54.919)"/>
  </g>
</svg>
