<svg id="ico-cluster" xmlns="http://www.w3.org/2000/svg" width="20" height="20" viewBox="0 0 20 20">
  <rect id="Rect치ngulo_2585" data-name="Rect치ngulo 2585" width="20" height="20" fill="none"/>
  <path id="Sustracci칩n_18" data-name="Sustracci칩n 18" d="M668-2129.2c-4.411,0-8-1.364-8-3.041,0-1.367,2.42-2.573,5.884-2.933.815.8,1.519,1.417,1.967,1.792.464-.392,1.188-1.026,1.995-1.819a13.5,13.5,0,0,1,4.4,1.059c1.148.544,1.754,1.2,1.754,1.9C676-2130.567,672.411-2129.2,668-2129.2Z" transform="translate(-657.853 2148)" fill="none" stroke="#6a6b75" stroke-width="1.5"/>
  <g id="Trazado_2506" data-name="Trazado 2506" transform="translate(3)" fill="none">
    <path d="M7,0c3.866,0,7,2.356,7,6.222s-7,9.333-7,9.333S0,10.088,0,6.222,3.134,0,7,0Z" stroke="none"/>
    <path d="M 7 1.499998092651367 C 5.428159713745117 1.499998092651367 4.014490127563477 1.963897705078125 3.019399642944336 2.806247711181641 C 2.025400161743164 3.64766788482666 1.5 4.828887939453125 1.5 6.222217559814453 C 1.5 7.373047828674316 2.617289543151855 9.217297554016113 4.565380096435547 11.2820873260498 C 5.455702781677246 12.22574996948242 6.356232166290283 13.04586696624756 7.000325679779053 13.60383319854736 C 7.637053489685059 13.05234050750732 8.525161743164062 12.24359798431396 9.410270690917969 11.3078670501709 C 11.37384033203125 9.231997489929199 12.5 7.378357887268066 12.5 6.222217559814453 C 12.5 4.828887939453125 11.97459983825684 3.64766788482666 10.98060035705566 2.806247711181641 C 9.985509872436523 1.963897705078125 8.571840286254883 1.499998092651367 7 1.499998092651367 M 7 -1.9073486328125e-06 C 10.86598968505859 -1.9073486328125e-06 14 2.356227874755859 14 6.222217559814453 C 14 10.08821773529053 7 15.55555725097656 7 15.55555725097656 C 7 15.55555725097656 0 10.08821773529053 0 6.222217559814453 C 0 2.356227874755859 3.134010314941406 -1.9073486328125e-06 7 -1.9073486328125e-06 Z" stroke="none" fill="#6a6b75"/>
  </g>
  <g id="Elipse_451" data-name="Elipse 451" transform="translate(7 3)" fill="none" stroke="#6a6b75" stroke-width="1.5">
    <circle cx="3" cy="3" r="3" stroke="none"/>
    <circle cx="3" cy="3" r="2.25" fill="none"/>
  </g>
</svg>
