<svg xmlns="http://www.w3.org/2000/svg" viewBox="0 0 20 20">
  <defs>
    <style>
      .cls-1, .cls-2, .cls-3, .cls-5, .cls-6 {
        fill: none;
      }

      .cls-2, .cls-4, .cls-5, .cls-6 {
        stroke: #333;
      }

      .cls-2, .cls-3 {
        stroke-linecap: round;
      }

      .cls-2, .cls-3, .cls-5 {
        stroke-linejoin: round;
      }

      .cls-2, .cls-5, .cls-6 {
        stroke-width: 1.5px;
      }

      .cls-4 {
        fill: #fff;
        stroke-width: 2px;
      }

      .cls-7, .cls-8 {
        stroke: none;
      }

      .cls-8 {
        fill: #333;
      }
    </style>
  </defs>
  <g id="Group_3441" data-name="Group 3441" transform="translate(-618 -368)">
    <rect id="Rectangle_1" data-name="Rectangle 1" class="cls-1" width="20" height="20" transform="translate(618 368)"/>
    <path id="Path_37" data-name="Path 37" class="cls-2" d="M-638.581,206.014s-.233-1.234,3.454-1.259c.072.033,0-12.076,0-12.076s-3.5-.819-3.454,2.2,0,8.367,0,8.367Z" transform="translate(1257.584 178.761)"/>
    <g id="Path_39" data-name="Path 39" class="cls-3" transform="translate(625.007 368.384)">
      <path class="cls-7" d="M4.188,0A4.217,4.217,0,0,1,8.375,4.247c0,2.345-4.145,8.042-4.188,8.116S0,6.592,0,4.247A4.217,4.217,0,0,1,4.188,0Z"/>
      <path class="cls-8" d="M 4.187510967254639 1.500002861022949 C 2.705610752105713 1.500002861022949 1.500000953674316 2.732082366943359 1.500000953674316 4.246512413024902 C 1.500000953674316 4.413662910461426 1.581020832061768 5.386402606964111 3.180591106414795 8.129133224487305 C 3.516853809356689 8.705711364746094 3.858010292053223 9.252986907958984 4.166100978851318 9.728492736816406 C 4.552376747131348 9.136703491210938 4.908017158508301 8.564534187316895 5.23003101348877 8.016582489013672 C 6.795711040496826 5.352362632751465 6.875020980834961 4.408642768859863 6.875020980834961 4.246512413024902 C 6.875020980834961 2.732082366943359 5.669410705566406 1.500002861022949 4.187510967254639 1.500002861022949 M 4.187510967254639 2.86102294921875e-06 C 6.500210762023926 2.86102294921875e-06 8.375020980834961 1.901222229003906 8.375020980834961 4.246512413024902 C 8.375020980834961 6.591792583465576 4.229920864105225 12.28825283050537 4.187510967254639 12.36274242401123 C 4.187244415283203 12.36321067810059 4.186805725097656 12.36344814300537 4.186216831207275 12.36344814300537 C 4.093137264251709 12.36344814300537 9.5367431640625e-07 6.577048778533936 9.5367431640625e-07 4.246512413024902 C 9.5367431640625e-07 1.901222229003906 1.874811172485352 2.86102294921875e-06 4.187510967254639 2.86102294921875e-06 Z"/>
    </g>
    <g id="Ellipse_11" data-name="Ellipse 11" class="cls-4" transform="translate(628.148 371.215)">
      <circle class="cls-7" cx="1.047" cy="1.047" r="1.047"/>
      <circle class="cls-1" cx="1.047" cy="1.047" r="0.047"/>
    </g>
    <path id="Path_1304" data-name="Path 1304" class="cls-5" d="M-974.968,362.428a2.063,2.063,0,0,0,2.25,2.554H-957V352.06h-4.571" transform="translate(1594 22)"/>
    <path id="Path_1305" data-name="Path 1305" class="cls-6" d="M-971.518,352.06h3.3" transform="translate(1594 22)"/>
  </g>
</svg>
