<svg xmlns="http://www.w3.org/2000/svg" width="20" height="20" viewBox="0 0 20 20"><g transform="translate(2)" fill="none"><path d="M8,0a7.789,7.789,0,0,1,8,7.558C16,11.733,8.494,19.8,8,19.995c.044.244-8-8.262-8-12.436A7.789,7.789,0,0,1,8,0Z" stroke="none"/><path d="M 8 1.600004196166992 C 4.471030235290527 1.600004196166992 1.600000381469727 4.272944450378418 1.600000381469727 7.55842399597168 C 1.600000381469727 8.149824142456055 1.924790382385254 9.960674285888672 4.93317985534668 13.9928035736084 C 6.052731513977051 15.49333381652832 7.225710868835449 16.86316871643066 8.028180122375488 17.74930953979492 C 8.815793991088867 16.90264892578125 9.982263565063477 15.55802536010742 11.1528902053833 13.97834396362305 C 14.08360004425049 10.02353382110596 14.39999961853027 8.171234130859375 14.39999961853027 7.55842399597168 C 14.39999961853027 4.272944450378418 11.52896976470947 1.600004196166992 8 1.600004196166992 M 8 3.814697265625e-06 C 12.41827964782715 3.814697265625e-06 16 3.384023666381836 16 7.55842399597168 C 16 11.73283386230469 8.493659973144531 19.80073356628418 8 19.99487495422363 C 8.043947219848633 20.23848915100098 0 11.73283863067627 0 7.55842399597168 C 0 3.384023666381836 3.581720352172852 3.814697265625e-06 8 3.814697265625e-06 Z" stroke="none" fill="#6a6b75"/></g><g transform="translate(7 3)" fill="none" stroke="#6a6b75" stroke-width="1.6"><circle cx="3" cy="3" r="3" stroke="none"/><circle cx="3" cy="3" r="2.2" fill="none"/></g><rect width="20" height="20" fill="none"/></svg>