<svg id="ico-broken-20px" xmlns="http://www.w3.org/2000/svg" width="20.004" height="20" viewBox="0 0 20.004 20">
  <rect id="Rectángulo_3816" data-name="Rectángulo 3816" width="20" height="20" transform="translate(0.001)" fill="none"/>
  <g id="Grupo_8251" data-name="Grupo 8251" transform="translate(-646.861 -370.102)">
    <g id="Grupo_8250" data-name="Grupo 8250">
      <path id="Trazado_2966" data-name="Trazado 2966" d="M654.363,380.7V379h1.875v1.7a2.334,2.334,0,0,0,2.254,2.4h4.241a2.335,2.335,0,0,0,2.254-2.4v-1.2a2.337,2.337,0,0,0-2.254-2.4h-2.589l-1.175-2h3.764a4.28,4.28,0,0,1,4.13,4.4v1.2a4.278,4.278,0,0,1-4.13,4.4h-4.241A4.276,4.276,0,0,1,654.363,380.7Z" fill="#6a6b75"/>
      <path id="Trazado_2967" data-name="Trazado 2967" d="M659.363,379.5v1.976h-1.876V379.5a2.337,2.337,0,0,0-2.254-2.4h-4.24a2.337,2.337,0,0,0-2.255,2.4v1.2a2.334,2.334,0,0,0,2.255,2.4h2.587l1.175,2h-3.762a4.277,4.277,0,0,1-4.13-4.4v-1.2a4.279,4.279,0,0,1,4.13-4.4h4.24A4.28,4.28,0,0,1,659.363,379.5Z" fill="#6a6b75"/>
    </g>
  </g>
  <g id="Grupo_8497" data-name="Grupo 8497" transform="translate(-646.861 -370.102)">
    <path id="Trazado_3013" data-name="Trazado 3013" d="M657.182,373.728a.75.75,0,0,1-.75-.75v-2a.75.75,0,0,1,1.5,0v2A.75.75,0,0,1,657.182,373.728Z" fill="#6a6b75"/>
    <path id="Trazado_3014" data-name="Trazado 3014" d="M654.343,373.728a.748.748,0,0,1-.531-.22l-1.414-1.414a.75.75,0,0,1,1.061-1.061l1.414,1.415a.75.75,0,0,1-.53,1.28Z" fill="#6a6b75"/>
    <path id="Trazado_3015" data-name="Trazado 3015" d="M660.191,373.728a.75.75,0,0,1-.53-1.28l1.414-1.415a.75.75,0,1,1,1.061,1.061l-1.414,1.414A.748.748,0,0,1,660.191,373.728Z" fill="#6a6b75"/>
  </g>
  <g id="Grupo_8498" data-name="Grupo 8498" transform="translate(-646.861 -370.102)">
    <path id="Trazado_3016" data-name="Trazado 3016" d="M657.182,389.976a.75.75,0,0,1-.75-.75v-2a.75.75,0,1,1,1.5,0v2A.75.75,0,0,1,657.182,389.976Z" fill="#6a6b75"/>
    <path id="Trazado_3017" data-name="Trazado 3017" d="M652.929,389.39a.751.751,0,0,1-.531-1.281l1.414-1.414a.75.75,0,1,1,1.061,1.061l-1.414,1.414A.75.75,0,0,1,652.929,389.39Z" fill="#6a6b75"/>
    <path id="Trazado_3018" data-name="Trazado 3018" d="M661.6,389.39a.752.752,0,0,1-.53-.22l-1.414-1.414a.75.75,0,1,1,1.061-1.061l1.414,1.414a.751.751,0,0,1-.531,1.281Z" fill="#6a6b75"/>
  </g>
</svg>
