<svg id="ico-stop-gr-20px" xmlns="http://www.w3.org/2000/svg" width="20" height="20" viewBox="0 0 20 20">
  <g id="Grupo_7353" data-name="Grupo 7353" transform="translate(-390 -350)">
    <g id="Trazado_2613" data-name="Trazado 2613" transform="translate(-494.29 -24.291)" fill="none" stroke-miterlimit="10">
      <path d="M898.432,374.29h-8.284l-5.858,5.858v8.284l5.858,5.858h8.284l5.858-5.858v-8.284Z" stroke="none"/>
      <path d="M 890.810791015625 375.8903198242188 L 885.8902587890625 380.8109130859375 L 885.8902587890625 387.7697143554688 L 890.810791015625 392.6903076171875 L 897.7696533203125 392.6903076171875 L 902.6903076171875 387.7696838378906 L 902.6903076171875 380.8109436035156 L 897.7696533203125 375.8903198242188 L 890.810791015625 375.8903198242188 M 890.1480712890625 374.2903137207031 L 898.432373046875 374.2903137207031 L 904.290283203125 380.148193359375 L 904.290283203125 388.4324340820312 L 898.432373046875 394.2903137207031 L 890.1480712890625 394.2903137207031 L 884.290283203125 388.4324340820312 L 884.290283203125 380.148193359375 L 890.1480712890625 374.2903137207031 Z" stroke="none" fill="#6a6b75"/>
    </g>
  </g>
  <path id="Trazado_2614" data-name="Trazado 2614" d="M-12.425-5.345a1.947,1.947,0,0,1-.666-.108,1.358,1.358,0,0,1-.47-.269.456.456,0,0,1-.173-.326.421.421,0,0,1,.043-.173.467.467,0,0,1,.116-.159.242.242,0,0,1,.164-.065.263.263,0,0,1,.17.065q.079.065.181.153a1,1,0,0,0,.249.153.9.9,0,0,0,.363.065.894.894,0,0,0,.315-.054.532.532,0,0,0,.232-.162.425.425,0,0,0,.088-.278.486.486,0,0,0-.1-.306.829.829,0,0,0-.261-.215q-.164-.091-.357-.176t-.388-.181a1.758,1.758,0,0,1-.357-.232,1.038,1.038,0,0,1-.261-.334,1.083,1.083,0,0,1-.1-.487,1.069,1.069,0,0,1,.122-.533,1,1,0,0,1,.323-.349,1.4,1.4,0,0,1,.445-.193,2.048,2.048,0,0,1,.487-.06,2.851,2.851,0,0,1,.309.02,2.171,2.171,0,0,1,.357.071.89.89,0,0,1,.295.139.269.269,0,0,1,.116.224.5.5,0,0,1-.031.159.454.454,0,0,1-.1.162.217.217,0,0,1-.167.071.338.338,0,0,1-.179-.054,1.43,1.43,0,0,0-.227-.108,1.07,1.07,0,0,0-.377-.054,1.007,1.007,0,0,0-.346.054.484.484,0,0,0-.221.147A.368.368,0,0,0-12.9-8.5a.344.344,0,0,0,.1.249.934.934,0,0,0,.261.181q.162.079.354.159a4.232,4.232,0,0,1,.388.184,1.839,1.839,0,0,1,.36.252,1.056,1.056,0,0,1,.261.366,1.325,1.325,0,0,1,.1.536,1.233,1.233,0,0,1-.176.677,1.1,1.1,0,0,1-.479.414A1.651,1.651,0,0,1-12.425-5.345ZM-9.432-5.4a.54.54,0,0,1-.255-.06A.187.187,0,0,1-9.8-5.628V-8.876h-.833a.191.191,0,0,1-.17-.1.437.437,0,0,1-.062-.232.464.464,0,0,1,.057-.224.187.187,0,0,1,.176-.1h2.4a.185.185,0,0,1,.179.1A.483.483,0,0,1-8-9.211a.453.453,0,0,1-.06.232.189.189,0,0,1-.173.1h-.828v3.248a.187.187,0,0,1-.116.173A.545.545,0,0,1-9.432-5.4Zm3.027.034A1.71,1.71,0,0,1-7.08-5.49,1.012,1.012,0,0,1-7.556-5.9a1.433,1.433,0,0,1-.176-.757V-8.242A1.433,1.433,0,0,1-7.556-9a1.014,1.014,0,0,1,.473-.414,1.7,1.7,0,0,1,.677-.128,1.731,1.731,0,0,1,.677.128A1.01,1.01,0,0,1-5.249-9a1.433,1.433,0,0,1,.176.757V-6.66a1.433,1.433,0,0,1-.176.757,1.01,1.01,0,0,1-.479.414A1.731,1.731,0,0,1-6.405-5.362Zm0-.646a.59.59,0,0,0,.436-.159A.673.673,0,0,0-5.81-6.66V-8.242a.673.673,0,0,0-.159-.493.59.59,0,0,0-.436-.159.59.59,0,0,0-.436.159A.673.673,0,0,0-7-8.242V-6.66a.673.673,0,0,0,.159.493A.59.59,0,0,0-6.405-6.008ZM-4.07-5.4a.545.545,0,0,1-.252-.06.187.187,0,0,1-.116-.173V-9.313a.2.2,0,0,1,.079-.159.3.3,0,0,1,.2-.068h1.134a1.651,1.651,0,0,1,.655.125A.981.981,0,0,1-1.9-9.01a1.428,1.428,0,0,1,.17.745v.034a1.406,1.406,0,0,1-.176.748,1.014,1.014,0,0,1-.479.411,1.731,1.731,0,0,1-.677.128H-3.7v1.315a.187.187,0,0,1-.113.173A.54.54,0,0,1-4.07-5.4ZM-3.7-7.522h.635a.582.582,0,0,0,.439-.162.682.682,0,0,0,.156-.49v-.068a.682.682,0,0,0-.156-.49.582.582,0,0,0-.439-.162H-3.7Z" transform="translate(17.734 17.568)" fill="#6a6b75"/>
</svg>
