<svg xmlns="http://www.w3.org/2000/svg" width="20" height="20" viewBox="0 0 20 20"><g transform="translate(-1016 -973.85)"><path d="M.416-8.251a.491.491,0,0,1,.109-.292.31.31,0,0,1,.25-.148.394.394,0,0,1,.228.1,3.2,3.2,0,0,0,.33.223,1.06,1.06,0,0,0,.443.144V-9.469q-.237-.088-.362-.138a2.664,2.664,0,0,1-.321-.163A1.149,1.149,0,0,1,.794-10a1.175,1.175,0,0,1-.183-.308,1.064,1.064,0,0,1-.08-.421,1.06,1.06,0,0,1,.353-.857,1.677,1.677,0,0,1,.892-.367v-.176a.135.135,0,0,1,.064-.11.253.253,0,0,1,.154-.047.257.257,0,0,1,.151.047.134.134,0,0,1,.067.11v.163a2.535,2.535,0,0,1,.751.132q.346.119.346.364a.55.55,0,0,1-.09.286.279.279,0,0,1-.25.148.972.972,0,0,1-.289-.107,1.319,1.319,0,0,0-.468-.126v1.1a3.851,3.851,0,0,1,.436.182,2.5,2.5,0,0,1,.375.242.945.945,0,0,1,.3.386,1.346,1.346,0,0,1,.1.534,1.247,1.247,0,0,1-.327.9,1.516,1.516,0,0,1-.885.427V-7.3a.134.134,0,0,1-.067.11.257.257,0,0,1-.151.047.253.253,0,0,1-.154-.047.135.135,0,0,1-.064-.11v-.176A1.889,1.889,0,0,1,.817-7.73Q.416-7.975.416-8.251Zm.9-2.561a.372.372,0,0,0,.128.3,1.366,1.366,0,0,0,.385.21v-.948Q1.314-11.17,1.314-10.813Zm.847,2.587q.481-.094.481-.515a.481.481,0,0,0-.125-.345,1.077,1.077,0,0,0-.356-.232Z" transform="translate(1025.188 991.846)" fill="#6a6b75"/><path d="M4.106,2.241a.532.532,0,0,0-.06-.737L2.536.168a.616.616,0,0,0-.845,0L.181,1.5a.532.532,0,0,0-.06.737.589.589,0,0,0,.438.228A.605.605,0,0,0,1.026,2.3l.483-.436v2.51a.577.577,0,0,0,.6.546.577.577,0,0,0,.6-.546V1.859L3.2,2.3a.605.605,0,0,0,.468.174.588.588,0,0,0,.438-.228Z" transform="translate(1029.222 978.764) rotate(180)" fill="#6a6b75"/><g transform="translate(1016 975)"><path d="M22.632,6.14a1.616,1.616,0,0,0-1.094-.449H18.209a.925.925,0,0,0-.951.9h0a.925.925,0,0,0,.951.9h2.759l-1.094,6.281H8.03L7.269,7.486H10.6a.925.925,0,0,0,.951-.9h0a.925.925,0,0,0-.951-.9H7.031l-.19-1.525A1.4,1.4,0,0,0,5.414,3H3.987a.987.987,0,0,0-1,.763.863.863,0,0,0,.223.723.977.977,0,0,0,.729.308H4.986L6.508,16.862a2.592,2.592,0,0,0-1.332,2.826A2.819,2.819,0,0,0,7.364,21.8a2.982,2.982,0,0,0,3.329-1.75h5.042a2.886,2.886,0,0,0,3.325,1.727,2.711,2.711,0,0,0,2.2-2.916,2.8,2.8,0,0,0-2.817-2.4,2.946,2.946,0,0,0-2.711,1.794H10.693A2.827,2.827,0,0,0,8.363,16.5l-.1-.942H20.3a1.4,1.4,0,0,0,1.379-1.166l1.284-7.088a1.548,1.548,0,0,0-.333-1.166ZM18.446,18.253a.9.9,0,1,1-.951.9A.925.925,0,0,1,18.446,18.253Zm-9.513.9a.953.953,0,1,1-.951-.9A.925.925,0,0,1,8.934,19.15Z" transform="translate(-2.977 -3)" fill="#6a6b75"/></g></g></svg>