<svg id="Capa_1" data-name="Capa 1" xmlns="http://www.w3.org/2000/svg" viewBox="0 0 20 22.49"><defs><style>.cls-1,.cls-2{fill:none;}.cls-2{stroke:#6a6b75;stroke-width:1.5px;}</style></defs><rect id="Rectángulo_199" data-name="Rectángulo 199" class="cls-1" y="2.49" width="20" height="20"/><path id="Trazado_43" data-name="Trazado 43" class="cls-2" d="M1054.54,459.82c0,3.33-.26,12.41-.28,12.42h1.9v3s.24,1.31-2.09,1.31h-11a2,2,0,0,1-2-1.88,1.7,1.7,0,0,1,0-.39c0-1.81,0-10.73,0-10.73h-2.84v-3.59a1.33,1.33,0,0,1,1.26-1.4,1,1,0,0,1,.3,0h2.63l9.63,0" transform="translate(-1037.17 -455.02)"/><path id="Trazado_44" data-name="Trazado 44" class="cls-2" d="M1054.54,472.24l-9.69,0v2.6s.09,1.64-2.06,1.64" transform="translate(-1037.17 -455.02)"/><path id="Trazado_45" data-name="Trazado 45" class="cls-2" d="M1041,463.12s0-2.77,0-2.8c0-1.53-1.14-2.2-2.41-1.41" transform="translate(-1037.17 -455.02)"/><line id="Línea_356" data-name="Línea 356" class="cls-2" x1="6" y1="10.49" x2="9" y2="10.49"/><path id="Trazado_1096" data-name="Trazado 1096" class="cls-2" d="M1043.17,468.52h5" transform="translate(-1037.17 -455.02)"/><polygon class="cls-2" points="14.45 9.9 12.28 10.45 11.68 8.27 15.89 0.93 17.41 1.5 18.67 2.52 14.45 9.9"/></svg>