<svg id="btn_deactivate_grid" xmlns="http://www.w3.org/2000/svg" width="20" height="20" viewBox="0 0 20 20">
  <rect id="Rectángulo_1353" data-name="Rectángulo 1353" width="20" height="20" transform="translate(20 0) rotate(90)" fill="none"/>
  <g id="Unión_19" data-name="Unión 19" transform="translate(21 -84)" fill="none" stroke-linecap="round" stroke-linejoin="round">
    <path d="M-15,102V97.26a7.005,7.005,0,0,1-4-6.155C-19,87.181-15.418,84-11,84s8,3.182,8,7.105A7.006,7.006,0,0,1-7,97.26V102Z" stroke="none"/>
    <path d="M -9.000200271606445 99.99970245361328 L -9.000200271606445 97.26019287109375 C -9.000200271606445 96.51052093505859 -8.580960273742676 95.82381439208984 -7.914150714874268 95.48123168945312 C -7.023250579833984 95.02352905273438 -6.281650543212891 94.37377166748047 -5.76952075958252 93.60218048095703 C -5.265900611877441 92.84342956542969 -4.999700546264648 91.97999572753906 -4.999700546264648 91.10520172119141 C -4.999700546264648 88.29002380371094 -7.691330909729004 85.99970245361328 -10.99980068206787 85.99970245361328 C -14.30827045440674 85.99970245361328 -16.99990081787109 88.29002380371094 -16.99990081787109 91.10520172119141 C -16.99990081787109 91.97994232177734 -16.73377990722656 92.84329986572266 -16.23031044006348 93.60195159912109 C -15.71833038330078 94.37342071533203 -14.97691059112549 95.02313232421875 -14.08619022369385 95.48084259033203 C -13.41947078704834 95.82345581054688 -13.00030040740967 96.51012420654297 -13.00030040740967 97.25971984863281 L -13.00030040740967 99.99970245361328 L -9.000200271606445 99.99970245361328 M -7.000200748443604 101.9997024536133 L -15.00030040740967 101.9997024536133 L -15.00030040740967 97.25971984863281 C -17.39133071899414 96.03104400634766 -18.99990081787109 93.73493194580078 -18.99990081787109 91.10520172119141 C -18.99990081787109 87.18120574951172 -15.41790103912354 83.99970245361328 -10.99980068206787 83.99970245361328 C -6.581700801849365 83.99970245361328 -2.999700784683228 87.18120574951172 -2.999700784683228 91.10520172119141 C -2.999700784683228 93.73517608642578 -4.608800888061523 96.03160095214844 -7.000200748443604 97.26019287109375 L -7.000200748443604 101.9997024536133 Z" stroke="none" fill="#6a6b75"/>
  </g>
  <path id="Trazado_2376" data-name="Trazado 2376" d="M.66,0H6.208" transform="translate(6.5 14.5)" fill="none" stroke="#6a6b75" stroke-linecap="round" stroke-width="2"/>
  <g id="Rectángulo_2426" data-name="Rectángulo 2426" transform="translate(7 17)" fill="none" stroke="#6a6b75" stroke-width="2">
    <rect width="6" height="3" stroke="none"/>
    <rect x="1" y="1" width="4" height="1" fill="none"/>
  </g>
  <line id="Línea_1098" data-name="Línea 1098" y1="10" x2="18" transform="translate(1 2)" fill="none" stroke="#6a6b75" stroke-width="1.6"/>
</svg>
