<svg xmlns="http://www.w3.org/2000/svg" xmlns:xlink="http://www.w3.org/1999/xlink" viewBox="0 0 20.001 20">
  <defs>
    <style>
      .cls-1 {
        fill: none;
      }

      .cls-2 {
        clip-path: url(#clip-path);
      }

      .cls-3 {
        fill: #6a6b75;
      }
    </style>
    <clipPath id="clip-path">
      <path id="Path_664" data-name="Path 664" class="cls-1" d="M0-32H20v20H0Z" transform="translate(0 32)"/>
    </clipPath>
  </defs>
  <g id="Group_3463" data-name="Group 3463" transform="translate(0 32)">
    <g id="Group_928" data-name="Group 928" class="cls-2" transform="translate(0 -32)">
      <g id="Group_926" data-name="Group 926" transform="translate(0)">
        <path id="Path_662" data-name="Path 662" class="cls-3" d="M-8.25-6.75a5,5,0,0,1-5-5,5,5,0,0,1,5-5,5.124,5.124,0,0,1,.549.032l-2.759,2.759a3.125,3.125,0,0,0,0,4.419,3.125,3.125,0,0,0,4.419,0L-3.282-12.3a4.967,4.967,0,0,1,.032.549,5,5,0,0,1-5,5M-17.55.2A1.874,1.874,0,0,1-20.2.2a1.874,1.874,0,0,1,0-2.651l6.411-6.411a6.269,6.269,0,0,0,2.651,2.651ZM-2.218-13.363c-.238-1.031-.728-1.04-1.428-.339l-3.278,3.278a1.874,1.874,0,0,1-2.651,0,1.874,1.874,0,0,1,0-2.651L-6.3-16.354c.68-.679.729-1.138-.341-1.428A6.126,6.126,0,0,0-8.25-18a6.25,6.25,0,0,0-6.25,6.25,6.209,6.209,0,0,0,.218,1.613l-6.8,6.8a3.125,3.125,0,0,0,0,4.419,3.125,3.125,0,0,0,4.419,0l6.8-6.8A6.241,6.241,0,0,0-8.25-5.5,6.25,6.25,0,0,0-2-11.75a7.094,7.094,0,0,0-.218-1.613" transform="translate(22.001 18)"/>
      </g>
      <g id="Group_927" data-name="Group 927" transform="translate(2.501 16.25)">
        <path id="Path_663" data-name="Path 663" class="cls-3" d="M-.75-.375A.624.624,0,0,0-1.375-1,.624.624,0,0,0-2-.375.624.624,0,0,0-1.375.25.624.624,0,0,0-.75-.375" transform="translate(2 1)"/>
      </g>
    </g>
  </g>
</svg>
