<svg xmlns="http://www.w3.org/2000/svg" width="20.484" height="19.952" viewBox="0 0 20.484 19.952">
  <g id="Grupo_8531" data-name="Grupo 8531" transform="translate(-617.988 -376.597)">
    <path id="Trazado_3065" data-name="Trazado 3065" d="M627.755,390.455v-.787a1.917,1.917,0,0,1-.2-.027.723.723,0,0,0-.227.148l-2.3,2.23-2.29-2.23a.758.758,0,0,0-1.07.02l-.005.006a.746.746,0,0,0,.025,1.054l.94.91h-2.97a.75.75,0,0,0,0,1.5h3.17l-1.16,1.24a.01.01,0,0,0-.01.01.745.745,0,0,0,.55,1.25.774.774,0,0,0,.55-.23l2.27-2.42,2.28,2.42a.723.723,0,0,0,.54.23.786.786,0,0,0,.52-.2.755.755,0,0,0,.03-1.06l-1.17-1.24h3.31a.75.75,0,0,0,0-1.5h-3.1l.94-.91a.755.755,0,0,0,.01-1.06h-.011v.646Z" fill="none"/>
    <g id="Grupo_8534" data-name="Grupo 8534">
      <path id="Trazado_3066" data-name="Trazado 3066" d="M633.7,384.32a7.277,7.277,0,0,0-.791-1.368l-.33-.449.95-2.358-2.383-1.38-1.6,2.046-.592-.106a4.1,4.1,0,0,0-1.44,0l-.592.106-1.6-2.046-2.384,1.382.955,2.368-.346.452a6.037,6.037,0,0,0-.772,1.335l-.22.526-2.556.358V388.8l1.661,0h4.286a2.141,2.141,0,0,1-.2-.989.349.349,0,0,1,.349-.331h.778a.349.349,0,0,1,.349.372.855.855,0,0,0,.2.6l.108.062a.337.337,0,0,1,.135.288h.846a.332.332,0,0,1,.141-.292.857.857,0,0,1,.1-.049.533.533,0,0,0,.137-.391.516.516,0,0,0-.159-.4,2.067,2.067,0,0,0-.768-.39,3.289,3.289,0,0,1-1.45-.781,2.047,2.047,0,0,1-.033-2.693,2.1,2.1,0,0,1,1.01-.579v-.6a.35.35,0,0,1,.35-.35h.626a.349.349,0,0,1,.35.35v.614a1.955,1.955,0,0,1,1.019.649,2.426,2.426,0,0,1,.478,1.573.351.351,0,0,1-.35.331h-.773a.349.349,0,0,1-.349-.368,1.061,1.061,0,0,0-.212-.694.571.571,0,0,0-.467-.2.766.766,0,0,0-.552.169.572.572,0,0,0-.143.42.529.529,0,0,0,.165.43,2.224,2.224,0,0,0,.775.373,4.313,4.313,0,0,1,1.1.492,1.952,1.952,0,0,1,.65.7,1.982,1.982,0,0,1,.213.926,1.829,1.829,0,0,1-.156.765h1.09a.9.9,0,0,1,.9.9v3.955l1.34-.725-.95-2.327.348-.455a6,6,0,0,0,.772-1.334l.22-.524,2.554-.358v-2.757l-2.542-.355Z" fill="none"/>
      <path id="Trazado_3067" data-name="Trazado 3067" d="M631.288,392.529a.75.75,0,0,0-.75-.75h-3.1l.94-.91a.755.755,0,0,0,.01-1.06h-.011l-.011-.012a.731.731,0,0,0-.811-.156.723.723,0,0,0-.227.148l-2.3,2.23-2.29-2.23a.758.758,0,0,0-1.07.02l-.005.006a.746.746,0,0,0,.025,1.054l.94.91h-2.97a.75.75,0,0,0,0,1.5h3.17l-1.16,1.24a.01.01,0,0,0-.01.01.745.745,0,0,0,.55,1.25.774.774,0,0,0,.55-.23l2.27-2.42,2.28,2.42a.723.723,0,0,0,.54.23.786.786,0,0,0,.52-.2.755.755,0,0,0,.03-1.06l-1.17-1.24h3.31A.75.75,0,0,0,631.288,392.529Z" fill="none"/>
      <path id="Trazado_3068" data-name="Trazado 3068" d="M638.471,384.736a1.422,1.422,0,0,0-1.262-1.467l-1.92-.269c-.135-.261-.283-.517-.442-.764l.725-1.8a1.428,1.428,0,0,0-.638-1.788l-3.172-1.838a1.439,1.439,0,0,0-1.888.342l-1.181,1.507a6.094,6.094,0,0,0-.916,0l-1.185-1.512a1.448,1.448,0,0,0-1.864-.349l-3.2,1.856a1.489,1.489,0,0,0-.626,1.785l.72,1.79a8.124,8.124,0,0,0-.448.773l-1.856.262A1.428,1.428,0,0,0,618,384.707V388.8h-.01v6.84a.9.9,0,0,0,.89.91h12.4a1.559,1.559,0,0,0,.818-.275l2.848-1.829a1.49,1.49,0,0,0,.625-1.788l-.717-1.761a8.191,8.191,0,0,0,.445-.771l1.944-.272a1.48,1.48,0,0,0,1.23-1.461ZM628.4,394.519a.755.755,0,0,1-.03,1.06.786.786,0,0,1-.52.2.723.723,0,0,1-.54-.23l-2.28-2.42-2.27,2.42a.774.774,0,0,1-.55.23.745.745,0,0,1-.55-1.25.01.01,0,0,1,.01-.01l1.16-1.24h-3.17a.75.75,0,0,1,0-1.5h2.97l-.94-.91a.746.746,0,0,1-.025-1.054l.005-.006a.758.758,0,0,1,1.07-.02l2.29,2.23,2.3-2.23a.723.723,0,0,1,.227-.148.731.731,0,0,1,.811.156l.011.012h.011a.755.755,0,0,1-.01,1.06l-.94.91h3.1a.75.75,0,0,1,0,1.5h-3.31Zm8.073-6.578-2.554.358-.22.524a6,6,0,0,1-.772,1.334l-.348.455.95,2.327-1.34.725v-3.955a.9.9,0,0,0-.9-.9h-9.63l-1.661,0v-3.619l2.556-.358.22-.526a6.037,6.037,0,0,1,.772-1.335l.346-.452-.955-2.368,2.384-1.382,1.6,2.046.592-.106a4.1,4.1,0,0,1,1.44,0l.592.106,1.6-2.046,2.383,1.38-.95,2.358.33.449a7.277,7.277,0,0,1,.791,1.368l.225.509,2.542.355Z" fill="#6a6b75"/>
      <path id="Trazado_3069" data-name="Trazado 3069" d="M630.141,387.118a1.952,1.952,0,0,0-.65-.7,4.313,4.313,0,0,0-1.1-.492,2.224,2.224,0,0,1-.775-.373.529.529,0,0,1-.165-.43.572.572,0,0,1,.143-.42.766.766,0,0,1,.552-.169.571.571,0,0,1,.467.2,1.061,1.061,0,0,1,.212.694.349.349,0,0,0,.349.368h.773a.351.351,0,0,0,.35-.331,2.426,2.426,0,0,0-.478-1.573,1.955,1.955,0,0,0-1.019-.649v-.614a.349.349,0,0,0-.35-.35h-.626a.35.35,0,0,0-.35.35v.6a2.1,2.1,0,0,0-1.01.579,2.047,2.047,0,0,0,.033,2.693,3.289,3.289,0,0,0,1.45.781,2.067,2.067,0,0,1,.768.39.516.516,0,0,1,.159.4.533.533,0,0,1-.137.391.857.857,0,0,0-.1.049.332.332,0,0,0-.141.292h1.7a1.829,1.829,0,0,0,.156-.765A1.982,1.982,0,0,0,630.141,387.118Z" fill="#6a6b75"/>
      <path id="Trazado_3070" data-name="Trazado 3070" d="M627.414,388.459a.855.855,0,0,1-.2-.6.349.349,0,0,0-.349-.372h-.778a.349.349,0,0,0-.349.331,2.141,2.141,0,0,0,.2.989h1.713a.337.337,0,0,0-.135-.288Z" fill="#6a6b75"/>
    </g>
  </g>
</svg>
