<svg xmlns="http://www.w3.org/2000/svg" xmlns:xlink="http://www.w3.org/1999/xlink" width="32.063" height="32.065" viewBox="0 0 32.063 32.065">
  <defs>
    <clipPath id="clip-path">
      <rect id="Rectángulo_4053" data-name="Rectángulo 4053" width="32.063" height="32.064" fill="#6e5ecb"/>
    </clipPath>
  </defs>
  <g id="Grupo_8940" data-name="Grupo 8940" transform="translate(0 0)">
    <g id="Grupo_8939" data-name="Grupo 8939" transform="translate(0 -0.001)" clip-path="url(#clip-path)">
      <path id="Trazado_10143" data-name="Trazado 10143" d="M16.031,0A16.031,16.031,0,1,0,32.063,16.031,16.03,16.03,0,0,0,16.031,0M5.227,8.96H11.4a1.173,1.173,0,0,1,1.031.63.74.74,0,0,1,.069.086l.634,1.226L11.8,13.5,10.681,11.34H5.227a1.19,1.19,0,1,1,0-2.379m7.03,13.892-.022.027a1.189,1.189,0,0,1-.168.113,1.157,1.157,0,0,1-.666.23H5.227a1.19,1.19,0,1,1,0-2.379H10.7l2.443-4.732,0-.008,1.334-2.6.01.019,1.985-3.843a1.171,1.171,0,0,1,.328-.387,1.191,1.191,0,0,1,.842-.347H24L22.31,7.252A1.2,1.2,0,0,1,24,5.56l3.685,3.682a1.235,1.235,0,0,1,0,1.7L24,14.62a1.2,1.2,0,1,1-1.694-1.694L23.9,11.34h-5.6L12.5,22.548a1.162,1.162,0,0,1-.243.3m15.432-.032L24,26.5a1.2,1.2,0,1,1-1.694-1.7L23.9,23.223H17.641a1.55,1.55,0,0,1-1.17-.674L15.825,21.3l1.334-2.6,1.1,2.132H24L22.31,19.136A1.2,1.2,0,1,1,24,17.441l3.685,3.683a1.235,1.235,0,0,1,0,1.7" transform="translate(0 0.001)" fill="#6e5ecb"/>
    </g>
  </g>
</svg>
