<svg xmlns="http://www.w3.org/2000/svg" viewBox="0 0 20 20">
  <defs>
    <style>
      .cls-1, .cls-2, .cls-3, .cls-4 {
        fill: none;
      }

      .cls-1, .cls-2 {
        stroke: #333;
      }

      .cls-1 {
        stroke-width: 1.5px;
      }

      .cls-2 {
        stroke-linecap: round;
      }

      .cls-5, .cls-6 {
        stroke: none;
      }

      .cls-6 {
        fill: #333;
      }
    </style>
  </defs>
  <g id="Group_3439" data-name="Group 3439" transform="translate(-1313 -507)">
    <g id="Group_3439-2" data-name="Group 3439" transform="translate(1208 -6)">
      <path id="Path_43" data-name="Path 43" class="cls-1" d="M138.326,585.421a1.336,1.336,0,0,1,1.563-1.386c1.652.051,12.036-.065,12.663,0a1.982,1.982,0,0,1,1.934,2.254c0,1.928.023,11.487,0,11.5s1.908,0,1.908,0v2.98s.238,1.312-2.1,1.312h-11.1s-2.125.141-2.014-1.849,0-11.617,0-11.617h-2.853Z" transform="translate(-32.325 -70.014)"/>
      <path id="Path_44" data-name="Path 44" class="cls-1" d="M153.654,602.332l-9.838.03v2.65s.16,1.723-1.2,1.612" transform="translate(-31.214 -74.56)"/>
      <path id="Path_45" data-name="Path 45" class="cls-1" d="M141.742,588.5c-.075-2.522.582-5.518-2.393-4.246" transform="translate(-32.888 -69.881)"/>
      <line id="Line_11" data-name="Line 11" class="cls-2" x2="6.184" transform="translate(111.756 525.295)"/>
      <line id="Line_12" data-name="Line 12" class="cls-2" x2="2.83" transform="translate(111.756 523.49)"/>
      <line id="Line_13" data-name="Line 13" class="cls-2" x2="2.83" transform="translate(111.756 521.68)"/>
      <g id="Path_46" data-name="Path 46" class="cls-3" transform="translate(115.942 517.647)">
        <path class="cls-5" d="M0-.205H4.519V2.741S2.795,4.5,2.327,4.5,0,2.741,0,2.741Z"/>
        <path class="cls-6" d="M 1.500003099441528 1.294868469238281 L 1.500003099441528 2.080621004104614 C 1.787988901138306 2.336081981658936 2.072506666183472 2.575055599212646 2.305055141448975 2.757569313049316 C 2.51449728012085 2.580967426300049 2.766007900238037 2.354256153106689 3.019223213195801 2.113063335418701 L 3.019223213195801 1.294868469238281 L 1.500003099441528 1.294868469238281 M 2.86102294921875e-06 -0.2051315307617188 L 4.519223213195801 -0.2051315307617188 L 4.519223213195801 2.741488456726074 C 4.519223213195801 2.741488456726074 2.794972896575928 4.497268676757812 2.327053070068359 4.497268676757812 C 1.859133005142212 4.497268676757812 2.86102294921875e-06 2.741488456726074 2.86102294921875e-06 2.741488456726074 L 2.86102294921875e-06 -0.2051315307617188 Z"/>
      </g>
    </g>
    <rect id="Rectangle_1609" data-name="Rectangle 1609" class="cls-4" width="20" height="20" transform="translate(1313 507)"/>
  </g>
</svg>
