<svg id="Componente_2351_1" data-name="Componente 2351 – 1" xmlns="http://www.w3.org/2000/svg" width="16" height="16" viewBox="0 0 16 16">
  <rect id="Rectángulo_228" data-name="Rectángulo 228" width="16" height="16" fill="none"/>
  <path id="Trazado_1131" data-name="Trazado 1131" d="M247.121-442l-1.959.267a12.326,12.326,0,0,0-3.068,1.75,3.493,3.493,0,0,0-1.125,2.085v2.243h3.807" transform="translate(-239.372 450.78)" fill="none" stroke="#6a6b75" stroke-linecap="round" stroke-linejoin="round" stroke-width="1.5"/>
  <path id="Trazado_1133" data-name="Trazado 1133" d="M247.618-488.93a2.743,2.743,0,0,0-3.537,1.689,6.773,6.773,0,0,0,.16,4.418c.439.858,1.442,1.662,3.377,1.388" transform="translate(-240.552 490.356)" fill="none" stroke="#6a6b75" stroke-linecap="round" stroke-width="1.5"/>
  <path id="Trazado_1134" data-name="Trazado 1134" d="M4278.008,1902.737l1.627-.493,1.559-.393" transform="translate(-4274.423 -1897.835)" fill="none" stroke="#6a6b75" stroke-width="1.5"/>
  <path id="Trazado_1315" data-name="Trazado 1315" d="M219.219,296.636a3.718,3.718,0,0,1-1.836-.841c0-.029.189-1.967.189-1.967Z" transform="translate(-214.857 -287.58)" fill="#6a6b75"/>
  <rect id="Rectángulo_208" data-name="Rectángulo 208" width="16" height="16" fill="none"/>
  <path id="Trazado_65" data-name="Trazado 65" d="M-293.122,384.713v1.556c0,.309.084,1.081-1.182,1.134s-9.972,0-9.972,0v-2.691a2.7,2.7,0,0,1,.926-1.613c.774-.573,3.179-2.128,3.179-2.128a3.647,3.647,0,0,0,1.437.341,3.925,3.925,0,0,0,1.472-.341,26.853,26.853,0,0,1,3.5,2.128A2.456,2.456,0,0,1-293.122,384.713Z" transform="translate(308.28 -372.262)" fill="none" stroke="#6a6b75" stroke-width="1.5"/>
  <g id="Rectángulo_35" data-name="Rectángulo 35" transform="translate(5.772)" fill="none" stroke="#6a6b75" stroke-width="1.5">
    <rect width="7.372" height="9.625" rx="3.686" stroke="none"/>
    <rect x="0.75" y="0.75" width="5.872" height="8.125" rx="2.936" fill="none"/>
  </g>
  <path id="Trazado_70" data-name="Trazado 70" d="M-413.292,522.611l2.258-1.289h4.241" transform="translate(419.498 -517.987)" fill="none" stroke="#6a6b75" stroke-width="1.5"/>
</svg>
