<svg id="b" xmlns="http://www.w3.org/2000/svg" width="32.06" height="32.06" viewBox="0 0 32.06 32.06">
  <g id="c">
    <path id="Trazado_10145" data-name="Trazado 10145" d="M16.03,0A16.03,16.03,0,1,0,32.06,16.03,16.029,16.029,0,0,0,16.03,0Zm6.089,19.866h-8.95a1.9,1.9,0,0,1-1.518.815,1.877,1.877,0,0,1-1.518-.815H9.957a2.206,2.206,0,1,0,0,4.411H19.994v-1.1a.708.708,0,0,1,1.071-.591l3.356,1.982a.7.7,0,0,1,0,1.215l-3.4,1.918a.7.7,0,0,1-1.039-.607v-.863H9.941a4.139,4.139,0,0,1-.016-8.279,1.9,1.9,0,0,1,3.452,0h8.742a2.21,2.21,0,0,0,2.206-2.206,2.1,2.1,0,0,0-.3-1.087,1.828,1.828,0,0,1-.831.208,1.91,1.91,0,0,1-1.806-1.327H9.941a4.139,4.139,0,1,1,0-8.279h2.541a1.865,1.865,0,0,1,3.26,0h5.306a.959.959,0,0,1,0,1.918H15.742a1.838,1.838,0,0,1-3.228,0H9.973a2.206,2.206,0,0,0,0,4.411H21.847a1.922,1.922,0,0,1,3.292,1.295,4.126,4.126,0,0,1-2.989,6.984Z" fill="#4396d6"/>
  </g>
</svg>
