<svg xmlns="http://www.w3.org/2000/svg" viewBox="0 0 30 30">
  <defs>
    <style>
      .cls-1 {
        fill: #707070;
      }

      .cls-2 {
        fill: #414141;
        stroke: #414141;
      }

      .cls-3 {
        fill: #d8d8d8;
      }

      .cls-4 {
        stroke: none;
      }

      .cls-5 {
        fill: none;
      }
    </style>
  </defs>
  <g id="Group_3918" data-name="Group 3918" transform="translate(-348 -445)">
    <g id="Group_3037" data-name="Group 3037" transform="translate(348 445)">
      <path id="Path_673" data-name="Path 673" class="cls-1" d="M15,0A15,15,0,1,1,0,15,15,15,0,0,1,15,0Z" transform="translate(0 0)"/>
    </g>
    <g id="Ellipse_325" data-name="Ellipse 325" class="cls-2" transform="translate(350.5 447.5)">
      <circle class="cls-4" cx="12.5" cy="12.5" r="12.5"/>
      <circle class="cls-5" cx="12.5" cy="12.5" r="12"/>
    </g>
    <path id="Path_1580" data-name="Path 1580" class="cls-3" d="M-383.427-553.888a12.321,12.321,0,0,1-5.762,1.924l-.038,0-.191.012h-.014l-.2.009h-.047l-.156,0h-.056l-.2,0-.2,0h-.056l-.156,0h-.047l-.2-.009h-.014l-.191-.012-.038,0a12.32,12.32,0,0,1-5.762-1.924c2.831-1.187,3.72-2.385,3.72-4.8a2.262,2.262,0,0,0-.468-1.482,4.778,4.778,0,0,1-.79-2.129,1.127,1.127,0,0,0-.705-.919c-.252-.124-.514-.253-.605-1.47,0-.663.276-.838.276-.84a.419.419,0,0,0,.231-.453s-.124-.692-.236-1.489c-.341-2.141-.336-4.477,2.3-5.566,2.663-1.1,4.593-.321,4.815.067a.649.649,0,0,0,.34.218.651.651,0,0,0,.109.013,2.814,2.814,0,0,1,2.139.9c1.089,1.3.757,4.75.555,5.857a.447.447,0,0,0,.215.447c.011.006.291.18.292.816-.092,1.25-.353,1.378-.606,1.5a1.126,1.126,0,0,0-.7.919,4.785,4.785,0,0,1-.791,2.129,2.267,2.267,0,0,0-.467,1.482c0,2.408.889,3.606,3.719,4.794" transform="translate(753.093 1024.432)"/>
  </g>
</svg>
