<svg xmlns="http://www.w3.org/2000/svg" width="20" height="20" viewBox="0 0 20 20"><g transform="translate(-787 -250)"><g transform="translate(-1 -1)"><g transform="translate(789 252)" fill="none"><path d="M9,0A9,9,0,1,1,0,9,9,9,0,0,1,9,0Z" stroke="none"/><path d="M 9 2 C 5.140190124511719 2 2 5.140190124511719 2 9 C 2 12.85980987548828 5.140190124511719 16 9 16 C 12.85980987548828 16 16 12.85980987548828 16 9 C 16 5.140190124511719 12.85980987548828 2 9 2 M 9 0 C 13.97056007385254 0 18 4.029439926147461 18 9 C 18 13.97056007385254 13.97056007385254 18 9 18 C 4.029439926147461 18 0 13.97056007385254 0 9 C 0 4.029439926147461 4.029439926147461 0 9 0 Z" stroke="none" fill="#06a086"/></g><path d="M-2999.615,1503.054l2.143,2.333,3.857-4.2" transform="translate(3794.649 -1242.052)" fill="none" stroke="#06a086" stroke-linecap="round" stroke-linejoin="round" stroke-width="2"/></g><rect width="20" height="20" transform="translate(787 250)" fill="none"/></g></svg>