<svg xmlns="http://www.w3.org/2000/svg" width="20.295" height="21" viewBox="0 0 20.295 21"><g transform="translate(0.112)"><rect width="20" height="20" fill="none"/><path d="M735.738,280.226h11.494a3.176,3.176,0,0,0,2.846-1.374c1.154-1.333,2.154-2.585,3.1-3.882s1.177-2.252.372-3.03c-1.058-1.022-1.985-.1-3,1.1s-2.706,3.1-2.706,3.1,0-1.7-1.182-1.939-2.76-.412-4.132-.543a8.839,8.839,0,0,0-3.151,0c-1.081.245-3.5,3.334-3.5,3.334Z" transform="translate(-734.85 -260.226)" fill="none" stroke="#6a6b75" stroke-linejoin="round" stroke-width="2"/><path d="M747.658,276.023s-1.038,1.139-5.657.569" transform="translate(-734.516 -259.986)" fill="none" stroke="#6a6b75" stroke-linecap="round" stroke-linejoin="round" stroke-width="1.6"/><circle cx="4.697" cy="4.697" r="4.697" transform="translate(5.907 1.437)" fill="none" stroke="#6a6b75" stroke-linejoin="round" stroke-width="2"/><g transform="translate(-733.98 -260.301)"><path d="M744.644,268.235a.191.191,0,0,1-.118-.036.108.108,0,0,1-.05-.087v-.138a1.478,1.478,0,0,1-.537-.1,1.124,1.124,0,0,1-.375-.235.4.4,0,0,1-.138-.276.344.344,0,0,1,.04-.151.427.427,0,0,1,.1-.138.2.2,0,0,1,.138-.056.239.239,0,0,1,.138.049c.045.033.1.073.152.119a1.012,1.012,0,0,0,.2.126.875.875,0,0,0,.279.077v-.982c-.111-.042-.224-.088-.338-.138a1.462,1.462,0,0,1-.311-.182.821.821,0,0,1-.227-.271.848.848,0,0,1-.086-.4.956.956,0,0,1,.079-.406.8.8,0,0,1,.215-.284,1.078,1.078,0,0,1,.308-.18,1.539,1.539,0,0,1,.36-.091v-.138a.106.106,0,0,1,.05-.086.192.192,0,0,1,.118-.037.189.189,0,0,1,.111.037.107.107,0,0,1,.052.086v.129a2.328,2.328,0,0,1,.268.027,1.6,1.6,0,0,1,.276.067.683.683,0,0,1,.217.116.225.225,0,0,1,.086.18.4.4,0,0,1-.03.135.424.424,0,0,1-.084.143.187.187,0,0,1-.148.062.292.292,0,0,1-.14-.039c-.048-.026-.1-.055-.172-.086a.769.769,0,0,0-.273-.057v.868a3.116,3.116,0,0,1,.333.141,1.424,1.424,0,0,1,.3.2.872.872,0,0,1,.22.291,1.123,1.123,0,0,1-.175,1.144,1.166,1.166,0,0,1-.678.328v.152a.109.109,0,0,1-.052.087A.188.188,0,0,1,744.644,268.235Zm-.129-2.486V265a.622.622,0,0,0-.212.062.37.37,0,0,0-.138.119.284.284,0,0,0-.049.165.315.315,0,0,0,.051.18.394.394,0,0,0,.143.126A1.59,1.59,0,0,0,744.515,265.749Zm.256,1.633a.537.537,0,0,0,.267-.133.357.357,0,0,0,.1-.271.393.393,0,0,0-.049-.205.514.514,0,0,0-.134-.143.952.952,0,0,0-.187-.106Z" fill="#6a6b75"/></g></g></svg>