<svg xmlns="http://www.w3.org/2000/svg" xmlns:xlink="http://www.w3.org/1999/xlink" viewBox="0 0 20.408 20">
  <defs>
    <style>
      .cls-1, .cls-2, .cls-4 {
        fill: none;
      }

      .cls-1, .cls-4 {
        stroke: #6a6b75;
      }

      .cls-3 {
        clip-path: url(#clip-path);
      }

      .cls-4 {
        stroke-width: 1.4px;
      }
    </style>
    <clipPath id="clip-path">
      <path id="Path_3" data-name="Path 3" class="cls-1" d="M0-96.833H20v12H0Z" transform="translate(0 96.833)"/>
    </clipPath>
  </defs>
  <g id="Group_3466" data-name="Group 3466" transform="translate(-630 722)">
    <rect id="Rectangle_1614" data-name="Rectangle 1614" class="cls-2" width="20" height="20" transform="translate(630 -722)"/>
    <g id="Group_3465" data-name="Group 3465" transform="translate(632 -717.134)">
      <g id="Group_3" data-name="Group 3" class="cls-3" transform="translate(-1.592 -1.569)">
        <g id="Group_1" data-name="Group 1" transform="translate(8.278 1.037)">
          <path id="Path_1" data-name="Path 1" class="cls-4" d="M0-86.958V-91.6a5.2,5.2,0,0,1,5.284-5.236,5.08,5.08,0,0,1,5.368,4.639c0,3.247-1.9,5.236-5.048,5.236Z" transform="translate(0 96.833)"/>
        </g>
        <g id="Group_2" data-name="Group 2" transform="translate(1.083 4.549)">
          <path id="Path_2" data-name="Path 2" class="cls-4" d="M-56.127-56.027v-2.989a3.293,3.293,0,0,0-3.339-3.373A3.241,3.241,0,0,0-62.892-59.4a3.083,3.083,0,0,0,3.285,3.373Z" transform="translate(62.892 62.39)"/>
        </g>
      </g>
    </g>
  </g>
</svg>
