<svg xmlns="http://www.w3.org/2000/svg" xmlns:xlink="http://www.w3.org/1999/xlink" width="19.433" height="20.542" viewBox="0 0 19.433 20.542">
  <defs>
    <clipPath id="clip-path">
      <rect id="Rectángulo_3828" data-name="Rectángulo 3828" width="19.433" height="20.542" transform="translate(0 0)" fill="none"/>
    </clipPath>
  </defs>
  <g id="Grupo_8504" data-name="Grupo 8504" transform="translate(0 0)">
    <g id="Grupo_8501" data-name="Grupo 8501">
      <g id="Grupo_8500" data-name="Grupo 8500" clip-path="url(#clip-path)">
        <rect id="Rectángulo_3827" data-name="Rectángulo 3827" width="16.5" height="16.5" transform="translate(0.75 0.75)" fill="none" stroke="#6a6b75" stroke-linecap="round" stroke-linejoin="round" stroke-width="1.5"/>
      </g>
    </g>
    <rect id="Rectángulo_3829" data-name="Rectángulo 3829" width="2" height="2" transform="translate(4 8)" fill="#6a6b75"/>
    <rect id="Rectángulo_3830" data-name="Rectángulo 3830" width="3.164" height="2" transform="translate(4 12.019)" fill="#6a6b75"/>
    <rect id="Rectángulo_3831" data-name="Rectángulo 3831" width="5" height="2" transform="translate(4 4)" fill="#6a6b75"/>
    <rect id="Rectángulo_3832" data-name="Rectángulo 3832" width="4" height="1" transform="translate(4.5 4.5)" fill="none" stroke="#6a6b75" stroke-width="1"/>
    <rect id="Rectángulo_3833" data-name="Rectángulo 3833" width="3.471" height="2" transform="translate(7.529 8)" fill="#6a6b75"/>
    <rect id="Rectángulo_3834" data-name="Rectángulo 3834" width="2.777" height="1" transform="translate(7.876 8.5)" fill="none" stroke="#6a6b75" stroke-width="1"/>
    <rect id="Rectángulo_3835" data-name="Rectángulo 3835" width="2" height="1" transform="translate(11.5 4.5)" fill="none" stroke="#6a6b75" stroke-width="1"/>
    <g id="Grupo_8503" data-name="Grupo 8503">
      <g id="Grupo_8502" data-name="Grupo 8502" clip-path="url(#clip-path)">
        <path id="Trazado_3020" data-name="Trazado 3020" d="M19.434,15.839a4.7,4.7,0,1,1-4.7-4.7,4.7,4.7,0,0,1,4.7,4.7" fill="#6a6b75"/>
        <path id="Trazado_3021" data-name="Trazado 3021" d="M17.952,14.649l-3.138,3.662a1,1,0,0,1-1.41.109,1.02,1.02,0,0,1-.109-.109l-1.743-2.035a1,1,0,0,1,1.469-1.357c.017.018.033.037.049.057l.984,1.147,2.379-2.774a1,1,0,0,1,1.519,1.3" fill="#fff"/>
      </g>
    </g>
  </g>
</svg>
