<svg xmlns="http://www.w3.org/2000/svg" width="30" height="30" viewBox="0 0 30 30">
  <g id="Grupo_3429" data-name="Grupo 3429" transform="translate(-1199 -13)">
    <rect id="Rectángulo_1604" data-name="Rectángulo 1604" width="30" height="30" transform="translate(1199 13)" fill="none"/>
    <g id="Grupo_3426" data-name="Grupo 3426" transform="translate(-6 3)">
      <g id="Grupo_950" data-name="Grupo 950" transform="translate(1205 10)">
        <path id="Trazado_673" data-name="Trazado 673" d="M15,0A15,15,0,1,1,0,15,15,15,0,0,1,15,0Z" transform="translate(0)" fill="#062743"/>
      </g>
      <g id="Elipse_314" data-name="Elipse 314" transform="translate(1207.5 12.5)" fill="#062743" stroke="#062743" stroke-width="1">
        <circle cx="12.5" cy="12.5" r="12.5" stroke="none"/>
        <circle cx="12.5" cy="12.5" r="12" fill="none"/>
      </g>
      <path id="Trazado_1527" data-name="Trazado 1527" d="M-383.427-553.888a12.321,12.321,0,0,1-5.762,1.924l-.038,0-.191.012h-.014l-.2.009h-.047l-.156,0h-.056l-.2,0-.2,0h-.056l-.156,0h-.047l-.2-.009h-.014l-.191-.012-.038,0a12.319,12.319,0,0,1-5.762-1.924c2.831-1.187,3.72-2.385,3.72-4.8a2.261,2.261,0,0,0-.468-1.482,4.778,4.778,0,0,1-.79-2.129,1.126,1.126,0,0,0-.705-.919c-.252-.124-.514-.253-.605-1.47,0-.663.276-.838.276-.84a.419.419,0,0,0,.231-.453s-.124-.692-.236-1.49c-.341-2.141-.336-4.477,2.3-5.566,2.663-1.1,4.593-.321,4.815.067a.648.648,0,0,0,.34.218.644.644,0,0,0,.109.014,2.814,2.814,0,0,1,2.139.9c1.089,1.3.757,4.75.555,5.857a.447.447,0,0,0,.215.447c.011.007.291.18.292.816-.092,1.249-.353,1.378-.606,1.5a1.126,1.126,0,0,0-.7.919,4.784,4.784,0,0,1-.791,2.129,2.267,2.267,0,0,0-.467,1.482c0,2.408.889,3.606,3.719,4.794" transform="translate(1610.093 589.431)" fill="#00b596"/>
    </g>
  </g>
</svg>
