<svg id="ico_edit_item" xmlns="http://www.w3.org/2000/svg" width="16" height="16" viewBox="0 0 16 16">
  <rect id="Rect치ngulo_2460" data-name="Rect치ngulo 2460" width="16" height="16" fill="none"/>
  <rect id="Rect치ngulo_883" data-name="Rect치ngulo 883" width="16" height="16" fill="none"/>
  <path id="Trazado_1296" data-name="Trazado 1296" d="M11918.279,323.4s6.9-6.942,7.256-7.346c2.01-2.165,1.467-3.268.215-4.294s-2.748-.931-4.347.59-7.157,7.192-7.157,7.192l-1.377,5.54Z" transform="translate(-11911.869 -310.086)" fill="none" stroke="#3a3a40" stroke-linecap="round" stroke-linejoin="round" stroke-width="1.6"/>
  <path id="Trazado_1304" data-name="Trazado 1304" d="M-.592,0H12.153" transform="translate(1.592 15.188)" fill="#3a3a40" stroke="#3a3a40" stroke-linecap="round" stroke-width="1.5"/>
  <path id="Trazado_1298" data-name="Trazado 1298" d="M11936.18,314.3l3.786,3.425" transform="translate(-11925.315 -312.493)" fill="none" stroke="#3a3a40" stroke-width="1.5"/>
  <path id="Trazado_1303" data-name="Trazado 1303" d="M11928.043,325.423l7.616-8.008" transform="translate(-11923.742 -313.772)" fill="none" stroke="#3a3a40" stroke-width="1.5"/>
  <path id="Trazado_1305" data-name="Trazado 1305" d="M11925.283,325.573a4.5,4.5,0,0,1,2.176.847,3.785,3.785,0,0,1,.957,1.912" transform="translate(-11922.953 -315.302)" fill="none" stroke="#3a3a40" stroke-linecap="round" stroke-width="1.5"/>
</svg>
