<svg id="ico-tag" xmlns="http://www.w3.org/2000/svg" width="20" height="20" viewBox="0 0 20 20">
  <g id="ico-template">
    <rect id="Rectángulo_2896" data-name="Rectángulo 2896" width="20" height="20" fill="none"/>
  </g>
  <g id="Grupo_7811" data-name="Grupo 7811" transform="translate(-559.587 -351.449)">
    <g id="Trazado_2705" data-name="Trazado 2705" fill="none" stroke-miterlimit="10">
      <path d="M574.62,352.47l-4.734.6a1.218,1.218,0,0,0-.708.347l-6.234,6.234a1.218,1.218,0,0,0,0,1.723l5.667,5.668a1.218,1.218,0,0,0,1.723,0l6.234-6.234a1.221,1.221,0,0,0,.347-.709l.6-4.734A2.59,2.59,0,0,0,574.62,352.47Z" stroke="none"/>
      <path d="M 574.9512329101563 353.9490661621094 L 574.9512329101563 353.9490661621094 C 574.9041137695313 353.9490661621094 574.8558959960938 353.9521484375 574.8082885742188 353.9581298828125 L 570.1702880859375 354.5449829101563 L 564.2037963867188 360.5115051269531 L 569.4725341796875 365.7811279296875 L 575.4388427734375 359.8148193359375 L 576.0258178710938 355.1759643554688 C 576.0794677734375 354.7510986328125 575.8844604492188 354.4573059082031 575.7633666992188 354.3200073242188 C 575.5556030273438 354.0842590332031 575.259521484375 353.9490661621094 574.9512329101563 353.9490661621094 M 574.9512939453125 352.4490661621094 C 576.4815673828125 352.4490966796875 577.7119140625 353.7976379394531 577.5139770507813 355.364013671875 L 576.9149780273438 360.0979919433594 C 576.8809814453125 360.3659973144531 576.7589721679688 360.6159973144531 576.5679931640625 360.8070068359375 L 570.333984375 367.0409851074219 C 570.0960083007813 367.2789916992188 569.7842407226563 367.3980102539063 569.4724731445313 367.3980102539063 C 569.1607666015625 367.3980102539063 568.8489990234375 367.2789916992188 568.6110229492188 367.0409851074219 L 562.9439697265625 361.3729858398438 C 562.468017578125 360.8980102539063 562.468017578125 360.1260070800781 562.9439697265625 359.6499938964844 L 569.177978515625 353.4159851074219 C 569.3690185546875 353.2250061035156 569.6179809570313 353.1029968261719 569.885986328125 353.0690002441406 L 574.6199951171875 352.4700012207031 C 574.731689453125 352.4559020996094 574.8422241210938 352.4490661621094 574.9512939453125 352.4490661621094 Z" stroke="none" fill="#707070"/>
    </g>
    <path id="Trazado_2706" data-name="Trazado 2706" d="M562.88,362.7l5.011,5.011a2.146,2.146,0,0,0,3.036,0l5.577-5.577" transform="translate(0 1)" fill="none" stroke="#707070" stroke-linecap="round" stroke-miterlimit="10" stroke-width="1.5"/>
    <circle id="Elipse_552" data-name="Elipse 552" cx="1.097" cy="1.097" r="1.097" transform="translate(572.313 355.478)" fill="#707070"/>
  </g>
</svg>
