<svg id="ico-preciones" xmlns="http://www.w3.org/2000/svg" width="20" height="20" viewBox="0 0 20 20">
  <g id="Grupo_1711" data-name="Grupo 1711" transform="translate(-865.327 -260)">
    <g id="Trazado_702" data-name="Trazado 702" transform="translate(869 266.725)" fill="none" stroke-linecap="round" stroke-linejoin="round">
      <path d="M0,.022,6.341-4.186,12.655.022V13.089H0Z" stroke="none"/>
      <path d="M 6.339336395263672 -2.38465690612793 L 1.500003814697266 0.826594352722168 L 1.500003814697266 11.58929634094238 L 11.15474319458008 11.58929634094238 L 11.15474319458008 0.8246555328369141 L 6.339336395263672 -2.38465690612793 M 6.341143608093262 -4.186063766479492 L 12.65474319458008 0.02174663543701172 L 12.65474319458008 13.08929634094238 L 3.814697265625e-06 13.08929634094238 L 3.814697265625e-06 0.02174663543701172 L 6.341143608093262 -4.186063766479492 Z" stroke="none" fill="#06a086"/>
    </g>
    <path id="Trazado_1241" data-name="Trazado 1241" d="M0,6.327V1" transform="translate(875.327 260)" fill="none" stroke="#06a086" stroke-linecap="round" stroke-width="1.5"/>
    <path id="Trazado_703" data-name="Trazado 703" d="M.416-7.326a.612.612,0,0,1,.131-.359.371.371,0,0,1,.3-.181.469.469,0,0,1,.274.127,3.845,3.845,0,0,0,.4.274,1.255,1.255,0,0,0,.532.177V-8.823q-.285-.108-.436-.17a3.174,3.174,0,0,1-.385-.2,1.386,1.386,0,0,1-.358-.286,1.451,1.451,0,0,1-.22-.378,1.333,1.333,0,0,1-.1-.517,1.317,1.317,0,0,1,.424-1.053,1.992,1.992,0,0,1,1.072-.451V-12.1a.167.167,0,0,1,.077-.135.3.3,0,0,1,.185-.058.3.3,0,0,1,.181.058.165.165,0,0,1,.081.135v.2a2.986,2.986,0,0,1,.9.162q.416.147.416.448a.686.686,0,0,1-.108.351.334.334,0,0,1-.3.181,1.152,1.152,0,0,1-.347-.131,1.557,1.557,0,0,0-.563-.154V-9.68a4.572,4.572,0,0,1,.524.224,2.994,2.994,0,0,1,.451.3,1.158,1.158,0,0,1,.362.475,1.687,1.687,0,0,1,.119.656,1.553,1.553,0,0,1-.393,1.111,1.807,1.807,0,0,1-1.064.525v.239a.165.165,0,0,1-.081.135.3.3,0,0,1-.181.058.3.3,0,0,1-.185-.058.167.167,0,0,1-.077-.135V-6.37A2.232,2.232,0,0,1,.9-6.686Q.416-6.987.416-7.326ZM1.5-10.475a.462.462,0,0,0,.154.367,1.632,1.632,0,0,0,.463.258v-1.165Q1.5-10.914,1.5-10.475ZM2.513-7.3a.613.613,0,0,0,.578-.633.6.6,0,0,0-.15-.424,1.292,1.292,0,0,0-.428-.286Z" transform="translate(873.104 281.327)" fill="#06a086"/>
  </g>
  <rect id="Rectángulo_275" data-name="Rectángulo 275" width="20" height="20" fill="none" opacity="0.5"/>
</svg>
