<svg xmlns="http://www.w3.org/2000/svg" width="22.273" height="20" viewBox="0 0 22.273 20">
  <g id="ico-onAir" transform="translate(1.2)">
    <rect id="Rectángulo_342" data-name="Rectángulo 342" width="20" height="20" fill="none"/>
    <g id="Grupo_1775" data-name="Grupo 1775" transform="translate(-1936.699 -352.879)">
      <path id="Trazado_995" data-name="Trazado 995" d="M2.043,0A6.669,6.669,0,0,0,0,4.227,6.065,6.065,0,0,0,1.884,8.865" transform="translate(1956.492 360.514) rotate(135)" fill="none" stroke="#6a6b75" stroke-linecap="round" stroke-width="1.5"/>
      <path id="Trazado_1291" data-name="Trazado 1291" d="M1.215,0A3.966,3.966,0,0,0,0,2.514,3.607,3.607,0,0,0,1.12,5.272" transform="translate(1953.381 361.13) rotate(135)" fill="none" stroke="#6a6b75" stroke-linecap="round" stroke-width="1.5"/>
      <g id="Grupo_6384" data-name="Grupo 6384" transform="translate(-0.348 1)">
        <g id="Trazado_996" data-name="Trazado 996" transform="translate(1945.636 358.642) rotate(30)" fill="none">
          <path d="M3.737,0A3.533,3.533,0,0,1,7.384,3.542,3.754,3.754,0,0,1,3.647,7.178,3.533,3.533,0,0,1,0,3.636,3.754,3.754,0,0,1,3.737,0Z" stroke="none"/>
          <path d="M 3.786491870880127 1.499999523162842 L 3.756351947784424 1.500189304351807 C 2.526991844177246 1.51578950881958 1.514872074127197 2.482359409332275 1.500162124633789 3.654819488525391 C 1.493551731109619 4.181839466094971 1.694071769714355 4.67881965637207 2.06478214263916 5.05420970916748 C 2.462202072143555 5.456649303436279 3.006731986999512 5.678279399871826 3.598062038421631 5.678279399871826 L 3.628201961517334 5.678089618682861 C 4.857552051544189 5.662489414215088 5.869671821594238 4.695919513702393 5.884381771087646 3.523459434509277 C 5.890992164611816 2.996439456939697 5.69047212600708 2.499459266662598 5.319762229919434 2.124069690704346 C 4.922342300415039 1.721629619598389 4.377811908721924 1.499999523162842 3.786491870880127 1.499999523162842 M 3.786495685577393 -2.86102294921875e-06 C 5.802698612213135 -2.86102294921875e-06 7.408933162689209 1.576067447662354 7.384262084960938 3.542279481887817 C 7.359392166137695 5.52432918548584 5.686271667480469 7.152089595794678 3.647241830825806 7.177969455718994 C 3.630938529968262 7.178176403045654 3.614308834075928 7.178281784057617 3.598057985305786 7.178281784057617 C 1.581845283508301 7.178281784057617 -0.02438926696777344 5.602211952209473 0.0002818107604980469 3.635999441146851 C 0.02515172958374023 1.65394926071167 1.698271751403809 0.02618932723999023 3.737311840057373 0.0003094673156738281 C 3.753615140914917 0.0001025199890136719 3.770244836807251 -2.86102294921875e-06 3.786495685577393 -2.86102294921875e-06 Z" stroke="none" fill="#6a6b75"/>
        </g>
        <path id="Trazado_1316" data-name="Trazado 1316" d="M2.244-.913,0,3.42" transform="translate(1943.576 367.222)" fill="#6a6b75" stroke="#5f6069" stroke-width="1.5"/>
        <path id="Trazado_2384" data-name="Trazado 2384" d="M-.371-.8,1.768,3.42" transform="translate(1948.595 367.222)" fill="#6a6b75" stroke="#5f6069" stroke-width="1.5"/>
      </g>
      <path id="Trazado_2382" data-name="Trazado 2382" d="M2.043,8.866A6.669,6.669,0,0,1,0,4.638,6.065,6.065,0,0,1,1.884,0" transform="translate(1943.048 354.245) rotate(45)" fill="none" stroke="#6a6b75" stroke-linecap="round" stroke-width="1.5"/>
      <path id="Trazado_2383" data-name="Trazado 2383" d="M1.215,5.273A3.966,3.966,0,0,1,0,2.758,3.607,3.607,0,0,1,1.12,0" transform="translate(1943.618 357.402) rotate(45)" fill="none" stroke="#6a6b75" stroke-linecap="round" stroke-width="1.5"/>
    </g>
  </g>
</svg>
