<svg xmlns="http://www.w3.org/2000/svg" width="20.25" height="20" viewBox="0 0 20.25 20">
  <g id="ico-address-gr" transform="translate(0.25)">
    <g id="Trazado_2506" data-name="Trazado 2506" transform="translate(5 3)" fill="none">
      <path d="M6,0c3.314,0,6,2.02,6,5.333s-6,8-6,8-6-4.686-6-8S2.686,0,6,0Z" stroke="none"/>
      <path d="M 6 1.499997138977051 C 3.760109901428223 1.499997138977051 1.5 2.685297012329102 1.5 5.33333683013916 C 1.5 5.77407693862915 1.749990463256836 7.064257144927979 4.065539836883545 9.519597053527832 C 4.76130199432373 10.25735855102539 5.465008735656738 10.90682506561279 5.999996185302734 11.37594604492188 C 6.535053253173828 10.90677070617676 7.23869800567627 10.25735855102539 7.934460163116455 9.519597053527832 C 10.25000953674316 7.064257144927979 10.5 5.77407693862915 10.5 5.33333683013916 C 10.5 2.685297012329102 8.239890098571777 1.499997138977051 6 1.499997138977051 M 6 -2.86102294921875e-06 C 9.31371021270752 -2.86102294921875e-06 12 2.019626617431641 12 5.33333683013916 C 12 8.647037506103516 6 13.33333683013916 6 13.33333683013916 C 6 13.33333683013916 0 8.647037506103516 0 5.33333683013916 C 0 2.019626617431641 2.68628978729248 -2.86102294921875e-06 6 -2.86102294921875e-06 Z" stroke="none" fill="#05a086"/>
    </g>
    <g id="Elipse_451" data-name="Elipse 451" transform="translate(10 6)" fill="none" stroke="#05a086" stroke-width="1.5">
      <circle cx="1" cy="1" r="1" stroke="none"/>
      <circle cx="1" cy="1" r="0.25" fill="none"/>
    </g>
    <rect id="Rectángulo_2627" data-name="Rectángulo 2627" width="20" height="20" fill="none"/>
    <g id="Rectángulo_2628" data-name="Rectángulo 2628" transform="translate(2)" fill="none" stroke="#05a086" stroke-width="1.5">
      <rect width="18" height="20" rx="2" stroke="none"/>
      <rect x="0.75" y="0.75" width="16.5" height="18.5" rx="1.25" fill="none"/>
    </g>
    <line id="Línea_1037" data-name="Línea 1037" x1="3.366" transform="translate(0.5 6.5)" fill="none" stroke="#05a086" stroke-linecap="round" stroke-width="1.5"/>
    <line id="Línea_1038" data-name="Línea 1038" x1="3.366" transform="translate(0.5 14.5)" fill="none" stroke="#05a086" stroke-linecap="round" stroke-width="1.5"/>
    <line id="Línea_1039" data-name="Línea 1039" x1="3.366" transform="translate(0.5 10.5)" fill="none" stroke="#05a086" stroke-linecap="round" stroke-width="1.5"/>
  </g>
</svg>
