<svg id="Capa_1" data-name="Capa 1" xmlns="http://www.w3.org/2000/svg" viewBox="0 0 14.86 20.55"><defs><style>.cls-1{fill:none;}.cls-1,.cls-2{stroke:#6a6b75;stroke-miterlimit:10;stroke-width:1.6px;}.cls-2{fill:#fff;}.cls-3{fill:#6a6b75;}</style></defs><path class="cls-1" d="M688.57,390.86A2.54,2.54,0,0,1,686,393.4h-6.82a2.54,2.54,0,0,1-2.54-2.54V380.8a6.35,6.35,0,0,1,6.35-6.35h0a5.55,5.55,0,0,1,4.87,2.89" transform="translate(-675.2 -373.65)"/><rect class="cls-2" x="0.8" y="11.44" width="13.26" height="8.31"/><path class="cls-3" d="M683.85,388.15a1,1,0,1,0-2.06,0,1.35,1.35,0,0,0,.32.88h0v1.65a.46.46,0,0,0,.42.49h.58a.46.46,0,0,0,.42-.49V389h0A1.35,1.35,0,0,0,683.85,388.15Z" transform="translate(-675.2 -373.65)"/></svg>