<svg id="ico-contratas" xmlns="http://www.w3.org/2000/svg" width="20" height="20" viewBox="0 0 20 20">
  <rect id="Rectángulo_236" data-name="Rectángulo 236" width="20" height="20" fill="none"/>
  <path id="Trazado_681" data-name="Trazado 681" d="M467.027,352.023s1.3.04,1.788.718,3.756,5.2,3.756,5.2v4.643c0,.624.013,1.658-.762,1.647s-15.2,0-16.2,0a.938.938,0,0,1-1.039-.851s.007-9.966,0-9.915c0-1.238.363-1.454,1.064-1.442C455.645,352.058,467.027,352.023,467.027,352.023Z" transform="translate(-453.572 -347.023)" fill="none" stroke="#06a086" stroke-linecap="round" stroke-linejoin="round" stroke-width="1.5"/>
  <path id="Trazado_682" data-name="Trazado 682" d="M480.091,352.023v7.424" transform="translate(-471.212 -347.023)" fill="none" stroke="#06a086" stroke-linecap="round" stroke-width="1.5"/>
  <path id="Trazado_683" data-name="Trazado 683" d="M487.331,355.523c-.008.647.011,4.424,0,5.221s.382,1.377,1.053,1.377h5.29" transform="translate(-474.809 -349.698)" fill="none" stroke="#06a086" stroke-linecap="round" stroke-linejoin="round" stroke-width="1.5"/>
  <g id="Sustracción_9" data-name="Sustracción 9" transform="translate(165.693 -639.515)" fill="none" stroke-linecap="round" stroke-linejoin="round">
    <path d="M-160.277,659.515a3,3,0,0,1-2.923-3.066,3.249,3.249,0,0,1,.031-.449h5.783a3.246,3.246,0,0,1,.031.449A3,3,0,0,1-160.277,659.515Z" stroke="none"/>
    <path d="M -160.2767181396484 658.0152587890625 C -159.8591613769531 658.0152587890625 -159.4830474853516 657.8163452148438 -159.2225189208984 657.5001220703125 L -161.3309173583984 657.5001220703125 C -161.0703887939453 657.8163452148438 -160.6942749023438 658.0152587890625 -160.2767181396484 658.0152587890625 M -160.2767181396484 659.5152587890625 C -161.8884429931641 659.5152587890625 -163.19970703125 658.1399536132812 -163.19970703125 656.449462890625 C -163.19970703125 656.29931640625 -163.189208984375 656.1480712890625 -163.1684722900391 656.0001220703125 L -157.3849792480469 656.0001220703125 C -157.3638763427734 656.1507568359375 -157.3537292480469 656.3016357421875 -157.3537292480469 656.449462890625 C -157.3537292480469 658.1399536132812 -158.6649780273438 659.5152587890625 -160.2767181396484 659.5152587890625 Z" stroke="none" fill="#06a086"/>
  </g>
  <g id="Sustracción_10" data-name="Sustracción 10" transform="translate(174.693 -639.515)" fill="none" stroke-linecap="round" stroke-linejoin="round">
    <path d="M-160.277,659.515a3,3,0,0,1-2.923-3.066,3.249,3.249,0,0,1,.031-.449h5.783a3.246,3.246,0,0,1,.031.449A3,3,0,0,1-160.277,659.515Z" stroke="none"/>
    <path d="M -160.2767181396484 658.0152587890625 C -159.8591613769531 658.0152587890625 -159.4830474853516 657.8163452148438 -159.2225189208984 657.5001220703125 L -161.3309173583984 657.5001220703125 C -161.0703887939453 657.8163452148438 -160.6942749023438 658.0152587890625 -160.2767181396484 658.0152587890625 M -160.2767181396484 659.5152587890625 C -161.8884429931641 659.5152587890625 -163.19970703125 658.1399536132812 -163.19970703125 656.449462890625 C -163.19970703125 656.29931640625 -163.189208984375 656.1480712890625 -163.1684722900391 656.0001220703125 L -157.3849792480469 656.0001220703125 C -157.3638763427734 656.1507568359375 -157.3537292480469 656.3016357421875 -157.3537292480469 656.449462890625 C -157.3537292480469 658.1399536132812 -158.6649780273438 659.5152587890625 -160.2767181396484 659.5152587890625 Z" stroke="none" fill="#06a086"/>
  </g>
</svg>
