<svg id="ico-joinorders" xmlns="http://www.w3.org/2000/svg" width="20" height="20" viewBox="0 0 20 20">
  <g id="Grupo_8111" data-name="Grupo 8111" transform="translate(-276.092 -609.232)">
    <rect id="Rect치ngulo_3341" data-name="Rect치ngulo 3341" width="20" height="20" transform="translate(276.092 609.232)" fill="none"/>
  </g>
  <g id="Grupo_8114" data-name="Grupo 8114" transform="translate(-305.755 -609.232)">
    <g id="Grupo_8113" data-name="Grupo 8113">
      <path id="Trazado_2875" data-name="Trazado 2875" d="M323.172,613.51l-3.019-3.016a1.727,1.727,0,0,0-1.219-.507H311.6a1.732,1.732,0,0,0-1.725,1.729v9.691H306.93a1.021,1.021,0,0,0-1.022,1.021v5.742a1.021,1.021,0,0,0,1.022,1.021h12.12a1.006,1.006,0,0,0,.976-.8h1.924a1.726,1.726,0,0,0,1.722-1.725V614.732A1.737,1.737,0,0,0,323.172,613.51Zm-4.1-1.654,2.738,2.731h-2.738Zm-6.68,13.973-2.306,2.306a.75.75,0,1,1-1.06-1.061l.992-.992h-2.832a.75.75,0,0,1,0-1.5h2.9l-1.058-1.058a.75.75,0,0,1,1.06-1.061l2.306,2.306A.772.772,0,0,1,312.392,625.829Zm6.4.188h-2.9l1.058,1.057a.75.75,0,0,1-1.061,1.061l-2.3-2.3a.771.771,0,0,1,0-1.061l2.3-2.306a.75.75,0,1,1,1.061,1.061l-.993.993h2.833a.75.75,0,1,1,0,1.5Zm3.156.653h-1.878v-4.242a1.022,1.022,0,0,0-1.022-1.021H311.6v-9.691h5.752v3.738a.86.86,0,0,0,.859.863h3.742Z" fill="#707070"/>
      <rect id="Rect치ngulo_3343" data-name="Rect치ngulo 3343" width="6" height="2" transform="translate(313.774 618.138)" fill="#707070"/>
    </g>
  </g>
</svg>
