<svg id="ico-convertir-correctivo" xmlns="http://www.w3.org/2000/svg" width="20" height="20" viewBox="0 0 20 20">
  <g id="Grupo_8117" data-name="Grupo 8117" transform="translate(-353.018 -609.232)">
    <rect id="Rectángulo_3346" data-name="Rectángulo 3346" width="20" height="20" transform="translate(353.018 609.232)" fill="none"/>
  </g>
  <path id="Trazado_2917" data-name="Trazado 2917" d="M430.578,617.267l-1.84-.656-.2-.481.841-1.765a1,1,0,0,0-.2-1.138l-1.611-1.611a1,1,0,0,0-1.136-.2l-1.765.838-.481-.2-.653-1.843a1,1,0,0,0-.943-.666h-2.279a1,1,0,0,0-.942.664l-.656,1.841-.481.2-1.767-.841a1,1,0,0,0-1.136.2l-1.613,1.611a1,1,0,0,0-.2,1.136l.838,1.766-.2.48-1.844.654a1,1,0,0,0-.666.942v2.28a1,1,0,0,0,.385.786,1.457,1.457,0,0,0-.693,1.239v5.173a1.464,1.464,0,0,0,1.464,1.464h5.172a1.46,1.46,0,0,0,1.317-.835l.059.168a1,1,0,0,0,.943.666h2.279a1,1,0,0,0,.942-.664l.656-1.841.481-.2,1.766.842a.985.985,0,0,0,.436.089.491.491,0,0,0,.529-.112l1.922-1.923a.49.49,0,0,0,.128-.445.97.97,0,0,0-.07-.552l-.837-1.766.2-.48,1.844-.654a1,1,0,0,0,.666-.942v-2.28A1,1,0,0,0,430.578,617.267Zm-12.309,8.349-2.306,2.306a.75.75,0,0,1-1.061-1.061l.993-.993h-2.832a.75.75,0,0,1,0-1.5h2.9l-1.058-1.057a.75.75,0,0,1,1.061-1.061l2.306,2.3A.773.773,0,0,1,418.269,625.616Zm4.5-8.3-.842-.841a2.948,2.948,0,0,1,2.263,4.01.5.5,0,0,0,.111.539l3.953,3.953-1.215,1.215-3.953-3.953a.5.5,0,0,0-.539-.11,2.949,2.949,0,0,1-4.01-2.264l.842.842a.507.507,0,0,0,.483.13l2.116-.567a.5.5,0,0,0,.353-.355l.567-2.116A.5.5,0,0,0,422.766,617.314Zm.238,7.638a1,1,0,0,0-.561.588l-.568,1.6h-.867l-.567-1.6a1,1,0,0,0-.559-.59l-.436-.181V622.79a3.948,3.948,0,0,0,3.152.377l1.382,1.382Zm6.238-5.17-1.6.567a1,1,0,0,0-.59.559l-.427,1.03-1.4-1.4a3.949,3.949,0,0,0-4.577-5.022.5.5,0,0,0-.254.843l1.458,1.458-.417,1.559-1.558.418-1.458-1.458a.5.5,0,0,0-.5-.125.5.5,0,0,0-.346.378,3.947,3.947,0,0,0,.28,2.447h-1.964l-.057-.139a1,1,0,0,0-.588-.56l-1.6-.569V618.9l1.6-.567a1,1,0,0,0,.59-.559l.54-1.3a1.007,1.007,0,0,0-.021-.812l-.725-1.53.613-.613,1.53.728a1,1,0,0,0,.812.022l1.3-.538a1,1,0,0,0,.561-.589l.568-1.6h.867l.567,1.6a1,1,0,0,0,.558.589l1.3.541a1,1,0,0,0,.813-.02l1.529-.726.614.614-.728,1.529a.991.991,0,0,0-.022.812l.538,1.3a1,1,0,0,0,.588.56l1.6.568Z" transform="translate(-411.242 -609.547)" fill="#666"/>
</svg>
