<svg xmlns="http://www.w3.org/2000/svg" width="16.023" height="16.048" viewBox="0 0 16.023 16.048">
  <g id="ico_hidden" transform="translate(0.012)">
    <rect id="Rectángulo_2461" data-name="Rectángulo 2461" width="16" height="16" transform="translate(0)" fill="none"/>
    <g id="Trazado_2414" data-name="Trazado 2414" transform="translate(0 2)" fill="none">
      <path d="M8,0c4.418,0,8.006,3.465,8,6s-3.582,6-8,6S0,8.458,0,6,3.582,0,8,0Z" stroke="none"/>
      <path d="M 7.999997138977051 1.5 C 6.350227355957031 1.5 4.63603687286377 2.132749557495117 3.296967506408691 3.236020088195801 C 2.06232738494873 4.25324010848999 1.499997138977051 5.381849765777588 1.499997138977051 6 C 1.499997138977051 6.618150234222412 2.06232738494873 7.74675989151001 3.296967506408691 8.763979911804199 C 4.63603687286377 9.867250442504883 6.350227355957031 10.5 7.999997138977051 10.5 C 11.74941730499268 10.5 14.49662685394287 7.538280010223389 14.49999713897705 5.996709823608398 C 14.50110721588135 5.493229866027832 14.16990661621094 4.622139930725098 13.23706722259521 3.687250137329102 C 11.8704776763916 2.317660331726074 9.912696838378906 1.5 7.999997138977051 1.5 M 7.999997138977051 0 C 12.4182767868042 0 16.00555801391602 3.464630126953125 15.99999713897705 6 C 15.99444675445557 8.535369873046875 12.4182767868042 12 7.999997138977051 12 C 3.581727027893066 12 -3.814697265625e-06 8.457779884338379 -3.814697265625e-06 6 C -3.814697265625e-06 3.542220115661621 3.581727027893066 0 7.999997138977051 0 Z" stroke="none" fill="#6a6b75"/>
    </g>
    <g id="Elipse_444" data-name="Elipse 444" transform="translate(5 5)" fill="#6a6b75" stroke="#6a6b75" stroke-width="1">
      <circle cx="3" cy="3" r="3" stroke="none"/>
      <circle cx="3" cy="3" r="2.5" fill="none"/>
    </g>
    <line id="Línea_953" data-name="Línea 953" x2="15" y2="14" transform="translate(0.5 1.5)" fill="none" stroke="#6a6b75" stroke-width="1.5"/>
  </g>
</svg>
