<svg id="ico-rescindido" xmlns="http://www.w3.org/2000/svg" width="20.001" height="20" viewBox="0 0 20.001 20">
  <rect id="Rectángulo_3135" data-name="Rectángulo 3135" width="20" height="20" transform="translate(0.001)" fill="none"/>
  <g id="Grupo_7881" data-name="Grupo 7881" transform="translate(-277.896 -517.854)">
    <rect id="Rectángulo_3136" data-name="Rectángulo 3136" width="7" height="1.5" transform="translate(284.897 522.106)" fill="#666"/>
    <path id="Trazado_2784" data-name="Trazado 2784" d="M297.64,535.493v-3.67l-.756.005s-.646.005-1.177.006c.046-1.184.042-3.456.036-7.913l0-2.752c.011-.092.017-.185.019-.28a2.71,2.71,0,0,0-2.618-2.759c-.327-.035-2.261-.028-6.293-.008-2.7.013-5.484.026-6.325.006a2.093,2.093,0,0,0-.408-.019,2.062,2.062,0,0,0-1.031.347c-.048.023-.1.033-.143.058l.015.029a2.046,2.046,0,0,0-.808,1.731V524.6H281c.008.795.021,2.145.03,3.622a5,5,0,0,0,1.868,9.631,4.943,4.943,0,0,0,1.491-.251h0c.013,0,.023,0,.036,0H294.8a3.045,3.045,0,0,0,2.445-.858A1.724,1.724,0,0,0,297.64,535.493ZM280.985,523.1h-1.337v-2.885a.563.563,0,0,1,.228-.477.9.9,0,0,1,.769-.029,1.075,1.075,0,0,1,.345.943H281C280.965,521.014,280.97,521.7,280.985,523.1Zm4.274,10.7a1,1,0,1,1-1.414,1.414l-.949-.948-.948.948a1,1,0,0,1-1.414-1.414l.948-.948-.948-.948a1,1,0,0,1,1.414-1.414l.948.948.949-.948a1,1,0,0,1,1.414,1.414l-.949.948Zm-.362-5.7v.171a4.964,4.964,0,0,0-2-.423c-.126,0-.245.029-.37.038-.014-2.113-.035-3.886-.037-4.05l0-.4h0c-.011-.961-.016-2.017-.012-2.482l.012-.31a3.226,3.226,0,0,0-.168-1.015c1.255,0,2.906-.008,4.534-.016,2.585-.012,5.8-.03,6.2,0a1.225,1.225,0,0,1,1.206,1.239c0,.051-.005.1-.011.152l-.008.052,0,2.854c0,2.507.01,6.378,0,7.935l-6.45.019a4.955,4.955,0,0,0-1.129-2.271H291.9v-1.5Zm11.2,7.673c-.063.075-.341.32-1.294.32h-8.127a4.949,4.949,0,0,0,1.173-2.723l7.425-.022v-.041c.23.01.5.015.871.018v2.21l.012.133A.481.481,0,0,1,296.092,535.779Z" fill="#666"/>
    <rect id="Rectángulo_3137" data-name="Rectángulo 3137" width="7" height="1.5" transform="translate(284.897 525.106)" fill="#666"/>
  </g>
</svg>
