<svg id="ico-estados" xmlns="http://www.w3.org/2000/svg" width="20" height="20" viewBox="0 0 20 20">
  <rect id="Rect치ngulo_198" data-name="Rect치ngulo 198" width="20" height="20" fill="none"/>
  <g id="Rect치ngulo_2431" data-name="Rect치ngulo 2431" transform="translate(0 5)" fill="#fff" stroke="#6a6b75" stroke-width="2">
    <rect width="20" height="10" rx="5" stroke="none"/>
    <rect x="1" y="1" width="18" height="8" rx="4" fill="none"/>
  </g>
  <g id="Trazado_2378" data-name="Trazado 2378" transform="translate(0 5)" fill="#6a6b75">
    <path d="M 9.265522003173828 9.5 L 5 9.5 C 2.51869010925293 9.5 0.5 7.48130989074707 0.5 5 C 0.5 2.51869010925293 2.51869010925293 0.5 5 0.5 L 11.3696231842041 0.5 L 9.265522003173828 9.5 Z" stroke="none"/>
    <path d="M 5 1 C 2.794389724731445 1 1 2.794390201568604 1 5 C 1 7.205610275268555 2.794389724731445 9 5 9 L 8.868936538696289 9 L 10.73924922943115 1 L 5 1 M 5 0 L 12 0 L 9.662110328674316 10 L 5 10 C 2.238579750061035 10 0 7.761420249938965 0 5 C 0 2.238580226898193 2.238579750061035 0 5 0 Z" stroke="none" fill="#707070"/>
  </g>
</svg>
