<svg xmlns="http://www.w3.org/2000/svg" width="24.509" height="23.512" viewBox="0 0 24.509 23.512">
  <path id="launch" d="M13.564,19.863,11.842,15h-.426q-.148.449-.444,1.289T10.547,17.5H8.29v1.25a1.226,1.226,0,0,1-.352.889A1.131,1.131,0,0,1,7.1,20a1.093,1.093,0,0,1-.833-.371,1.252,1.252,0,0,1-.342-.879V17.5H3.645q-.111-.371-.407-1.211T2.794,15H2.368L.647,19.863A1.179,1.179,0,0,1,0,18.75V15q0-.527.944-1.514T2.368,12.5a22.71,22.71,0,0,1,.6-5.215A17.353,17.353,0,0,1,4.663,2.773,7.294,7.294,0,0,1,7.105,0,7.306,7.306,0,0,1,9.548,2.773a17.315,17.315,0,0,1,1.693,4.512,22.729,22.729,0,0,1,.6,5.215q.481,0,1.425.986T14.211,15v3.75A1.179,1.179,0,0,1,13.564,19.863ZM7.105,5a2.224,2.224,0,0,0-1.675.732A2.475,2.475,0,0,0,4.737,7.5a2.481,2.481,0,0,0,.694,1.768,2.281,2.281,0,0,0,3.35,0A2.481,2.481,0,0,0,9.474,7.5,2.475,2.475,0,0,0,8.78,5.732,2.224,2.224,0,0,0,7.105,5Z" transform="matrix(0.616, 0.788, -0.788, 0.616, 15.76, 0)" fill="#b1b1b1"/>
</svg>
