<svg id="ico-move" xmlns="http://www.w3.org/2000/svg" width="20" height="20" viewBox="0 0 20 20">
  <rect id="Rectángulo_3828" data-name="Rectángulo 3828" width="20" height="20" fill="none"/>
  <g id="Trazado_3021" data-name="Trazado 3021" transform="translate(3.773 0.511)" fill="none">
    <path d="M0,0H9.4l5.824,4.791v13.7H0Z" stroke="none"/>
    <path d="M 2.000003814697266 1.999998092651367 L 2.000003814697266 16.48925971984863 L 13.22644424438477 16.48925971984863 L 13.22644424438477 5.73513126373291 L 8.685243606567383 1.999998092651367 L 2.000003814697266 1.999998092651367 M 3.814697265625e-06 -1.9073486328125e-06 L 9.402084350585938 -1.9073486328125e-06 L 15.22644424438477 4.790529251098633 L 15.22644424438477 18.48925971984863 L 3.814697265625e-06 18.48925971984863 L 3.814697265625e-06 -1.9073486328125e-06 Z" stroke="none" fill="#6a6b75"/>
  </g>
  <rect id="Rectángulo_3830" data-name="Rectángulo 3830" width="10" height="10" rx="2" transform="translate(0 9)" fill="#6a6b75"/>
  <path id="Unión_43" data-name="Unión 43" d="M-2803.679,1785.279a.931.931,0,0,1-.17-1.322l.7-.891H-2806a1,1,0,0,1-1-1,1,1,0,0,1,1-1h2.5l-.358-.376a1,1,0,0,1,.034-1.414,1,1,0,0,1,1.414.034l1.967,2.066c.023.025.045.05.066.077a.93.93,0,0,1,.21.608,1,1,0,0,1-.081.4,1,1,0,0,1-.309.4l-1.778,2.254a.962.962,0,0,1-.759.365A.964.964,0,0,1-2803.679,1785.279Z" transform="translate(2808.085 -1768.066)" fill="#fff"/>
</svg>
