<svg id="ico-lock-16px" xmlns="http://www.w3.org/2000/svg" width="16" height="16" viewBox="0 0 16 16">
  <rect id="Rectángulo_324" data-name="Rectángulo 324" width="16" height="16" fill="none"/>
  <g id="Grupo_1742" data-name="Grupo 1742" transform="translate(2.474)">
    <g id="Trazado_1292" data-name="Trazado 1292" transform="translate(1.965 0)" fill="none">
      <path d="M3.679,0A3.723,3.723,0,0,1,7.358,3.765v4.9c0,.061-7.278.071-7.358,0v-4.9A3.723,3.723,0,0,1,3.679,0Z" stroke="none"/>
      <path d="M 3.678831100463867 1.499999523162842 C 2.477421283721924 1.499999523162842 1.500000953674316 2.515939712524414 1.500000953674316 3.76470947265625 L 1.500000953674316 7.204569816589355 C 2.008777618408203 7.209265232086182 2.67147159576416 7.21243953704834 3.502541065216064 7.21243953704834 C 4.42125415802002 7.21243953704834 5.23087215423584 7.208405494689941 5.857661247253418 7.202347278594971 L 5.857661247253418 3.76470947265625 C 5.857661247253418 2.515939712524414 4.880241394042969 1.499999523162842 3.678831100463867 1.499999523162842 M 3.678831100463867 0 C 5.710591316223145 0 7.357661247253418 1.685519695281982 7.357661247253418 3.76470947265625 L 7.357661247253418 8.66270923614502 C 7.35789966583252 8.694465637207031 5.398977279663086 8.712437629699707 3.502541542053223 8.712437629699707 C 1.743541717529297 8.712437629699707 0.0383000373840332 8.696975708007812 9.5367431640625e-07 8.66270923614502 L 9.5367431640625e-07 3.76470947265625 C 9.5367431640625e-07 1.685519695281982 1.647071361541748 0 3.678831100463867 0 Z" stroke="none" fill="#6a6b75"/>
    </g>
    <g id="Rectángulo_143" data-name="Rectángulo 143" transform="translate(0 7.529)" fill="none" stroke="#6a6b75" stroke-linecap="round" stroke-linejoin="round" stroke-width="1.5">
      <rect width="11.288" height="8.471" stroke="none"/>
      <rect x="0.75" y="0.75" width="9.788" height="6.971" fill="none"/>
    </g>
  </g>
  <circle id="Elipse_175" data-name="Elipse 175" cx="1.263" cy="1.263" r="1.263" transform="translate(6.854 10.105)" fill="#6a6b75"/>
  <line id="Línea_319" data-name="Línea 319" y2="1.684" transform="translate(8.117 12.211)" fill="none" stroke="#6a6b75" stroke-width="1"/>
</svg>
