<svg id="ico-kpi" xmlns="http://www.w3.org/2000/svg" width="20" height="20" viewBox="0 0 20 20">
  <rect id="Rectángulo_3064" data-name="Rectángulo 3064" width="20" height="20" fill="none"/>
  <path id="Trazado_2700" data-name="Trazado 2700" d="M1,12H12a1,1,0,0,0,0-2H1a1,1,0,0,0,0,2M1,7H9A1,1,0,0,0,9,5H1A1,1,0,0,0,1,7M0,1H0A1,1,0,0,0,1,2H6.563a1,1,0,0,0,0-2H1A1,1,0,0,0,0,1" transform="translate(5.796 14.796) rotate(-90)" fill="#707070"/>
  <path id="Trazado_2711" data-name="Trazado 2711" d="M73.535,591.857v14.55l15.489-.007" transform="translate(-71 -589)" fill="none" stroke="#707070" stroke-linecap="round" stroke-width="2"/>
</svg>
