<svg id="ico-no-rescindido" xmlns="http://www.w3.org/2000/svg" width="20" height="20" viewBox="0 0 20 20">
  <g id="ico-no-rescindido-2" data-name="ico-no-rescindido">
    <rect id="Rectángulo_3132" data-name="Rectángulo 3132" width="20" height="20" transform="translate(0)" fill="none"/>
    <g id="Grupo_7879" data-name="Grupo 7879" transform="translate(-254.454 -517.854)">
      <path id="Trazado_2783" data-name="Trazado 2783" d="M274.2,535.493v-3.67l-.755.005s-.646.005-1.177.006c.046-1.184.042-3.456.035-7.913l0-2.751c.011-.092.017-.186.019-.281a2.711,2.711,0,0,0-2.618-2.759c-.327-.035-2.261-.028-6.293-.008-2.7.013-5.485.026-6.325.006a1.95,1.95,0,0,0-.408-.019,2.057,2.057,0,0,0-1.025.345c-.05.023-.1.034-.149.06l.015.029a2.075,2.075,0,0,0-.808,1.731V524.6h2.849c.008.795.021,2.145.031,3.622a5,5,0,0,0,1.868,9.631,4.943,4.943,0,0,0,1.491-.251h0c.013,0,.023,0,.037,0h10.373a3.045,3.045,0,0,0,2.445-.858A1.723,1.723,0,0,0,274.2,535.493ZM257.543,523.1h-1.337v-2.885a.567.567,0,0,1,.227-.476.908.908,0,0,1,.77-.031,1.082,1.082,0,0,1,.345.944h.007C257.523,521.012,257.528,521.7,257.543,523.1Zm4.9,8.573-3.138,3.662a1,1,0,0,1-1.519,0l-1.743-2.035a1,1,0,1,1,1.518-1.3l.984,1.147,2.379-2.774a1,1,0,0,1,1.519,1.3Zm-.988-3.568v.171a4.964,4.964,0,0,0-2-.423c-.126,0-.245.029-.37.038-.014-2.113-.035-3.886-.037-4.05l-.005-.4h.005c-.01-.963-.016-2.022-.012-2.486l.012-.306a3.225,3.225,0,0,0-.168-1.015c1.254,0,2.9-.008,4.535-.016,2.584-.012,5.8-.03,6.2,0a1.224,1.224,0,0,1,1.206,1.239,1.272,1.272,0,0,1-.012.152l-.007.052,0,2.854c0,2.507.01,6.378.005,7.935l-6.45.019a4.955,4.955,0,0,0-1.129-2.271h5.228v-1.5Zm11.181,7.69c-.068.071-.361.3-1.28.3l-8.127,0a4.957,4.957,0,0,0,1.173-2.724l7.425-.022v-.037c.23.009.506.013.873.014l0,2.306A.22.22,0,0,1,272.636,535.8Z" fill="#666"/>
      <rect id="Rectángulo_3133" data-name="Rectángulo 3133" width="7" height="1.5" transform="translate(261.455 522.106)" fill="#666"/>
      <rect id="Rectángulo_3134" data-name="Rectángulo 3134" width="7" height="1.5" transform="translate(261.455 525.106)" fill="#666"/>
    </g>
  </g>
</svg>
