<svg xmlns="http://www.w3.org/2000/svg" width="20" height="20" viewBox="0 0 20 20"><rect width="20" height="20" fill="none"/><path d="M134.792-258H132v-13h17v13H138.858l-4.066,4.066Z" transform="translate(-130.5 272.5)" fill="none" stroke="#6a6b75" stroke-linejoin="round" stroke-width="1.6"/><g transform="translate(0.6 -0.911)"><path d="M-3.318-4.38a.743.743,0,0,1,.167-.444.472.472,0,0,1,.377-.224.5.5,0,0,1,.281.114,3.215,3.215,0,0,1,.305.253,1.41,1.41,0,0,0,.424.253,1.582,1.582,0,0,0,.61.114,1.316,1.316,0,0,0,.763-.21.7.7,0,0,0,.305-.62.832.832,0,0,0-.167-.51A1.327,1.327,0,0,0-.69-6.026q-.272-.148-.6-.286t-.653-.31a3.813,3.813,0,0,1-.6-.386,1.546,1.546,0,0,1-.439-.572A1.907,1.907,0,0,1-3.146-8.4a1.874,1.874,0,0,1,.205-.892,1.546,1.546,0,0,1,.548-.6,2.59,2.59,0,0,1,.734-.315,3.334,3.334,0,0,1,.83-.1,4.386,4.386,0,0,1,.525.033,4.938,4.938,0,0,1,.587.11,1.247,1.247,0,0,1,.506.238.483.483,0,0,1,.2.382.848.848,0,0,1-.134.434.407.407,0,0,1-.362.224,1.8,1.8,0,0,1-.467-.181,1.954,1.954,0,0,0-.849-.181,1.384,1.384,0,0,0-.8.2.621.621,0,0,0-.281.539.628.628,0,0,0,.229.482A1.8,1.8,0,0,0-1.11-7.7q.339.129.734.324a6.258,6.258,0,0,1,.734.424,1.78,1.78,0,0,1,.568.663,2.147,2.147,0,0,1,.229,1.016A1.912,1.912,0,0,1,.531-3.736,2.431,2.431,0,0,1-1.115-3.2a3.075,3.075,0,0,1-1.555-.372Q-3.318-3.942-3.318-4.38Z" transform="translate(10.733 15.637)" fill="#6a6b75" stroke="#6a6b75" stroke-width="0.25"/><line y1="0.902" transform="translate(9.232 4.906)" fill="none" stroke="#6a6b75" stroke-linecap="round" stroke-width="1.5"/><line y1="0.902" transform="translate(9.232 12.125)" fill="none" stroke="#6a6b75" stroke-linecap="round" stroke-width="1.5"/></g></svg>