<svg id="ico_notifications_gr" xmlns="http://www.w3.org/2000/svg" width="20" height="20" viewBox="0 0 20 20">
  <rect id="Rectángulo_1772" data-name="Rectángulo 1772" width="20" height="20" fill="none"/>
  <g id="ico_bell" transform="translate(2 1)">
    <g id="Trazado_1334" data-name="Trazado 1334" transform="translate(0 1)" fill="none">
      <path d="M8,0c4.418,0,7.2,3.358,7.2,7.5v3.733L16,15H0l.8-3.946V7.5C.8,3.358,3.582,0,8,0Z" stroke="none"/>
      <path d="M 8 2 C 6.456520080566406 2 5.147870063781738 2.536069869995117 4.215510368347168 3.550259590148926 C 3.302709579467773 4.543190002441406 2.800000190734863 5.945899963378906 2.800000190734863 7.5 L 2.800000190734863 11.05420970916748 L 2.800000190734863 11.25492000579834 L 2.760120391845703 11.45162010192871 L 2.446189880371094 13 L 13.53064727783203 13 L 13.24362945556641 11.64851951599121 L 13.19999980926514 11.44306945800781 L 13.19999980926514 11.23303985595703 L 13.19999980926514 7.5 C 13.19999980926514 5.945899963378906 12.69729042053223 4.543190002441406 11.78449058532715 3.550259590148926 C 10.85212993621826 2.536069869995117 9.543479919433594 2 8 2 M 8 0 C 12.41827964782715 0 15.19999980926514 3.35785961151123 15.19999980926514 7.5 L 15.19999980926514 11.23303985595703 L 16 15 L 0 15 L 0.8000001907348633 11.05420970916748 L 0.8000001907348633 7.5 C 0.8000001907348633 3.35785961151123 3.581720352172852 0 8 0 Z" stroke="none" fill="#06a086"/>
    </g>
    <path id="Sustracción_6" data-name="Sustracción 6" d="M4,2H0A2,2,0,0,1,4,2Z" transform="translate(6)" fill="#06a086"/>
    <path id="Sustracción_7" data-name="Sustracción 7" d="M3.886,3H.114A2.5,2.5,0,0,1,0,2.25,2.139,2.139,0,0,1,2,0,2.138,2.138,0,0,1,4,2.25,2.5,2.5,0,0,1,3.886,3Z" transform="translate(10 18) rotate(180)" fill="#06a086"/>
  </g>
</svg>
