<svg id="ico-data" xmlns="http://www.w3.org/2000/svg" width="20" height="20" viewBox="0 0 20 20">
  <g id="Grupo_2227" data-name="Grupo 2227" transform="translate(-642 -640)">
    <rect id="Rect치ngulo_566" data-name="Rect치ngulo 566" width="20" height="20" transform="translate(642 640)" fill="none"/>
    <g id="Grupo_1341" data-name="Grupo 1341" transform="translate(643 640.667)">
      <g id="Uni칩n_2" data-name="Uni칩n 2" transform="translate(0 -0.667)" fill="none">
        <path d="M.011,16.943H0V3.215H0C0,1.439,4.029,0,9,0s9,1.439,9,3.214h0V16.943h-.01C17.76,18.646,13.823,20,9,20S.241,18.646.011,16.943Z" stroke="none"/>
        <path d="M 9.000129699707031 18.5 C 10.9909200668335 18.5 12.90559959411621 18.25151062011719 14.39148998260498 17.8003101348877 C 15.81690788269043 17.36746597290039 16.3792839050293 16.88945007324219 16.5 16.71413612365723 L 16.5 3.286397933959961 C 16.3795108795166 3.111234188079834 15.81707763671875 2.632937431335449 14.39101028442383 2.199840068817139 C 12.90503025054932 1.748540043830872 10.99050998687744 1.5 9.000129699707031 1.5 C 7.009640216827393 1.5 5.095049858093262 1.748540043830872 3.60903000831604 2.199840068817139 C 2.182943344116211 2.632937431335449 1.620491027832031 3.111234664916992 1.5 3.28639817237854 L 1.5 16.71374320983887 C 1.620120644569397 16.88872146606445 2.182249784469604 17.36712837219238 3.608779907226562 17.8003101348877 C 5.094659805297852 18.25151062011719 7.009339809417725 18.5 9.000129699707031 18.5 M 9.000129699707031 20 C 4.177030086517334 20 0.2405399978160858 18.64566993713379 0.0106800002977252 16.94321060180664 L 0 16.94321060180664 L 0 3.214970111846924 C 0 3.214750051498413 0 3.21451997756958 0 3.214299917221069 C 0 1.439350008964539 4.029129981994629 0 9.000129699707031 0 C 13.97087001800537 0 18 1.439350008964539 18 3.214299917221069 C 18 3.21451997756958 18 3.214750051498413 18 3.214970111846924 L 18 16.94321060180664 L 17.98958969116211 16.94321060180664 C 17.75972938537598 18.64566993713379 13.82322978973389 20 9.000129699707031 20 Z" stroke="none" fill="#06a086"/>
      </g>
      <path id="Trazado_843" data-name="Trazado 843" d="M-2974.188,1432.142a16.8,16.8,0,0,0,8.4,1.875,18.143,18.143,0,0,0,8.317-1.875" transform="translate(2974.797 -1419.809)" fill="none" stroke="#06a086" stroke-width="1.5"/>
      <path id="Trazado_844" data-name="Trazado 844" d="M-2974.188,1432.142a16.8,16.8,0,0,0,8.4,1.875,18.143,18.143,0,0,0,8.317-1.875" transform="translate(2974.797 -1424.809)" fill="none" stroke="#06a086" stroke-width="1.5"/>
      <path id="Trazado_845" data-name="Trazado 845" d="M-2974.188,1432.142a16.8,16.8,0,0,0,8.4,1.875,18.143,18.143,0,0,0,8.317-1.875" transform="translate(2974.797 -1429.809)" fill="none" stroke="#06a086" stroke-width="1.5"/>
    </g>
  </g>
</svg>
