<svg id="Grupo_7475" data-name="Grupo 7475" xmlns="http://www.w3.org/2000/svg" xmlns:xlink="http://www.w3.org/1999/xlink" width="19.999" height="20" viewBox="0 0 19.999 20">
  <defs>
    <clipPath id="clip-path">
      <path id="Trazado_1871" data-name="Trazado 1871" d="M0-32H20v20H0Z" transform="translate(0 32.001)" fill="#06a086"/>
    </clipPath>
  </defs>
  <g id="Grupo_3459" data-name="Grupo 3459" clip-path="url(#clip-path)">
    <g id="Grupo_3457" data-name="Grupo 3457" transform="translate(0 0)">
      <path id="Trazado_1869" data-name="Trazado 1869" d="M-11.251-6.375a.624.624,0,0,1-.625.625h-2a6.209,6.209,0,0,1-.912,2.195l1.417,1.417a.624.624,0,0,1,0,.884l-.884.884a.624.624,0,0,1-.884,0l-1.416-1.416a6.225,6.225,0,0,1-2.195.911v2a.624.624,0,0,1-.625.625h-1.25a.625.625,0,0,1-.625-.625v-2a6.225,6.225,0,0,1-2.195-.911L-24.862-.37a.624.624,0,0,1-.884,0l-.884-.884a.625.625,0,0,1,0-.884l1.417-1.417a6.209,6.209,0,0,1-.912-2.195h-2a.624.624,0,0,1-.625-.625v-1.25a.624.624,0,0,1,.625-.625h2a6.225,6.225,0,0,1,.911-2.195l-1.416-1.416a.624.624,0,0,1,0-.884l.884-.884a.624.624,0,0,1,.884,0l1.416,1.416a6.209,6.209,0,0,1,2.195-.912v-2a.624.624,0,0,1,.625-.625h1.25a.624.624,0,0,1,.625.625v2a6.209,6.209,0,0,1,2.195.912l1.416-1.416a.623.623,0,0,1,.884,0l.884.884a.624.624,0,0,1,0,.884l-1.415,1.415a6.225,6.225,0,0,1,.911,2.195h2a.624.624,0,0,1,.625.625Zm0-3.125h-1.686a7.73,7.73,0,0,0-.3-.727l1.192-1.191a1.251,1.251,0,0,0,0-1.768l-1.769-1.769a1.25,1.25,0,0,0-1.767,0l-1.192,1.192a7.505,7.505,0,0,0-.727-.3v-1.684A1.25,1.25,0,0,0-18.75-17h-2.5A1.25,1.25,0,0,0-22.5-15.748v1.684a7.505,7.505,0,0,0-.727.3l-1.192-1.192a1.251,1.251,0,0,0-1.768,0l-1.769,1.769a1.25,1.25,0,0,0,0,1.767l1.192,1.192a7.731,7.731,0,0,0-.3.727H-28.75A1.25,1.25,0,0,0-30-8.25v2.5A1.25,1.25,0,0,0-28.75-4.5h1.686a7.572,7.572,0,0,0,.3.727L-27.956-2.58a1.25,1.25,0,0,0,0,1.767L-26.188.956a1.25,1.25,0,0,0,1.767,0l1.193-1.193a7.73,7.73,0,0,0,.727.3V1.75A1.25,1.25,0,0,0-21.25,3h2.5a1.251,1.251,0,0,0,1.25-1.25V.064a7.73,7.73,0,0,0,.727-.3L-15.581.955a1.25,1.25,0,0,0,1.767,0l1.769-1.768a1.251,1.251,0,0,0,0-1.767l-1.194-1.193a7.572,7.572,0,0,0,.3-.727h1.686A1.25,1.25,0,0,0-10-5.75v-2.5a1.25,1.25,0,0,0-1.25-1.25" transform="translate(30 16.999)" fill="#06a086"/>
    </g>
    <g id="Grupo_3458" data-name="Grupo 3458" transform="translate(6.25 6.249)">
      <path id="Trazado_1870" data-name="Trazado 1870" d="M-2.25-3.75a2.5,2.5,0,0,1-2.5-2.5,2.5,2.5,0,0,1,2.5-2.5,2.5,2.5,0,0,1,2.5,2.5,2.5,2.5,0,0,1-2.5,2.5m0-6.25A3.75,3.75,0,0,0-6-6.25,3.75,3.75,0,0,0-2.25-2.5,3.75,3.75,0,0,0,1.5-6.25,3.75,3.75,0,0,0-2.25-10" transform="translate(6 10)" fill="#06a086"/>
    </g>
  </g>
</svg>
