<svg id="ico-copy-20px" xmlns="http://www.w3.org/2000/svg" width="20" height="20.481" viewBox="0 0 20 20.481">
  <g id="Grupo_8503" data-name="Grupo 8503" transform="translate(-521 -912)">
    <rect id="Rect치ngulo_3828" data-name="Rect치ngulo 3828" width="20" height="20" transform="translate(521 912)" fill="none"/>
    <path id="Trazado_3023" data-name="Trazado 3023" d="M3334.969-863.674v-2.692h6.754l4.665,4.036v11.75h-4.037" transform="translate(-2807 1780)" fill="none" stroke="#6a6b75" stroke-width="2"/>
  </g>
  <path id="Uni칩n_44" data-name="Uni칩n 44" d="M-2803.679,1785.279a.931.931,0,0,1-.17-1.322l.7-.891h-4.491a1,1,0,0,1-1-1,1,1,0,0,1,1-1h4.137l-.358-.376a1,1,0,0,1,.034-1.414,1,1,0,0,1,1.414.034l1.967,2.066c.023.025.045.05.066.077a.93.93,0,0,1,.21.608,1,1,0,0,1-.081.4,1,1,0,0,1-.309.4l-1.778,2.254a.962.962,0,0,1-.759.365A.964.964,0,0,1-2803.679,1785.279Z" transform="translate(2816.085 -1770.238)" fill="#6a6b75"/>
  <path id="Trazado_3024" data-name="Trazado 3024" d="M3308.456-860.223l-3.07-3.061h-7.8v14.967h12.079v-2.871" transform="translate(-3296 867.798)" fill="none" stroke="#6a6b75" stroke-width="2"/>
</svg>
