<svg id="Componente_1929" data-name="Componente 1929" xmlns="http://www.w3.org/2000/svg" width="20" height="20" viewBox="0 0 20 20">
  <rect id="Rectángulo_2896" data-name="Rectángulo 2896" width="20" height="20" fill="none"/>
  <path id="Trazado_2704" data-name="Trazado 2704" d="M13.3,3.423,10.281.407A1.725,1.725,0,0,0,9.062-.1H1.725A1.731,1.731,0,0,0,0,1.629V16.583a1.726,1.726,0,0,0,1.725,1.725H12.078A1.726,1.726,0,0,0,13.8,16.583V4.645A1.734,1.734,0,0,0,13.3,3.423ZM11.938,4.5H9.2V1.769ZM1.725,16.583V1.629H7.477V5.367a.861.861,0,0,0,.863.863h3.738V16.583Z" transform="translate(3.098 0.949)" fill="#707070"/>
</svg>
