<svg xmlns="http://www.w3.org/2000/svg" xmlns:xlink="http://www.w3.org/1999/xlink" width="24.001" height="24" viewBox="0 0 24.001 24"><defs><style>.a{fill:#333;}.b{fill:none;}.c{clip-path:url(#a);}</style><clipPath id="a"><path class="a" d="M0-16H24V8H0Z" transform="translate(0 16)"/></clipPath></defs><g transform="translate(-398 -394)"><rect class="b" width="24.001" height="24" transform="translate(398 394)"/><g transform="translate(398.001 394)"><g class="c" transform="translate(0 0)"><path class="a" d="M7.5,5.5H-9.75L-13.5,9.25V-9.5h21ZM7.5-11h-21A1.5,1.5,0,0,0-15-9.5V13l6-6H7.5A1.5,1.5,0,0,0,9,5.5v-15A1.5,1.5,0,0,0,7.5-11" transform="translate(15 11)"/><path class="a" d="M16-9H4v1.5H16Z" transform="translate(2 19.5)"/><path class="a" d="M16-12H4v1.5H16Z" transform="translate(2 18)"/></g></g></g></svg>