<svg xmlns="http://www.w3.org/2000/svg" width="20.071" height="16.891" viewBox="0 0 20.071 16.891"><g transform="translate(-1594.118 -2275.803)"><path d="M-2997.416,1507.213h0a1,1,0,0,1-.71-.3l-2.466-2.5a1,1,0,0,1,.009-1.414,1,1,0,0,1,1.414.009l1.756,1.779,3.709-3.732a1,1,0,0,1,1.414,0,1,1,0,0,1,0,1.414l-4.421,4.448A1,1,0,0,1-2997.416,1507.213Z" transform="translate(4605.789 775.038)" fill="#06a086"/><path d="M3,1.6A1.4,1.4,0,0,0,1.6,3V4.771A1.4,1.4,0,0,0,3,6.171h8.19a1.4,1.4,0,0,0,1.4-1.4V3a1.4,1.4,0,0,0-1.4-1.4H3M3,0h8.19a3,3,0,0,1,3,3V4.771a3,3,0,0,1-3,3H3a3,3,0,0,1-3-3V3A3,3,0,0,1,3,0Z" transform="translate(1600 2284.923)" fill="#06a086"/><path d="M1603.873,2263.3h-8.954v-1.6h8.954Z" transform="translate(-0.729 17)" fill="#06a086"/><path d="M1600,2263.3h-5.882v-9.273h1.6v7.673H1600Z" transform="translate(0 26.047)" fill="#06a086"/></g></svg>