<svg id="ico-profile-20px" xmlns="http://www.w3.org/2000/svg" width="20.18" height="20" viewBox="0 0 20.18 20">
  <path id="Trazado_3005" data-name="Trazado 3005" d="M579.419,345.386l.283.8a4.377,4.377,0,0,1-.753.55l-.67-.515a3.541,3.541,0,0,1-.791.259l-.239.811a4.339,4.339,0,0,1-.93,0l-.239-.811a3.541,3.541,0,0,1-.791-.259l-.67.515a4.374,4.374,0,0,1-.753-.55l.283-.8a3.642,3.642,0,0,1-.49-.671l-.844.023a4.32,4.32,0,0,1-.29-.884l.7-.479a3.341,3.341,0,0,1,0-.832l-.7-.479a4.361,4.361,0,0,1,.29-.884l.844.023a3.642,3.642,0,0,1,.49-.671l-.283-.8a4.376,4.376,0,0,1,.753-.55l.67.516a3.544,3.544,0,0,1,.791-.26l.239-.81a4.171,4.171,0,0,1,.93,0l.239.81a3.544,3.544,0,0,1,.791.26l.67-.516a4.379,4.379,0,0,1,.753.55l-.283.8a3.642,3.642,0,0,1,.49.671l.844-.023a4.3,4.3,0,0,1,.29.884l-.7.479a3.341,3.341,0,0,1,0,.832l.7.479a4.258,4.258,0,0,1-.29.884l-.844-.023A3.642,3.642,0,0,1,579.419,345.386Zm-1.167-1.6.4.011a2.027,2.027,0,0,0,.136-.416l-.328-.225a1.587,1.587,0,0,0,0-.39l.328-.225a2.027,2.027,0,0,0-.136-.416l-.4.011a1.7,1.7,0,0,0-.231-.315l.133-.373a2.035,2.035,0,0,0-.353-.258l-.315.242a1.665,1.665,0,0,0-.371-.122l-.112-.381a1.982,1.982,0,0,0-.219-.012,1.953,1.953,0,0,0-.218.012l-.113.381a1.665,1.665,0,0,0-.371.122l-.315-.242a2.033,2.033,0,0,0-.353.258l.133.373a1.747,1.747,0,0,0-.231.315l-.4-.011a2.031,2.031,0,0,0-.136.416l.328.225a1.587,1.587,0,0,0,0,.39l-.328.225a2.031,2.031,0,0,0,.136.416l.4-.011a1.747,1.747,0,0,0,.231.315l-.133.373a2.09,2.09,0,0,0,.353.259l.315-.243a1.663,1.663,0,0,0,.371.122l.113.381a1.953,1.953,0,0,0,.218.012,1.982,1.982,0,0,0,.219-.012l.112-.381a1.663,1.663,0,0,0,.371-.122l.315.243a2.092,2.092,0,0,0,.353-.259l-.133-.373A1.7,1.7,0,0,0,578.252,343.784Z" transform="translate(-572.525 -337.802)" fill="#06a086"/>
  <rect id="Rect치ngulo_3111" data-name="Rect치ngulo 3111" width="19.932" height="20" transform="translate(0.068)" fill="none"/>
  <g id="Grupo_1794" data-name="Grupo 1794" transform="translate(6.191 2.762)">
    <path id="Trazado_65" data-name="Trazado 65" d="M591.815,354.057c.014.018.013,1.547,0,1.579,0,.314-.046,1.147-1.624,1.147H580.4c-1.091,0-1.614-.624-1.614-1.147v-1.579c0-.669.747-1.281,1.155-1.638,1.7-1.31,4.048-2.829,4.048-2.829h2.576s3.911,2.311,4.462,2.829A2.259,2.259,0,0,1,591.815,354.057Z" transform="translate(-578.784 -340.564)" fill="none" stroke="#06a086" stroke-width="1.5"/>
    <g id="Rect치ngulo_35" data-name="Rect치ngulo 35" transform="translate(2.687)">
      <path id="Trazado_2764" data-name="Trazado 2764" d="M585.555,340.564h0a3.922,3.922,0,0,1,3.917,3.923v1.858a3.922,3.922,0,0,1-3.917,3.923h0a3.923,3.923,0,0,1-3.918-3.923v-1.858A3.923,3.923,0,0,1,585.555,340.564Z" transform="translate(-581.637 -340.564)" fill="none" stroke="rgba(0,0,0,0)" stroke-width="1"/>
      <path id="Trazado_2765" data-name="Trazado 2765" d="M585.555,341.285h0a3.206,3.206,0,0,1,3.206,3.206v1.858a3.206,3.206,0,0,1-3.206,3.206h0a3.206,3.206,0,0,1-3.206-3.206v-1.858A3.206,3.206,0,0,1,585.555,341.285Z" transform="translate(-581.637 -340.564)" fill="none" stroke="#06a086" stroke-width="1.5"/>
    </g>
  </g>
  <path id="Trazado_3006" data-name="Trazado 3006" d="M582.033,350.5a6.843,6.843,0,0,0,3.478,1.392A4.746,4.746,0,0,0,588.9,350.5" transform="translate(-572.574 -337.802)" fill="none" stroke="#06a086" stroke-miterlimit="10" stroke-width="1"/>
  <path id="Trazado_3007" data-name="Trazado 3007" d="M582.009,344.467a6.843,6.843,0,0,0,3.746.067,4.005,4.005,0,0,0,2.518-1.967" transform="translate(-572.572 -337.802)" fill="none" stroke="#06a086" stroke-miterlimit="10" stroke-width="1"/>
</svg>
