<svg xmlns="http://www.w3.org/2000/svg" width="30" height="30" viewBox="0 0 30 30">
  <g id="Grupo_7836" data-name="Grupo 7836" transform="translate(-1 -1)">
    <g id="Grupo_7627" data-name="Grupo 7627" transform="translate(0.505 0.505)">
      <rect id="Rect치ngulo_3029" data-name="Rect치ngulo 3029" width="30" height="30" rx="2" transform="translate(0.495 0.495)" fill="none"/>
    </g>
    <g id="ico-class" transform="translate(6 6)">
      <rect id="Rect치ngulo_185" data-name="Rect치ngulo 185" width="20" height="20" fill="none"/>
      <g id="Grupo_1564" data-name="Grupo 1564">
        <g id="Elipse_5" data-name="Elipse 5" transform="translate(7)" fill="none" stroke="#fff" stroke-width="1.5">
          <circle cx="3" cy="3" r="3" stroke="none"/>
          <circle cx="3" cy="3" r="2.25" fill="none"/>
        </g>
        <g id="Elipse_6" data-name="Elipse 6" transform="translate(7 14)" fill="none" stroke="#fff" stroke-width="1.5">
          <circle cx="3" cy="3" r="3" stroke="none"/>
          <circle cx="3" cy="3" r="2.25" fill="none"/>
        </g>
        <g id="Elipse_7" data-name="Elipse 7" transform="translate(0 14)" fill="none" stroke="#fff" stroke-width="1.5">
          <circle cx="3" cy="3" r="3" stroke="none"/>
          <circle cx="3" cy="3" r="2.25" fill="none"/>
        </g>
        <g id="Elipse_8" data-name="Elipse 8" transform="translate(14 14)" fill="none" stroke="#fff" stroke-width="1.5">
          <circle cx="3" cy="3" r="3" stroke="none"/>
          <circle cx="3" cy="3" r="2.25" fill="none"/>
        </g>
        <path id="Trazado_93" data-name="Trazado 93" d="M383,185.349v9.759" transform="translate(-373 -180)" fill="none" stroke="#fff" stroke-width="1.5"/>
        <path id="Trazado_94" data-name="Trazado 94" d="M376,194.276v-2.69c0-1.168.578-1.543,1.69-1.565s9.638,0,10.666,0a1.376,1.376,0,0,1,1.565,1.565v3.3" transform="translate(-373 -180)" fill="none" stroke="#fff" stroke-width="1.5"/>
      </g>
    </g>
  </g>
</svg>
