<svg id="ico-info-20px" xmlns="http://www.w3.org/2000/svg" width="20" height="20" viewBox="0 0 20 20">
  <g id="Grupo_6378" data-name="Grupo 6378" transform="translate(-788 -251)">
    <g id="ico-info" transform="translate(789 252)">
      <g id="Trazado_1467" data-name="Trazado 1467" fill="none">
        <path d="M9,0A9,9,0,1,1,0,9,9,9,0,0,1,9,0Z" stroke="none"/>
        <path d="M 9 2 C 5.140190124511719 2 2 5.140190124511719 2 9 C 2 12.85980987548828 5.140190124511719 16 9 16 C 12.85980987548828 16 16 12.85980987548828 16 9 C 16 5.140190124511719 12.85980987548828 2 9 2 M 9 0 C 13.97056007385254 0 18 4.029439926147461 18 9 C 18 13.97056007385254 13.97056007385254 18 9 18 C 4.029439926147461 18 0 13.97056007385254 0 9 C 0 4.029439926147461 4.029439926147461 0 9 0 Z" stroke="none" fill="#6a6b75"/>
      </g>
      <text id="I" transform="translate(9 13)" fill="#6a6b75" font-size="12" font-family="Roboto-Bold, Roboto" font-weight="700" letter-spacing="0.018em"><tspan x="-1.591" y="0">i</tspan></text>
    </g>
  </g>
  <rect id="Rectángulo_2442" data-name="Rectángulo 2442" width="20" height="20" fill="none"/>
</svg>
