<svg id="ico-block-16px" xmlns="http://www.w3.org/2000/svg" width="16" height="16" viewBox="0 0 16 16">
  <rect id="Rectángulo_3841" data-name="Rectángulo 3841" width="16" height="16" fill="none"/>
  <g id="Grupo_8505" data-name="Grupo 8505" transform="translate(-980.94 88.342)">
    <path id="Trazado_3048" data-name="Trazado 3048" d="M982.074-75.256l3.544,1.913,3.316-1.913,3.4,1.913,3.713-1.913v-4.158l-3.713-1.961v-4.17l-3.493-1.8-3.219,1.8v4.17l-3.544,1.961Z" transform="translate(-0.102)" fill="none" stroke="#212121" stroke-linejoin="round" stroke-width="1"/>
    <path id="Trazado_3049" data-name="Trazado 3049" d="M997.539-79.395l3.507,1.939,3.574-1.939" transform="translate(-12.168 -6.071)" fill="none" stroke="#212121" stroke-linejoin="round" stroke-width="1"/>
    <path id="Trazado_3050" data-name="Trazado 3050" d="M997.315-61.08l3.517,1.921,3.623-1.921" transform="translate(-11.995 -20.298)" fill="none" stroke="#212121" stroke-linejoin="round" stroke-width="1"/>
    <path id="Trazado_3051" data-name="Trazado 3051" d="M996.94-62.009l3.676,2.01,3.406-2.01" transform="translate(-15 -17.458)" fill="none" stroke="#212121" stroke-linejoin="round" stroke-width="1"/>
    <path id="Trazado_3052" data-name="Trazado 3052" d="M996.142-62.093l3.507,2.016,3.6-1.934" transform="translate(-7.424 -17.394)" fill="none" stroke="#212121" stroke-linejoin="round" stroke-width="1"/>
    <path id="Trazado_3053" data-name="Trazado 3053" d="M1011.9-71.217V-62.8" transform="translate(-23.06 -12.52)" fill="none" stroke="#212121" stroke-width="1"/>
    <path id="Trazado_3054" data-name="Trazado 3054" d="M997.568-44.869v4.057" transform="translate(-12.028 -32.647)" fill="none" stroke="#212121" stroke-width="1"/>
    <path id="Trazado_3055" data-name="Trazado 3055" d="M1027.9-43.1v4.188" transform="translate(-35.606 -34.428)" fill="none" stroke="#212121" stroke-width="1"/>
  </g>
</svg>
