<svg id="Componente_1929_1" data-name="Componente 1929 – 1" xmlns="http://www.w3.org/2000/svg" width="16.15" height="16" viewBox="0 0 16.15 16">
  <rect id="Rectángulo_3045" data-name="Rectángulo 3045" width="16" height="16" fill="none"/>
  <line id="Línea_1442" data-name="Línea 1442" x2="13.991" y2="13.058" transform="translate(1 1)" fill="none" stroke="#6a6b75" stroke-width="1.5"/>
  <path id="Trazado_2682" data-name="Trazado 2682" d="M11927.8,319.329l1.574-1.607" transform="translate(-11922.843 -308.625)" fill="none" stroke="#6a6b75" stroke-width="1.5"/>
  <path id="Trazado_2693" data-name="Trazado 2693" d="M11927.7,319.926l2.436-2.537" transform="translate(-11917.843 -313.625)" fill="none" stroke="#6a6b75" stroke-width="1.5"/>
  <path id="Trazado_2691" data-name="Trazado 2691" d="M804.843,513.528s1.86-1.956,2.7-2.8a2.8,2.8,0,0,1,3.683,0,2.418,2.418,0,0,1,.577,3.2c-.612.768-3.05,3.178-3.05,3.178" transform="translate(-797 -509)" fill="none" stroke="#6a6b75" stroke-width="1.6"/>
  <path id="Trazado_2692" data-name="Trazado 2692" d="M786.712,514.425l-2.4,2.44-1.4,5.3,5.208-1.7,2.386-2.513" transform="translate(-781.915 -507)" fill="none" stroke="#6a6b75" stroke-linejoin="round" stroke-width="1.6"/>
  <path id="Trazado_2694" data-name="Trazado 2694" d="M783.973,520.606l1.507,1.255-1.749.319Z" transform="translate(-782 -508)" fill="#6a6b75"/>
</svg>
