<svg xmlns="http://www.w3.org/2000/svg" width="195" height="350" viewBox="0 0 195 350">
  <g id="Grupo_7646" data-name="Grupo 7646" transform="translate(-274.605 -104.449)">
    <path id="Trazado_2758" data-name="Trazado 2758" d="M467.662,430.3c6.256-31.816-29.949-66.875-82.723-78.7s-101.3,4.246-108.39,35.887c0,0-3.887,22.648,24.995,27.326,40.575,6.572,39.254-7.322,50.033,8.542s15.865,22.373,43.729,8.949,47.593-8.745,56.136-5.694S467.319,432.039,467.662,430.3Z" fill="#6a6b75"/>
    <path id="Trazado_2759" data-name="Trazado 2759" d="M323.381,253.858c.311-5.506.739-11,1.374-16.468.655-5.471,1.443-10.922,2.454-16.343a198.507,198.507,0,0,1,8.644-32.038c3.876-10.446,8.7-20.73,15.778-30.126a69.678,69.678,0,0,1,5.846-6.775l1.673-1.581.838-.784.9-.749,1.816-1.48,1.953-1.38a35.237,35.237,0,0,1,8.824-4.409,30.036,30.036,0,0,1,10.176-1.484,29.382,29.382,0,0,1,9.88,2.274,33.275,33.275,0,0,1,8.115,4.974l1.743,1.484,1.6,1.573.792.789.73.826,1.449,1.651a65.224,65.224,0,0,1,4.937,6.984c5.853,9.6,9.448,19.877,12.114,30.221a188.575,188.575,0,0,1,5.053,31.372c.421,5.254.624,10.512.7,15.758.057,5.249-.086,10.489-.337,15.711-.312-5.222-.731-10.427-1.347-15.6-.636-5.173-1.395-10.321-2.363-15.42a183.461,183.461,0,0,0-8.152-29.812c-3.573-9.551-8.07-18.8-14.009-26.486a54.464,54.464,0,0,0-4.71-5.344l-1.276-1.162-.632-.582-.663-.522-1.315-1.04-1.356-.912a20.949,20.949,0,0,0-5.526-2.612,16.194,16.194,0,0,0-5.431-.623c-7,.528-13.5,6.815-18.129,14.71-4.713,7.891-7.982,17.133-10.344,26.58a176.814,176.814,0,0,0-4.561,29.147c-.379,4.932-.553,9.887-.611,14.836-.038,4.952.115,9.906.366,14.844Z" fill="#58e5a9"/>
    <g id="Grupo_7644" data-name="Grupo 7644">
      <path id="Trazado_2760" data-name="Trazado 2760" d="M337.242,270.981a58.6,58.6,0,0,1-53.733-44.18,58.576,58.576,0,1,0,111.808,5.887A58.6,58.6,0,0,1,337.242,270.981Z" fill="#d8d8d8"/>
      <path id="Trazado_2761" data-name="Trazado 2761" d="M338.358,249.776c-17.667-.93-32.675,11.337-34.788,51.471a214.542,214.542,0,0,0,5.438,58.817,61.958,61.958,0,0,0,46.956,2.473,214.508,214.508,0,0,0,11.585-57.921C369.662,264.482,356.025,250.706,338.358,249.776Z" fill="#ededed"/>
      <rect id="Rect치ngulo_3102" data-name="Rect치ngulo 3102" width="4.545" height="75.583" transform="matrix(-0.999, -0.053, 0.053, -0.999, 337.767, 304.226)" fill="#d8d8d8"/>
      <g id="Grupo_7643" data-name="Grupo 7643">
        <path id="Trazado_2762" data-name="Trazado 2762" d="M334.278,327.256a17.269,17.269,0,1,1-18.152,16.337A17.289,17.289,0,0,1,334.278,327.256Zm-1.605,30.495A13.268,13.268,0,1,0,320.121,343.8,13.284,13.284,0,0,0,332.673,357.751Z" fill="#d8d8d8"/>
      </g>
      <path id="Trazado_2763" data-name="Trazado 2763" d="M309.008,360.064c4.819,19.758,12.418,34.56,21.7,35.049s18.391-13.434,25.258-32.576a61.958,61.958,0,0,1-46.956-2.473Z" fill="#d8d8d8"/>
    </g>
    <path id="Trazado_2764" data-name="Trazado 2764" d="M306.018,380.848c-.1-1.735-.578,2.441,10.084,1.627s6.391-2.383,12.7-.785,4.678,3.632,13.22,3.226,18.3.052,18.3.052-8.746,11.338-12.407,12.151-14.44,6.1-17.084,5.288S306.832,395.7,306.018,380.848Z" fill="#6a6b75"/>
    <g id="Grupo_7645" data-name="Grupo 7645">
      <path id="Trazado_2765" data-name="Trazado 2765" d="M445.777,249.727a5.627,5.627,0,0,0-4.134,1.809,3.086,3.086,0,0,0-5.565,2.391,2.5,2.5,0,0,0-2.453,4.094,1.694,1.694,0,0,0-1.893.442c0-.037.011-.072.011-.109A2.938,2.938,0,0,0,428,255.488a4.451,4.451,0,0,0-3.285-3.83,2.363,2.363,0,1,0-3.766.7,4.459,4.459,0,0,0,1.653,7.972c0,.068-.02.133-.02.2a3.09,3.09,0,0,0,3.09,3.09l15.08.147a4,4,0,0,0,.771.077,3.917,3.917,0,0,0,.636-.064l5.459.053a2.409,2.409,0,0,1-2.439-2.463l0-.009c.047-.116.077-.24.113-.361.159.013.32.024.483.024a5.649,5.649,0,1,0,0-11.3ZM434.4,258.638c-.006-.009-.015-.018-.022-.027l.029.016Z" fill="#d8d8d8"/>
      <path id="Trazado_2766" data-name="Trazado 2766" d="M450.692,241.043a1.945,1.945,0,1,0,1.944,1.945A1.945,1.945,0,0,0,450.692,241.043Z" fill="#d8d8d8"/>
      <circle id="Elipse_561" data-name="Elipse 561" cx="5.797" cy="5.797" r="5.797" transform="translate(447.036 230.021) rotate(-13.282)" fill="#d8d8d8"/>
      <circle id="Elipse_562" data-name="Elipse 562" cx="2.898" cy="2.898" r="2.898" transform="translate(411.069 244.246)" fill="#d8d8d8"/>
      <path id="Trazado_2767" data-name="Trazado 2767" d="M422.414,242.988a2.193,2.193,0,1,0-2.193-2.193A2.193,2.193,0,0,0,422.414,242.988Z" fill="#d8d8d8"/>
      <path id="Trazado_2768" data-name="Trazado 2768" d="M448.747,263.846l-1.125-.011A5.077,5.077,0,0,0,448.747,263.846Z" fill="#d8d8d8"/>
    </g>
    <rect id="Rect치ngulo_3103" data-name="Rect치ngulo 3103" width="195" height="350" transform="translate(274.605 104.449)" fill="none"/>
  </g>
</svg>
