<svg id="ico-upload-16px" xmlns="http://www.w3.org/2000/svg" width="16.023" height="16" viewBox="0 0 16.023 16">
  <rect id="Rectángulo_3157" data-name="Rectángulo 3157" width="16" height="16" fill="none"/>
  <g id="Grupo_7887" data-name="Grupo 7887" transform="translate(-259.411 -553.397)">
    <g id="Grupo_7886" data-name="Grupo 7886" transform="translate(3 1)">
      <path id="Trazado_2787" data-name="Trazado 2787" d="M269.09,556.768a5.247,5.247,0,0,0-9.8.723,3.4,3.4,0,0,0,.525,6.761H261.1a.75.75,0,0,0,0-1.5h-1.283a1.9,1.9,0,0,1-.065-3.8l.769.035.112-.645a3.75,3.75,0,0,1,7.245-.585l.257.509.55-.016a2.254,2.254,0,1,1,0,4.507h-1.357a.75.75,0,0,0,0,1.5h1.357a3.753,3.753,0,0,0,.41-7.484Z" fill="#666"/>
      <path id="Trazado_2788" data-name="Trazado 2788" d="M266.728,561.572a.75.75,0,0,0,.53-1.28l-2.306-2.306a.772.772,0,0,0-1.06,0l-2.306,2.306a.75.75,0,0,0,1.061,1.061l1.058-1.058v6.12a.75.75,0,0,0,1.5,0V560.36l.992.993A.751.751,0,0,0,266.728,561.572Z" fill="#666"/>
    </g>
  </g>
</svg>
