<svg id="ico-syncdates" xmlns="http://www.w3.org/2000/svg" width="20" height="20.041" viewBox="0 0 20 20.041">
  <g id="Grupo_8109" data-name="Grupo 8109" transform="translate(-252.295 -609.191)">
    <rect id="Rectángulo_3340" data-name="Rectángulo 3340" width="20" height="20" transform="translate(252.295 609.232)" fill="none"/>
  </g>
  <g id="Trazado_2615" data-name="Trazado 2615" transform="translate(-252.295 -609.191)">
    <path id="Trazado_2873" data-name="Trazado 2873" d="M267.641,619.658h-5.207v-5.713h1.993v3.732h3.214Z" fill="#6a6b75"/>
  </g>
  <path id="Trazado_2874" data-name="Trazado 2874" d="M263.175,609.2a8.936,8.936,0,0,0-8.609,8.95,8.706,8.706,0,0,0,.7,3.3h-1.981a.991.991,0,0,0-.994.988V628.2a.991.991,0,0,0,.994.987h12.164a.991.991,0,0,0,.994-.987v-1.926a8.8,8.8,0,0,0-3.272-17.083Zm1.28,16.793-2.3,2.284a.751.751,0,0,1-1.057,0,.74.74,0,0,1,0-1.051l.989-.983H256.1l.989.983a.74.74,0,0,1,0,1.051.751.751,0,0,1-1.057,0l-2.3-2.284a.744.744,0,0,1,0-1.051l2.3-2.284a.751.751,0,0,1,1.057,0,.74.74,0,0,1,0,1.051l-.989.983h5.994l-.99-.983a.74.74,0,0,1,0-1.051.751.751,0,0,1,1.057,0l2.3,2.284A.742.742,0,0,1,264.455,625.988Zm1.992-1.858v-1.7a.991.991,0,0,0-.994-.988h-7.948a6.751,6.751,0,0,1-.838-4.659,6.868,6.868,0,1,1,9.78,7.345Z" transform="translate(-252.295 -609.191)" fill="#6a6b75"/>
</svg>
