<svg id="ico-copiar-comfig" xmlns="http://www.w3.org/2000/svg" width="20" height="20" viewBox="0 0 20 20">
  <rect id="Rectángulo_3162" data-name="Rectángulo 3162" width="20" height="20" fill="none"/>
  <g id="Grupo_7890" data-name="Grupo 7890" transform="translate(-277.897 -546.578)">
    <path id="Trazado_2798" data-name="Trazado 2798" d="M289.954,556.084a2.93,2.93,0,1,0,2.931,2.931A2.934,2.934,0,0,0,289.954,556.084Zm0,4.36a1.43,1.43,0,1,1,1.431-1.429A1.432,1.432,0,0,1,289.954,560.444Z" fill="#6a6b75"/>
    <path id="Trazado_2799" data-name="Trazado 2799" d="M295.785,556.9l-.555-.024.4-.43a1.163,1.163,0,0,0-.033-1.617l-1.352-1.351a1.165,1.165,0,0,0-1.615-.036l-.428.393-.027-.645A1.165,1.165,0,0,0,291,552.066h-.053a.743.743,0,0,0-1.268-.693l-.651.706a1.146,1.146,0,0,0-1.06.931c-.016-.026-.025-.056-.042-.082a.749.749,0,0,0-1.04-.208.72.72,0,0,0-.258.327,1.156,1.156,0,0,0-.868.332l-1.345,1.344a1.155,1.155,0,0,0-.282,1.158.711.711,0,0,0-.214,1.057,1.15,1.15,0,0,0-.917,1.119v.025l-.6.546a.75.75,0,0,0,.507,1.3.693.693,0,0,0,.089-.017v.041a1.166,1.166,0,0,0,1.117,1.167l.733.032-.481.523a1.164,1.164,0,0,0,.033,1.617l1.344,1.345a1.166,1.166,0,0,0,1.615.034l.522-.478.026.648a1.165,1.165,0,0,0,1.167,1.119h1.906a1.167,1.167,0,0,0,1.168-1.117l.028-.644.43.4a1.169,1.169,0,0,0,1.617-.035l1.351-1.352a1.165,1.165,0,0,0,.036-1.614l-.394-.429.557-.023a1.164,1.164,0,0,0,1.121-1.167v-1.914A1.166,1.166,0,0,0,295.785,556.9Zm-.383,2.762-1.668.069-.619,1.358,1.181,1.289-.9.9-1.2-1.11-1.443.537-.076,1.757H289.4l-.067-1.623-1.458-.667-1.289,1.181-.893-.894,1.109-1.2-.576-1.543-1.721-.075v-1.263l1.664-.067.683-1.5-1.148-1.253.894-.894,1.247,1.149,1.5-.56.073-1.688h1.27l.069,1.707,1.4.637,1.254-1.149.9.9-1.15,1.248.521,1.4,1.724.075Z" fill="#6a6b75"/>
    <path id="Trazado_2800" data-name="Trazado 2800" d="M284.944,553.228a1.423,1.423,0,0,1,.547-.108l.1,0a.732.732,0,0,0,.794-.7.75.75,0,0,0-.7-.794,2.983,2.983,0,0,0-1.309.215.75.75,0,0,0,.286,1.443A.733.733,0,0,0,284.944,553.228Z" fill="#6a6b75"/>
    <path id="Trazado_2801" data-name="Trazado 2801" d="M283.579,553.26a.75.75,0,0,0-.919.529,2.956,2.956,0,0,0-.045,1.33.751.751,0,0,0,.735.606.813.813,0,0,0,.146-.014.751.751,0,0,0,.591-.881,1.456,1.456,0,0,1,.021-.65A.75.75,0,0,0,283.579,553.26Z" fill="#6a6b75"/>
    <path id="Trazado_2802" data-name="Trazado 2802" d="M286.267,550.193l.006.156a.751.751,0,0,0,.437.651l.525.24a.745.745,0,0,0,.819-.129l.2-.18a.75.75,0,0,0-.688-1.281.692.692,0,0,0-.578-.236A.75.75,0,0,0,286.267,550.193Z" fill="#6a6b75"/>
    <path id="Trazado_2803" data-name="Trazado 2803" d="M284.123,550.9h.033a.749.749,0,0,0,.749-.717l.044-1a.751.751,0,0,0-.717-.781.727.727,0,0,0-.782.717l-.044,1A.75.75,0,0,0,284.123,550.9Z" fill="#6a6b75"/>
    <path id="Trazado_2804" data-name="Trazado 2804" d="M289.5,550.854a.75.75,0,0,0,1.061-1.06l-.707-.707a.75.75,0,0,0-1.061,1.06Z" fill="#6a6b75"/>
    <path id="Trazado_2805" data-name="Trazado 2805" d="M285.592,549.1h.933l.067,0a.75.75,0,0,0,.087-1.495c-.029,0-.109-.007-.138-.007h-.949a.75.75,0,0,0,0,1.5Z" fill="#6a6b75"/>
    <path id="Trazado_2806" data-name="Trazado 2806" d="M281.179,557.943a.75.75,0,1,0-1.062,1.06l.707.707a.75.75,0,1,0,1.061-1.059Z" fill="#6a6b75"/>
    <path id="Trazado_2807" data-name="Trazado 2807" d="M280.042,555.405v-.663a.75.75,0,0,0-1.5,0v.75a1.157,1.157,0,0,0,.2.657.749.749,0,0,0,1.3-.744Z" fill="#6a6b75"/>
    <path id="Trazado_2808" data-name="Trazado 2808" d="M280.71,557.451a.75.75,0,0,0,1.06-.042l.257-.278a.752.752,0,0,0,.151-.771l-.217-.582a.75.75,0,1,0-1.4.524l.058.155A.75.75,0,0,0,280.71,557.451Z" fill="#6a6b75"/>
    <path id="Trazado_2809" data-name="Trazado 2809" d="M279.9,553.917h.031l1-.041a1.114,1.114,0,0,1,.4-1.572.75.75,0,0,0,.044-1.06l-.231-.254a.75.75,0,0,0-1.435-.369,1.166,1.166,0,0,0,.211,1.255l.351.382a.733.733,0,0,0,.168.138l-.566.023a.75.75,0,0,0,.03,1.5Z" fill="#6a6b75"/>
    <path id="Trazado_2810" data-name="Trazado 2810" d="M282.084,550.153l.039.036a.75.75,0,1,0,1.016-1.1l-.22-.2a1.171,1.171,0,0,0-1.661.073.725.725,0,0,0,.02,1.039A.754.754,0,0,0,282.084,550.153Z" fill="#6a6b75"/>
  </g>
</svg>
