<svg id="Componente_1929_11" data-name="Componente 1929 – 11" xmlns="http://www.w3.org/2000/svg" width="16.253" height="16" viewBox="0 0 16.253 16">
  <g id="Trazado_1393" data-name="Trazado 1393" transform="translate(3.245 0.825)" fill="none">
    <path d="M5.671,0a5.671,5.671,0,0,1,5.671,5.671,5.822,5.822,0,0,1-1.225,3.52,5.543,5.543,0,0,1-4.446,2.15c-1.064,0,.644-1.975-1.274-2.189C3.3,9.069.727,9.073.683,9.089A10.03,10.03,0,0,1,0,5.671,5.671,5.671,0,0,1,5.671,0Z" stroke="none"/>
    <path d="M 5.670899391174316 1.499999046325684 C 3.371059417724609 1.499999046325684 1.499999046325684 3.371059417724609 1.499999046325684 5.670899391174316 C 1.499999046325684 6.156681537628174 1.585384368896484 6.86057710647583 1.76996898651123 7.580770015716553 C 2.444253921508789 7.58420467376709 3.739675521850586 7.598617553710938 4.511299610137939 7.657449722290039 L 4.537259578704834 7.659429550170898 L 4.56313943862915 7.662309646606445 C 5.364509582519531 7.751479148864746 5.978589534759521 8.063089370727539 6.388289451599121 8.588489532470703 C 6.666098117828369 8.944744110107422 6.792557716369629 9.325162887573242 6.841643810272217 9.679695129394531 C 7.688880920410156 9.442391395568848 8.437914848327637 8.958015441894531 8.898619651794434 8.316439628601074 L 8.90192985534668 8.311819076538086 L 8.905279159545898 8.307239532470703 C 9.544209480285645 7.431519508361816 9.841799736022949 6.593809604644775 9.841799736022949 5.670899391174316 C 9.841799736022949 3.371059417724609 7.970739364624023 1.499999046325684 5.670899391174316 1.499999046325684 M 5.670899391174316 -9.5367431640625e-07 C 8.802848815917969 -9.5367431640625e-07 11.34179973602295 2.538949012756348 11.34179973602295 5.670899391174316 C 11.34179973602295 6.911149501800537 10.94364929199219 8.058399200439453 10.11702919006348 9.191349029541016 C 9.237969398498535 10.41553974151611 7.562599182128906 11.34179973602295 5.670899391174316 11.34179973602295 C 4.6067795753479 11.34179973602295 6.315279483795166 9.366518974304199 4.39725923538208 9.153109550476074 C 3.656792163848877 9.096647262573242 2.246245384216309 9.079727172851562 1.392377853393555 9.079727172851562 C 0.9798583984375 9.079727172851562 0.6973505020141602 9.083673477172852 0.6829490661621094 9.089019775390625 C 0.2003593444824219 7.873369216918945 -9.5367431640625e-07 6.529069423675537 -9.5367431640625e-07 5.670899391174316 C -9.5367431640625e-07 2.538949012756348 2.538949012756348 -9.5367431640625e-07 5.670899391174316 -9.5367431640625e-07 Z" stroke="none" fill="#6a6b75"/>
  </g>
  <rect id="Rectángulo_184" data-name="Rectángulo 184" width="16" height="16" fill="none"/>
  <path id="Trazado_1104" data-name="Trazado 1104" d="M808.435,298.222c.31-.021,6.26,0,6.337,0a1.4,1.4,0,0,1,1.584,1.622c-.791.413-2.486,1.2-2.486,1.2s5.74-.888,6.963-1.2c1.063-.3,1.9-.041,2.176.682a1.343,1.343,0,0,1-.838,1.952,28.01,28.01,0,0,1-5.816,1.422c-.708-.052-7.921,0-7.921,0Z" transform="translate(-807.676 -288.894)" fill="none" stroke="#6a6b75" stroke-linecap="round" stroke-linejoin="round" stroke-width="1.5"/>
  <path id="Trazado_1394" data-name="Trazado 1394" d="M.4-6.978A.339.339,0,0,1,.336-7.2a.343.343,0,0,1,.071-.221A.224.224,0,0,1,.59-7.507H.875v-.462H.59a.231.231,0,0,1-.183-.083.317.317,0,0,1-.071-.215.343.343,0,0,1,.071-.221A.224.224,0,0,1,.59-8.577H.875v-.145a1.5,1.5,0,0,1,.394-1.146,1.463,1.463,0,0,1,1.039-.366,1.606,1.606,0,0,1,1.063.343,1.141,1.141,0,0,1,.412.924.4.4,0,0,1-.093.31.479.479,0,0,1-.31.079q-.4,0-.4-.251a.764.764,0,0,0-.143-.452.566.566,0,0,0-.5-.2q-.657,0-.657.759v.145h.583a.236.236,0,0,1,.18.092.321.321,0,0,1,.081.218.3.3,0,0,1-.081.211.242.242,0,0,1-.18.086H1.681v.462h.583a.236.236,0,0,1,.18.092.312.312,0,0,1,.081.211.306.306,0,0,1-.081.218.242.242,0,0,1-.18.086H1.681v.112a.781.781,0,0,0,.149.452.582.582,0,0,0,.515.215.556.556,0,0,0,.487-.2.843.843,0,0,0,.146-.5.207.207,0,0,1,.1-.195.634.634,0,0,1,.307-.056.463.463,0,0,1,.313.083.421.421,0,0,1,.09.314,1.2,1.2,0,0,1-.412.958,1.567,1.567,0,0,1-1.063.357,1.408,1.408,0,0,1-1.054-.386A1.413,1.413,0,0,1,.875-6.787V-6.9H.59A.245.245,0,0,1,.4-6.978Z" transform="translate(6.964 13.884)" fill="#6a6b75"/>
</svg>
