<svg id="ico-download-16" xmlns="http://www.w3.org/2000/svg" width="16" height="16" viewBox="0 0 16 16">
  <rect id="Rectángulo_3157" data-name="Rectángulo 3157" width="15.977" height="16" fill="none"/>
  <g id="Grupo_7887" data-name="Grupo 7887" transform="translate(0 0.745)">
    <g id="Grupo_7886" data-name="Grupo 7886">
      <path id="Trazado_2787" data-name="Trazado 2787" d="M269.072,556.768a5.237,5.237,0,0,0-9.789.723,3.4,3.4,0,0,0,.524,6.761h1.281a.75.75,0,0,0,0-1.5h-1.281a1.9,1.9,0,0,1-.065-3.8l.768.035.112-.645a3.743,3.743,0,0,1,7.235-.585l.257.509.549-.016a2.254,2.254,0,0,1,0,4.507h-1.355a.75.75,0,0,0,0,1.5h1.355a3.753,3.753,0,0,0,.409-7.484Z" transform="translate(-256.411 -553.715)" fill="#666"/>
      <path id="Trazado_2788" data-name="Trazado 2788" d="M5.362,3.8a.75.75,0,0,0,.53-1.28L3.586.211a.772.772,0,0,0-1.06,0L.22,2.517A.75.75,0,0,0,1.281,3.578L2.339,2.52V8.64a.75.75,0,0,0,1.5,0V2.585l.992.993A.751.751,0,0,0,5.362,3.8Z" transform="translate(11.055 15.232) rotate(180)" fill="#666"/>
    </g>
  </g>
</svg>
