<svg id="ico-catalog" xmlns="http://www.w3.org/2000/svg" width="20" height="20" viewBox="0 0 20 20">
  <g id="Grupo_8127" data-name="Grupo 8127" transform="translate(-465.984 -609.138)">
    <rect id="Rectángulo_3424" data-name="Rectángulo 3424" width="20" height="20" transform="translate(465.984 609.138)" fill="none"/>
  </g>
  <path id="Trazado_2920" data-name="Trazado 2920" d="M485.563,618.859a1,1,0,0,0-.892-.55h-.918l.46-.907h-2.1l.346-1.334h-1.593v-1.822a1,1,0,0,0-1-1h-5.636v-.182a1,1,0,0,0-1-1h-5.262a1,1,0,0,0-1,1v12.431a1.1,1.1,0,0,0,1,1.412h11.9a.992.992,0,0,0,.934-.67l4.676-6.334A1,1,0,0,0,485.563,618.859Zm-16.6-4.795h3.262v.182a1,1,0,0,0,1,1h5.636v.822h-8.343l-1.555,5.988Zm10.355,10.8h-9.45l3.367-4.56h9.45Z" transform="translate(-465.984 -609.138)" fill="#06a086"/>
</svg>
