<svg id="ico-addInfo-16p" xmlns="http://www.w3.org/2000/svg" width="16.985" height="16" viewBox="0 0 16.985 16">
  <rect id="Rectángulo_199" data-name="Rectángulo 199" width="16" height="16" fill="none"/>
  <path id="Trazado_2530" data-name="Trazado 2530" d="M.469-4.31H4.792V2.774H6.131V5.321H.469V2.774h1.45V-1.763H.469Zm1.3-3.105A1.667,1.667,0,0,1,1.9-8.062a1.6,1.6,0,0,1,.349-.525A1.667,1.667,0,0,1,2.77-8.94a1.639,1.639,0,0,1,.655-.13,1.56,1.56,0,0,1,.632.13,1.682,1.682,0,0,1,.521.353,1.667,1.667,0,0,1,.353.525,1.616,1.616,0,0,1,.13.646,1.616,1.616,0,0,1-.13.646,1.667,1.667,0,0,1-.353.525,1.682,1.682,0,0,1-.521.353,1.56,1.56,0,0,1-.632.13,1.639,1.639,0,0,1-.655-.13,1.667,1.667,0,0,1-.525-.353A1.6,1.6,0,0,1,1.9-6.769,1.667,1.667,0,0,1,1.77-7.415Z" transform="translate(0.607 9.845)" fill="#6a6b75"/>
  <g id="Grupo_7031" data-name="Grupo 7031" transform="translate(7 6.243) rotate(-45)">
    <line id="Línea_1040" data-name="Línea 1040" x2="6" y2="6" transform="translate(0)" fill="none" stroke="#6a6b75" stroke-width="3"/>
    <line id="Línea_1041" data-name="Línea 1041" x2="6" y2="6" transform="translate(6) rotate(90)" fill="none" stroke="#6a6b75" stroke-width="3"/>
  </g>
</svg>
