<svg id="ico-image" xmlns="http://www.w3.org/2000/svg" width="20" height="20" viewBox="0 0 20 20">
  <rect id="Rectángulo_3096" data-name="Rectángulo 3096" width="20" height="20" fill="none"/>
  <g id="Rectángulo_3097" data-name="Rectángulo 3097" transform="translate(2 1)" fill="none" stroke="#707070" stroke-width="1.6">
    <rect width="16" height="18" rx="2" stroke="none"/>
    <rect x="0.8" y="0.8" width="14.4" height="16.4" rx="1.2" fill="none"/>
  </g>
  <path id="Rectángulo_3098" data-name="Rectángulo 3098" d="M0,0H16a0,0,0,0,1,0,0V2a2,2,0,0,1-2,2H2A2,2,0,0,1,0,2V0A0,0,0,0,1,0,0Z" transform="translate(2 15)" fill="#707070"/>
  <path id="Trazado_2753" data-name="Trazado 2753" d="M304.617,494.017l-.541,1.1,4.046-5.446,4.265,4.729,2-2.117,3.7,3.773" transform="translate(-301 -482)" fill="none" stroke="#707070" stroke-linejoin="round" stroke-width="1.6"/>
  <g id="Elipse_559" data-name="Elipse 559" transform="translate(11 4)" fill="#fff" stroke="#707070" stroke-width="2">
    <circle cx="2" cy="2" r="2" stroke="none"/>
    <circle cx="2" cy="2" r="1" fill="none"/>
  </g>
</svg>
