<svg xmlns="http://www.w3.org/2000/svg" width="32" height="32" viewBox="0 0 32 32">
  <g id="Grupo_5868" data-name="Grupo 5868" transform="translate(-349 -138)">
    <g id="Grupo_5850" data-name="Grupo 5850" transform="translate(-500 -220)">
      <rect id="Rectángulo_1" data-name="Rectángulo 1" width="32" height="32" transform="translate(849 358)" fill="none"/>
      <path id="Trazado_1" data-name="Trazado 1" d="M13-8C20.18-8,26-2.474,26,4.343S13,24,13,24,0,11.16,0,4.343,5.82-8,13-8Z" transform="translate(852 366)" fill="#e60414"/>
    </g>
    <path id="Trazado_2032" data-name="Trazado 2032" d="M1182.948,628.859a10.5,10.5,0,0,0-8.875,4.745,7.29,7.29,0,0,0,.4,7.7,5.468,5.468,0,0,0,5,2.057,5.214,5.214,0,0,0,4.276-3.468,5.618,5.618,0,0,0-.805-5.144,4.932,4.932,0,0,0-3.157-1.689,3.8,3.8,0,0,1,.829-2.7A7.242,7.242,0,0,1,1182.948,628.859Z" transform="translate(-813.811 -486.533)" fill="#fff"/>
  </g>
</svg>
