<svg xmlns="http://www.w3.org/2000/svg" viewBox="0 0 20 20">
  <defs>
    <style>
      .cls-1, .cls-2, .cls-3 {
        fill: none;
      }

      .cls-2, .cls-3 {
        stroke: #6a6b75;
      }

      .cls-3 {
        stroke-width: 1.5px;
      }

      .cls-4 {
        fill: #6a6b75;
      }

      .cls-5 {
        stroke: none;
      }
    </style>
  </defs>
  <g id="Group_4001" data-name="Group 4001" transform="translate(-2189 -587)">
    <rect id="Rectangle_209" data-name="Rectangle 209" class="cls-1" width="20" height="20" transform="translate(2189 587)"/>
    <path id="Path_1311" data-name="Path 1311" class="cls-2" d="M2369.677-82.4l-3.065,3-1.935-2.385" transform="translate(-171 681)"/>
    <path id="Path_1312" data-name="Path 1312" class="cls-2" d="M2364.677-82.4l3.065,3,1.935-2.385" transform="translate(-166 681)"/>
    <g id="Group_1766" data-name="Group 1766" transform="translate(-47)">
      <rect id="Rectangle_208" data-name="Rectangle 208" class="cls-1" width="20" height="20" transform="translate(2236 587)"/>
      <g id="Group_1597" data-name="Group 1597" transform="translate(1608 441.03)">
        <g id="Group_1598" data-name="Group 1598" transform="translate(629 145.97)">
          <path id="Path_65" data-name="Path 65" class="cls-3" d="M-286.3,385.659c.018.023.017,1.91,0,1.95-.005.387.135,1.355-1.9,1.421s-14.571,0-14.571,0a1.376,1.376,0,0,1-1.492-1.421c-.039.015-.014-1.934,0-1.95.032-.616.245-1.3,1.492-2.021s5.12-2.666,5.12-2.666a7.234,7.234,0,0,0,2.315.428,7.8,7.8,0,0,0,2.371-.428,47.038,47.038,0,0,1,5.644,2.666A2.739,2.739,0,0,1-286.3,385.659Z" transform="translate(304.292 -370.059)"/>
          <g id="Rectangle_35" data-name="Rectangle 35" class="cls-3" transform="translate(4.231)">
            <rect class="cls-5" width="9.236" height="12.059" rx="4.618"/>
            <rect class="cls-1" x="0.75" y="0.75" width="7.736" height="10.559" rx="3.868"/>
          </g>
          <path id="Path_70" data-name="Path 70" class="cls-3" d="M-413.177,523.194s2.153-1.773,2.221-1.76a14.636,14.636,0,0,0,5.6.573" transform="translate(418.067 -517.144)"/>
        </g>
      </g>
    </g>
    <path id="Path_1313" data-name="Path 1313" class="cls-4" d="M2367.76-80.349l.944,1.4-.944,4.123h4.207l-.907-4.123.907-1.4-2.128-1.61Z" transform="translate(-171 681)"/>
  </g>
</svg>
