<svg xmlns="http://www.w3.org/2000/svg" viewBox="0 0 28 28">
  <defs>
    <style>
      .cls-1, .cls-10, .cls-2, .cls-3, .cls-4, .cls-5, .cls-6, .cls-7 {
        fill: none;
      }

      .cls-2, .cls-3, .cls-4, .cls-5, .cls-6 {
        stroke: #6a6b75;
      }

      .cls-2, .cls-5 {
        stroke-width: 1.6px;
      }

      .cls-3, .cls-6 {
        stroke-width: 2px;
      }

      .cls-4 {
        stroke-width: 1.5px;
      }

      .cls-5, .cls-6 {
        stroke-linecap: round;
      }

      .cls-7 {
        opacity: 0.2;
      }

      .cls-8, .cls-9 {
        stroke: none;
      }

      .cls-9 {
        fill: #6a6b75;
      }
    </style>
  </defs>
  <g id="Group_3433" data-name="Group 3433" transform="translate(194 1251)">
    <g id="Path_1375" data-name="Path 1375" class="cls-1" transform="translate(-187 -1247)">
      <path class="cls-8" d="M7,0a7.121,7.121,0,0,1,7,7c0,2.584-4.245,4.854-4.245,6.986-.517-.029-1.768-.015-3.351,0-1.116.01-1.786.025-2.535,0C3.868,12.191,0,9.529,0,7A7.121,7.121,0,0,1,7,0Z"/>
      <path class="cls-9" d="M 7 2 C 5.691479682922363 2 4.440380096435547 2.540120124816895 3.477169990539551 3.520870208740234 C 2.538410186767578 4.476739883422852 2 5.744830131530762 2 7 C 2 7.666190147399902 3.045809745788574 8.961889266967773 3.737839698791504 9.819290161132812 C 4.327990531921387 10.55045509338379 4.900513648986816 11.25978183746338 5.303178787231445 11.99734878540039 C 5.464105606079102 11.99595069885254 5.634321212768555 11.99412155151367 5.816060066223145 11.9921703338623 C 5.993009567260742 11.99026012420654 6.181550025939941 11.98824024200439 6.384429931640625 11.98635005950928 L 6.596570014953613 11.98433017730713 C 7.235964775085449 11.97824096679688 7.808377265930176 11.9727840423584 8.29987907409668 11.9705867767334 C 8.784025192260742 11.07196617126465 9.52550220489502 10.26554679870605 10.25228023529053 9.475150108337402 C 10.94824981689453 8.718269348144531 12 7.574450016021729 12 7 C 12 5.744830131530762 11.46158981323242 4.476739883422852 10.52283000946045 3.520870208740234 C 9.559619903564453 2.540120124816895 8.30851936340332 2 7 2 M 7 0 C 10.86598968505859 0 14 3.318619728088379 14 7 C 14 9.584310531616211 9.754549980163574 11.8538703918457 9.754549980163574 13.98625946044922 C 9.533439636230469 13.97407341003418 9.178471565246582 13.96956062316895 8.720939636230469 13.96956062316895 C 8.107738494873047 13.96956062316895 7.310259342193604 13.97766399383545 6.40339994430542 13.98625946044922 C 5.742439270019531 13.99240779876709 5.23786449432373 14.00000095367432 4.780688285827637 14.00000095367432 C 4.46597957611084 14.00000095367432 4.173746109008789 13.99640369415283 3.868359565734863 13.98625946044922 C 3.868359565734863 12.19095993041992 0 9.529109954833984 0 7 C 0 3.318619728088379 3.134010314941406 0 7 0 Z"/>
    </g>
    <g id="Rectangle_1017" data-name="Rectangle 1017" class="cls-2" transform="translate(-184 -1234)">
      <rect class="cls-8" width="8" height="4" rx="2"/>
      <rect class="cls-10" x="0.8" y="0.8" width="6.4" height="2.4" rx="1.2"/>
    </g>
    <g id="Rectangle_1018" data-name="Rectangle 1018" class="cls-2" transform="translate(-184 -1231)">
      <rect class="cls-8" width="8" height="4" rx="2"/>
      <rect class="cls-10" x="0.8" y="0.8" width="6.4" height="2.4" rx="1.2"/>
    </g>
    <g id="Ellipse_274" data-name="Ellipse 274" class="cls-3" transform="translate(-183 -1243)">
      <circle class="cls-8" cx="3" cy="3" r="3"/>
      <circle class="cls-10" cx="3" cy="3" r="2"/>
    </g>
    <line id="Line_383" data-name="Line 383" class="cls-4" y2="3.994" transform="translate(-180 -1238.082)"/>
    <line id="Line_384" data-name="Line 384" class="cls-5" y1="2" transform="translate(-180.051 -1250.072)"/>
    <path id="Path_1376" data-name="Path 1376" class="cls-5" d="M0,2.213,1.842,0" transform="translate(-172.173 -1246.883)"/>
    <path id="Path_1377" data-name="Path 1377" class="cls-5" d="M1.06,2.4,0,0" transform="translate(-188.748 -1246.564) rotate(-20)"/>
    <path id="Path_1374" data-name="Path 1374" class="cls-6" d="M-1670.4,313.65A10.362,10.362,0,0,0-1672.46,320c-.128,5.992,5.171,10.629,10.937,10.651s11.211-4.738,11.058-10.651a10.279,10.279,0,0,0-1.982-6.349" transform="translate(1481.462 -1554.736)"/>
    <rect id="Rectangle_1016" data-name="Rectangle 1016" class="cls-7" width="28" height="28" transform="translate(-194 -1251)"/>
  </g>
</svg>
