<svg xmlns="http://www.w3.org/2000/svg" width="32" height="32" viewBox="0 0 32 32">
  <g id="Grupo_7628" data-name="Grupo 7628" transform="translate(-1130 -196)">
    <g id="Grupo_7627" data-name="Grupo 7627" transform="translate(-46)">
      <rect id="Rectángulo_3029" data-name="Rectángulo 3029" width="32" height="32" rx="2" transform="translate(1176 196)" fill="#06a086"/>
    </g>
    <g id="ico_-_2columns_-_view" data-name="ico - 2columns - view" transform="translate(1136 202)">
      <rect id="Rectángulo_211" data-name="Rectángulo 211" width="20" height="20" fill="none"/>
      <g id="Grupo_1602" data-name="Grupo 1602" transform="translate(-104 -445)">
        <g id="Rectángulo_5" data-name="Rectángulo 5" transform="translate(104 445)" fill="none" stroke="#fff" stroke-linecap="round" stroke-linejoin="round" stroke-width="1.5">
          <rect width="5" height="20" stroke="none"/>
          <rect x="0.75" y="0.75" width="3.5" height="18.5" fill="none"/>
        </g>
        <g id="Rectángulo_6" data-name="Rectángulo 6" transform="translate(110 445)" fill="none" stroke="#fff" stroke-linecap="round" stroke-linejoin="round" stroke-width="1.5">
          <rect width="14" height="20" stroke="none"/>
          <rect x="0.75" y="0.75" width="12.5" height="18.5" fill="none"/>
        </g>
        <path id="Trazado_25" data-name="Trazado 25" d="M-1,0H2.5" transform="translate(106 449)" fill="none" stroke="#fff" stroke-width="1.5"/>
        <path id="Trazado_2654" data-name="Trazado 2654" d="M-1,0H2.5" transform="translate(106 452)" fill="none" stroke="#fff" stroke-width="1.5"/>
        <path id="Trazado_2655" data-name="Trazado 2655" d="M-1,0H2.5" transform="translate(106 455)" fill="none" stroke="#fff" stroke-width="1.5"/>
        <path id="Trazado_2656" data-name="Trazado 2656" d="M-1,0H2.5" transform="translate(106 458)" fill="none" stroke="#fff" stroke-width="1.5"/>
        <path id="Trazado_2657" data-name="Trazado 2657" d="M-1,0H2.5" transform="translate(106 461)" fill="none" stroke="#fff" stroke-width="1.5"/>
        <line id="Línea_1437" data-name="Línea 1437" x2="7" transform="translate(113.5 449.5)" fill="none" stroke="#fff" stroke-linecap="round" stroke-width="1.5"/>
        <line id="Línea_1438" data-name="Línea 1438" x2="7" transform="translate(113.5 452.5)" fill="none" stroke="#fff" stroke-linecap="round" stroke-width="1.5"/>
        <line id="Línea_1439" data-name="Línea 1439" x2="7" transform="translate(113.5 455.5)" fill="none" stroke="#fff" stroke-linecap="round" stroke-width="1.5"/>
        <line id="Línea_1440" data-name="Línea 1440" x2="3" transform="translate(113.5 458.5)" fill="none" stroke="#fff" stroke-linecap="round" stroke-width="1.5"/>
      </g>
    </g>
  </g>
</svg>
