<svg id="ico_functionality_16px" xmlns="http://www.w3.org/2000/svg" width="16" height="16" viewBox="0 0 16 16">
  <g id="function" transform="translate(-13.676 1)">
    <path id="Trazado_2296" data-name="Trazado 2296" d="M23.449,6.533v-1.4A.231.231,0,0,0,23.22,4.9h-1.6V3.033A1.122,1.122,0,0,1,22.7,1.855a1.221,1.221,0,0,1,1.2,1.179.231.231,0,0,0,.229.233h1.372a.231.231,0,0,0,.229-.233A3.072,3.072,0,0,0,22.7,0a2.979,2.979,0,0,0-2.913,3.033V4.9h-1.6a.231.231,0,0,0-.229.233v1.4a.231.231,0,0,0,.229.233h1.6v4.2a1.143,1.143,0,1,1-2.286,0,.231.231,0,0,0-.229-.233H15.9a.231.231,0,0,0-.229.233,2.973,2.973,0,1,0,5.944,0v-4.2h1.6A.231.231,0,0,0,23.449,6.533Z" transform="translate(0 0)" fill="#06a086"/>
    <path id="Trazado_2297" data-name="Trazado 2297" d="M144.805,159.147l.818-.818A.942.942,0,0,0,144.291,157l-.818.818-.818-.818a.942.942,0,0,0-1.333,1.333l.818.818-.818.818a.942.942,0,0,0,1.333,1.333l.818-.818.818.818a.942.942,0,0,0,1.333-1.333Z" transform="translate(-118.223 -147.574)" fill="#06a086"/>
  </g>
  <rect id="Rectángulo_2397" data-name="Rectángulo 2397" width="16" height="16" fill="none"/>
</svg>
