<svg id="Componente_2350_1" data-name="Componente 2350 – 1" xmlns="http://www.w3.org/2000/svg" width="16" height="16" viewBox="0 0 16 16">
  <g id="Grupo_7862" data-name="Grupo 7862" transform="translate(-1212 -652)">
    <rect id="Rectángulo_305" data-name="Rectángulo 305" width="16" height="16" transform="translate(1212 652)" fill="none" opacity="0.5"/>
    <g id="Grupo_1709" data-name="Grupo 1709" transform="translate(1213.608 652)">
      <path id="Trazado_1240" data-name="Trazado 1240" d="M1785.092,219.427h6.286v-2.18h-6.286Z" transform="translate(-1783.363 -204.748)" fill="none" stroke="#6a6b75" stroke-linecap="round" stroke-linejoin="round" stroke-width="1.5"/>
      <g id="Grupo_1708" data-name="Grupo 1708" transform="translate(0)">
        <g id="Trazado_1236" data-name="Trazado 1236" transform="translate(5.014 7.57) rotate(-45)" fill="none">
          <path d="M3.282.623,3.157,6.936a1.656,1.656,0,0,1-1.61,1.61A1.5,1.5,0,0,1,0,7L.125.686C.143-.186,3.3-.248,3.282.623Z" stroke="none"/>
          <path d="M 1.764156460762024 1.500235557556152 C 1.709706783294678 1.5009446144104 1.657999396324158 1.503190517425537 1.609322905540466 1.50656795501709 L 1.50002133846283 7.028564453125 C 1.49980890750885 7.03895378112793 1.501153588294983 7.044485569000244 1.500355124473572 7.044485569000244 C 1.500326633453369 7.044485569000244 1.500295400619507 7.044478416442871 1.500261306762695 7.044464588165283 C 1.500301003456116 7.04448413848877 1.504233241081238 7.046204566955566 1.517303228378296 7.046204566955566 C 1.517415046691895 7.046204566955566 1.517528176307678 7.046204566955566 1.517641305923462 7.046204566955566 C 1.584121346473694 7.044894218444824 1.655831336975098 6.973184585571289 1.657141327857971 6.906724452972412 L 1.764156460762024 1.500235557556152 M 1.801168918609619 -1.9073486328125e-06 C 2.5608069896698 -1.9073486328125e-06 3.290127754211426 0.2030973434448242 3.281811237335205 0.6233344078063965 L 3.156851291656494 6.936404228210449 C 3.139591217041016 7.808054447174072 2.418991327285767 8.528654098510742 1.547341346740723 8.545914649963379 C 1.536754250526428 8.546123504638672 1.526038408279419 8.546229362487793 1.515505075454712 8.546229362487793 C 0.6588153839111328 8.546229362487793 -0.01672911643981934 7.859947204589844 0.0003113746643066406 6.998884201049805 L 0.1252713203430176 0.685814380645752 C 0.1342098712921143 0.2344017028808594 0.985175609588623 -1.9073486328125e-06 1.801168918609619 -1.9073486328125e-06 Z" stroke="none" fill="#6a6b75"/>
        </g>
        <g id="Trazado_1237" data-name="Trazado 1237" transform="translate(-0.397 7.108) rotate(-45)" fill="none" stroke-linecap="round" stroke-linejoin="round">
          <path d="M.136.146,9.747,0,9.612,5.261,0,5.407Z" stroke="none"/>
          <path d="M 8.207638740539551 1.523531913757324 L 1.59821605682373 1.623777627944946 L 1.539852142333984 3.883131504058838 L 8.149274826049805 3.782885789871216 L 8.207638740539551 1.523531913757324 M 9.747495651245117 1.9073486328125e-06 L 9.611595153808594 5.260881900787354 L -4.76837158203125e-06 5.406661510467529 L 0.1358957290649414 0.1457815170288086 L 9.747495651245117 1.9073486328125e-06 Z" stroke="none" fill="#6a6b75"/>
        </g>
      </g>
    </g>
  </g>
  <line id="Línea_1459" data-name="Línea 1459" x2="2" y2="2" transform="translate(5.5 4.5)" fill="none" stroke="#6a6b75" stroke-width="2"/>
</svg>
