<svg xmlns="http://www.w3.org/2000/svg" xmlns:xlink="http://www.w3.org/1999/xlink" viewBox="0 0 20 20">
  <defs>
    <style>
      .cls-1 {
        fill: #00b596;
      }

      .cls-2 {
        fill: none;
      }

      .cls-3 {
        clip-path: url(#clip-path);
      }
    </style>
    <clipPath id="clip-path">
      <path id="Path_658" data-name="Path 658" class="cls-1" d="M0-32H18v20H0Z" transform="translate(0 32)"/>
    </clipPath>
  </defs>
  <g id="Group_4127" data-name="Group 4127" transform="translate(-956 -131)">
    <rect id="Rectangle_1906" data-name="Rectangle 1906" class="cls-2" width="20" height="20" transform="translate(956 131)"/>
    <g id="Group_4113" data-name="Group 4113" transform="translate(957 163)">
      <g id="Group_920" data-name="Group 920" class="cls-3" transform="translate(0 -32)">
        <g id="Group_919" data-name="Group 919" transform="translate(0)">
          <path id="Path_657" data-name="Path 657" class="cls-1" d="M-1.593-9.75A3.67,3.67,0,0,0-.6-12.25V-18.5a5.018,5.018,0,0,1,3.463-4.721A5.351,5.351,0,0,1,3.9-23.455v-.67a.634.634,0,0,1,.643-.625.634.634,0,0,1,.643.625v.67a5.351,5.351,0,0,1,1.037.234A5.018,5.018,0,0,1,9.682-18.5v6.25a3.673,3.673,0,0,0,.988,2.5Zm6.132,2.5A1.269,1.269,0,0,1,3.253-8.5H5.825A1.268,1.268,0,0,1,4.539-7.25M12.9-9.839a2.508,2.508,0,0,1-1.929-2.411V-18.5a6.278,6.278,0,0,0-4.537-5.974A1.912,1.912,0,0,0,4.539-26a1.912,1.912,0,0,0-1.892,1.526A6.278,6.278,0,0,0-1.89-18.5v6.25A2.508,2.508,0,0,1-3.818-9.839s-.643.177-.643.714a.634.634,0,0,0,.643.625H1.968A2.537,2.537,0,0,0,4.539-6,2.537,2.537,0,0,0,7.11-8.5H12.9a.634.634,0,0,0,.643-.625c0-.547-.643-.714-.643-.714" transform="translate(4.461 26)"/>
        </g>
      </g>
    </g>
  </g>
</svg>
