<svg id="ico-folder-gr-16p" xmlns="http://www.w3.org/2000/svg" width="16" height="16" viewBox="0 0 16 16">
  <rect id="Rectángulo_201" data-name="Rectángulo 201" width="16" height="16" fill="none"/>
  <g id="Grupo_1588" data-name="Grupo 1588" transform="translate(1.586 2.876)">
    <g id="Trazado_676" data-name="Trazado 676" transform="translate(-80.962 -577.941)" fill="none" stroke-linecap="square" stroke-linejoin="round">
      <path d="M80.962,577.941h3.965l1.812,2.562h6.911v8.541H80.962Z" stroke="none"/>
      <path d="M 80.96204376220703 577.9412231445313 L 80.96204376220703 589.0439453125 L 93.65087127685547 589.0439453125 L 93.65087127685547 580.5032958984375 L 86.73941040039063 580.5032958984375 L 84.92728424072266 577.9412231445313 L 80.96204376220703 577.9412231445313 M 80.96204376220703 576.4412231445313 L 84.92728424072266 576.4412231445313 C 85.41417694091797 576.4412231445313 85.87078094482422 576.6775512695313 86.15192413330078 577.0750732421875 L 87.5157470703125 579.0032958984375 L 93.65087127685547 579.0032958984375 C 94.47929382324219 579.0032958984375 95.15087127685547 579.6748657226563 95.15087127685547 580.5032958984375 L 95.15087127685547 589.0439453125 C 95.15087127685547 589.8723754882813 94.47929382324219 590.5439453125 93.65087127685547 590.5439453125 L 80.96204376220703 590.5439453125 C 80.13362121582031 590.5439453125 79.46204376220703 589.8723754882813 79.46204376220703 589.0439453125 L 79.46204376220703 577.9412231445313 C 79.46204376220703 577.11279296875 80.13362121582031 576.4412231445313 80.96204376220703 576.4412231445313 Z" stroke="none" fill="#06a086"/>
    </g>
    <line id="Línea_35" data-name="Línea 35" x2="7.137" transform="translate(2.379 8.644)" fill="none" stroke="#06a086" stroke-linecap="square" stroke-width="1.5"/>
    <line id="Línea_1071" data-name="Línea 1071" x2="5.535" transform="translate(2.379 5.644)" fill="none" stroke="#06a086" stroke-linecap="square" stroke-width="1.5"/>
  </g>
</svg>
