<svg id="ico-ok" xmlns="http://www.w3.org/2000/svg" width="16" height="16" viewBox="0 0 16 16">
  <g id="Trazado_1467" data-name="Trazado 1467" fill="#00b596">
    <path d="M 8 15.25 C 4.002339839935303 15.25 0.75 11.99765968322754 0.75 8 C 0.75 4.002339839935303 4.002339839935303 0.75 8 0.75 C 11.99765968322754 0.75 15.25 4.002339839935303 15.25 8 C 15.25 11.99765968322754 11.99765968322754 15.25 8 15.25 Z" stroke="none"/>
    <path d="M 8 1.5 C 4.415889739990234 1.5 1.5 4.415889739990234 1.5 8 C 1.5 11.58411026000977 4.415889739990234 14.5 8 14.5 C 11.58411026000977 14.5 14.5 11.58411026000977 14.5 8 C 14.5 4.415889739990234 11.58411026000977 1.5 8 1.5 M 8 0 C 12.41827964782715 0 16 3.581720352172852 16 8 C 16 12.41827964782715 12.41827964782715 16 8 16 C 3.581720352172852 16 0 12.41827964782715 0 8 C 0 3.581720352172852 3.581720352172852 0 8 0 Z" stroke="none" fill="#12a38a"/>
  </g>
  <path id="Trazado_1309" data-name="Trazado 1309" d="M-2999.615,1503.054l2.143,2.333,3.857-4.2" transform="translate(3004.643 -1495.086)" fill="none" stroke="#fff" stroke-linecap="round" stroke-linejoin="round" stroke-width="2"/>
</svg>
