<svg id="ico-debug" xmlns="http://www.w3.org/2000/svg" width="20" height="20" viewBox="0 0 20 20">
  <rect id="Rectángulo_2442" data-name="Rectángulo 2442" width="20" height="20" fill="none"/>
  <g id="Grupo_7815" data-name="Grupo 7815" transform="translate(-292.512 -218.542)">
    <rect id="Rectángulo_3070" data-name="Rectángulo 3070" width="9.756" height="12.095" rx="4.424" transform="translate(297.66 222.425)" fill="none" stroke="#6a6b75" stroke-linecap="round" stroke-linejoin="round" stroke-width="1.6"/>
    <path id="Trazado_2707" data-name="Trazado 2707" d="M294.6,222.921v.656a3.179,3.179,0,0,0,3.269,3.081h9.33a3.179,3.179,0,0,0,3.269-3.081v-.656" transform="translate(0 0.185)" fill="none" stroke="#6a6b75" stroke-linecap="round" stroke-linejoin="round" stroke-width="1.6"/>
    <g id="Grupo_7812" data-name="Grupo 7812" transform="translate(295.367 232.343)">
      <path id="Trazado_2708" data-name="Trazado 2708" d="M306.033,231.46a2.938,2.938,0,0,1,2.768,3.082v.655" transform="translate(-294.459 -231.46)" fill="none" stroke="#6a6b75" stroke-linecap="round" stroke-linejoin="round" stroke-width="1.6"/>
      <path id="Trazado_2709" data-name="Trazado 2709" d="M295.367,235.2v-.655a2.937,2.937,0,0,1,2.767-3.082" transform="translate(-295.367 -231.46)" fill="none" stroke="#6a6b75" stroke-linecap="round" stroke-linejoin="round" stroke-width="1.6"/>
    </g>
    <line id="Línea_1448" data-name="Línea 1448" y2="6.311" transform="translate(302.538 227.408)" fill="none" stroke="#6a6b75" stroke-linecap="round" stroke-linejoin="round" stroke-width="1.6"/>
    <g id="Grupo_7813" data-name="Grupo 7813" transform="translate(298.866 220.659)">
      <line id="Línea_1449" data-name="Línea 1449" x2="1.766" y2="1.766" fill="none" stroke="#6a6b75" stroke-linecap="round" stroke-linejoin="round" stroke-width="1.6"/>
      <line id="Línea_1450" data-name="Línea 1450" x1="1.766" y2="1.766" transform="translate(5.578)" fill="none" stroke="#6a6b75" stroke-linecap="round" stroke-linejoin="round" stroke-width="1.6"/>
    </g>
    <g id="Grupo_7814" data-name="Grupo 7814" transform="translate(295.162 229.328)">
      <line id="Línea_1451" data-name="Línea 1451" x2="2.498" fill="none" stroke="#6a6b75" stroke-linecap="round" stroke-linejoin="round" stroke-width="1.6"/>
      <line id="Línea_1452" data-name="Línea 1452" x2="2.498" transform="translate(12.254)" fill="none" stroke="#6a6b75" stroke-linecap="round" stroke-linejoin="round" stroke-width="1.6"/>
    </g>
  </g>
</svg>
