<svg xmlns="http://www.w3.org/2000/svg" width="32" height="32" viewBox="0 0 32 32">
  <g id="Grupo_5874" data-name="Grupo 5874" transform="translate(-349 -189)">
    <g id="Grupo_5860" data-name="Grupo 5860" transform="translate(-500 -169)">
      <rect id="Rectángulo_1" data-name="Rectángulo 1" width="32" height="32" transform="translate(849 358)" fill="none"/>
      <path id="Trazado_1" data-name="Trazado 1" d="M13-8C20.18-8,26-2.474,26,4.343S13,24,13,24,0,11.16,0,4.343,5.82-8,13-8Z" transform="translate(852 366)" fill="#01a2e0"/>
    </g>
    <g id="Grupo_5861" data-name="Grupo 5861" transform="translate(-553.966 -454.507)">
      <path id="Trazado_2045" data-name="Trazado 2045" d="M758.831,759.641h2.346l.335-.537h2.839v3.069h2.8V759.1h3.037l.3.537h2.346v-2.468h-14Z" transform="translate(153.094 -105.686)" fill="#fff"/>
      <path id="Trazado_2046" data-name="Trazado 2046" d="M762.109,789.332l-2.725,5.053h2.251l1.382-2.443,3.278,2.443,3.278-2.443,1.58,2.443h2.231l-2.764-5.053H768.21v2.61h-3.772v-2.61Z" transform="translate(152.58 -134.825)" fill="#fff"/>
    </g>
  </g>
</svg>
