<svg id="btn_projects_grid" xmlns="http://www.w3.org/2000/svg" width="20" height="20" viewBox="0 0 20 20">
  <rect id="Rectángulo_201" data-name="Rectángulo 201" width="20" height="20" fill="none"/>
  <g id="Grupo_1588" data-name="Grupo 1588" transform="translate(-288.962 -540.49)">
    <g id="Trazado_676" data-name="Trazado 676" transform="translate(210 -34)" fill="none" stroke-linecap="square" stroke-linejoin="round">
      <path d="M80.962,577.941h5l2.285,3.231h8.715v10.769h-16Z" stroke="none"/>
      <path d="M 80.96204376220703 577.9412231445312 L 80.96204376220703 591.9412231445312 L 96.96204376220703 591.9412231445312 L 96.96204376220703 581.1719360351562 L 88.24701690673828 581.1719360351562 L 85.9620361328125 577.9412231445312 L 80.96204376220703 577.9412231445312 M 80.96204376220703 576.4412231445312 L 85.9620361328125 576.4412231445312 C 86.44893646240234 576.4412231445312 86.90553283691406 576.6775512695312 87.18668365478516 577.0750732421875 L 89.02336883544922 579.6719360351562 L 96.96204376220703 579.6719360351562 C 97.79047393798828 579.6719360351562 98.46204376220703 580.343505859375 98.46204376220703 581.1719360351562 L 98.46204376220703 591.9412231445312 C 98.46204376220703 592.7696533203125 97.79047393798828 593.4412231445312 96.96204376220703 593.4412231445312 L 80.96204376220703 593.4412231445312 C 80.13361358642578 593.4412231445312 79.46204376220703 592.7696533203125 79.46204376220703 591.9412231445312 L 79.46204376220703 577.9412231445312 C 79.46204376220703 577.11279296875 80.13361358642578 576.4412231445312 80.96204376220703 576.4412231445312 Z" stroke="none" fill="#6a6b75"/>
    </g>
    <line id="Línea_34" data-name="Línea 34" x2="6" transform="translate(293.962 551.741)" fill="none" stroke="#6a6b75" stroke-linecap="square" stroke-width="1.5"/>
    <line id="Línea_35" data-name="Línea 35" x2="9" transform="translate(293.962 554.841)" fill="none" stroke="#6a6b75" stroke-linecap="square" stroke-width="1.5"/>
  </g>
</svg>
