<svg xmlns="http://www.w3.org/2000/svg" width="32" height="32" viewBox="0 0 32 32">
  <g id="Grupo_5885" data-name="Grupo 5885" transform="translate(-307 -240)">
    <g id="Grupo_5884" data-name="Grupo 5884">
      <g id="Grupo_5882" data-name="Grupo 5882">
        <g id="Grupo_5880" data-name="Grupo 5880" transform="translate(-128 51)">
          <g id="Grupo_5865" data-name="Grupo 5865" transform="translate(-414 -169)">
            <rect id="Rectángulo_1" data-name="Rectángulo 1" width="32" height="32" transform="translate(849 358)" fill="none"/>
            <path id="Trazado_1" data-name="Trazado 1" d="M13-8C20.18-8,26-2.474,26,4.343S13,24,13,24,0,11.16,0,4.343,5.82-8,13-8Z" transform="translate(852 366)" fill="#ff956e"/>
          </g>
        </g>
        <g id="Grupo_5881" data-name="Grupo 5881" transform="translate(-1051.5 -107.25)">
          <line id="Línea_143" data-name="Línea 143" x2="10" transform="translate(1369.5 364.25)" fill="none" stroke="#242424" stroke-linecap="round" stroke-width="1.5"/>
          <line id="Línea_144" data-name="Línea 144" x1="2.953" y2="7.264" transform="translate(1370.893 356.673)" fill="none" stroke="#242424" stroke-linecap="round" stroke-width="1.5"/>
          <line id="Línea_145" data-name="Línea 145" x2="2.953" y2="7.264" transform="translate(1375.155 356.673)" fill="none" stroke="#242424" stroke-linecap="round" stroke-width="1.5"/>
          <circle id="Elipse_74" data-name="Elipse 74" cx="1.958" cy="1.958" r="1.958" transform="translate(1372.542 353.806)" fill="#242424"/>
          <line id="Línea_147" data-name="Línea 147" x1="5.33" y2="4.187" transform="translate(1370.893 359.75)" fill="none" stroke="#242424" stroke-linecap="round" stroke-width="1.5"/>
          <line id="Línea_148" data-name="Línea 148" x1="5.33" y1="4.187" transform="translate(1372.778 359.75)" fill="none" stroke="#242424" stroke-linecap="round" stroke-width="1.5"/>
          <line id="Línea_149" data-name="Línea 149" y1="3" transform="translate(1374.5 352.25)" fill="none" stroke="#242424" stroke-linecap="round" stroke-width="1.5"/>
        </g>
      </g>
    </g>
  </g>
</svg>
