<svg xmlns="http://www.w3.org/2000/svg" viewBox="0 0 24 24.557">
  <defs>
    <style>
      .cls-1, .cls-3, .cls-4, .cls-5 {
        fill: none;
      }

      .cls-2, .cls-7 {
        fill: #062743;
      }

      .cls-3, .cls-5 {
        stroke: #062743;
      }

      .cls-3, .cls-4, .cls-5 {
        stroke-width: 2px;
      }

      .cls-4 {
        stroke: #fff;
      }

      .cls-5 {
        stroke-linecap: round;
      }

      .cls-6, .cls-7 {
        stroke: none;
      }
    </style>
  </defs>
  <g id="Group_3299" data-name="Group 3299" transform="translate(-526 -298.443)">
    <g id="Group_2481" data-name="Group 2481" transform="translate(526 299)">
      <rect id="Rectangle_890" data-name="Rectangle 890" class="cls-1" width="24" height="24" transform="translate(24 0) rotate(90)"/>
      <rect id="Rectangle_1181" data-name="Rectangle 1181" class="cls-1" width="24" height="24" transform="translate(24 0) rotate(90)"/>
      <g id="Group_2480" data-name="Group 2480" transform="translate(4.286)">
        <g id="Path_1326" data-name="Path 1326" class="cls-2" transform="translate(0 0)">
          <path class="cls-6" d="M 5.268435955047607 15.5810079574585 C 5.209858417510986 15.5810079574585 5.152714252471924 15.58087825775146 5.096794605255127 15.58061599731445 C 4.778712272644043 14.58658599853516 4.042488574981689 13.53789234161377 3.222575902938843 12.37003803253174 C 2.180785894393921 10.88616847991943 0.9999958276748657 9.20430850982666 0.9999958276748657 7.894608020782471 C 0.9999958276748657 4.092908382415771 4.012015819549561 0.999998152256012 7.714285850524902 0.999998152256012 C 11.41655540466309 0.999998152256012 14.42857551574707 4.092908382415771 14.42857551574707 7.894608020782471 C 14.42857551574707 9.148418426513672 13.26472568511963 10.60716819763184 12.13918590545654 12.01788806915283 C 11.18263053894043 13.21681499481201 10.26738548278809 14.36394500732422 9.908862113952637 15.54566097259521 C 9.815842628479004 15.54518413543701 9.716643333435059 15.54494857788086 9.61098575592041 15.54494857788086 C 8.984295845031738 15.54494857788086 8.196725845336914 15.55300807952881 7.284795761108398 15.56234836578369 L 7.04662561416626 15.56477832794189 C 6.823085784912109 15.56701850891113 6.615565776824951 15.56940841674805 6.420795917510986 15.57165813446045 C 5.986865997314453 15.57667827606201 5.612115859985352 15.5810079574585 5.268435955047607 15.5810079574585 Z"/>
          <path class="cls-7" d="M 7.714285850524902 1.999998092651367 C 4.56341552734375 1.999998092651367 1.999996185302734 4.644308090209961 1.999996185302734 7.894608497619629 C 1.999996185302734 8.888318061828613 3.131686210632324 10.5002384185791 4.041006088256836 11.79543876647949 C 4.706528663635254 12.74337768554688 5.350586891174316 13.6607666015625 5.772421836853027 14.57851314544678 C 5.970664024353027 14.57679557800293 6.181657791137695 14.57435703277588 6.409015655517578 14.57172775268555 C 6.604335784912109 14.56947803497314 6.812445640563965 14.56706809997559 7.036436080932617 14.56482791900635 L 7.274206161499023 14.56239795684814 C 8.010629653930664 14.55486297607422 8.666267395019531 14.54815101623535 9.22357177734375 14.54582023620605 C 9.723333358764648 13.4423942565918 10.5490665435791 12.40749073028564 11.35749626159668 11.39421844482422 C 12.28021621704102 10.23769760131836 13.42857551574707 8.798377990722656 13.42857551574707 7.894608497619629 C 13.42857551574707 4.644308090209961 10.86515617370605 1.999998092651367 7.714285850524902 1.999998092651367 M 7.714285850524902 -1.9073486328125e-06 C 11.97476577758789 -1.9073486328125e-06 15.42857551574707 3.534538269042969 15.42857551574707 7.894608497619629 C 15.42857551574707 10.95534801483154 10.74990653991699 14.03921794891357 10.74990653991699 16.56472778320312 C 10.50627326965332 16.55029487609863 10.11510181427002 16.54495048522949 9.610988616943359 16.54495048522949 C 8.935189247131348 16.54495048522949 8.056312561035156 16.55455017089844 7.056805610656738 16.56472778320312 C 6.328401565551758 16.57200813293457 5.772259712219238 16.58100318908691 5.268434524536133 16.58100318908691 C 4.921612739562988 16.58100318908691 4.599639892578125 16.57674407958984 4.263095855712891 16.56472778320312 C 4.263095855712891 14.43844795227051 -3.814697265625e-06 10.88997840881348 -3.814697265625e-06 7.894608497619629 C -3.814697265625e-06 3.534538269042969 3.453805923461914 -1.9073486328125e-06 7.714285850524902 -1.9073486328125e-06 Z"/>
        </g>
        <g id="Rectangle_914" data-name="Rectangle 914" class="cls-3" transform="translate(2.925 15.69)">
          <rect class="cls-6" width="9.495" height="4.749" rx="2.374"/>
          <rect class="cls-1" x="1" y="1" width="7.495" height="2.749" rx="1.374"/>
        </g>
        <g id="Rectangle_915" data-name="Rectangle 915" class="cls-3" transform="translate(2.925 19.251)">
          <rect class="cls-6" width="9.495" height="4.749" rx="2.374"/>
          <rect class="cls-1" x="1" y="1" width="7.495" height="2.749" rx="1.374"/>
        </g>
        <g id="Ellipse_176" data-name="Ellipse 176" class="cls-4" transform="translate(4.112 3.949)">
          <circle class="cls-6" cx="3.429" cy="3.429" r="3.429"/>
          <circle class="cls-1" cx="3.429" cy="3.429" r="2.429"/>
        </g>
        <line id="Line_338" data-name="Line 338" class="cls-4" y2="5.863" transform="translate(7.672 9.827)"/>
      </g>
    </g>
    <line id="Line_362" data-name="Line 362" class="cls-5" x1="1.714" y1="1.714" transform="translate(527.714 299.857)"/>
    <path id="Path_1536" data-name="Path 1536" class="cls-5" d="M0,1.714,1.714,0" transform="translate(546.571 299.857)"/>
    <line id="Line_364" data-name="Line 364" class="cls-5" x2="1.714" y2="1.714" transform="translate(546.143 313.143)"/>
    <line id="Line_365" data-name="Line 365" class="cls-5" x1="1.714" y2="1.714" transform="translate(528.143 313.143)"/>
  </g>
</svg>
