<svg xmlns="http://www.w3.org/2000/svg" width="16" height="16" viewBox="0 0 16 16">
  <g id="Grupo_8254" data-name="Grupo 8254" transform="translate(-284 381) rotate(-90)">
    <g id="Grupo_8251" data-name="Grupo 8251" transform="translate(620 -436) rotate(90)">
      <g id="Grupo_8250" data-name="Grupo 8250" transform="translate(724 239)">
        <path id="Trazado_2966" data-name="Trazado 2966" d="M599.74,261.525h-1.449v-1.5h1.449a1.868,1.868,0,0,0,1.923-1.8v-3.393a1.868,1.868,0,0,0-1.923-1.8h-.954a1.868,1.868,0,0,0-1.923,1.8V256.9l-1.6.94v-3.011a3.423,3.423,0,0,1,3.523-3.3h.954a3.422,3.422,0,0,1,3.523,3.3v3.393A3.421,3.421,0,0,1,599.74,261.525Z" transform="translate(-595.263 -251.525)" fill="#06a086"/>
        <path id="Trazado_2967" data-name="Trazado 2967" d="M598.786,257.913h1.45v1.5h-1.45a1.868,1.868,0,0,0-1.923,1.8v3.392a1.869,1.869,0,0,0,1.923,1.8h.954a1.868,1.868,0,0,0,1.923-1.8v-2.07l1.6-.94v3.01a3.422,3.422,0,0,1-3.523,3.3h-.954a3.423,3.423,0,0,1-3.523-3.3v-3.392A3.423,3.423,0,0,1,598.786,257.913Z" transform="translate(-595.263 -251.913)" fill="#06a086"/>
      </g>
    </g>
    <rect id="Rectángulo_3442" data-name="Rectángulo 3442" width="16" height="16" rx="2" transform="translate(381 284) rotate(90)" fill="none"/>
  </g>
</svg>
