<svg id="ico-maintenance" xmlns="http://www.w3.org/2000/svg" width="20.052" height="20" viewBox="0 0 20.052 20">
  <path id="Trazado_2758" data-name="Trazado 2758" d="M0,0H20V20H0Z" transform="translate(0.052)" fill="none"/>
  <g id="Grupo_1650" data-name="Grupo 1650" transform="translate(-2348.39 -353.718)">
    <path id="Trazado_818" data-name="Trazado 818" d="M1780.734,231.891s-5.249,5.206-6.161,6.132-1.84,2.49-.336,3.965c1.133,1.032,2.587.72,3.949-.7s5.952-6.161,5.952-6.161" transform="translate(576 130.124)" fill="none" stroke="#6a6b75" stroke-width="1.5"/>
    <path id="Trazado_819" data-name="Trazado 819" d="M1.346,8.464C-.259,6.519-.546,4.3,1.126,2.3A6.366,6.366,0,0,1,4.484.072a1.183,1.183,0,0,1,1.335,1.9c.032.012-1.63,1.888-1.626,1.927C3.066,5.339,3.381,6.244,3.977,6.75c.828.787,2.159.6,3.244-.895.606-.749,1.336-1.543,1.67-1.961.586-.815,1.968-.76,1.963.981A8.278,8.278,0,0,1,8.888,9.311C6.827,11.535,2.95,10.41,1.346,8.464Z" transform="translate(2356.629 354.718) rotate(5)" fill="none" stroke="#6a6b75" stroke-width="1.5"/>
  </g>
  <circle id="Elipse_561" data-name="Elipse 561" cx="1" cy="1" r="1" transform="translate(3.052 15)" fill="#6a6b75"/>
</svg>
