<svg xmlns="http://www.w3.org/2000/svg" width="242" height="32.452" viewBox="0 0 242 32.452">
  <g id="Grupo_7646" data-name="Grupo 7646" transform="translate(-105 -91.614)">
    <g id="Grupo_7644" data-name="Grupo 7644" transform="translate(105 91.614)">
      <g id="Grupo_7642" data-name="Grupo 7642" transform="translate(0 0)">
        <path id="Trazado_2669" data-name="Trazado 2669" d="M18.3,54.32a5.731,5.731,0,0,0,0-7.3A4.384,4.384,0,0,0,15,45.662a4.426,4.426,0,0,0-3.329,1.362,5.731,5.731,0,0,0,0,7.3A4.421,4.421,0,0,0,15,55.682,4.379,4.379,0,0,0,18.3,54.32m6.457-12.693v18.09h-5.01V57.632a6.918,6.918,0,0,1-5.649,2.354,9.389,9.389,0,0,1-4.623-1.143,8.18,8.18,0,0,1-3.245-3.261,10.828,10.828,0,0,1,0-9.818A8.169,8.169,0,0,1,9.471,42.5a9.39,9.39,0,0,1,4.623-1.145,6.883,6.883,0,0,1,5.413,2.185V41.628Z" transform="translate(-5.05 -27.715)" fill="#00b596"/>
        <path id="Trazado_2670" data-name="Trazado 2670" d="M64.466,54.977a5.394,5.394,0,0,1-1.9.857,9.6,9.6,0,0,1-2.371.286A7.039,7.039,0,0,1,55.2,54.473a6.3,6.3,0,0,1-1.766-4.843V42.2h-2.79V38.166h2.79v-4.4h5.246v4.4h4.505V42.2H58.683v7.364a2.465,2.465,0,0,0,.588,1.764,2.175,2.175,0,0,0,1.665.624,3.369,3.369,0,0,0,2.118-.673Z" transform="translate(-28.254 -23.849)" fill="#00b596"/>
        <path id="Trazado_2671" data-name="Trazado 2671" d="M92.361,42.033a9.419,9.419,0,0,1,3.682-.673V46.2q-.875-.066-1.177-.066a4.8,4.8,0,0,0-3.53,1.26,5.093,5.093,0,0,0-1.278,3.783v8.54H84.813V41.628h5.01v2.389a5.821,5.821,0,0,1,2.538-1.984" transform="translate(-45.642 -27.716)" fill="#00b596"/>
        <path id="Trazado_2672" data-name="Trazado 2672" d="M117.658,46.335a4.286,4.286,0,0,0-1.48,2.756h8.91a4.339,4.339,0,0,0-1.479-2.74,4.429,4.429,0,0,0-2.959-1.025,4.515,4.515,0,0,0-2.992,1.009m12.272,5.816H116.246a4.258,4.258,0,0,0,1.748,2.657,5.79,5.79,0,0,0,3.43.974,6.952,6.952,0,0,0,2.505-.42,6.083,6.083,0,0,0,2.034-1.328l2.79,3.026q-2.555,2.927-7.464,2.925a11.8,11.8,0,0,1-5.413-1.194,8.739,8.739,0,0,1-3.632-3.311,9.129,9.129,0,0,1-1.277-4.808,9.254,9.254,0,0,1,1.261-4.792,8.837,8.837,0,0,1,3.464-3.328,10.712,10.712,0,0,1,9.733-.05,8.351,8.351,0,0,1,3.38,3.277,9.791,9.791,0,0,1,1.227,4.96q0,.1-.1,1.412" transform="translate(-58.952 -27.715)" fill="#00b596"/>
        <path id="Trazado_2673" data-name="Trazado 2673" d="M170,47.491a5.077,5.077,0,0,0,1.295-3.648A5.082,5.082,0,0,0,170,40.195a4.71,4.71,0,0,0-6.623,0,5.078,5.078,0,0,0-1.295,3.649,5.073,5.073,0,0,0,1.295,3.648,4.708,4.708,0,0,0,6.623,0m2.186-11.8a8.328,8.328,0,0,1,3.244,3.262,9.836,9.836,0,0,1,1.178,4.892,9.841,9.841,0,0,1-1.178,4.893A8.336,8.336,0,0,1,172.189,52a9.223,9.223,0,0,1-4.59,1.159,6.952,6.952,0,0,1-5.682-2.354v2.085h-5.011V27.939h5.245v8.776a6.986,6.986,0,0,1,5.447-2.186,9.224,9.224,0,0,1,4.59,1.161" transform="translate(-82.332 -20.886)" fill="#00b596"/>
        <path id="Trazado_2674" data-name="Trazado 2674" d="M214.674,54.32a5.074,5.074,0,0,0,1.295-3.648,5.078,5.078,0,0,0-1.295-3.649,4.369,4.369,0,0,0-3.311-1.362,4.424,4.424,0,0,0-3.329,1.362,5.73,5.73,0,0,0,0,7.3,4.419,4.419,0,0,0,3.329,1.362,4.364,4.364,0,0,0,3.311-1.362m-8.439,4.472a8.873,8.873,0,0,1-3.548-3.312,9.688,9.688,0,0,1,0-9.617,8.88,8.88,0,0,1,3.548-3.312,11.568,11.568,0,0,1,10.238,0A8.915,8.915,0,0,1,220,45.864a9.689,9.689,0,0,1,0,9.617,8.908,8.908,0,0,1-3.531,3.312,11.576,11.576,0,0,1-10.238,0" transform="translate(-104.98 -27.715)" fill="#00b596"/>
        <path id="Trazado_2675" data-name="Trazado 2675" d="M244.008,18.545a5.937,5.937,0,1,0-11.875.025c0,.08.009.159.012.237l-.012,0,.012,5.7,5.937-.012a5.937,5.937,0,0,0,5.925-5.95" transform="translate(-120.615 -12.62)" fill="#00b596"/>
        <path id="Trazado_2677" data-name="Trazado 2677" d="M220.012,21.673a3.669,3.669,0,1,0-.212,7.334c.05,0,.1,0,.147,0l0,.008,3.517.1.107-3.667a3.668,3.668,0,0,0-3.561-3.773" transform="translate(-112.525 -17.227)" fill="#66d3c0"/>
      </g>
      <g id="Grupo_7643" data-name="Grupo 7643" transform="translate(132.228 16.038)">
        <path id="Trazado_2678" data-name="Trazado 2678" d="M17.718,95.09h.81v5.666h-.81Z" transform="translate(-17.718 -95.025)" fill="#00b596"/>
        <path id="Trazado_2679" data-name="Trazado 2679" d="M26.641,95.09v5.666h-.664l-3.4-4.226v4.226h-.81V95.09h.664l3.4,4.226V95.09Z" transform="translate(-19.339 -95.025)" fill="#00b596"/>
        <path id="Trazado_2680" data-name="Trazado 2680" d="M33.418,95.794V97.77h2.841v.7H33.418v2.291h-.81V95.09h4v.7Z" transform="translate(-23.679 -95.025)" fill="#00b596"/>
        <path id="Trazado_2681" data-name="Trazado 2681" d="M44.834,100.756l-1.222-1.74c-.151.01-.27.016-.356.016h-1.4v1.724h-.809V95.09h2.21a2.628,2.628,0,0,1,1.732.526,1.785,1.785,0,0,1,.631,1.449,1.893,1.893,0,0,1-.324,1.117,1.827,1.827,0,0,1-.923.672l1.344,1.9Zm-.429-2.744a1.306,1.306,0,0,0,0-1.891,1.832,1.832,0,0,0-1.174-.327H41.855v2.55h1.376A1.811,1.811,0,0,0,44.405,98.012Z" transform="translate(-27.057 -95.025)" fill="#00b596"/>
        <path id="Trazado_2682" data-name="Trazado 2682" d="M53.777,99.34H50.765l-.623,1.416h-.834l2.566-5.666h.8l2.574,5.666H54.4Zm-.284-.648-1.222-2.777-1.223,2.777Z" transform="translate(-30.365 -95.025)" fill="#00b596"/>
        <path id="Trazado_2683" data-name="Trazado 2683" d="M60.557,100.579a2.532,2.532,0,0,1-.935-.514l.3-.631a2.484,2.484,0,0,0,.83.474,3.066,3.066,0,0,0,1.04.182,1.875,1.875,0,0,0,1.052-.239.737.737,0,0,0,.348-.635A.629.629,0,0,0,63,98.742a1.272,1.272,0,0,0-.47-.279c-.186-.065-.449-.138-.79-.219a7.9,7.9,0,0,1-1.031-.308,1.7,1.7,0,0,1-.673-.473,1.267,1.267,0,0,1-.278-.862A1.457,1.457,0,0,1,60,95.783a1.644,1.644,0,0,1,.725-.583,2.938,2.938,0,0,1,1.206-.218,3.809,3.809,0,0,1,.987.129,2.65,2.65,0,0,1,.834.372l-.267.648a2.959,2.959,0,0,0-.76-.344,2.872,2.872,0,0,0-.793-.117,1.756,1.756,0,0,0-1.032.251.77.77,0,0,0-.344.648.622.622,0,0,0,.194.474,1.369,1.369,0,0,0,.482.284,7.875,7.875,0,0,0,.781.214,7.9,7.9,0,0,1,1.027.307,1.746,1.746,0,0,1,.668.47,1.24,1.24,0,0,1,.279.85,1.438,1.438,0,0,1-.243.814,1.622,1.622,0,0,1-.736.582,3.027,3.027,0,0,1-1.214.215A3.869,3.869,0,0,1,60.557,100.579Z" transform="translate(-34.494 -94.982)" fill="#00b596"/>
        <path id="Trazado_2684" data-name="Trazado 2684" d="M69.191,95.794H67.248v-.7h4.688v.7H69.993v4.962h-.8Z" transform="translate(-37.547 -95.025)" fill="#00b596"/>
        <path id="Trazado_2685" data-name="Trazado 2685" d="M80.2,100.756l-1.222-1.74c-.151.01-.27.016-.356.016h-1.4v1.724h-.81V95.09h2.21a2.628,2.628,0,0,1,1.732.526,1.785,1.785,0,0,1,.631,1.449,1.893,1.893,0,0,1-.324,1.117,1.827,1.827,0,0,1-.923.672l1.344,1.9Zm-.429-2.744a1.306,1.306,0,0,0,0-1.891,1.833,1.833,0,0,0-1.174-.327H77.226v2.55H78.6A1.812,1.812,0,0,0,79.775,98.012Z" transform="translate(-41.217 -95.025)" fill="#00b596"/>
        <path id="Trazado_2686" data-name="Trazado 2686" d="M86.658,100.174a2.559,2.559,0,0,1-.631-1.862V95.09h.81v3.189q0,1.822,1.595,1.821a1.533,1.533,0,0,0,1.19-.449,1.971,1.971,0,0,0,.413-1.373V95.09h.786v3.222a2.555,2.555,0,0,1-.631,1.866,2.734,2.734,0,0,1-3.53,0Z" transform="translate(-45.065 -95.025)" fill="#00b596"/>
        <path id="Trazado_2687" data-name="Trazado 2687" d="M97.356,100.4a2.765,2.765,0,0,1-1.073-1.037,3.032,3.032,0,0,1,0-2.97,2.752,2.752,0,0,1,1.077-1.037,3.154,3.154,0,0,1,1.538-.376,3.208,3.208,0,0,1,1.215.222,2.484,2.484,0,0,1,.938.66l-.526.51a2.113,2.113,0,0,0-1.595-.671,2.3,2.3,0,0,0-1.142.283,2.046,2.046,0,0,0-.8.781,2.295,2.295,0,0,0,0,2.225,2.046,2.046,0,0,0,.8.781,2.3,2.3,0,0,0,1.142.283,2.117,2.117,0,0,0,1.595-.679l.526.509a2.52,2.52,0,0,1-.943.664,3.19,3.19,0,0,1-1.219.227A3.13,3.13,0,0,1,97.356,100.4Z" transform="translate(-49.015 -94.982)" fill="#00b596"/>
        <path id="Trazado_2688" data-name="Trazado 2688" d="M106.775,95.794h-1.943v-.7h4.687v.7h-1.942v4.962h-.8Z" transform="translate(-52.593 -95.025)" fill="#00b596"/>
        <path id="Trazado_2689" data-name="Trazado 2689" d="M114.373,100.174a2.559,2.559,0,0,1-.631-1.862V95.09h.81v3.189q0,1.822,1.595,1.821a1.533,1.533,0,0,0,1.19-.449,1.974,1.974,0,0,0,.413-1.373V95.09h.785v3.222a2.554,2.554,0,0,1-.631,1.866,2.734,2.734,0,0,1-3.53,0Z" transform="translate(-56.16 -95.025)" fill="#00b596"/>
        <path id="Trazado_2690" data-name="Trazado 2690" d="M128.168,100.756l-1.222-1.74c-.151.01-.27.016-.357.016h-1.4v1.724h-.809V95.09h2.209a2.629,2.629,0,0,1,1.733.526,1.785,1.785,0,0,1,.631,1.449,1.893,1.893,0,0,1-.324,1.117,1.829,1.829,0,0,1-.923.672l1.344,1.9Zm-.429-2.744a1.3,1.3,0,0,0,0-1.891,1.83,1.83,0,0,0-1.174-.327h-1.376v2.55h1.376A1.809,1.809,0,0,0,127.739,98.012Z" transform="translate(-60.419 -95.025)" fill="#00b596"/>
        <path id="Trazado_2691" data-name="Trazado 2691" d="M138.185,100.052v.7h-4.112V95.09h4v.7h-3.19v1.74h2.841v.689h-2.841v1.829Z" transform="translate(-64.299 -95.025)" fill="#00b596"/>
        <path id="Trazado_2692" data-name="Trazado 2692" d="M150.3,100.813l-.753-.753a2.616,2.616,0,0,1-1.894.729,2.667,2.667,0,0,1-1.021-.186,1.651,1.651,0,0,1-.708-.522,1.227,1.227,0,0,1-.255-.765,1.434,1.434,0,0,1,.32-.919,3.715,3.715,0,0,1,1.057-.822,2.827,2.827,0,0,1-.526-.671,1.343,1.343,0,0,1-.154-.623,1.14,1.14,0,0,1,.417-.923,1.681,1.681,0,0,1,1.114-.349,1.56,1.56,0,0,1,1.028.316,1.066,1.066,0,0,1,.38.867,1.179,1.179,0,0,1-.279.769,3.383,3.383,0,0,1-.927.712l1.4,1.393a3.616,3.616,0,0,0,.348-1.028l.624.2a3.746,3.746,0,0,1-.494,1.3l.761.761Zm-1.214-1.207L147.475,98a2.872,2.872,0,0,0-.814.6.956.956,0,0,0-.231.627.769.769,0,0,0,.352.655,1.546,1.546,0,0,0,.919.252A1.886,1.886,0,0,0,149.085,99.606Zm-1.785-3.84a.63.63,0,0,0-.215.5.831.831,0,0,0,.118.42,3.2,3.2,0,0,0,.458.55,3.492,3.492,0,0,0,.773-.543.7.7,0,0,0,.215-.494.571.571,0,0,0-.2-.453.834.834,0,0,0-.555-.17A.86.86,0,0,0,147.3,95.766Z" transform="translate(-68.942 -94.992)" fill="#00b596"/>
        <path id="Trazado_2693" data-name="Trazado 2693" d="M162.153,99.34h-3.012l-.623,1.416h-.834l2.566-5.666h.8l2.574,5.666h-.85Zm-.284-.648-1.222-2.777-1.223,2.777Z" transform="translate(-73.752 -95.025)" fill="#00b596"/>
        <path id="Trazado_2694" data-name="Trazado 2694" d="M168.946,100.579a2.529,2.529,0,0,1-.934-.514l.3-.631a2.487,2.487,0,0,0,.829.474,3.073,3.073,0,0,0,1.041.182,1.879,1.879,0,0,0,1.052-.239.738.738,0,0,0,.348-.635.627.627,0,0,0-.191-.474,1.264,1.264,0,0,0-.469-.279c-.186-.065-.45-.138-.789-.219a7.955,7.955,0,0,1-1.033-.308,1.7,1.7,0,0,1-.672-.473,1.262,1.262,0,0,1-.279-.862,1.458,1.458,0,0,1,.239-.818,1.635,1.635,0,0,1,.724-.583,2.938,2.938,0,0,1,1.206-.218,3.817,3.817,0,0,1,.988.129,2.646,2.646,0,0,1,.833.372l-.267.648a2.963,2.963,0,0,0-.761-.344,2.876,2.876,0,0,0-.793-.117,1.756,1.756,0,0,0-1.032.251.77.77,0,0,0-.344.648.621.621,0,0,0,.194.474,1.377,1.377,0,0,0,.482.284,7.972,7.972,0,0,0,.781.214,7.956,7.956,0,0,1,1.028.307,1.74,1.74,0,0,1,.667.47,1.237,1.237,0,0,1,.279.85,1.447,1.447,0,0,1-.243.814,1.627,1.627,0,0,1-.737.582,3.028,3.028,0,0,1-1.214.215A3.873,3.873,0,0,1,168.946,100.579Z" transform="translate(-77.887 -94.982)" fill="#00b596"/>
        <path id="Trazado_2695" data-name="Trazado 2695" d="M177.208,100.579a2.532,2.532,0,0,1-.935-.514l.3-.631a2.5,2.5,0,0,0,.83.474,3.072,3.072,0,0,0,1.041.182,1.875,1.875,0,0,0,1.052-.239.737.737,0,0,0,.348-.635.627.627,0,0,0-.191-.474,1.269,1.269,0,0,0-.469-.279q-.28-.1-.79-.219a7.942,7.942,0,0,1-1.032-.308,1.691,1.691,0,0,1-.672-.473,1.262,1.262,0,0,1-.279-.862,1.462,1.462,0,0,1,.239-.818,1.638,1.638,0,0,1,.724-.583,2.939,2.939,0,0,1,1.207-.218,3.82,3.82,0,0,1,.988.129,2.653,2.653,0,0,1,.834.372l-.267.648a2.966,2.966,0,0,0-.762-.344,2.868,2.868,0,0,0-.793-.117,1.758,1.758,0,0,0-1.033.251.77.77,0,0,0-.344.648.623.623,0,0,0,.194.474,1.385,1.385,0,0,0,.482.284,7.92,7.92,0,0,0,.781.214,7.954,7.954,0,0,1,1.028.307,1.748,1.748,0,0,1,.667.47,1.24,1.24,0,0,1,.279.85,1.443,1.443,0,0,1-.243.814,1.621,1.621,0,0,1-.736.582,3.029,3.029,0,0,1-1.214.215A3.873,3.873,0,0,1,177.208,100.579Z" transform="translate(-81.194 -94.982)" fill="#00b596"/>
        <path id="Trazado_2696" data-name="Trazado 2696" d="M189.512,100.052v.7H185.4V95.09h4v.7h-3.19v1.74h2.841v.689h-2.841v1.829Z" transform="translate(-84.847 -95.025)" fill="#00b596"/>
        <path id="Trazado_2697" data-name="Trazado 2697" d="M194.9,95.794h-1.943v-.7h4.687v.7H195.7v4.962h-.8Z" transform="translate(-87.874 -95.025)" fill="#00b596"/>
        <path id="Trazado_2698" data-name="Trazado 2698" d="M210.876,100.756l-.008-4.129-2.048,3.441h-.372L206.4,96.652v4.1h-.777V95.09h.663l2.364,3.983,2.331-3.983h.664l.008,5.666Z" transform="translate(-205.59 -85.757)" fill="#00b596"/>
        <path id="Trazado_2699" data-name="Trazado 2699" d="M221.43,99.34h-3.011l-.623,1.416h-.834l2.566-5.666h.8l2.574,5.666h-.85Zm-.284-.648-1.222-2.777L218.7,98.693Z" transform="translate(-210.129 -85.757)" fill="#00b596"/>
        <path id="Trazado_2700" data-name="Trazado 2700" d="M233.026,95.09v5.666h-.664l-3.4-4.226v4.226h-.81V95.09h.664l3.4,4.226V95.09Z" transform="translate(-214.61 -85.757)" fill="#00b596"/>
        <path id="Trazado_2701" data-name="Trazado 2701" d="M242.018,99.34h-3.012l-.623,1.416h-.834l2.566-5.666h.8l2.574,5.666h-.85Zm-.284-.648-1.222-2.777-1.223,2.777Z" transform="translate(-218.371 -85.757)" fill="#00b596"/>
        <path id="Trazado_2702" data-name="Trazado 2702" d="M252.211,97.847h.777v2.21a2.993,2.993,0,0,1-.979.535,3.666,3.666,0,0,1-1.166.186,3.17,3.17,0,0,1-1.546-.377,2.792,2.792,0,0,1-1.081-1.037,3.017,3.017,0,0,1,0-2.975,2.753,2.753,0,0,1,1.085-1.036,3.245,3.245,0,0,1,1.559-.372,3.279,3.279,0,0,1,1.234.222,2.52,2.52,0,0,1,.943.652l-.5.5a2.279,2.279,0,0,0-1.644-.655,2.4,2.4,0,0,0-1.162.278,2.047,2.047,0,0,0-.805.778,2.286,2.286,0,0,0,0,2.234,2.068,2.068,0,0,0,.805.781,2.342,2.342,0,0,0,1.154.283,2.4,2.4,0,0,0,1.328-.364Z" transform="translate(-222.484 -85.714)" fill="#00b596"/>
        <path id="Trazado_2703" data-name="Trazado 2703" d="M263,100.052v.7h-4.112V95.09h4v.7H259.7v1.74h2.841v.689H259.7v1.829Z" transform="translate(-226.916 -85.757)" fill="#00b596"/>
        <path id="Trazado_2704" data-name="Trazado 2704" d="M273.07,100.756l-.008-4.129-2.048,3.441h-.372l-2.048-3.417v4.1h-.777V95.09h.664l2.364,3.983,2.331-3.983h.664l.008,5.666Z" transform="translate(-230.488 -85.757)" fill="#00b596"/>
        <path id="Trazado_2705" data-name="Trazado 2705" d="M284.7,100.052v.7h-4.112V95.09h4v.7H281.4v1.74h2.842v.689H281.4v1.829Z" transform="translate(-235.601 -85.757)" fill="#00b596"/>
        <path id="Trazado_2706" data-name="Trazado 2706" d="M294.37,95.09v5.666h-.664l-3.4-4.226v4.226h-.81V95.09h.663l3.4,4.226V95.09Z" transform="translate(-239.168 -85.757)" fill="#00b596"/>
        <path id="Trazado_2707" data-name="Trazado 2707" d="M300.9,95.794H298.96v-.7h4.687v.7H301.7v4.962h-.8Z" transform="translate(-242.956 -85.757)" fill="#00b596"/>
        <path id="Trazado_2708" data-name="Trazado 2708" d="M316.09,95.752a1.849,1.849,0,0,1,0,2.7,2.45,2.45,0,0,1-1.614.488h-1.558v1.785h-.4V95.265h1.957A2.447,2.447,0,0,1,316.09,95.752Zm-.281,2.444a1.531,1.531,0,0,0,0-2.186,2.026,2.026,0,0,0-1.334-.386h-1.558v2.955h1.558A2.039,2.039,0,0,0,315.809,98.2Z" transform="translate(-248.385 -85.827)" fill="#00b596"/>
        <path id="Trazado_2709" data-name="Trazado 2709" d="M321.685,95.265h.4v5.1h3.142v.358h-3.539Z" transform="translate(-252.054 -85.827)" fill="#00b596"/>
        <path id="Trazado_2710" data-name="Trazado 2710" d="M332.069,99.186H328.9l-.693,1.535h-.429l2.51-5.456h.4l2.51,5.456h-.428Zm-.148-.336L330.486,95.7,329.06,98.85Z" transform="translate(-254.495 -85.827)" fill="#00b596"/>
        <path id="Trazado_2711" data-name="Trazado 2711" d="M338.442,95.623h-1.965v-.358H340.8v.358H338.84v5.1h-.4Z" transform="translate(-257.976 -85.827)" fill="#00b596"/>
        <path id="Trazado_2712" data-name="Trazado 2712" d="M345.728,95.623v2.331h2.908v.359h-2.908v2.408h-.4V95.265h3.648v.358Z" transform="translate(-261.52 -85.827)" fill="#00b596"/>
        <path id="Trazado_2713" data-name="Trazado 2713" d="M353.934,100.372a2.674,2.674,0,0,1-1.018-.994,2.875,2.875,0,0,1,0-2.822,2.672,2.672,0,0,1,1.018-.994,3.095,3.095,0,0,1,2.9,0,2.651,2.651,0,0,1,1.018.99,2.906,2.906,0,0,1,0,2.838,2.649,2.649,0,0,1-1.018.989,3.092,3.092,0,0,1-2.9,0Zm2.689-.316a2.3,2.3,0,0,0,.873-.862,2.517,2.517,0,0,0,0-2.455,2.3,2.3,0,0,0-.873-.862,2.628,2.628,0,0,0-2.483,0,2.292,2.292,0,0,0-.877.862,2.517,2.517,0,0,0,0,2.455,2.288,2.288,0,0,0,.877.862,2.628,2.628,0,0,0,2.483,0Z" transform="translate(-264.409 -85.8)" fill="#00b596"/>
        <path id="Trazado_2714" data-name="Trazado 2714" d="M368.1,100.721,366.8,98.9a3.929,3.929,0,0,1-.531.04h-1.559v1.785h-.4V95.265h1.957a2.447,2.447,0,0,1,1.614.487,1.663,1.663,0,0,1,.584,1.352,1.664,1.664,0,0,1-1.278,1.708l1.365,1.909Zm-1.833-2.135A2.026,2.026,0,0,0,367.6,98.2a1.535,1.535,0,0,0,0-2.191,2.026,2.026,0,0,0-1.334-.386h-1.559v2.963Z" transform="translate(-269.119 -85.827)" fill="#00b596"/>
        <path id="Trazado_2715" data-name="Trazado 2715" d="M378.831,100.721l-.008-4.67L376.539,100h-.195l-2.284-3.929v4.654h-.39V95.265H374l2.441,4.217,2.44-4.217h.327l.008,5.456Z" transform="translate(-272.866 -85.827)" fill="#00b596"/>
      </g>
    </g>
    <rect id="Rectángulo_3040" data-name="Rectángulo 3040" width="1" height="19" transform="translate(229.193 105.066)" fill="#00b596"/>
  </g>
</svg>
