<svg xmlns="http://www.w3.org/2000/svg" xmlns:xlink="http://www.w3.org/1999/xlink" viewBox="0 0 220 24.095">
  <defs>
    <style>
      .cls-1 {
        fill: #00b596;
      }

      .cls-2 {
        clip-path: url(#clip-path);
      }
    </style>
    <clipPath id="clip-path">
      <path id="Path_3" data-name="Path 3" class="cls-1" d="M0-96.833H35.884v20.419H0Z" transform="translate(0 96.833)"/>
    </clipPath>
  </defs>
  <g id="Group_3407" data-name="Group 3407" transform="translate(-512.238 -235.866)">
    <path id="Path_1861" data-name="Path 1861" class="cls-1" d="M10.1,7.965H4.59V4.717H19.6V7.965H14.089V21.942H10.1ZM32.716,21.942l-3.322-4.8H25.727v4.8H21.741V4.717H29.2a9.569,9.569,0,0,1,3.974.763,5.9,5.9,0,0,1,2.6,2.165,5.965,5.965,0,0,1,.91,3.322,5.846,5.846,0,0,1-.923,3.31,5.849,5.849,0,0,1-2.621,2.128L37,21.942Zm-.074-10.974a2.728,2.728,0,0,0-.935-2.227,4.186,4.186,0,0,0-2.731-.775H25.727v6h3.248a4.14,4.14,0,0,0,2.731-.787A2.736,2.736,0,0,0,32.642,10.967Zm20.522,7.776v3.2H39.827V4.717H52.844v3.2H43.789v3.74h8v3.1h-8v3.986Zm16.511,0v3.2H56.338V4.717H69.355v3.2H60.3v3.74h8v3.1h-8v3.986Zm3.74,3.322a1.237,1.237,0,0,1-.923-.394,1.328,1.328,0,0,1-.381-.96,1.286,1.286,0,0,1,.381-.947,1.257,1.257,0,0,1,.923-.381,1.3,1.3,0,0,1,.935.381,1.266,1.266,0,0,1,.394.947,1.306,1.306,0,0,1-.394.96A1.277,1.277,0,0,1,73.415,22.065ZM85.177,8.777a6.855,6.855,0,0,1,3.4.837,6.017,6.017,0,0,1,2.35,2.338,6.926,6.926,0,0,1,.849,3.47,7,7,0,0,1-.849,3.482,6,6,0,0,1-2.35,2.35,6.855,6.855,0,0,1-3.4.837,6.044,6.044,0,0,1-2.571-.541,5.348,5.348,0,0,1-1.981-1.575v6.742H78.262V8.9h2.264v2.067a5.015,5.015,0,0,1,1.993-1.636A6.292,6.292,0,0,1,85.177,8.777Zm-.2,11.245a4.4,4.4,0,0,0,2.251-.578,4.167,4.167,0,0,0,1.575-1.624,4.876,4.876,0,0,0,.578-2.4,4.875,4.875,0,0,0-.578-2.4,4.08,4.08,0,0,0-1.575-1.612,4.478,4.478,0,0,0-2.251-.566,4.356,4.356,0,0,0-2.227.578,4.19,4.19,0,0,0-1.575,1.612,4.806,4.806,0,0,0-.578,2.387,4.961,4.961,0,0,0,.566,2.4,4.057,4.057,0,0,0,1.575,1.624A4.422,4.422,0,0,0,84.98,20.022ZM95.044,3.684h2.362V21.942H95.044Zm11.614,5.094a5.9,5.9,0,0,1,4.146,1.329,5.13,5.13,0,0,1,1.439,3.962v7.874H110V20.219a3.734,3.734,0,0,1-1.686,1.39,6.433,6.433,0,0,1-2.6.48,5.433,5.433,0,0,1-3.506-1.058,3.394,3.394,0,0,1-1.316-2.781,3.424,3.424,0,0,1,1.255-2.768,6.184,6.184,0,0,1,3.986-1.046h3.74v-.468A3.012,3.012,0,0,0,109,11.632a3.736,3.736,0,0,0-2.608-.812,6.905,6.905,0,0,0-2.264.381,5.832,5.832,0,0,0-1.87,1.021l-.984-1.772a7.142,7.142,0,0,1,2.411-1.243A10.09,10.09,0,0,1,106.658,8.777Zm-.541,11.491a4.388,4.388,0,0,0,2.338-.6,3.45,3.45,0,0,0,1.427-1.71V16.134H106.24q-3,0-3,2.018A1.826,1.826,0,0,0,104,19.7,3.488,3.488,0,0,0,106.117,20.268Zm17.84.91a3.524,3.524,0,0,1-1.28.677,5.344,5.344,0,0,1-1.575.234,4.182,4.182,0,0,1-3.051-1.058A4.041,4.041,0,0,1,116.968,18v-7.16h-2.215V8.9h2.215V6.046h2.362V8.9h3.74v1.944h-3.74v7.062a2.291,2.291,0,0,0,.529,1.624,1.97,1.97,0,0,0,1.513.566,2.847,2.847,0,0,0,1.845-.615Zm7.628-15.7q-2.116,0-2.116,2.288V8.9h3.789v1.944h-3.74v11.1h-2.362v-11.1h-2.215V8.9h2.215V7.744a4.156,4.156,0,0,1,1.132-3.076,4.291,4.291,0,0,1,3.174-1.132,5.352,5.352,0,0,1,1.476.2,3.592,3.592,0,0,1,1.181.566l-.714,1.8A2.941,2.941,0,0,0,131.584,5.48Zm9.3,16.609a7.072,7.072,0,0,1-3.494-.861,6.246,6.246,0,0,1-2.424-2.375,6.741,6.741,0,0,1-.874-3.433,6.741,6.741,0,0,1,.874-3.433,6.16,6.16,0,0,1,2.424-2.362,7.59,7.59,0,0,1,6.976,0,6.182,6.182,0,0,1,2.411,2.362,6.741,6.741,0,0,1,.874,3.433,6.741,6.741,0,0,1-.874,3.433,6.269,6.269,0,0,1-2.411,2.375A7,7,0,0,1,140.885,22.089Zm0-2.067a4.4,4.4,0,0,0,2.251-.578A4.082,4.082,0,0,0,144.7,17.82a4.961,4.961,0,0,0,.566-2.4,4.961,4.961,0,0,0-.566-2.4,4,4,0,0,0-1.563-1.612,4.761,4.761,0,0,0-4.5,0,4.08,4.08,0,0,0-1.575,1.612,4.875,4.875,0,0,0-.578,2.4,4.875,4.875,0,0,0,.578,2.4,4.167,4.167,0,0,0,1.575,1.624A4.4,4.4,0,0,0,140.885,20.022Zm12.3-8.932a4.03,4.03,0,0,1,1.821-1.722,6.609,6.609,0,0,1,2.928-.591v2.288a4.612,4.612,0,0,0-.541-.025,3.975,3.975,0,0,0-3.014,1.144,4.53,4.53,0,0,0-1.095,3.26v6.5h-2.362V8.9h2.264Zm23.967-2.313a5.3,5.3,0,0,1,3.9,1.427,5.712,5.712,0,0,1,1.439,4.232v7.5h-2.362V14.707a4.113,4.113,0,0,0-.874-2.854,3.206,3.206,0,0,0-2.5-.96,3.74,3.74,0,0,0-2.854,1.12,4.5,4.5,0,0,0-1.058,3.211v6.718h-2.362V14.707a4.113,4.113,0,0,0-.874-2.854,3.206,3.206,0,0,0-2.5-.96,3.74,3.74,0,0,0-2.854,1.12,4.5,4.5,0,0,0-1.058,3.211v6.718h-2.362V8.9h2.264v1.944a4.577,4.577,0,0,1,1.87-1.538,6.263,6.263,0,0,1,2.633-.529,5.774,5.774,0,0,1,2.707.615,4.275,4.275,0,0,1,1.821,1.8,5,5,0,0,1,2.055-1.772A6.7,6.7,0,0,1,177.155,8.777Z" transform="translate(549.743 233.246)"/>
    <g id="Group_4" data-name="Group 4" transform="translate(512.238 235.866)">
      <g id="Group_3" data-name="Group 3" class="cls-2" transform="translate(0 0)">
        <g id="Group_1" data-name="Group 1" transform="translate(14.468)">
          <path id="Path_1" data-name="Path 1" class="cls-1" d="M0-76.414v-9.592c0-4.249,3.033-10.827,10.624-10.827,6.817,0,10.793,5.276,10.793,9.593,0,6.715-3.825,10.826-10.15,10.826Z" transform="translate(0 96.833)"/>
        </g>
        <g id="Group_2" data-name="Group 2" transform="translate(0 7.263)">
          <path id="Path_2" data-name="Path 2" class="cls-1" d="M-49.29-49.234v-6.181c0-2.737-1.823-6.975-6.714-6.975a6.592,6.592,0,0,0-6.889,6.181c0,4.326,2.53,6.975,6.6,6.975Z" transform="translate(62.892 62.39)"/>
        </g>
      </g>
    </g>
  </g>
</svg>
