<svg xmlns="http://www.w3.org/2000/svg" width="20.999" height="21" viewBox="0 0 20.999 21"><g transform="translate(-32.501 -104)"><path d="M16.478,21.653a2.674,2.674,0,0,1-.579-.065,19.49,19.49,0,0,1-9.62-5.18,19.487,19.487,0,0,1-5.21-9.619A2.75,2.75,0,0,1,1.85,4.256L4.166,1.977a1.142,1.142,0,0,1,.891-.32,1.154,1.154,0,0,1,.839.515L8.791,6.547a.964.964,0,0,1-.064,1.125L7.274,9.447a11.213,11.213,0,0,0,2.414,3.487A11.138,11.138,0,0,0,13.2,15.355L15,13.893a.932.932,0,0,1,1.077-.071l4.37,2.889a1.186,1.186,0,0,1,.554.862,1.2,1.2,0,0,1-.317.979l-2.257,2.285a2.713,2.713,0,0,1-1.951.817ZM4.965,2.829,2.649,5.108a1.525,1.525,0,0,0-.434,1.421,18.291,18.291,0,0,0,4.868,9.033,18.335,18.335,0,0,0,9.053,4.872A1.569,1.569,0,0,0,17.583,20l2.257-2.285-4.22-2.788L13.688,16.5a.569.569,0,0,1-.533.1,11.587,11.587,0,0,1-4.26-2.812A11.553,11.553,0,0,1,6.076,9.524a.6.6,0,0,1,.139-.562L7.778,7.05Z" transform="translate(31.987 102.847)" fill="#6a6b75"/><path d="M16.493,22.153h-.018a3.177,3.177,0,0,1-.683-.077,19.966,19.966,0,0,1-9.864-5.311l0,0A19.942,19.942,0,0,1,.58,6.9V6.89A3.27,3.27,0,0,1,1.5,3.9L3.815,1.62a1.64,1.64,0,0,1,1.146-.467c.046,0,.093,0,.138.006H5.11a1.649,1.649,0,0,1,1.2.737l2.9,4.381a1.458,1.458,0,0,1-.1,1.71L7.859,9.522a10.649,10.649,0,0,0,2.179,3.054l.007.007a10.594,10.594,0,0,0,3.081,2.188L14.686,13.5A1.432,1.432,0,0,1,16.34,13.4l.014.009,4.363,2.884a1.7,1.7,0,0,1,.331,2.607l-.007.007-2.257,2.285A3.191,3.191,0,0,1,16.493,22.153Zm-9.862-6.1A18.967,18.967,0,0,0,16,21.1h.006a2.179,2.179,0,0,0,.471.053h.014a2.2,2.2,0,0,0,1.579-.667L20.326,18.2a.7.7,0,0,0,.186-.462l-2.573,2.6a2.065,2.065,0,0,1-1.907.576,18.81,18.81,0,0,1-9.3-5l-.005-.005a18.749,18.749,0,0,1-5-9.28A2.035,2.035,0,0,1,2.3,4.749l2.637-2.6a.643.643,0,0,0-.425.183L2.2,4.617a2.262,2.262,0,0,0-.638,2.07A18.943,18.943,0,0,0,6.631,16.054Zm.8-.846a17.813,17.813,0,0,0,8.8,4.737,1.065,1.065,0,0,0,.988-.3l1.83-1.852-3.405-2.25L14,16.885a1.068,1.068,0,0,1-1,.189l-.024-.008A12.165,12.165,0,0,1,8.542,14.14,12.125,12.125,0,0,1,5.608,9.7L5.6,9.677l-.007-.025a1.1,1.1,0,0,1,.243-1.017L7.157,7.02,4.884,3.61,2.994,5.47a1.028,1.028,0,0,0-.29.954A17.752,17.752,0,0,0,7.436,15.207Zm8.154-.9,4.9,3.236a.676.676,0,0,0-.3-.4l-.015-.01-4.362-2.883a.432.432,0,0,0-.5.037l-2.035,1.653L13,15.813a11.586,11.586,0,0,1-3.668-2.526A11.66,11.66,0,0,1,6.817,9.649l-.124-.281L8.34,7.355a.466.466,0,0,0,.031-.536L5.479,2.448a.66.66,0,0,0-.345-.266L8.4,7.08,6.581,9.3a.1.1,0,0,0-.025.079A11.118,11.118,0,0,0,9.24,13.425l.015.015a11.16,11.16,0,0,0,4.059,2.684.063.063,0,0,0,.059-.015Z" transform="translate(31.987 102.847)" fill="#6a6b75"/></g></svg>