<svg id="ico-criticidades" xmlns="http://www.w3.org/2000/svg" width="20" height="20" viewBox="0 0 20 20">
  <rect id="Rectángulo_193" data-name="Rectángulo 193" width="20" height="20" fill="none"/>
  <line id="Línea_279" data-name="Línea 279" y2="2.609" transform="translate(6.545 1)" fill="none" stroke="#666" stroke-linecap="round" stroke-width="1.5"/>
  <line id="Línea_280" data-name="Línea 280" y2="2.609" transform="translate(10.182 1)" fill="none" stroke="#666" stroke-linecap="round" stroke-width="1.5"/>
  <line id="Línea_281" data-name="Línea 281" y2="2.609" transform="translate(13.818 1)" fill="none" stroke="#666" stroke-linecap="round" stroke-width="1.5"/>
  <path id="Trazado_1094" data-name="Trazado 1094" d="M676,146.464v2.609h1.818" transform="translate(-661.455 -133.421)" fill="none" stroke="#666" stroke-linecap="round" stroke-linejoin="round" stroke-width="1"/>
  <g id="Elipse_173" data-name="Elipse 173" transform="translate(9 9)" fill="none" stroke="#666" stroke-width="1.5">
    <circle cx="5.5" cy="5.5" r="5.5" stroke="none"/>
    <circle cx="5.5" cy="5.5" r="4.75" fill="none"/>
  </g>
  <path id="Trazado_1286" data-name="Trazado 1286" d="M818.9-81.032v-7.139a2.081,2.081,0,0,0-2.166-1.9c.037.039-12.228,0-12.333,0a2.251,2.251,0,0,0-2.276,2.2s-.023,11.286,0,11.243c0,1.478.264,3.088,3.028,3.088.14.061,7.354,0,7.354,0" transform="translate(-800.621 92.374)" fill="none" stroke="#666" stroke-linecap="round" stroke-linejoin="round" stroke-width="1.5"/>
</svg>
