<svg id="ico-responsable" xmlns="http://www.w3.org/2000/svg" width="20" height="20" viewBox="0 0 20 20">
  <rect id="Rect치ngulo_311" data-name="Rect치ngulo 311" width="20" height="20" fill="none" opacity="0.5"/>
  <g id="Trazado_1253" data-name="Trazado 1253" transform="translate(5.089 0.754)" fill="none">
    <path d="M4.733,0A4.739,4.739,0,0,1,9.467,4.745V6.993a6.175,6.175,0,0,1-1.482,3.754h-6.6A7.389,7.389,0,0,1,0,6.993V4.745A4.739,4.739,0,0,1,4.733,0Z" stroke="none"/>
    <path d="M 4.73333740234375 1.500001907348633 C 2.950467586517334 1.500001907348633 1.499997615814209 2.955661773681641 1.499997615814209 4.74490213394165 L 1.499997615814209 6.992901802062988 C 1.499997615814209 7.599058628082275 1.870304107666016 8.618442535400391 2.188724994659424 9.247282028198242 L 7.258569717407227 9.247282028198242 C 7.649135589599609 8.610312461853027 7.966677665710449 7.648079872131348 7.966677665710449 6.992901802062988 L 7.966677665710449 4.74490213394165 C 7.966677665710449 2.955661773681641 6.516207695007324 1.500001907348633 4.73333740234375 1.500001907348633 M 4.73333740234375 1.9073486328125e-06 C 7.347487449645996 1.9073486328125e-06 9.466677665710449 2.124361991882324 9.466677665710449 4.74490213394165 L 9.466677665710449 6.992901802062988 C 9.466677665710449 8.166892051696777 8.823697090148926 9.910931587219238 7.984737396240234 10.74728202819824 C 6.78452730178833 10.74728202819824 2.846377372741699 10.74728202819824 1.383907318115234 10.74728202819824 C 0.8315877914428711 10.14725208282471 -2.86102294921875e-06 8.211462020874023 -2.86102294921875e-06 6.992901802062988 L -2.86102294921875e-06 4.74490213394165 C -2.86102294921875e-06 2.124361991882324 2.119187355041504 1.9073486328125e-06 4.73333740234375 1.9073486328125e-06 Z" stroke="none" fill="#666"/>
  </g>
  <path id="Trazado_1254" data-name="Trazado 1254" d="M-410.927,518.438l6.048,2.254" transform="translate(418.756 -512.607)" fill="none" stroke="#666" stroke-width="1.5"/>
  <path id="Trazado_1255" data-name="Trazado 1255" d="M-411.256,519.453l2.934-3.2" transform="translate(416.936 -510.593)" fill="none" stroke="#666" stroke-width="1.5"/>
  <g id="Rect치ngulo_312" data-name="Rect치ngulo 312" transform="translate(2.602 10)" fill="none" stroke="#666" stroke-linecap="square" stroke-linejoin="round" stroke-width="1.5">
    <rect width="14.796" height="9.247" stroke="none"/>
    <rect x="0.75" y="0.75" width="13.296" height="7.747" fill="none"/>
  </g>
  <path id="Trazado_1257" data-name="Trazado 1257" d="M1702.635-359.067s-1.936.412-1.982,1.491.012,1.536,0,2.514,1.982,1,1.982,1" transform="translate(-1699.635 372.067)" fill="none" stroke="#666" stroke-width="1.5"/>
  <path id="Trazado_1256" data-name="Trazado 1256" d="M1700.635-359.067s1.936.412,1.982,1.491-.012,1.536,0,2.514-1.982,1-1.982,1" transform="translate(-1683.635 372.067)" fill="none" stroke="#666" stroke-width="1.5"/>
</svg>
