<svg id="ico-contratos" xmlns="http://www.w3.org/2000/svg" width="20" height="20" viewBox="0 0 20 20">
  <rect id="Rectángulo_199" data-name="Rectángulo 199" width="20" height="20" fill="none"/>
  <path id="Trazado_43" data-name="Trazado 43" d="M138.326,585.415a1.33,1.33,0,0,1,1.557-1.381c1.645.051,11.985-.065,12.609,0a1.974,1.974,0,0,1,1.926,2.246c0,1.921.023,11.443,0,11.456s1.9,0,1.9,0V600.7s.237,1.307-2.092,1.307H143.172s-2.116.141-2.005-1.842,0-11.156,0-11.156h-2.841Z" transform="translate(-137.325 -583.014)" fill="none" stroke="#666" stroke-width="1.5"/>
  <path id="Trazado_44" data-name="Trazado 44" d="M153.607,602.332l-9.8.029v2.621s.16,1.7-1.2,1.594" transform="translate(-136.237 -587.583)" fill="none" stroke="#666" stroke-width="1.5"/>
  <path id="Trazado_45" data-name="Trazado 45" d="M141.731,588.478s-.03-2.768,0-2.8c0-1.53-1.056-2.2-2.452-1.474" transform="translate(-137.889 -582.881)" fill="none" stroke="#666" stroke-width="1.5"/>
  <path id="Trazado_1096" data-name="Trazado 1096" d="M0,0H7" transform="translate(7 11)" fill="none" stroke="#666" stroke-width="1.5"/>
  <path id="Trazado_1346" data-name="Trazado 1346" d="M0,0H7" transform="translate(7 8)" fill="none" stroke="#666" stroke-width="1.5"/>
  <path id="Trazado_1347" data-name="Trazado 1347" d="M0,0H7" transform="translate(7 5)" fill="none" stroke="#666" stroke-width="1.5"/>
</svg>
