<svg id="ico-gruposdeAutorizaciones" xmlns="http://www.w3.org/2000/svg" width="20" height="20" viewBox="0 0 20 20">
  <circle id="Elipse_139" data-name="Elipse 139" cx="1" cy="1" r="1" transform="translate(11.2 7.983)" fill="#666"/>
  <circle id="Elipse_140" data-name="Elipse 140" cx="1" cy="1" r="1" transform="translate(14.2 7.983)" fill="#666"/>
  <g id="Rectángulo_143" data-name="Rectángulo 143" transform="translate(0 9.293)" fill="none" stroke="#666" stroke-linecap="round" stroke-linejoin="round" stroke-width="1.5">
    <rect width="10.101" height="9" stroke="none"/>
    <rect x="0.75" y="0.75" width="8.601" height="7.5" fill="none"/>
  </g>
  <g id="Sustracción_11" data-name="Sustracción 11" transform="translate(166 -649.483)" fill="none">
    <path d="M-157.582,660.266h-6.735v-5.9A3.372,3.372,0,0,1-160.949,651a3.371,3.371,0,0,1,3.367,3.368v5.9Z" stroke="none"/>
    <path d="M -159.0819244384766 658.76611328125 L -159.0819244384766 654.3674926757812 C -159.0819244384766 653.3375854492188 -159.9194030761719 652.4996948242188 -160.9488067626953 652.4996948242188 C -161.9787139892578 652.4996948242188 -162.8166046142578 653.3375854492188 -162.8166046142578 654.3674926757812 L -162.8166046142578 658.76611328125 L -159.0819244384766 658.76611328125 M -157.5819244384766 660.26611328125 L -157.5829162597656 660.26611328125 L -164.3166046142578 660.26611328125 L -164.3166046142578 654.3674926757812 C -164.3166046142578 652.510498046875 -162.8058166503906 650.9996948242188 -160.9488067626953 650.9996948242188 C -159.0923004150391 650.9996948242188 -157.5819244384766 652.510498046875 -157.5819244384766 654.3674926757812 L -157.5819244384766 660.26513671875 L -157.5819244384766 660.26611328125 Z" stroke="none" fill="#666"/>
  </g>
  <rect id="Rectángulo_255" data-name="Rectángulo 255" width="20" height="20" fill="none"/>
  <path id="Trazado_1162" data-name="Trazado 1162" d="M1064.281-16h10.582v8h-8.729" transform="translate(-1055.862 21)" fill="none" stroke="#666" stroke-linecap="round" stroke-linejoin="round" stroke-width="1.5"/>
</svg>
