<svg id="ico-incidecias" xmlns="http://www.w3.org/2000/svg" width="20" height="20" viewBox="0 0 20 20">
  <rect id="Rectángulo_208" data-name="Rectángulo 208" width="20" height="20" fill="none"/>
  <g id="Trazado_1355" data-name="Trazado 1355" transform="translate(5.231)" fill="none">
    <path d="M4.618,0A4.618,4.618,0,0,1,9.236,4.618V7.212c-1.194.175-2.244,0-3.824,1.051C3.1,10.136,3.646,11.48,2.631,11.375,1.7,11.3,0,9.991,0,7.441V4.618A4.618,4.618,0,0,1,4.618,0Z" stroke="none"/>
    <path d="M 4.618082046508789 1.500001907348633 C 2.898762226104736 1.500001907348633 1.500001907348633 2.898762702941895 1.500001907348633 4.618082523345947 L 1.500001907348633 7.440622329711914 C 1.500001907348633 8.596803665161133 1.965250015258789 9.268527030944824 2.341565132141113 9.606266021728516 C 2.683409214019775 8.96810245513916 3.257415294647217 8.079387664794922 4.466251850128174 7.097892284393311 L 4.522441864013672 7.052282333374023 L 4.582752227783203 7.012282371520996 C 5.834280967712402 6.182354927062988 6.869022369384766 5.955658912658691 7.736162185668945 5.855692863464355 L 7.736162185668945 4.618082523345947 C 7.736162185668945 2.898762702941895 6.33740234375 1.500001907348633 4.618082046508789 1.500001907348633 M 4.618082046508789 1.9073486328125e-06 C 7.168581962585449 1.9073486328125e-06 9.236162185668945 2.067582130432129 9.236162185668945 4.618082523345947 L 9.236162185668945 7.211552143096924 C 8.042302131652832 7.386842250823975 6.992642402648926 7.214052200317383 5.411742210388184 8.262392044067383 C 3.189097881317139 10.06702423095703 3.610185146331787 11.38098907470703 2.736110210418701 11.38098907470703 C 2.702826499938965 11.38098907470703 2.667779922485352 11.37909317016602 2.63052225112915 11.37524223327637 C 1.704922199249268 11.2995023727417 1.9073486328125e-06 9.99111270904541 1.9073486328125e-06 7.440622329711914 L 1.9073486328125e-06 4.618082523345947 C 1.9073486328125e-06 2.067582130432129 2.067582130432129 1.9073486328125e-06 4.618082046508789 1.9073486328125e-06 Z" stroke="none" fill="#666"/>
  </g>
  <path id="Trazado_70" data-name="Trazado 70" d="M-413.292,522.937l8.03-2.062" transform="translate(419.067 -517.144)" fill="none" stroke="#666" stroke-width="1.5"/>
  <path id="Trazado_1356" data-name="Trazado 1356" d="M6.688,10.679S2.845,13,1.91,13.59-.1,14.823-.07,16.269s-.1,3.2,2.266,3.207,14.088,0,14.088,0,2.024-.283,1.945-2.128a6.9,6.9,0,0,0-.4-2.486" transform="translate(1 -0.679)" fill="none" stroke="#666" stroke-width="1.5"/>
  <g id="Grupo_1871" data-name="Grupo 1871" transform="translate(-1607.01 -313)">
    <path id="Trazado_1353" data-name="Trazado 1353" d="M.615-5.566a.667.667,0,0,1,.2-.49.684.684,0,0,1,.5-.2.67.67,0,0,1,.491.207.664.664,0,0,1,.206.485.664.664,0,0,1-.206.485.67.67,0,0,1-.491.207.681.681,0,0,1-.5-.207A.664.664,0,0,1,.615-5.566Zm.073-5.862a.482.482,0,0,1,.188-.4.754.754,0,0,1,.482-.148.74.74,0,0,1,.472.148.482.482,0,0,1,.188.4c0,.359-.058,1.253-.1,2.122S1.83-8.147,1.83-7.793a.324.324,0,0,1-.17.292.685.685,0,0,1-.362.1q-.541,0-.541-.4c0-.353,0-.645-.041-1.513S.688-11.069.688-11.428Z" transform="translate(1619.206 333.796)" fill="#666"/>
    <g id="Trazado_1354" data-name="Trazado 1354" transform="translate(1614.01 319.013)" fill="none">
      <path d="M6.5,0A6.5,6.5,0,1,1,0,6.5,6.5,6.5,0,0,1,6.5,0Z" stroke="none"/>
      <path d="M 6.5 1.5 C 3.742989540100098 1.5 1.5 3.742989540100098 1.5 6.5 C 1.5 9.257009506225586 3.742989540100098 11.5 6.5 11.5 C 9.257009506225586 11.5 11.5 9.257009506225586 11.5 6.5 C 11.5 3.742989540100098 9.257009506225586 1.5 6.5 1.5 M 6.5 0 C 10.0898494720459 0 13 2.910149574279785 13 6.5 C 13 10.0898494720459 10.0898494720459 13 6.5 13 C 2.910149574279785 13 0 10.0898494720459 0 6.5 C 0 2.910149574279785 2.910149574279785 0 6.5 0 Z" stroke="none" fill="#666"/>
    </g>
  </g>
</svg>
