<svg id="ico-risks" xmlns="http://www.w3.org/2000/svg" width="20" height="20" viewBox="0 0 20 20">
  <rect id="Rect치ngulo_345" data-name="Rect치ngulo 345" width="20" height="20" fill="none"/>
  <g id="Grupo_1789" data-name="Grupo 1789" transform="translate(-2327 -876)">
    <g id="Uni칩n_20" data-name="Uni칩n 20" transform="translate(2328 877)" fill="none" stroke-linecap="round" stroke-linejoin="round">
      <path d="M4.5,19V15.643A8.3,8.3,0,0,1,0,8.382C0,3.753,4.029,0,9,0s9,3.753,9,8.382a8.3,8.3,0,0,1-4.5,7.262V19Z" stroke="none"/>
      <path d="M 11.99948501586914 17.5 L 11.99948501586914 15.64373970031738 C 11.99948501586914 15.09204959869385 12.30232429504395 14.58489036560059 12.78800487518311 14.32320976257324 C 13.90544509887695 13.72115993499756 14.84015464782715 12.85929012298584 15.49110507965088 11.83078956604004 C 16.15111541748047 10.78796005249023 16.49997520446777 9.595339775085449 16.49997520446777 8.381850242614746 C 16.49997520446777 4.5871901512146 13.13549518585205 1.5 8.999984741210938 1.5 C 4.864484786987305 1.5 1.500004768371582 4.5871901512146 1.500004768371582 8.381850242614746 C 1.500004768371582 9.595330238342285 1.848774790763855 10.78791999816895 2.508594751358032 11.83067989349365 C 3.159374713897705 12.85914039611816 4.093854904174805 13.7209300994873 5.211004734039307 14.3228702545166 C 5.696674823760986 14.58454990386963 5.999494552612305 15.09169960021973 5.999494552612305 15.6433801651001 L 5.999494552612305 17.5 L 11.99948501586914 17.5 M 13.49948501586914 19 L 4.499494552612305 19 L 4.499494552612305 15.6433801651001 C 1.809614777565002 14.19402980804443 4.741210887004854e-06 11.48488998413086 4.741210887004854e-06 8.381850242614746 C 4.741210887004854e-06 3.752949953079224 4.028684616088867 0 8.999984741210938 0 C 13.97029495239258 0 17.99997520446777 3.752949953079224 17.99997520446777 8.381850242614746 C 17.99997520446777 11.48513031005859 16.18974494934082 14.19427967071533 13.49948501586914 15.64373970031738 L 13.49948501586914 19 Z" stroke="none" fill="#666"/>
    </g>
    <circle id="Elipse_177" data-name="Elipse 177" cx="1.676" cy="1.676" r="1.676" transform="translate(2332.5 882.588)" fill="#666" opacity="0.996"/>
    <circle id="Elipse_178" data-name="Elipse 178" cx="1.676" cy="1.676" r="1.676" transform="translate(2338.125 882.588)" fill="#666" opacity="0.996"/>
    <path id="Trazado_1320" data-name="Trazado 1320" d="M4479,1891.026l1.172-2.235,1.078,2.235" transform="translate(-2143.125 -1001.966)" fill="none" stroke="#666" stroke-linecap="round" stroke-linejoin="round" stroke-width="1"/>
    <path id="Trazado_1321" data-name="Trazado 1321" d="M0-1V2.353" transform="translate(2335.875 892.529)" fill="none" stroke="#666" stroke-width="1"/>
    <path id="Trazado_1322" data-name="Trazado 1322" d="M0-1V2.353" transform="translate(2338.125 892.529)" fill="none" stroke="#666" stroke-width="1"/>
  </g>
</svg>
