<svg id="ico-vex" xmlns="http://www.w3.org/2000/svg" width="20" height="20" viewBox="0 0 20 20">
  <rect id="Rect치ngulo_2759" data-name="Rect치ngulo 2759" width="20" height="20" fill="none"/>
  <path id="Uni칩n_21" data-name="Uni칩n 21" d="M672.583-2135.312l-2.971-6a.232.232,0,0,1,0-.183l2.951-5.686a.187.187,0,0,1,.152-.091h5.271a.062.062,0,0,1,.063.093l-5.379,11.867c-.012.026-.028.039-.044.039S672.6-2135.287,672.583-2135.312Zm-6.138,0-5.378-11.867a.062.062,0,0,1,.062-.093H666.4a.187.187,0,0,1,.152.091l2.925,5.686a.23.23,0,0,1,0,.184l-2.946,6c-.012.025-.028.037-.044.037S666.457-2135.288,666.445-2135.314Z" transform="translate(-659.5 2151.5)" fill="none" stroke="#6a6b75" stroke-miterlimit="10" stroke-width="1.5"/>
</svg>
