<svg id="ico-reportes" xmlns="http://www.w3.org/2000/svg" width="20" height="20" viewBox="0 0 20 20">
  <g id="Trazado_829" data-name="Trazado 829" transform="translate(2 4.944)" fill="none" stroke-linecap="round" stroke-linejoin="round">
    <path d="M6.5,0c.063.063,0,6.5,0,6.5s6.449-.042,6.5,0A6.5,6.5,0,1,1,6.5,0Z" stroke="none"/>
    <path d="M 6.5 2.86102294921875e-06 C 2.910149574279785 2.86102294921875e-06 0 2.910152435302734 0 6.500012874603271 C 0 10.08987236022949 2.910149574279785 13.00002288818359 6.5 13.00002288818359 C 10.0898494720459 13.00002288818359 13 10.08987236022949 13 6.500012874603271 C 12.98294448852539 6.486071109771729 12.25521469116211 6.481425285339355 11.29207706451416 6.481426239013672 C 9.366153717041016 6.481428623199463 6.5 6.500012874603271 6.5 6.500012874603271 C 6.5 6.500012874603271 6.562709808349609 0.06271266937255859 6.5 2.86102294921875e-06 M 6.5 -1.499997138977051 C 6.897819995880127 -1.499997138977051 7.279359817504883 -1.341957092285156 7.560659885406494 -1.060657501220703 C 7.996709823608398 -0.6246070861816406 8.008289337158203 -0.1330175399780273 8.017589569091797 0.2619829177856445 C 8.021930694580078 0.4464225769042969 8.024829864501953 0.6992330551147461 8.026439666748047 1.034882545471191 C 8.029060363769531 1.581422805786133 8.028070449829102 2.337053298950195 8.023500442504883 3.280793190002441 C 8.020608901977539 3.876863479614258 8.016629219055176 4.474832534790039 8.012762069702148 4.991519927978516 C 8.997299194335938 4.98661994934082 10.2792329788208 4.981428146362305 11.29207038879395 4.981422424316406 C 11.81602001190186 4.981422424316406 12.22751045227051 4.982812881469727 12.51513004302979 4.985563278198242 C 13.16891956329346 4.991792678833008 13.52906036376953 4.995232582092285 13.94911003112793 5.338472843170166 C 14.29776000976562 5.623353004455566 14.5 6.0497727394104 14.5 6.500012874603271 C 14.5 10.91123294830322 10.91121006011963 14.50002288818359 6.5 14.50002288818359 C 2.088789939880371 14.50002288818359 -1.5 10.91123294830322 -1.5 6.500012874603271 C -1.5 2.08879280090332 2.088789939880371 -1.499997138977051 6.5 -1.499997138977051 Z" stroke="none" fill="#666"/>
  </g>
  <g id="Trazado_830" data-name="Trazado 830" transform="translate(13.03 6.95) rotate(-90)" fill="none" stroke-linecap="round" stroke-linejoin="round">
    <path d="M0,.015s5.243-.034,5.285,0A5.485,5.485,0,0,1,0,5.3C.009,5.334,0,.015,0,.015Z" stroke="none"/>
    <path d="M 3.89632511138916 -9.5367431640625e-07 C 2.330401420593262 -9.5367431640625e-07 -9.5367431640625e-07 0.01511049270629883 -9.5367431640625e-07 0.01511049270629883 C -9.5367431640625e-07 0.01511049270629883 0.008432865142822266 5.266907691955566 -9.5367431640625e-07 5.300100326538086 C 2.676589250564575 5.247360229492188 5.284999370574951 2.933930397033691 5.284999370574951 0.01511049270629883 C 5.271131038665771 0.003775596618652344 4.679430484771729 -9.5367431640625e-07 3.89632511138916 -9.5367431640625e-07 M 0.0001587867736816406 5.300096988677979 C 2.574920654296875e-05 5.300204277038574 5.292892456054688e-05 5.300257682800293 7.915496826171875e-05 5.300257682800293 C 0.0001058578491210938 5.300257682800293 0.0001320838928222656 5.3002028465271 -9.5367431640625e-07 5.300100326538086 M 3.896329164505005 -1.499999523162842 C 4.323209285736084 -1.499999523162842 4.658689022064209 -1.498859882354736 4.893429279327393 -1.49662971496582 C 5.449099063873291 -1.491329669952393 5.816189289093018 -1.487819671630859 6.233939170837402 -1.146569728851318 C 6.58268928527832 -0.861689567565918 6.784999370574951 -0.4351997375488281 6.784999370574951 0.01511049270629883 C 6.784999370574951 1.806440353393555 6.03973913192749 3.510380268096924 4.686499118804932 4.813050270080566 C 3.415847301483154 6.036206722259521 1.729326248168945 6.759220600128174 0.05544948577880859 6.79924488067627 C 0.03706216812133789 6.799919128417969 0.01859617233276367 6.800260543823242 7.915496826171875e-05 6.800260543823242 C -0.6425199508666992 6.800260543823242 -1.211378574371338 6.391254901885986 -1.418598651885986 5.787549018859863 C -1.418689250946045 5.787285327911377 -1.41878080368042 5.7870192527771 -1.418871402740479 5.786755561828613 C -1.418988704681396 5.786413669586182 -1.419110774993896 5.786055564880371 -1.419227600097656 5.785713195800781 C -1.431984901428223 5.748423099517822 -1.443262577056885 5.710652351379395 -1.453033924102783 5.672529220581055 C -1.453055381774902 5.672445297241211 -1.453073024749756 5.672375679016113 -1.453094482421875 5.672292232513428 C -1.453267097473145 5.671617984771729 -1.453434467315674 5.670962333679199 -1.453606128692627 5.6702880859375 C -1.453684329986572 5.669981002807617 -1.453758239746094 5.66969108581543 -1.453836441040039 5.669384002685547 C -1.453939437866211 5.668979644775391 -1.454036712646484 5.668594360351562 -1.454139232635498 5.668189525604248 C -1.454280376434326 5.667631149291992 -1.454421997070312 5.667072772979736 -1.454562664031982 5.66651439666748 C -1.454596519470215 5.666379451751709 -1.454627513885498 5.666255474090576 -1.45466136932373 5.666120529174805 C -1.4825439453125 5.555342197418213 -1.497437953948975 5.442778587341309 -1.499707221984863 5.330530166625977 C -1.499708652496338 5.330446243286133 -1.499709606170654 5.330393314361572 -1.499711513519287 5.330309391021729 C -1.499726295471191 5.329574108123779 -1.499740123748779 5.328849315643311 -1.499753952026367 5.328114032745361 C -1.499761581420898 5.327723026275635 -1.499767780303955 5.327355861663818 -1.499774932861328 5.326964378356934 C -1.499783039093018 5.326511859893799 -1.499791145324707 5.326066970825195 -1.499798774719238 5.325614452362061 C -1.499809741973877 5.324971675872803 -1.499819755554199 5.324347019195557 -1.499829769134521 5.323703765869141 C -1.499833106994629 5.323505878448486 -1.49983549118042 5.323338508605957 -1.499838829040527 5.323140621185303 C -1.500281810760498 5.294436931610107 -1.499899864196777 5.265699863433838 -1.498687744140625 5.236929416656494 C -1.49401330947876 4.920062065124512 -1.496881484985352 1.961186170578003 -1.500000953674316 0.01752042770385742 C -1.501320838928223 -0.8080496788024902 -0.8352808952331543 -1.479509830474854 -0.009730815887451172 -1.484859943389893 C 0.01362943649291992 -1.485009670257568 2.343499183654785 -1.499999523162842 3.896329164505005 -1.499999523162842 Z" stroke="none" fill="#666"/>
  </g>
  <rect id="Rectángulo_350" data-name="Rectángulo 350" width="20" height="20" fill="none"/>
</svg>
