<svg xmlns="http://www.w3.org/2000/svg" width="16.164" height="16.168" viewBox="0 0 16.164 16.168">
  <g id="Grupo_7684" data-name="Grupo 7684" transform="translate(-1881 -255.832)">
    <g id="Trazado_829" data-name="Trazado 829" transform="translate(1882.6 259.955)" fill="none" stroke-linecap="round" stroke-linejoin="round">
      <path d="M5.2,0c.05.05,0,5.2,0,5.2s5.159-.033,5.2,0A5.2,5.2,0,1,1,5.2,0Z" stroke="none"/>
      <path d="M 5.200000286102295 0 C 2.328120231628418 0 0 2.328120231628418 0 5.200010299682617 C 0 8.071900367736816 2.328120231628418 10.40002059936523 5.200000286102295 10.40002059936523 C 8.071880340576172 10.40002059936523 10.40000057220459 8.071900367736816 10.40000057220459 5.200010299682617 C 10.38635540008545 5.188858985900879 9.804171562194824 5.185142517089844 9.033660888671875 5.18514347076416 C 7.492922782897949 5.185145378112793 5.200000286102295 5.200010299682617 5.200000286102295 5.200010299682617 C 5.200000286102295 5.200010299682617 5.250170230865479 0.05016994476318359 5.200000286102295 0 M 5.200000286102295 -1.5 C 5.597820281982422 -1.5 5.979360103607178 -1.341959953308105 6.260660171508789 -1.060659408569336 C 6.694450378417969 -0.6268701553344727 6.706210136413574 -0.1277494430541992 6.713990211486816 0.2025203704833984 C 6.717510223388672 0.3519601821899414 6.719850540161133 0.5560598373413086 6.721150398254395 0.8264703750610352 C 6.723250389099121 1.264659881591797 6.722460269927979 1.870140075683594 6.71880054473877 2.626090526580811 C 6.717033863067627 2.990335941314697 6.71475887298584 3.355382442474365 6.712403297424316 3.691756248474121 C 7.448246002197266 3.688331604003906 8.32349967956543 3.685144901275635 9.033650398254395 3.685140132904053 C 9.453760147094727 3.685140132904053 9.783920288085938 3.686260223388672 10.01496982574463 3.688460350036621 C 10.566969871521 3.693730354309082 10.93165016174316 3.697210311889648 11.34934997558594 4.038660526275635 C 11.69785022735596 4.323540210723877 11.90000057220459 4.749880313873291 11.90000057220459 5.200010299682617 C 11.90000057220459 8.894410133361816 8.894390106201172 11.90002059936523 5.200000286102295 11.90002059936523 C 1.505610466003418 11.90002059936523 -1.5 8.894410133361816 -1.5 5.200010299682617 C -1.5 1.505610466003418 1.505610466003418 -1.5 5.200000286102295 -1.5 Z" stroke="none" fill="#6a6b75"/>
    </g>
    <g id="Trazado_830" data-name="Trazado 830" transform="translate(1891.424 261.56) rotate(-90)" fill="none" stroke-linecap="round" stroke-linejoin="round">
      <path d="M0,.012s4.195-.027,4.228,0A4.388,4.388,0,0,1,0,4.24C.007,4.267,0,.012,0,.012Z" stroke="none"/>
      <path d="M 3.11706018447876 3.337860107421875e-06 C 1.864321231842041 3.337860107421875e-06 -4.76837158203125e-07 0.01209259033203125 -4.76837158203125e-07 0.01209259033203125 C -4.76837158203125e-07 0.01209259033203125 0.006743907928466797 4.213522434234619 -4.76837158203125e-07 4.240082263946533 C 2.141269445419312 4.197892189025879 4.227999210357666 2.347142219543457 4.227999210357666 0.01209259033203125 C 4.216904640197754 0.003024578094482422 3.743544101715088 3.337860107421875e-06 3.11706018447876 3.337860107421875e-06 M 0.0001268386840820313 4.240079879760742 C 2.050399780273438e-05 4.240165710449219 4.1961669921875e-05 4.240208148956299 6.341934204101563e-05 4.240208148956299 C 8.440017700195313e-05 4.240208148956299 0.0001058578491210938 4.240164756774902 -4.76837158203125e-07 4.240082263946533 M 3.117059230804443 -1.499997615814209 C 3.459579467773438 -1.499997615814209 3.728919267654419 -1.499087810516357 3.917609453201294 -1.497287750244141 C 4.370509147644043 -1.49296760559082 4.761659622192383 -1.489237785339355 5.177629470825195 -1.149027824401855 C 5.525969505310059 -0.8641376495361328 5.727999210357666 -0.4379076957702637 5.727999210357666 0.01209259033203125 C 5.727999210357666 1.52745246887207 5.099139213562012 2.967362403869629 3.957249402999878 4.066572189331055 C 2.887794494628906 5.096055507659912 1.466422080993652 5.704862594604492 0.05382251739501953 5.739257335662842 C 0.03596878051757813 5.73989200592041 0.01803970336914063 5.740212440490723 5.960464477539063e-05 5.740212440490723 C -0.6728229522705078 5.740212440490723 -1.261366844177246 5.292346477508545 -1.443356990814209 4.648408889770508 C -1.456820487976074 4.600808620452881 -1.4679274559021 4.552549362182617 -1.476625442504883 4.503869533538818 C -1.476650238037109 4.503732204437256 -1.476669311523438 4.503623962402344 -1.476694107055664 4.503486156463623 C -1.476820945739746 4.502774238586426 -1.476945877075195 4.502070426940918 -1.477072238922119 4.501358032226563 C -1.477116107940674 4.501110076904297 -1.477162837982178 4.50084400177002 -1.477206707000732 4.500596046447754 C -1.47730827331543 4.500020503997803 -1.477402210235596 4.499486923217773 -1.477502822875977 4.498911380767822 C -1.477575302124023 4.49849796295166 -1.477644920349121 4.498100280761719 -1.47771692276001 4.497686862945557 C -1.477793216705322 4.49724817276001 -1.477869987487793 4.496809005737305 -1.477945804595947 4.496370315551758 C -1.478032112121582 4.495873928070068 -1.4781174659729 4.495380401611328 -1.478202819824219 4.494884490966797 C -1.478264331817627 4.494527816772461 -1.478315353393555 4.494231700897217 -1.478376865386963 4.493875026702881 C -1.478480815887451 4.493268966674805 -1.478588581085205 4.492639064788818 -1.478691577911377 4.492033004760742 C -1.478729248046875 4.491813182830811 -1.478769302368164 4.491578578948975 -1.478806495666504 4.491359233856201 C -1.478928565979004 4.490642547607422 -1.479057312011719 4.489880084991455 -1.479177951812744 4.489163398742676 C -1.479191780090332 4.489080905914307 -1.479209899902344 4.488974094390869 -1.479223728179932 4.488892078399658 C -1.488424777984619 4.43422794342041 -1.494541645050049 4.379362106323242 -1.497634887695313 4.324503898620605 C -1.497642993927002 4.32436466217041 -1.497646808624268 4.324295997619629 -1.497654914855957 4.324156761169434 C -1.497693538665771 4.323465347290039 -1.497730731964111 4.322791576385498 -1.497768878936768 4.322100162506104 C -1.49778413772583 4.321821689605713 -1.497796535491943 4.321593284606934 -1.497811794281006 4.321314811706543 C -1.497841835021973 4.320761203765869 -1.497872829437256 4.32017993927002 -1.497901916503906 4.319626808166504 C -1.497921466827393 4.31926441192627 -1.497940063476563 4.318915843963623 -1.497959136962891 4.318553924560547 C -1.497982025146484 4.318110942840576 -1.498006820678711 4.317635059356689 -1.498029232025146 4.317192554473877 C -1.498055458068848 4.316690921783447 -1.498079776763916 4.316213607788086 -1.498105049133301 4.315711975097656 C -1.498120307922363 4.315407752990723 -1.498136043548584 4.315096855163574 -1.498151302337646 4.314792633056641 C -1.498180389404297 4.314207077026367 -1.498212814331055 4.313553810119629 -1.498241424560547 4.312968730926514 C -1.498251914978027 4.312747001647949 -1.498262405395508 4.312531471252441 -1.498272895812988 4.312310218811035 C -1.498308181762695 4.311585426330566 -1.49834156036377 4.310881614685059 -1.498375415802002 4.31015682220459 C -1.498379230499268 4.310073852539063 -1.498382568359375 4.310007095336914 -1.498386383056641 4.309924125671387 C -1.498425483703613 4.309087753295898 -1.498463153839111 4.30826473236084 -1.498500823974609 4.307427883148193 L -1.498501300811768 4.307421207427979 C -1.500380516052246 4.265648365020752 -1.500515937805176 4.22368335723877 -1.498883724212646 4.181725978851318 C -1.495263576507568 3.910192966461182 -1.497612953186035 1.498888254165649 -1.500000476837158 0.01450252532958984 C -1.501320838928223 -0.8110675811767578 -0.8352804183959961 -1.482517719268799 -0.009730815887451172 -1.48787784576416 C 0.008959293365478516 -1.487997531890869 1.873839378356934 -1.499997615814209 3.117059230804443 -1.499997615814209 Z" stroke="none" fill="#6a6b75"/>
    </g>
    <rect id="Rectángulo_350" data-name="Rectángulo 350" width="16" height="16" transform="translate(1881 256)" fill="none"/>
  </g>
</svg>
