<svg id="ico-log" xmlns="http://www.w3.org/2000/svg" width="20" height="20" viewBox="0 0 20 20">
  <rect id="Rectángulo_261" data-name="Rectángulo 261" width="20" height="20" fill="none"/>
  <g id="Grupo_1682" data-name="Grupo 1682" transform="translate(-4385.411 -96.553)">
    <g id="Rectángulo_176" data-name="Rectángulo 176" transform="translate(4387.411 96.553)" fill="none" stroke="#666" stroke-linecap="round" stroke-linejoin="round" stroke-width="1.5">
      <rect width="16" height="20" stroke="none"/>
      <rect x="0.75" y="0.75" width="14.5" height="18.5" fill="none"/>
    </g>
    <path id="Trazado_1076" data-name="Trazado 1076" d="M.422-4.59a.416.416,0,0,1-.194-.365.416.416,0,0,1,.194-.365L2.015-6.4a.18.18,0,0,1,.119-.033.4.4,0,0,1,.288.144.466.466,0,0,1,.138.333.278.278,0,0,1-.113.254l-1.1.744,1.1.744a.278.278,0,0,1,.113.254.466.466,0,0,1-.138.333.4.4,0,0,1-.288.144.179.179,0,0,1-.119-.033ZM3.063-3.162a.287.287,0,0,1,.031-.124L3.9-5.012,4.691-6.7a.267.267,0,0,1,.263-.163.385.385,0,0,1,.254.1.31.31,0,0,1,.116.248A.284.284,0,0,1,5.3-6.4L3.7-2.979a.282.282,0,0,1-.282.163.329.329,0,0,1-.251-.108A.342.342,0,0,1,3.063-3.162Zm2.847-.8a.278.278,0,0,1,.113-.254l1.1-.744L6.024-5.7a.278.278,0,0,1-.113-.254.466.466,0,0,1,.138-.333.4.4,0,0,1,.288-.144.18.18,0,0,1,.119.033L8.049-5.321a.416.416,0,0,1,.194.365.416.416,0,0,1-.194.365L6.456-3.514a.179.179,0,0,1-.119.033.4.4,0,0,1-.288-.144A.466.466,0,0,1,5.911-3.957Z" transform="translate(4391.227 106.585)" fill="#666"/>
    <line id="Línea_256" data-name="Línea 256" x2="8.462" transform="translate(4391.256 106.282)" fill="none" stroke="#666" stroke-linecap="round" stroke-width="1.5"/>
    <line id="Línea_257" data-name="Línea 257" x2="8.462" transform="translate(4391.256 109.217)" fill="none" stroke="#666" stroke-linecap="round" stroke-width="1.5"/>
    <line id="Línea_258" data-name="Línea 258" x2="8.462" transform="translate(4391.256 112.151)" fill="none" stroke="#666" stroke-linecap="round" stroke-width="1.5"/>
  </g>
</svg>
