<svg id="ico-tipo-gases" xmlns="http://www.w3.org/2000/svg" width="20" height="20" viewBox="0 0 20 20">
  <rect id="Rect치ngulo_331" data-name="Rect치ngulo 331" width="20" height="20" transform="translate(0 0)" fill="none"/>
  <g id="Grupo_1752" data-name="Grupo 1752" transform="translate(-4408 -531)">
    <g id="Uni칩n_2" data-name="Uni칩n 2" transform="translate(4408 531)" fill="none" stroke-linecap="round" stroke-linejoin="round">
      <path d="M6.568,17.641A3.811,3.811,0,0,1,1.407,12.48a3.809,3.809,0,0,1,0-5.912A3.811,3.811,0,0,1,6.567,1.407a3.809,3.809,0,0,1,5.913,0A3.811,3.811,0,0,1,17.855,6.1a3.811,3.811,0,0,1,0,6.855,3.811,3.811,0,0,1-5.375,4.69,3.809,3.809,0,0,1-5.912,0Z" stroke="none"/>
      <path d="M 9.523495674133301 17.54784202575684 C 10.22154521942139 17.54784202575684 10.87505531311035 17.23678207397461 11.31647491455078 16.69441223144531 C 11.6096363067627 16.33420753479004 12.04108810424805 16.14117050170898 12.48061466217041 16.14117050170898 C 12.72250366210938 16.14117050170898 12.96692371368408 16.19969749450684 13.19188499450684 16.32102203369141 C 13.52969551086426 16.50321197509766 13.89768505096436 16.5955810546875 14.28566551208496 16.5955810546875 C 15.55888557434082 16.5955810546875 16.59472465515137 15.55936241149902 16.59472465515137 14.28568172454834 C 16.59472465515137 14.00680160522461 16.54586601257324 13.73481178283691 16.44951438903809 13.47725200653076 C 16.17846488952637 12.75276184082031 16.50281524658203 11.94095230102539 17.19846534729004 11.60268211364746 C 18.00135612487793 11.21228218078613 18.50011444091797 10.41591167449951 18.50011444091797 9.524352073669434 C 18.50011444091797 8.632411956787109 18.00133514404297 7.83571195602417 17.19840621948242 7.445161819458008 C 16.5029354095459 7.106882095336914 16.17866516113281 6.295281887054443 16.44954490661621 5.570891857147217 C 16.54587554931641 5.313271999359131 16.59472465515137 5.041182041168213 16.59472465515137 4.762181758880615 C 16.59472465515137 3.488961935043335 15.55888557434082 2.453121900558472 14.28566551208496 2.453121900558472 C 13.89775562286377 2.453121900558472 13.5297155380249 2.545451879501343 13.19177532196045 2.727551937103271 C 12.96689414978027 2.848725557327271 12.72274971008301 2.907140493392944 12.48098754882812 2.907140493392944 C 12.04145812988281 2.907140493392944 11.60987567901611 2.714013338088989 11.3167552947998 2.353791952133179 C 10.87524509429932 1.811191916465759 10.22162532806396 1.500001907348633 9.523495674133301 1.500001907348633 C 8.825715065002441 1.500001907348633 8.172375679016113 1.811201930046082 7.730995178222656 2.353801965713501 C 7.437857627868652 2.714163303375244 7.006246089935303 2.907332420349121 6.566617965698242 2.907332420349121 C 6.324737548828125 2.907332420349121 6.080400943756104 2.848836421966553 5.855435371398926 2.727531909942627 C 5.517755508422852 2.545441865921021 5.149935245513916 2.453121900558472 4.7621750831604 2.453121900558472 C 3.488485336303711 2.453121900558472 2.452255249023438 3.488961935043335 2.452255249023438 4.762181758880615 C 2.452255249023438 5.150092124938965 2.54463529586792 5.518032073974609 2.72682523727417 5.855802059173584 C 3.06867527961731 6.489542007446289 2.911965370178223 7.276782035827637 2.353505373001099 7.731301784515381 C 1.811085343360901 8.172772407531738 1.499995350837708 8.826312065124512 1.499995350837708 9.524352073669434 C 1.499995350837708 10.22196197509766 1.811105370521545 10.87523174285889 2.353545427322388 11.3166618347168 C 2.912115335464478 11.77121162414551 3.068825244903564 12.55856227874756 2.726885318756104 13.19235229492188 C 2.544655323028564 13.53010177612305 2.452255249023438 13.89795207977295 2.452255249023438 14.28568172454834 C 2.452255249023438 15.55936241149902 3.488485336303711 16.5955810546875 4.7621750831604 16.5955810546875 C 5.149905204772949 16.5955810546875 5.517755508422852 16.50318145751953 5.855505466461182 16.32096290588379 C 6.080604553222656 16.19951820373535 6.324951648712158 16.14099311828613 6.567002296447754 16.14099311828613 C 7.0064697265625 16.14099311828613 7.438085079193115 16.33411598205566 7.731195449829102 16.69430160522461 C 8.172605514526367 17.23674201965332 8.825875282287598 17.54784202575684 9.523495674133301 17.54784202575684 M 9.523495674133301 19.04784202575684 C 8.330965042114258 19.04784202575684 7.266225337982178 18.49941253662109 6.567745208740234 17.64108276367188 C 6.030345439910889 17.93102264404297 5.4154953956604 18.0955810546875 4.7621750831604 18.0955810546875 C 2.657935380935669 18.0955810546875 0.9522553086280823 16.38991165161133 0.9522553086280823 14.28568172454834 C 0.9522553086280823 13.63235187530518 1.116825342178345 13.01749229431152 1.406765341758728 12.48010158538818 C 0.5484353303909302 11.78161239624023 -4.686889496952062e-06 10.716872215271 -4.686889496952062e-06 9.524352073669434 C -4.686889496952062e-06 8.331341743469238 0.5483253002166748 7.266491889953613 1.40664529800415 6.567922115325928 C 1.1168053150177 6.03059196472168 0.9522553086280823 5.415641784667969 0.9522553086280823 4.762181758880615 C 0.9522553086280823 2.657942056655884 2.657935380935669 0.9531219601631165 4.7621750831604 0.9531219601631165 C 5.415365219116211 0.9531219601631165 6.030055522918701 1.117511987686157 6.567365169525146 1.407241940498352 C 7.265835285186768 0.5485919713973999 8.330715179443359 1.96655264517176e-06 9.523495674133301 1.96655264517176e-06 C 10.71662521362305 1.96655264517176e-06 11.78167533874512 0.5485619902610779 12.48023509979248 1.407051920890808 C 13.01753520965576 1.117532014846802 13.63245487213135 0.9531219601631165 14.28566551208496 0.9531219601631165 C 16.38904571533203 0.9531219601631165 18.09472465515137 2.657942056655884 18.09472465515137 4.762181758880615 C 18.09472465515137 5.231592178344727 18.00977516174316 5.68110179901123 17.85452461242676 6.096271991729736 C 19.1246452331543 6.714071750640869 20.00011444091797 8.016942024230957 20.00011444091797 9.524352073669434 C 20.00011444091797 11.03128242492676 19.12471580505371 12.33397197723389 17.85441589355469 12.95166206359863 C 18.00975608825684 13.36688232421875 18.09472465515137 13.81631183624268 18.09472465515137 14.28568172454834 C 18.09472465515137 16.38991165161133 16.38904571533203 18.0955810546875 14.28566551208496 18.0955810546875 C 13.63220500946045 18.0955810546875 13.01730537414551 17.93111228942871 12.47986507415771 17.64126205444336 C 11.78129577636719 18.49959182739258 10.71649551391602 19.04784202575684 9.523495674133301 19.04784202575684 Z" stroke="none" fill="#666"/>
    </g>
    <path id="Trazado_981" data-name="Trazado 981" d="M4319.36,649.891a2.142,2.142,0,0,0,2.35-.321c.958-.99.243-2.955.2-3.118s1.427-.213,1.794-1.061a1.757,1.757,0,0,0-.7-1.993" transform="translate(100.411 -104.4)" fill="none" stroke="#666" stroke-linecap="round" stroke-linejoin="round" stroke-width="1"/>
  </g>
</svg>
