<svg xmlns="http://www.w3.org/2000/svg" width="20" height="20" viewBox="0 0 20 20"><g transform="translate(-1.111 -1.666)"><path d="M19.175,1.667H8.853V5.1h1.29V3.042h9.032a.631.631,0,0,1,.646.688v7.56a.631.631,0,0,1-.646.688H10.788v4.811H7.369L4.981,18.78V16.787H3.047A.631.631,0,0,1,2.4,16.1V8.539a.631.631,0,0,1,.646-.688h8.386V6.477H3.047A1.966,1.966,0,0,0,1.111,8.539V16.1a1.966,1.966,0,0,0,1.936,2.062h.646v3.5l4.064-3.5h4.322V13.35h7.1a1.966,1.966,0,0,0,1.936-2.062V3.728a1.966,1.966,0,0,0-1.936-2.062Z" transform="translate(0 0)" fill="#666"/><path d="M3.444,12.722H4.777l.333-.889H6.832l.333.889H8.5L6.611,7.778H5.278L3.445,12.722Zm2.5-3.556L6.5,10.888H5.389l.556-1.722Z" transform="translate(0 2.087)" fill="#666"/><path d="M11.111,9.444a5.219,5.219,0,0,0,2.222-.556,5.416,5.416,0,0,0,2.222.556V8.333a3.811,3.811,0,0,1-1.167-.222A4.222,4.222,0,0,0,15.555,5V4.444H13.888V3.333H12.777V4.444H11.11V5.555h3.278a2.792,2.792,0,0,1-1.056,2,3.252,3.252,0,0,1-.889-1.167H11.276a4.039,4.039,0,0,0,1,1.722,3.2,3.2,0,0,1-1.167.222V9.443Z" transform="translate(2.173)" fill="#666"/></g></svg>