<svg id="ico-ambiental" xmlns="http://www.w3.org/2000/svg" width="20" height="20" viewBox="0 0 20 20">
  <rect id="Rectángulo_313" data-name="Rectángulo 313" width="20" height="20" transform="translate(0 0)" fill="none" opacity="0.5"/>
  <path id="Trazado_1269" data-name="Trazado 1269" d="M0,10.86V28.378" transform="translate(10.085 -9.378)" fill="none" stroke="#666" stroke-linecap="round" stroke-width="1.5"/>
  <path id="Trazado_1270" data-name="Trazado 1270" d="M4208.757,195.105l4.5,3.62" transform="translate(-4203.257 -189.661)" fill="none" stroke="#666" stroke-linecap="round" stroke-linejoin="round" stroke-width="1.5"/>
  <path id="Trazado_1316" data-name="Trazado 1316" d="M4212.891,195.105l-4.134,3.62" transform="translate(-4198.289 -189.661)" fill="none" stroke="#666" stroke-linecap="round" stroke-linejoin="round" stroke-width="1.5"/>
  <path id="Trazado_1271" data-name="Trazado 1271" d="M4207.2,194.3l6.37,4.949" transform="translate(-4203.57 -185.299)" fill="none" stroke="#666" stroke-linecap="round" stroke-linejoin="round" stroke-width="1.5"/>
  <path id="Trazado_1317" data-name="Trazado 1317" d="M4213.228,194.3l-6.027,4.949" transform="translate(-4196.733 -185.299)" fill="none" stroke="#666" stroke-linecap="round" stroke-linejoin="round" stroke-width="1.5"/>
  <g id="Trazado_1315" data-name="Trazado 1315" transform="translate(2.269 0)" fill="none">
    <path d="M7.733,0c.146-.046,7.812,5.5,7.812,10.475S11.519,18,7.733,18a7.342,7.342,0,0,1-7.65-7.525C.084,5.5,7.587.046,7.733,0Z" stroke="none"/>
    <path d="M 7.765767097473145 1.841724395751953 C 7.030632019042969 2.426721572875977 5.873147010803223 3.417472839355469 4.745335578918457 4.632049560546875 C 2.677085876464844 6.859410285949707 1.583866119384766 8.879770278930664 1.583866119384766 10.47469997406006 C 1.583866119384766 12.33291053771973 2.238595962524414 13.88829040527344 3.477265357971191 14.97270011901855 C 4.585955619812012 15.94332027435303 6.137255668640137 16.5 7.733395576477051 16.5 C 9.349725723266602 16.5 10.93630599975586 15.93840980529785 12.08632564544678 14.95921993255615 C 13.36788558959961 13.8680305480957 14.04528617858887 12.31731033325195 14.04528617858887 10.47469997406006 C 14.04528617858887 8.926469802856445 12.93139553070068 6.878350257873535 10.90881538391113 4.707639694213867 C 9.73945426940918 3.452629089355469 8.523975372314453 2.427471160888672 7.765767097473145 1.841724395751953 M 7.735571384429932 -0.0002803802490234375 C 7.94246244430542 -0.0002803802490234375 15.54528522491455 5.524466514587402 15.54528522491455 10.47469997406006 C 15.54528522491455 15.4452600479126 11.51851558685303 18 7.733395576477051 18 C 3.948275566101074 18 0.08386611938476562 15.4452600479126 0.08386611938476562 10.47469997406006 C 0.08386611938476562 5.50413990020752 7.586895942687988 0.0457000732421875 7.733395576477051 0 C 7.733994960784912 -0.000186920166015625 7.734721660614014 -0.0002803802490234375 7.735571384429932 -0.0002803802490234375 Z" stroke="none" fill="#666"/>
  </g>
</svg>
