<svg id="btn_duplicate_typology_grid" xmlns="http://www.w3.org/2000/svg" width="20.493" height="20.542" viewBox="0 0 20.493 20.542">
  <g id="Grupo_2734" data-name="Grupo 2734" transform="translate(0 20.542) rotate(-90)">
    <rect id="Rectángulo_185" data-name="Rectángulo 185" width="19.827" height="19.827" transform="translate(0 0.665)" fill="none"/>
    <g id="Grupo_1564" data-name="Grupo 1564" transform="translate(0.932)">
      <g id="Elipse_5" data-name="Elipse 5" transform="translate(6.361)" fill="none" stroke="#6a6b75" stroke-width="1.5">
        <circle cx="3" cy="3" r="3" stroke="none"/>
        <circle cx="3" cy="3" r="2.25" fill="none"/>
      </g>
      <g id="Elipse_6" data-name="Elipse 6" transform="translate(6.361 13.972)" fill="none" stroke="#6a6b75" stroke-width="1.5">
        <circle cx="3" cy="3" r="3" stroke="none"/>
        <circle cx="3" cy="3" r="2.25" fill="none"/>
      </g>
      <g id="Elipse_7" data-name="Elipse 7" transform="translate(-0.39 14)" fill="none" stroke="#6a6b75" stroke-width="1.5">
        <circle cx="3" cy="3" r="3" stroke="none"/>
        <circle cx="3" cy="3" r="2.25" fill="none"/>
      </g>
      <path id="Trazado_93" data-name="Trazado 93" d="M0,0V10.015" transform="translate(9.315 4.657)" fill="none" stroke="#6a6b75" stroke-width="1.6"/>
      <path id="Trazado_94" data-name="Trazado 94" d="M0,4V1.293C0,.334.505.026,1.478.008,1.931,0,3.792,0,6,0" transform="translate(2.61 10)" fill="none" stroke="#6a6b75" stroke-width="1.6"/>
    </g>
  </g>
  <g id="Grupo_5973" data-name="Grupo 5973" transform="translate(6.548 -0.02)">
    <line id="Línea_922" data-name="Línea 922" y2="8" transform="translate(3.479 0.02)" fill="none" stroke="#6a6b75" stroke-width="2"/>
    <line id="Línea_923" data-name="Línea 923" y2="8" transform="translate(7.452 4.255) rotate(90)" fill="none" stroke="#6a6b75" stroke-width="2"/>
  </g>
</svg>
