<svg xmlns="http://www.w3.org/2000/svg" width="20" height="20" viewBox="0 0 20 20">
  <g id="Grupo_7044" data-name="Grupo 7044" transform="translate(-449 -253)">
    <g id="ico_mod_sharing" transform="translate(449 253)">
      <g id="Grupo_1184" data-name="Grupo 1184" transform="translate(-321 -742)">
        <rect id="Rectángulo_228" data-name="Rectángulo 228" width="20" height="20" transform="translate(321 742)" fill="none"/>
        <path id="Trazado_1131" data-name="Trazado 1131" d="M248.677-442l-2.454.335a15.443,15.443,0,0,0-3.844,2.193,4.376,4.376,0,0,0-1.41,2.612v2.81h4.77" transform="translate(82.032 1195)" fill="none" stroke="#6a6b75" stroke-linecap="round" stroke-linejoin="round" stroke-width="1.5"/>
        <path id="Trazado_1133" data-name="Trazado 1133" d="M248.584-488.885a3.436,3.436,0,0,0-4.431,2.116,8.486,8.486,0,0,0,.2,5.535c.55,1.075,1.807,2.083,4.23,1.739" transform="translate(81.269 1232.672)" fill="none" stroke="#6a6b75" stroke-linecap="round" stroke-width="1.5"/>
        <path id="Trazado_1134" data-name="Trazado 1134" d="M4278.008,1902.961l2.038-.617,1.953-.492" transform="translate(-3952.517 -1154.819)" fill="none" stroke="#6a6b75" stroke-width="1.5"/>
        <path id="Trazado_1315" data-name="Trazado 1315" d="M219.683,297.346a4.658,4.658,0,0,1-2.3-1.053c0-.037.237-2.465.237-2.465Z" transform="translate(106.781 456)" fill="#6a6b75"/>
        <rect id="Rectángulo_208" data-name="Rectángulo 208" width="20" height="20" transform="translate(321 742)" fill="none"/>
        <path id="Trazado_65" data-name="Trazado 65" d="M-290.3,385.659v1.95c0,.387.1,1.355-1.481,1.421s-12.493,0-12.493,0v-3.371a3.386,3.386,0,0,1,1.16-2.021c.97-.718,3.982-2.666,3.982-2.666a4.569,4.569,0,0,0,1.8.428,4.917,4.917,0,0,0,1.844-.428,33.644,33.644,0,0,1,4.389,2.666A3.077,3.077,0,0,1-290.3,385.659Z" transform="translate(630.292 371.941)" fill="none" stroke="#6a6b75" stroke-width="1.5"/>
        <g id="Rectángulo_35" data-name="Rectángulo 35" transform="translate(328.231 742)" fill="none" stroke="#6a6b75" stroke-width="1.5">
          <rect width="9.236" height="12.059" rx="4.618" stroke="none"/>
          <rect x="0.75" y="0.75" width="7.736" height="10.559" rx="3.868" fill="none"/>
        </g>
        <path id="Trazado_70" data-name="Trazado 70" d="M-413.292,522.937l2.829-1.615h5.313" transform="translate(742.067 224.856)" fill="none" stroke="#6a6b75" stroke-width="1.5"/>
      </g>
      <path id="Trazado_883" data-name="Trazado 883" d="M-2056.864,2099.66a8.268,8.268,0,0,0,4.311,1.674,9.132,9.132,0,0,0,4.471-1.674" transform="translate(2064.364 -2087.16)" fill="none" stroke="#6a6b75" stroke-width="1.5"/>
    </g>
  </g>
</svg>
