<svg id="ico_coin" xmlns="http://www.w3.org/2000/svg" width="20" height="20" viewBox="0 0 20 20">
  <rect id="Rectángulo_2583" data-name="Rectángulo 2583" width="20" height="20" fill="none"/>
  <g id="Elipse_450" data-name="Elipse 450" transform="translate(1 1)" fill="none" stroke="#6a6b75" stroke-width="1.5">
    <circle cx="9" cy="9" r="9" stroke="none"/>
    <circle cx="9" cy="9" r="8.25" fill="none"/>
  </g>
  <path id="Trazado_2505" data-name="Trazado 2505" d="M-3.318-2.791a.942.942,0,0,1,.212-.563.6.6,0,0,1,.478-.284.632.632,0,0,1,.357.145,4.077,4.077,0,0,1,.387.321,1.788,1.788,0,0,0,.538.321,2.006,2.006,0,0,0,.774.145A1.669,1.669,0,0,0,.4-2.973a.893.893,0,0,0,.387-.786,1.056,1.056,0,0,0-.212-.647,1.684,1.684,0,0,0-.556-.472q-.345-.188-.756-.363t-.829-.393a4.836,4.836,0,0,1-.762-.49,1.961,1.961,0,0,1-.556-.726A2.419,2.419,0,0,1-3.1-7.884a2.376,2.376,0,0,1,.26-1.131,1.96,1.96,0,0,1,.7-.762,3.285,3.285,0,0,1,.932-.4A4.229,4.229,0,0,1-.16-10.3a5.563,5.563,0,0,1,.665.042,6.263,6.263,0,0,1,.744.139,1.581,1.581,0,0,1,.641.3.613.613,0,0,1,.248.484,1.075,1.075,0,0,1-.169.55.516.516,0,0,1-.46.284,2.282,2.282,0,0,1-.593-.23A2.478,2.478,0,0,0-.16-8.961a1.755,1.755,0,0,0-1.01.248.788.788,0,0,0-.357.684.8.8,0,0,0,.29.611A2.28,2.28,0,0,0-.517-7q.429.163.932.411a7.937,7.937,0,0,1,.932.538,2.258,2.258,0,0,1,.72.841,2.723,2.723,0,0,1,.29,1.288,2.425,2.425,0,0,1-.792,1.942,3.083,3.083,0,0,1-2.087.684A3.9,3.9,0,0,1-2.5-1.763Q-3.318-2.235-3.318-2.791Z" transform="translate(10.733 15.752)" fill="#6a6b75" stroke="#6a6b75" stroke-width="0.25"/>
  <line id="Línea_973" data-name="Línea 973" y1="1.144" transform="translate(9.72 4.906)" fill="none" stroke="#6a6b75" stroke-linecap="round" stroke-width="1.5"/>
  <line id="Línea_974" data-name="Línea 974" y1="1.144" transform="translate(9.72 14.062)" fill="none" stroke="#6a6b75" stroke-linecap="round" stroke-width="1.5"/>
</svg>
