<svg id="ico-clients" xmlns="http://www.w3.org/2000/svg" width="20" height="20" viewBox="0 0 20 20">
  <rect id="Rectángulo_228" data-name="Rectángulo 228" width="20" height="20" fill="none"/>
  <path id="Trazado_1131" data-name="Trazado 1131" d="M248.677-442l-2.454.335a15.443,15.443,0,0,0-3.844,2.193,4.376,4.376,0,0,0-1.41,2.612v2.81h4.77" transform="translate(-239.968 453)" fill="none" stroke="#666" stroke-linecap="round" stroke-linejoin="round" stroke-width="1.5"/>
  <path id="Trazado_1133" data-name="Trazado 1133" d="M248.584-488.885a3.436,3.436,0,0,0-4.431,2.116,8.486,8.486,0,0,0,.2,5.535c.55,1.075,1.807,2.083,4.23,1.739" transform="translate(-240.731 490.672)" fill="none" stroke="#666" stroke-linecap="round" stroke-width="1.5"/>
  <path id="Trazado_1134" data-name="Trazado 1134" d="M4278.008,1902.961l2.038-.617,1.953-.492" transform="translate(-4274.517 -1896.819)" fill="none" stroke="#666" stroke-width="1.5"/>
  <path id="Trazado_1315" data-name="Trazado 1315" d="M219.683,297.346a4.658,4.658,0,0,1-2.3-1.053c0-.037.237-2.465.237-2.465Z" transform="translate(-215.219 -286)" fill="#666"/>
  <rect id="Rectángulo_208" data-name="Rectángulo 208" width="20" height="20" fill="none"/>
  <path id="Trazado_65" data-name="Trazado 65" d="M-290.3,385.659c.014.023.013,1.91,0,1.95,0,.387.1,1.355-1.481,1.421s-11.333,0-11.333,0-1.162.08-1.16-1.421c-.03.015-.011-1.934,0-1.95a2.432,2.432,0,0,1,1.16-2.021c.97-.718,3.982-2.666,3.982-2.666a4.569,4.569,0,0,0,1.8.428,4.917,4.917,0,0,0,1.844-.428,33.644,33.644,0,0,1,4.389,2.666A3.077,3.077,0,0,1-290.3,385.659Z" transform="translate(308.292 -370.059)" fill="none" stroke="#666" stroke-width="1.5"/>
  <g id="Rectángulo_35" data-name="Rectángulo 35" transform="translate(6.231)" fill="none" stroke="#666" stroke-width="1.5">
    <rect width="9.236" height="12.059" rx="4.618" stroke="none"/>
    <rect x="0.75" y="0.75" width="7.736" height="10.559" rx="3.868" fill="none"/>
  </g>
  <path id="Trazado_70" data-name="Trazado 70" d="M-413.292,522.937l2.829-1.615h5.313" transform="translate(420.067 -517.144)" fill="none" stroke="#666" stroke-width="1.5"/>
</svg>
