<svg id="ico-tipo-antenas" xmlns="http://www.w3.org/2000/svg" width="20" height="20" viewBox="0 0 20 20">
  <rect id="Rectángulo_342" data-name="Rectángulo 342" width="20" height="20" fill="none"/>
  <g id="Grupo_1775" data-name="Grupo 1775" transform="translate(-1939.699 -352.879)">
    <g id="Trazado_996" data-name="Trazado 996" transform="translate(1945.711 359.642) rotate(30)" fill="none">
      <path d="M3.816,0A3.607,3.607,0,0,1,7.54,3.617,3.834,3.834,0,0,1,3.724,7.329,3.607,3.607,0,0,1,0,3.713,3.834,3.834,0,0,1,3.816,0Z" stroke="none"/>
      <path d="M 3.866416931152344 1.499998569488525 L 3.835227012634277 1.500198364257812 C 2.562906742095947 1.516348361968994 1.515407085418701 2.517338275909424 1.500166893005371 3.731568336486816 C 1.493307113647461 4.278228282928467 1.701296806335449 4.79373836517334 2.085826873779297 5.183118343353271 C 2.497626781463623 5.600128173828125 3.061646938323975 5.829778671264648 3.673976898193359 5.829778671264648 L 3.705166816711426 5.829578399658203 C 4.977486610412598 5.813428401947021 6.024986743927002 4.812438488006592 6.040226936340332 3.598208427429199 C 6.047086715698242 3.051548480987549 5.839097023010254 2.536038398742676 5.454566955566406 2.146658420562744 C 5.042766571044922 1.729648590087891 4.478746891021729 1.499998569488525 3.866416931152344 1.499998569488525 M 3.866415500640869 -4.76837158203125e-07 C 5.925167083740234 -4.76837158203125e-07 7.565303802490234 1.609330654144287 7.540106773376465 3.617038488388062 C 7.514707088470459 5.640928268432617 5.806276798248291 7.303028583526611 3.724206924438477 7.329458236694336 C 3.707559585571289 7.32966947555542 3.690572023391724 7.329777240753174 3.673978328704834 7.329777240753174 C 1.615226745605469 7.329777240753174 -0.02490997314453125 5.720446109771729 0.0002870559692382812 3.712738275527954 C 0.02568674087524414 1.688848495483398 1.734117031097412 0.0267481803894043 3.816186904907227 0.0003185272216796875 C 3.832834243774414 0.0001072883605957031 3.849821805953979 -4.76837158203125e-07 3.866415500640869 -4.76837158203125e-07 Z" stroke="none" fill="#666"/>
    </g>
    <path id="Trazado_995" data-name="Trazado 995" d="M2.176,0A7.1,7.1,0,0,0,0,4.755a7.378,7.378,0,0,0,2.323,5.37" transform="translate(1957.152 361.416) rotate(135)" fill="none" stroke="#666" stroke-linecap="round" stroke-width="1.5"/>
    <path id="Trazado_1291" data-name="Trazado 1291" d="M1.294,0A4.221,4.221,0,0,0,0,2.828,4.388,4.388,0,0,0,1.382,6.022" transform="translate(1953.548 362.074) rotate(135)" fill="none" stroke="#666" stroke-linecap="round" stroke-width="1.5"/>
    <path id="Trazado_1316" data-name="Trazado 1316" d="M1.768,0,0,3.42" transform="translate(1943.565 367.238)" fill="none" stroke="#666" stroke-width="1.5"/>
    <line id="Línea_322" data-name="Línea 322" x2="2.652" y2="3.42" transform="translate(1948.869 367.238)" fill="none" stroke="#666" stroke-width="1.5"/>
  </g>
</svg>
