<svg id="ico-extensiones" xmlns="http://www.w3.org/2000/svg" width="20" height="20.001" viewBox="0 0 20 20.001">
  <rect id="Rectángulo_249" data-name="Rectángulo 249" width="20" height="20" transform="translate(0 0)" fill="none"/>
  <g id="Unión_17" data-name="Unión 17" transform="translate(167 -651)" fill="none" stroke-linecap="round">
    <path d="M-165,671a1,1,0,0,1-1-1V652a1,1,0,0,1,1-1h14a1,1,0,0,1,1,1v5.043a3.586,3.586,0,0,1,3,3.442v6.382a.994.994,0,0,1-1,.987h-2V670a1,1,0,0,1-1,1Z" stroke="none"/>
    <path d="M -151.5003051757812 669.5004272460938 L -151.5003051757812 667.85400390625 L -151.5003051757812 666.35400390625 L -150.0003051757812 666.35400390625 L -148.4997100830078 666.35400390625 L -148.4997100830078 660.4848022460938 C -148.4997100830078 659.8005981445312 -149.04833984375 658.7047119140625 -150.2258911132812 658.5255737304688 L -151.5003051757812 658.3317260742188 L -151.5003051757812 657.0426635742188 L -151.5003051757812 652.4996948242188 L -164.4996032714844 652.4996948242188 L -164.4996032714844 669.5004272460938 L -151.5003051757812 669.5004272460938 M -151.0001983642578 671.0004272460938 L -164.9997100830078 671.0004272460938 C -165.5523071289062 671.0004272460938 -165.9996032714844 670.55224609375 -165.9996032714844 669.9996337890625 L -165.9996032714844 651.9996337890625 C -165.9996032714844 651.4479370117188 -165.5523071289062 650.9996948242188 -164.9997100830078 650.9996948242188 L -151.0001983642578 650.9996948242188 C -150.4476013183594 650.9996948242188 -150.0003051757812 651.4479370117188 -150.0003051757812 651.9996337890625 L -150.0003051757812 657.0426635742188 C -148.0687866210938 657.3364868164062 -146.9997100830078 659.0908203125 -146.9997100830078 660.4848022460938 L -146.9997100830078 666.86669921875 C -146.9997100830078 667.412109375 -147.4479064941406 667.85400390625 -147.9996032714844 667.85400390625 L -150.0003051757812 667.85400390625 L -150.0003051757812 669.9996337890625 C -150.0003051757812 670.55224609375 -150.4476013183594 671.0004272460938 -151.0001983642578 671.0004272460938 Z" stroke="none" fill="#666"/>
  </g>
  <path id="Trazado_902" data-name="Trazado 902" d="M3138.979,256.948c1.193-.008,11.754,0,11.754,0v4.225a.838.838,0,0,1-.886.775h-10.868a1.2,1.2,0,0,1-1.24-1.288v-2.849S3137.786,256.956,3138.979,256.948Z" transform="translate(-3131.739 -245.947)" fill="none" stroke="#666" stroke-width="1.5"/>
  <path id="Trazado_1160" data-name="Trazado 1160" d="M1069.228-330.445v4.6" transform="translate(-1053 337)" fill="none" stroke="#666" stroke-width="1.5"/>
  <line id="Línea_302" data-name="Línea 302" x2="8" transform="translate(5 5)" fill="none" stroke="#666" stroke-linecap="round" stroke-width="1.5"/>
  <line id="Línea_303" data-name="Línea 303" x2="8" transform="translate(5 8)" fill="none" stroke="#666" stroke-linecap="round" stroke-width="1.5"/>
</svg>
