<svg id="ico-region" xmlns="http://www.w3.org/2000/svg" width="20" height="20" viewBox="0 0 20 20">
  <g id="Grupo_7870" data-name="Grupo 7870" transform="translate(-725.569 -339.239)">
    <rect id="Rectángulo_3130" data-name="Rectángulo 3130" width="20" height="20" transform="translate(725.569 339.239)" fill="none"/>
  </g>
  <g id="Grupo_7871" data-name="Grupo 7871" transform="translate(-725.569 -339.239)">
    <path id="Trazado_2777" data-name="Trazado 2777" d="M735.563,358.739c-.3,0-.6-.014-.9-.042l.094-1c.265.026.535.038.808.038h.133l.02,1h-.159Zm1.207-.075-.125-.992a8.577,8.577,0,0,0,.928-.17l.235.972A9.353,9.353,0,0,1,736.77,358.664Zm-3.146-.124a9.327,9.327,0,0,1-1.02-.273l.312-.95a8.416,8.416,0,0,0,.911.244Zm5.193-.371-.341-.939a8.532,8.532,0,0,0,.867-.372l.445.895A9.3,9.3,0,0,1,738.817,358.169Zm-7.2-.287a9.31,9.31,0,0,1-.933-.492l.513-.857a8.732,8.732,0,0,0,.836.44Zm9.085-.649-.541-.841a8.537,8.537,0,0,0,.764-.554l.631.775A9.351,9.351,0,0,1,740.705,357.233Zm-10.89-.434a9.229,9.229,0,0,1-.8-.687l.691-.721a8.365,8.365,0,0,0,.717.612Zm12.523-.894-.711-.7a8.191,8.191,0,0,0,.623-.707l.787.618A9.382,9.382,0,0,1,742.338,355.9Zm-14.047-.561a9.458,9.458,0,0,1-.632-.844l.832-.554a8.354,8.354,0,0,0,.566.756Zm15.352-1.094-.85-.528a8.509,8.509,0,0,0,.453-.828l.9.43A9.415,9.415,0,0,1,743.643,354.25Zm-16.52-.658a9.284,9.284,0,0,1-.432-.964l.936-.355a8.184,8.184,0,0,0,.385.86Zm17.426-1.245-.945-.327a8.116,8.116,0,0,0,.257-.907l.977.218A9.539,9.539,0,0,1,744.549,352.347Zm-18.178-.722a9.556,9.556,0,0,1-.206-1.036l.99-.139a8.1,8.1,0,0,0,.185.924Zm18.641-1.333-.994-.11a8.626,8.626,0,0,0,.051-.943c0-.181-.006-.361-.016-.539l1-.062c.012.2.018.4.018.6A9.634,9.634,0,0,1,745.012,350.292Zm-18.938-.752-.005-.3c0-.253.011-.505.031-.753l1,.079q-.027.333-.027.674l.005.27Zm17.868-1.776a8.979,8.979,0,0,0-.214-.92l.959-.281a9.717,9.717,0,0,1,.24,1.027Zm-16.72-.135-.983-.189a9.94,9.94,0,0,1,.256-1.023l.955.3A8.523,8.523,0,0,0,727.222,347.629Zm16.19-1.674a8.651,8.651,0,0,0-.413-.849l.875-.485a9.525,9.525,0,0,1,.46.948Zm-15.631-.124-.916-.4a9.634,9.634,0,0,1,.478-.94l.865.5A8.761,8.761,0,0,0,727.781,345.831Zm14.713-1.521a8.56,8.56,0,0,0-.59-.738l.746-.666a9.544,9.544,0,0,1,.659.823Zm-13.769-.111-.8-.594a9.369,9.369,0,0,1,.673-.813l.734.679A8.386,8.386,0,0,0,728.725,344.2Zm12.512-1.294a8.384,8.384,0,0,0-.737-.59l.582-.814a9.693,9.693,0,0,1,.823.659ZM730,342.814l-.654-.755a9.326,9.326,0,0,1,.834-.646l.568.823A8.6,8.6,0,0,0,730,342.814Zm9.7-1a8.208,8.208,0,0,0-.848-.413l.387-.922a9.449,9.449,0,0,1,.949.462Zm-8.146-.065-.473-.881a9.443,9.443,0,0,1,.955-.447l.373.928A8.434,8.434,0,0,0,731.556,341.745Zm6.411-.663a8.552,8.552,0,0,0-.921-.215l.174-.985a9.322,9.322,0,0,1,1.026.24Zm-4.663-.038-.266-.963a9.493,9.493,0,0,1,1.031-.224l.157.988A8.422,8.422,0,0,0,733.3,341.044Zm2.8-.288c-.187-.012-.4-.019-.564-.017-.128,0-.254,0-.378.01l-.049-1c.151-.008.288-.01.454-.011.2,0,.4.007.6.019Z" fill="#707070"/>
  </g>
  <g id="Grupo_7872" data-name="Grupo 7872" transform="translate(-725.569 -339.239)">
    <path id="Trazado_2778" data-name="Trazado 2778" d="M735.569,355.7a6.461,6.461,0,1,1,6.461-6.461A6.468,6.468,0,0,1,735.569,355.7Zm0-11.322a4.861,4.861,0,1,0,4.862,4.861A4.867,4.867,0,0,0,735.569,344.378Z" fill="#707070"/>
  </g>
  <g id="Grupo_7873" data-name="Grupo 7873" transform="translate(-725.569 -339.239)">
    <path id="Trazado_2779" data-name="Trazado 2779" d="M734.947,352.007a2.851,2.851,0,0,1-1.137-.543l.621-.784a1.849,1.849,0,0,0,.735.352Zm1.26,0-.225-.975a1.81,1.81,0,0,0,.735-.356l.625.782A2.829,2.829,0,0,1,736.207,352Zm-3.188-1.521a2.786,2.786,0,0,1-.287-1.229l1,0a1.8,1.8,0,0,0,.185.793Zm5.107-.014-.9-.434a1.818,1.818,0,0,0,.18-.8l1-.026v.026A2.811,2.811,0,0,1,738.126,350.469Zm-4.218-2.015-.9-.43a2.858,2.858,0,0,1,.779-.99l.629.777A1.857,1.857,0,0,0,733.908,348.454Zm3.309-.029a1.842,1.842,0,0,0-.517-.633l.617-.788a2.873,2.873,0,0,1,.8.977Zm-2.071-.973-.229-.974a2.87,2.87,0,0,1,1.258-.011l-.211.977A1.9,1.9,0,0,0,735.146,347.452Z" fill="#707070"/>
  </g>
</svg>
