<svg id="ico-tipo-emplazamiento" xmlns="http://www.w3.org/2000/svg" xmlns:xlink="http://www.w3.org/1999/xlink" width="20" height="20" viewBox="0 0 20 20">
  <defs>
    <clipPath id="clip-path">
      <rect id="Rect치ngulo_3041" data-name="Rect치ngulo 3041" width="20" height="20" fill="none"/>
    </clipPath>
  </defs>
  <rect id="Rect치ngulo_3040" data-name="Rect치ngulo 3040" width="20" height="20" fill="none"/>
  <g id="Grupo_7646" data-name="Grupo 7646">
    <g id="Grupo_7645" data-name="Grupo 7645" clip-path="url(#clip-path)">
      <path id="Trazado_2671" data-name="Trazado 2671" d="M6.3,16.512,2.07,18.17c-.356.139-.8-.035-.8-.313v-6.3a.362.362,0,0,1,.266-.312L6.3,9.381Z" fill="#707070"/>
      <path id="Trazado_2672" data-name="Trazado 2672" d="M18.623,16.616l-4.768,1.867V11.352L18.09,9.694c.355-.139.8.034.8.312v6.3a.364.364,0,0,1-.266.312" fill="#707070"/>
      <path id="Trazado_2673" data-name="Trazado 2673" d="M10.991,13.222l0,0h0a2.461,2.461,0,0,1-.316.205l-.375.212-.6-.351-.015-.006,0-.006A22.856,22.856,0,0,1,7.6,11.453v5.06l5.034,1.97V11.855a17.962,17.962,0,0,1-1.647,1.367" fill="#707070"/>
      <path id="Trazado_2674" data-name="Trazado 2674" d="M10.41,2.383a3.093,3.093,0,0,0-2.266.95,3.77,3.77,0,0,0-.966,2.66A5.632,5.632,0,0,0,8.847,9.1a15.612,15.612,0,0,0,1.507,1.487,18.046,18.046,0,0,0,1.827-1.761A5.029,5.029,0,0,0,13.7,5.993a3.35,3.35,0,0,0-3.3-3.61m0-1.5a4.839,4.839,0,0,1,4.8,5.11c0,3.038-4.735,6.379-4.8,6.5l-.007,0c-.206,0-4.725-3.515-4.725-6.5A4.791,4.791,0,0,1,10.41.883" fill="#707070"/>
      <path id="Trazado_2675" data-name="Trazado 2675" d="M10.442,4.046a1.5,1.5,0,1,1-1.5,1.5,1.5,1.5,0,0,1,1.5-1.5" fill="#707070"/>
    </g>
  </g>
</svg>
