<svg id="ico-historicos" xmlns="http://www.w3.org/2000/svg" width="20" height="20" viewBox="0 0 20 20">
  <g id="Trazado_1256" data-name="Trazado 1256" fill="none">
    <path d="M10,0A10,10,0,1,1,0,10,10,10,0,0,1,10,0Z" stroke="none"/>
    <path d="M 10 2 C 5.588789939880371 2 2 5.588789939880371 2 10 C 2 14.41121006011963 5.588789939880371 18 10 18 C 14.41121006011963 18 18 14.41121006011963 18 10 C 18 5.588789939880371 14.41121006011963 2 10 2 M 10 0 C 15.52285003662109 0 20 4.477149963378906 20 10 C 20 15.52285003662109 15.52285003662109 20 10 20 C 4.477149963378906 20 0 15.52285003662109 0 10 C 0 4.477149963378906 4.477149963378906 0 10 0 Z" stroke="none" fill="#666"/>
  </g>
  <path id="Trazado_1255" data-name="Trazado 1255" d="M-2879,1463.63v4.693h3.539" transform="translate(2888.833 -1456.945)" fill="none" stroke="#666" stroke-linecap="round" stroke-linejoin="round" stroke-width="2"/>
</svg>
