<svg xmlns="http://www.w3.org/2000/svg" width="20" height="20" viewBox="0 0 20 20"><g transform="translate(-619 -554)"><g transform="translate(619 554)"><rect width="20" height="20" fill="none"/><path d="M817.918,289.012a2.736,2.736,0,0,1-2.713-3.124v-9.51a.75.75,0,0,1,1.5,0v9.631l-.01.062a1.236,1.236,0,0,0,1.342,1.436l.037,0h8.032a.75.75,0,0,1,0,1.5h-7.961Q818.031,289.012,817.918,289.012Z" transform="translate(-813.058 -269.142)" fill="#636363"/><path d="M814.523,265.584a.75.75,0,0,1-.428-1.366c.352-.266,5.649-4.574,9.147-7.423a.75.75,0,0,1,.94-.006L832.5,263.4a.75.75,0,0,1-.933,1.175l-7.847-6.232c-8.632,7.031-8.757,7.105-8.817,7.141A.747.747,0,0,1,814.523,265.584Z" transform="translate(-813.522 -256.376)" fill="#636363"/><path d="M7,1.5A5.5,5.5,0,1,0,12.5,7,5.506,5.506,0,0,0,7,1.5M7,0A7,7,0,1,1,0,7,7,7,0,0,1,7,0Z" transform="translate(6 5.854)" fill="#636363"/><path d="M.416-6.015a.774.774,0,0,1,.166-.454A.47.47,0,0,1,.962-6.7a.593.593,0,0,1,.346.161,4.862,4.862,0,0,0,.5.346,1.587,1.587,0,0,0,.673.224V-7.908q-.361-.137-.551-.215a4.013,4.013,0,0,1-.487-.254A1.752,1.752,0,0,1,.99-8.738a1.834,1.834,0,0,1-.278-.478A1.686,1.686,0,0,1,.59-9.87a1.665,1.665,0,0,1,.538-1.33,2.518,2.518,0,0,1,1.355-.571v-.273a.211.211,0,0,1,.1-.171.379.379,0,0,1,.234-.073.385.385,0,0,1,.229.073.209.209,0,0,1,.1.171v.254a3.775,3.775,0,0,1,1.14.2q.526.185.526.566a.868.868,0,0,1-.136.444.423.423,0,0,1-.38.229,1.456,1.456,0,0,1-.439-.166,1.969,1.969,0,0,0-.712-.2V-8.99a5.781,5.781,0,0,1,.663.283,3.786,3.786,0,0,1,.57.376,1.464,1.464,0,0,1,.458.6,2.133,2.133,0,0,1,.151.829,1.963,1.963,0,0,1-.5,1.4,2.285,2.285,0,0,1-1.345.663v.3a.209.209,0,0,1-.1.171.385.385,0,0,1-.229.073.379.379,0,0,1-.234-.073.211.211,0,0,1-.1-.171v-.273a2.822,2.822,0,0,1-1.457-.4Q.416-5.586.416-6.015ZM1.781-10a.584.584,0,0,0,.2.463,2.063,2.063,0,0,0,.585.327v-1.473Q1.781-10.551,1.781-10ZM3.068-5.98a.775.775,0,0,0,.731-.8.758.758,0,0,0-.19-.537,1.634,1.634,0,0,0-.541-.361Z" transform="translate(10.184 21.127)" fill="#666"/></g></g></svg>