<svg id="ico-ver-coluimna" xmlns="http://www.w3.org/2000/svg" width="20" height="20" viewBox="0 0 20 20">
  <g id="Grupo_1770" data-name="Grupo 1770" transform="translate(-2220 -631)">
    <rect id="Rectángulo_341" data-name="Rectángulo 341" width="20" height="20" transform="translate(2220 631)" fill="none"/>
    <g id="Grupo_1769" data-name="Grupo 1769" transform="translate(-361 -145)">
      <g id="Grupo_1277" data-name="Grupo 1277" transform="translate(2477 330.83)">
        <g id="Trazado_873" data-name="Trazado 873" transform="translate(105 452)" fill="none" stroke-linecap="round">
          <path d="M0,1.17H8v12H0Z" stroke="none"/>
          <path d="M 1.500000476837158 2.669599533081055 L 1.500000476837158 11.66961860656738 L 6.500000476837158 11.66961860656738 L 6.500000476837158 2.669599533081055 L 1.500000476837158 2.669599533081055 M 9.5367431640625e-07 1.169599533081055 L 8 1.169599533081055 L 8 13.16961860656738 L 9.5367431640625e-07 13.16961860656738 L 9.5367431640625e-07 1.169599533081055 Z" stroke="none" fill="#666"/>
        </g>
        <g id="Trazado_872" data-name="Trazado 872" transform="translate(115 452)" fill="none" stroke-linecap="round">
          <path d="M0,1.176H8V13.17H0Z" stroke="none"/>
          <path d="M 1.500000476837158 2.676102638244629 L 1.500000476837158 11.66952323913574 L 6.500000476837158 11.66952323913574 L 6.500000476837158 2.676102638244629 L 1.500000476837158 2.676102638244629 M 9.5367431640625e-07 1.176102638244629 L 8 1.176102638244629 L 8 13.16952323913574 L 9.5367431640625e-07 13.16952323913574 L 9.5367431640625e-07 1.176102638244629 Z" stroke="none" fill="#666"/>
        </g>
        <line id="Línea_9" data-name="Línea 9" x2="6" transform="translate(106 457.055)" fill="none" stroke="#666" stroke-width="1.5"/>
        <path id="Trazado_870" data-name="Trazado 870" d="M0,0H6" transform="translate(116 461.112)" fill="none" stroke="#666" stroke-width="1.5"/>
      </g>
      <g id="Trazado_874" data-name="Trazado 874" transform="translate(2587 776)" fill="none" stroke-linecap="round" stroke-linejoin="round">
        <path d="M4,0a9.44,9.44,0,0,1,7,3.5C10.927,3.6,8.165,7,4,7A9.641,9.641,0,0,1-3,3.5,9.434,9.434,0,0,1,4,0Z" stroke="none"/>
        <path d="M 3.999076366424561 1.5 C 1.841654300689697 1.5 0.05108213424682617 2.644889354705811 -0.9361972808837891 3.482324361801147 C -0.6703977584838867 3.711897850036621 -0.3477859497070312 3.964768409729004 0.02331638336181641 4.210639953613281 C 1.314626216888428 5.066200256347656 2.652266025543213 5.5 3.999076366424561 5.5 C 6.193941116333008 5.5 7.940418243408203 4.329624176025391 8.925754547119141 3.471635341644287 C 7.936906337738037 2.636386394500732 6.150483131408691 1.5 3.999076366424561 1.5 M 3.999076366424561 0 C 8.164806365966797 0 11.06985664367676 3.400710105895996 10.99820613861084 3.5 C 10.92655563354492 3.599289894104004 8.164806365966797 7 3.999076366424561 7 C -0.1666536331176758 7 -2.959074020385742 3.622380018234253 -3.000063896179199 3.5 C -3.041044235229492 3.377619981765747 -0.1666536331176758 0 3.999076366424561 0 Z" stroke="none" fill="#666"/>
      </g>
      <circle id="Elipse_72" data-name="Elipse 72" cx="2" cy="2" r="2" transform="translate(2589 778)" fill="#666"/>
    </g>
  </g>
</svg>
