<svg id="ico-motivos-renegociaciones" xmlns="http://www.w3.org/2000/svg" width="20" height="20" viewBox="0 0 20 20">
  <rect id="Rectángulo_274" data-name="Rectángulo 274" width="20" height="20" fill="none"/>
  <path id="Trazado_1206" data-name="Trazado 1206" d="M1374.719-214.522V-221.5h-14v18.176h8.564v-.659" transform="translate(-1357.719 222.324)" fill="none" stroke="#666" stroke-width="1.5"/>
  <g id="Trazado_1208" data-name="Trazado 1208" transform="translate(6 5.854)" fill="none">
    <path d="M7,0A7,7,0,1,1,0,7,7,7,0,0,1,7,0Z" stroke="none"/>
    <path d="M 7 1.499999046325684 C 3.967289924621582 1.499999046325684 1.5 3.967318534851074 1.5 7.000058650970459 C 1.5 10.03279876708984 3.967289924621582 12.50011825561523 7 12.50011825561523 C 10.03271007537842 12.50011825561523 12.5 10.03279876708984 12.5 7.000058650970459 C 12.5 3.967318534851074 10.03271007537842 1.499999046325684 7 1.499999046325684 M 7 -9.5367431640625e-07 C 10.86598968505859 -9.5367431640625e-07 14 3.134028434753418 14 7.000058650970459 C 14 10.8660888671875 10.86598968505859 14.00011825561523 7 14.00011825561523 C 3.134010314941406 14.00011825561523 0 10.8660888671875 0 7.000058650970459 C 0 3.134028434753418 3.134010314941406 -9.5367431640625e-07 7 -9.5367431640625e-07 Z" stroke="none" fill="#666"/>
  </g>
  <path id="Trazado_1209" data-name="Trazado 1209" d="M.32-10.319a1.228,1.228,0,0,1,.549-.935A2.38,2.38,0,0,1,2.4-11.7a2.579,2.579,0,0,1,1.626.483A1.477,1.477,0,0,1,4.649-10,2.449,2.449,0,0,1,3.467-8.119a1.742,1.742,0,0,0-.407.427,1.051,1.051,0,0,0-.158.37,3.272,3.272,0,0,0-.026.488q0,.421-.623.421A.586.586,0,0,1,1.8-6.556.852.852,0,0,1,1.672-7.1a1.945,1.945,0,0,1,.707-1.562q.032-.031.275-.216a4.115,4.115,0,0,0,.338-.278A1.48,1.48,0,0,0,3.2-9.44a.732.732,0,0,0,.116-.385.59.59,0,0,0-.264-.519,1.2,1.2,0,0,0-.686-.18,1.254,1.254,0,0,0-.591.123.68.68,0,0,0-.306.272,1,1,0,0,1-.2.272.436.436,0,0,1-.317.123.689.689,0,0,1-.438-.154A.519.519,0,0,1,.32-10.319ZM1.46-4.912a.753.753,0,0,1,.238-.56A.782.782,0,0,1,2.263-5.7a.786.786,0,0,1,.575.236.758.758,0,0,1,.238.555.758.758,0,0,1-.238.555.786.786,0,0,1-.575.236.768.768,0,0,1-.57-.236A.767.767,0,0,1,1.46-4.912Z" transform="translate(10.68 20.696)" fill="#666"/>
  <line id="Línea_306" data-name="Línea 306" x2="7" transform="translate(6.5 4.5)" fill="none" stroke="#666" stroke-width="1.5"/>
  <line id="Línea_307" data-name="Línea 307" x2="3" transform="translate(6.5 7.5)" fill="none" stroke="#666" stroke-width="1.5"/>
</svg>
