<svg xmlns="http://www.w3.org/2000/svg" width="20" height="20" viewBox="0 0 20 20"><g transform="translate(-329.387 -609.232)"><rect width="20" height="20" transform="translate(329.387 609.232)" fill="none"/></g><g transform="translate(-609.438 405.343) rotate(-90)"><path d="M397.741,621.673a3.447,3.447,0,0,0,.937-3.138l-1.662,1.662-2.116-.567-.567-2.116,1.662-1.662a3.449,3.449,0,0,0-3.9,4.662l-4.307,4.307,1.922,1.922,4.307-4.307A3.453,3.453,0,0,0,397.741,621.673Z" fill="none" stroke="#6a6b75" stroke-linecap="round" stroke-linejoin="round" stroke-width="1"/><path d="M404.473,617.158l-1.841-.656-.2-.481.841-1.766a1,1,0,0,0-.2-1.137l-1.612-1.612a1,1,0,0,0-1.136-.2l-1.766.837-.48-.2-.653-1.844a1,1,0,0,0-.943-.666h-2.279a1,1,0,0,0-.942.665l-.656,1.839-.481.2-1.766-.841a1,1,0,0,0-1.137.195l-1.612,1.611a1,1,0,0,0-.2,1.136l.838,1.766-.2.48-1.843.654a1,1,0,0,0-.666.942v2.279a1,1,0,0,0,.664.943l1.841.656.2.48-.841,1.766a1,1,0,0,0,.472,1.333.976.976,0,0,0,.679.053l-.774-.775,2.521-2.521a1.044,1.044,0,0,0-.038-.208l-.539-1.3a.993.993,0,0,0-.588-.56l-1.6-.569v-.867l1.6-.566a1,1,0,0,0,.589-.56l.54-1.3a1,1,0,0,0-.02-.811l-.726-1.53.615-.614,1.529.729a1,1,0,0,0,.812.021l1.3-.538a.993.993,0,0,0,.56-.588l.569-1.6h.868l.566,1.6a1,1,0,0,0,.559.59l1.3.54a1.007,1.007,0,0,0,.812-.02l1.53-.726.614.613-.729,1.531a1,1,0,0,0-.021.811l.538,1.3a1,1,0,0,0,.588.56l1.6.569v.867l-1.6.566a1,1,0,0,0-.59.559l-.54,1.3a1,1,0,0,0,.02.812l.725,1.529-.614.615-1.529-.729a.987.987,0,0,0-.812-.021l-1.3.538a.994.994,0,0,0-.56.588l-.569,1.594H394.9l-.566-1.6a1,1,0,0,0-.559-.59l-1.3-.54a.981.981,0,0,0-.273-.051l-2.493,2.493-.74-.739a.988.988,0,0,0,.051.677,1,1,0,0,0,1.333.474l1.765-.837.481.2.653,1.843a1,1,0,0,0,.943.666h2.279a1,1,0,0,0,.942-.664l.656-1.84.481-.2,1.766.841a1,1,0,0,0,1.137-.2l1.612-1.612a1,1,0,0,0,.2-1.135l-.837-1.766.2-.48,1.844-.654a1,1,0,0,0,.666-.942V618.1A1,1,0,0,0,404.473,617.158Z" fill="#6a6b75"/></g></svg>