<svg id="ico-anonymous" xmlns="http://www.w3.org/2000/svg" width="20" height="20" viewBox="0 0 20 20">
  <rect id="Rect치ngulo_2798" data-name="Rect치ngulo 2798" width="20" height="20" fill="none"/>
  <path id="Trazado_2562" data-name="Trazado 2562" d="M-291.3,383.926c.013.014.012,1.2,0,1.229,0,.244.1.854-1.375.9s-10.524,0-10.524,0-1.079.05-1.077-.9c-.028.009-.01-1.219,0-1.229.023-.388.177-.822,1.077-1.274s3.7-1.68,3.7-1.68a5.891,5.891,0,0,0,1.672.27,6.361,6.361,0,0,0,1.712-.27,36.427,36.427,0,0,1,4.076,1.68A1.659,1.659,0,0,1-291.3,383.926Z" transform="translate(305.292 -367.07)" fill="none" stroke="#6a6b75" stroke-width="1.5"/>
  <g id="Sustracci칩n_19" data-name="Sustracci칩n 19" transform="translate(30.889 -179)" fill="none">
    <path d="M-23.389,193.573A3.615,3.615,0,0,1-27,189.961v-2.209a3.615,3.615,0,0,1,3.611-3.611,3.653,3.653,0,0,1,.555.042,6.072,6.072,0,0,0-.055.816,6.006,6.006,0,0,0,3.1,5.253,3.6,3.6,0,0,1-1.145,2.356A3.6,3.6,0,0,1-23.389,193.573Z" stroke="none"/>
    <path d="M -23.38920211791992 192.0729064941406 C -22.85508155822754 192.0729064941406 -22.34539222717285 191.8730010986328 -21.95403099060059 191.5100250244141 C -21.76731109619141 191.3368377685547 -21.61547660827637 191.1344146728516 -21.5033130645752 190.9126281738281 C -23.08078193664551 189.6803741455078 -24.10628318786621 187.8624267578125 -24.33852577209473 185.8675842285156 C -25.02695846557617 186.2156677246094 -25.50000190734863 186.9299163818359 -25.50000190734863 187.7526092529297 L -25.50000190734863 189.9612121582031 C -25.50000190734863 191.1256103515625 -24.55310249328613 192.0729064941406 -23.38920211791992 192.0729064941406 M -23.38920211791992 193.5729064941406 C -25.38020133972168 193.5729064941406 -27.00000190734863 191.9527130126953 -27.00000190734863 189.9612121582031 L -27.00000190734863 187.7526092529297 C -27.00000190734863 185.7616119384766 -25.38020133972168 184.1418151855469 -23.38920211791992 184.1418151855469 C -23.20321273803711 184.1418151855469 -23.01632118225098 184.1560974121094 -22.83372116088867 184.1842803955078 C -22.86999130249023 184.4508972167969 -22.88880157470703 184.72509765625 -22.88880157470703 185.0004119873047 C -22.88880157470703 187.1826629638672 -21.70110130310059 189.1954345703125 -19.7892017364502 190.2532958984375 C -19.86148262023926 191.1557464599609 -20.26822090148926 191.9922943115234 -20.93398094177246 192.6097869873047 C -21.60361099243164 193.2308654785156 -22.47555160522461 193.5729064941406 -23.38920211791992 193.5729064941406 Z" stroke="none" fill="#6a6b75"/>
  </g>
  <g id="Trazado_2567" data-name="Trazado 2567" transform="translate(7)" fill="none">
    <path d="M6,0A6,6,0,1,1,0,6,6,6,0,0,1,6,0Z" stroke="none"/>
    <path d="M 6 1.5 C 3.51869010925293 1.5 1.5 3.51869010925293 1.5 6 C 1.5 8.48130989074707 3.51869010925293 10.5 6 10.5 C 8.48130989074707 10.5 10.5 8.48130989074707 10.5 6 C 10.5 3.51869010925293 8.48130989074707 1.5 6 1.5 M 6 0 C 9.31371021270752 0 12 2.68628978729248 12 6 C 12 9.31371021270752 9.31371021270752 12 6 12 C 2.68628978729248 12 0 9.31371021270752 0 6 C 0 2.68628978729248 2.68628978729248 0 6 0 Z" stroke="none" fill="#6a6b75"/>
  </g>
  <path id="Trazado_2563" data-name="Trazado 2563" d="M.32-10.605a1.01,1.01,0,0,1,.38-.741,1.508,1.508,0,0,1,1.061-.35,1.636,1.636,0,0,1,1.127.383,1.23,1.23,0,0,1,.432.961,2,2,0,0,1-.82,1.49,1.322,1.322,0,0,0-.282.338.9.9,0,0,0-.11.293,2.957,2.957,0,0,0-.018.387q0,.334-.432.334a.376.376,0,0,1-.315-.114.75.75,0,0,1-.088-.431,1.64,1.64,0,0,1,.49-1.237q.022-.024.19-.171a2.975,2.975,0,0,0,.234-.22,1.172,1.172,0,0,0,.146-.224.641.641,0,0,0,.08-.305.49.49,0,0,0-.183-.411.752.752,0,0,0-.476-.142.779.779,0,0,0-.41.1.5.5,0,0,0-.212.216.794.794,0,0,1-.139.216.283.283,0,0,1-.22.1.442.442,0,0,1-.3-.122A.437.437,0,0,1,.32-10.605Zm.79,4.282a.64.64,0,0,1,.165-.444.51.51,0,0,1,.391-.183.512.512,0,0,1,.4.187.645.645,0,0,1,.165.44.645.645,0,0,1-.165.44.512.512,0,0,1-.4.187.5.5,0,0,1-.4-.187A.653.653,0,0,1,1.11-6.323Z" transform="translate(11.18 14.696)" fill="#6a6b75"/>
</svg>
