<svg id="ico-country" xmlns="http://www.w3.org/2000/svg" width="20" height="20" viewBox="0 0 20 20">
  <g id="Grupo_7865" data-name="Grupo 7865" transform="translate(-699.891 -339.239)">
    <rect id="Rectángulo_3129" data-name="Rectángulo 3129" width="20" height="20" transform="translate(699.891 339.239)" fill="none"/>
  </g>
  <g id="Grupo_7866" data-name="Grupo 7866" transform="translate(-699.891 -339.239)">
    <path id="Trazado_2774" data-name="Trazado 2774" d="M709.892,359.039a9.8,9.8,0,1,1,9.8-9.8A9.811,9.811,0,0,1,709.892,359.039Zm0-18a8.2,8.2,0,1,0,8.2,8.2A8.21,8.21,0,0,0,709.892,341.039Z" fill="#707070"/>
  </g>
  <g id="Grupo_7867" data-name="Grupo 7867" transform="translate(-699.891 -339.239)">
    <path id="Trazado_2775" data-name="Trazado 2775" d="M709.909,355.4l0-1a5.217,5.217,0,0,0,.9-.08l.176.985A6.231,6.231,0,0,1,709.909,355.4Zm-1.066-.089a6.028,6.028,0,0,1-1.038-.273l.34-.941a5.134,5.134,0,0,0,.866.229Zm3.169-.286-.344-.939a5.081,5.081,0,0,0,.812-.381l.5.864A6.031,6.031,0,0,1,712.012,355.025Zm-5.181-.438a6.372,6.372,0,0,1-.88-.61l.639-.771a5.226,5.226,0,0,0,.739.514Zm7.028-.634-.644-.766a5.141,5.141,0,0,0,.634-.635l.767.641A6.179,6.179,0,0,1,713.859,353.953Zm-8.669-.732a6.231,6.231,0,0,1-.619-.874l.864-.506a5.221,5.221,0,0,0,.519.734Zm10.039-.9-.865-.5a4.939,4.939,0,0,0,.38-.813l.94.342A6.077,6.077,0,0,1,715.229,352.316Zm-11.117-.938a6.117,6.117,0,0,1-.282-1.036l.984-.176a5.038,5.038,0,0,0,.236.864Zm11.848-1.072-.984-.172a5.355,5.355,0,0,0,.077-.895l.71-.048.29.027A6.3,6.3,0,0,1,715.96,350.306Zm-12.089-1.038h-.14a6.344,6.344,0,0,1,.085-1.059l.987.166a5.227,5.227,0,0,0-.073.865Zm11.094-.984a5.249,5.249,0,0,0-.242-.865l.935-.353a6.1,6.1,0,0,1,.289,1.033Zm-9.937-.778-.941-.336a6.1,6.1,0,0,1,.447-.975l.869.5A5.1,5.1,0,0,0,705.028,347.506Zm9.306-.9a5.241,5.241,0,0,0-.523-.729l.757-.651a5.99,5.99,0,0,1,.625.871Zm-8.421-.658-.769-.638a6.093,6.093,0,0,1,.752-.763l.648.761A5.153,5.153,0,0,0,705.913,345.951Zm7.257-.7a5.273,5.273,0,0,0-.742-.509l.492-.87a6.169,6.169,0,0,1,.883.606Zm-5.895-.463-.507-.862a6.171,6.171,0,0,1,.967-.462l.35.938A5.089,5.089,0,0,0,707.275,344.789Zm4.334-.418a5.1,5.1,0,0,0-.868-.224l.162-.986a5.991,5.991,0,0,1,1.04.268Zm-2.659-.207-.181-.984a6.222,6.222,0,0,1,1.068-.1l.008,1A5.118,5.118,0,0,0,708.95,344.164Z" fill="#707070"/>
  </g>
  <g id="Grupo_7868" data-name="Grupo 7868" transform="translate(-699.891 -339.239)">
    <path id="Trazado_2776" data-name="Trazado 2776" d="M709.27,352.007a2.848,2.848,0,0,1-1.138-.543l.621-.784a1.862,1.862,0,0,0,.735.352Zm1.259,0-.224-.974a1.827,1.827,0,0,0,.734-.356l.625.78A2.812,2.812,0,0,1,710.529,352Zm-3.188-1.521a2.789,2.789,0,0,1-.286-1.23l1,0a1.8,1.8,0,0,0,.184.793Zm5.107-.014-.9-.434a1.819,1.819,0,0,0,.181-.8l1-.026v.026A2.8,2.8,0,0,1,712.448,350.469Zm-4.219-2.016-.9-.43a2.866,2.866,0,0,1,.779-.99l.629.778A1.865,1.865,0,0,0,708.229,348.453Zm3.311-.027a1.854,1.854,0,0,0-.517-.634l.618-.787a2.882,2.882,0,0,1,.8.976Zm-2.072-.975-.229-.973a2.876,2.876,0,0,1,1.259-.01l-.213.976A1.892,1.892,0,0,0,709.468,347.451Z" fill="#707070"/>
  </g>
</svg>
