<svg id="ico_functionality_20px" xmlns="http://www.w3.org/2000/svg" width="20" height="20" viewBox="0 0 20 20">
  <g id="function" transform="translate(-12.676 2)">
    <path id="Trazado_2296" data-name="Trazado 2296" d="M24.75,7.467v-1.6a.267.267,0,0,0-.267-.267H22.615V3.467A1.3,1.3,0,0,1,23.881,2.12a1.412,1.412,0,0,1,1.4,1.347.267.267,0,0,0,.267.267h1.6a.267.267,0,0,0,.267-.267A3.55,3.55,0,0,0,23.881,0a3.438,3.438,0,0,0-3.4,3.467V5.6H18.612a.267.267,0,0,0-.267.267v1.6a.267.267,0,0,0,.267.267H20.48v4.8a1.334,1.334,0,0,1-2.669,0,.267.267,0,0,0-.267-.267h-1.6a.267.267,0,0,0-.267.267,3.469,3.469,0,0,0,6.939,0v-4.8h1.868A.267.267,0,0,0,24.75,7.467Z" transform="translate(0 0)" fill="#6a6b75"/>
    <path id="Trazado_2297" data-name="Trazado 2297" d="M145.418,159.543l.951-.951a1.1,1.1,0,1,0-1.55-1.55l-.951.951-.951-.951a1.1,1.1,0,0,0-1.55,1.55l.951.951-.951.951a1.1,1.1,0,0,0,1.55,1.55l.951-.951.951.951a1.1,1.1,0,0,0,1.55-1.55Z" transform="translate(-117.014 -146.365)" fill="#6a6b75"/>
  </g>
  <rect id="Rectángulo_2394" data-name="Rectángulo 2394" width="20" height="20" fill="none"/>
</svg>
