<svg id="ico-town" xmlns="http://www.w3.org/2000/svg" width="20" height="20" viewBox="0 0 20 20">
  <g id="Grupo_7875" data-name="Grupo 7875" transform="translate(-751.247 -339.239)">
    <rect id="Rectángulo_3131" data-name="Rectángulo 3131" width="20" height="20" transform="translate(751.247 339.239)" fill="none"/>
  </g>
  <g id="Grupo_7876" data-name="Grupo 7876" transform="translate(-751.247 -339.239)">
    <path id="Trazado_2780" data-name="Trazado 2780" d="M761.256,358.739h-.009a9.655,9.655,0,0,1-1.053-.057l.11-.994a8.653,8.653,0,0,0,.943.051Zm1.062-.059-.111-.994a8.522,8.522,0,0,0,.939-.159l.223.974A9.293,9.293,0,0,1,762.318,358.68Zm-3.174-.174a9.224,9.224,0,0,1-1.026-.294l.33-.944a8.079,8.079,0,0,0,.916.262Zm5.249-.3-.332-.943a8.709,8.709,0,0,0,.88-.366l.434.9A9.621,9.621,0,0,1,764.393,358.206Zm-7.258-.4a9.578,9.578,0,0,1-.933-.515l.531-.848a8.364,8.364,0,0,0,.835.461Zm9.172-.524-.534-.846a8.69,8.69,0,0,0,.778-.553l.623.782A9.8,9.8,0,0,1,766.307,357.282Zm-10.973-.607a9.724,9.724,0,0,1-.795-.709l.707-.708a8.767,8.767,0,0,0,.711.635Zm12.635-.72-.709-.706a9.147,9.147,0,0,0,.636-.712l.781.624A9.863,9.863,0,0,1,767.969,355.955Zm-14.141-.782a9.326,9.326,0,0,1-.618-.867l.846-.534a8.567,8.567,0,0,0,.553.776Zm15.464-.88-.846-.534a8.128,8.128,0,0,0,.462-.833l.9.434A9.392,9.392,0,0,1,769.292,354.293Zm-16.6-.916a9.084,9.084,0,0,1-.411-.984l.944-.331a8.357,8.357,0,0,0,.366.878Zm17.523-1-.944-.33a8.516,8.516,0,0,0,.264-.916l.975.222A9.311,9.311,0,0,1,770.216,352.376Zm-18.228-1.006a10.049,10.049,0,0,1-.179-1.048l.994-.115a8.578,8.578,0,0,0,.16.94Zm18.7-1.068-.994-.111a8.548,8.548,0,0,0,.053-.952l1-.035v.035A9.316,9.316,0,0,1,770.688,350.3Zm-18.941-1.045v-.018a9.725,9.725,0,0,1,.057-1.043l.994.108a8.757,8.757,0,0,0-.051.935Zm17.943-1a8.085,8.085,0,0,0-.162-.939l.975-.225a9.779,9.779,0,0,1,.182,1.049Zm-16.735-.89-.976-.218a9.287,9.287,0,0,1,.293-1.026l.944.329A8.107,8.107,0,0,0,752.955,347.364Zm16.308-.962a9.219,9.219,0,0,0-.368-.88l.9-.437a9.326,9.326,0,0,1,.411.982Zm-15.686-.834-.9-.433a9.434,9.434,0,0,1,.513-.932l.848.529A8.785,8.785,0,0,0,753.577,345.568Zm14.854-.876a8.687,8.687,0,0,0-.556-.775l.779-.627a9.141,9.141,0,0,1,.62.866Zm-13.842-.736-.783-.623a9.7,9.7,0,0,1,.708-.8l.709.705A8.245,8.245,0,0,0,754.589,343.956Zm12.648-.748a8.56,8.56,0,0,0-.712-.633l.621-.783a9.236,9.236,0,0,1,.8.708Zm-11.306-.6-.625-.78a9.357,9.357,0,0,1,.866-.618l.535.844A8.726,8.726,0,0,0,755.931,342.606Zm9.816-.58a8.564,8.564,0,0,0-.836-.459l.432-.9a9.266,9.266,0,0,1,.933.513Zm-8.208-.438-.437-.9a9.238,9.238,0,0,1,.982-.411l.334.943A8.515,8.515,0,0,0,757.539,341.588Zm6.49-.383a8.674,8.674,0,0,0-.916-.261l.219-.975a9.407,9.407,0,0,1,1.025.291Zm-4.7-.249-.225-.975a9.871,9.871,0,0,1,1.049-.18l.115.993A8.811,8.811,0,0,0,759.332,340.956Zm2.842-.167a8.6,8.6,0,0,0-.927-.05l-.027-1h.027a9.551,9.551,0,0,1,1.034.056Z" fill="#707070"/>
  </g>
  <g id="Grupo_7877" data-name="Grupo 7877" transform="translate(-751.247 -339.239)">
    <path id="Trazado_2781" data-name="Trazado 2781" d="M761.265,355.4l0-1a5.214,5.214,0,0,0,.894-.08l.176.985A6.228,6.228,0,0,1,761.265,355.4Zm-1.067-.089a6.052,6.052,0,0,1-1.038-.273l.34-.941a5.134,5.134,0,0,0,.866.229Zm3.169-.286-.344-.939a5.094,5.094,0,0,0,.813-.381l.5.864A6.083,6.083,0,0,1,763.367,355.025Zm-5.18-.438a6.107,6.107,0,0,1-.879-.611l.638-.769a5.33,5.33,0,0,0,.739.513Zm7.029-.634-.645-.766a5.006,5.006,0,0,0,.634-.635l.768.641A6.324,6.324,0,0,1,765.216,353.953Zm-8.671-.732a6.146,6.146,0,0,1-.619-.874l.863-.506a5.144,5.144,0,0,0,.52.734Zm10.042-.906-.867-.5a5.278,5.278,0,0,0,.38-.814l.939.342A6.171,6.171,0,0,1,766.587,352.315Zm-11.119-.938a5.9,5.9,0,0,1-.282-1.037l.984-.173a4.976,4.976,0,0,0,.235.863Zm11.847-1.071-.984-.172a5.248,5.248,0,0,0,.077-.895l.71-.048.29.027A6.2,6.2,0,0,1,767.315,350.306Zm-12.088-1.038h-.14a6.242,6.242,0,0,1,.085-1.059l.986.166a5.22,5.22,0,0,0-.072.865Zm11.093-.984a5.059,5.059,0,0,0-.242-.865l.936-.353a6.188,6.188,0,0,1,.289,1.033Zm-9.936-.778-.942-.336a6.1,6.1,0,0,1,.448-.975l.869.5A4.932,4.932,0,0,0,756.384,347.506Zm9.3-.9a5.182,5.182,0,0,0-.523-.729l.758-.651a6.132,6.132,0,0,1,.625.87Zm-8.419-.658-.77-.638a6.161,6.161,0,0,1,.752-.763l.648.761A5.223,5.223,0,0,0,757.269,345.951Zm7.256-.7a5.277,5.277,0,0,0-.742-.509l.492-.87a6.121,6.121,0,0,1,.883.606Zm-5.894-.463-.508-.861a6.136,6.136,0,0,1,.968-.462l.349.937A5.079,5.079,0,0,0,758.631,344.789Zm4.334-.418a5.216,5.216,0,0,0-.868-.224l.162-.986a6.106,6.106,0,0,1,1.04.268Zm-2.658-.207-.182-.984a6.231,6.231,0,0,1,1.068-.1l.008,1A5.106,5.106,0,0,0,760.307,344.164Z" fill="#707070"/>
  </g>
  <g id="Grupo_7878" data-name="Grupo 7878" transform="translate(-751.247 -339.239)">
    <path id="Trazado_2782" data-name="Trazado 2782" d="M761.247,352.376a3.137,3.137,0,1,1,3.137-3.137A3.141,3.141,0,0,1,761.247,352.376Zm0-4.674a1.537,1.537,0,1,0,1.537,1.537A1.539,1.539,0,0,0,761.247,347.7Z" fill="#707070"/>
  </g>
</svg>
