<svg id="ico-candidatos" xmlns="http://www.w3.org/2000/svg" width="20" height="20" viewBox="0 0 20 20">
  <rect id="Rectángulo_333" data-name="Rectángulo 333" width="20" height="20" fill="none"/>
  <g id="Elipse_85" data-name="Elipse 85" transform="translate(5 18)" fill="none" stroke="#666" stroke-width="1">
    <ellipse cx="5" cy="1" rx="5" ry="1" stroke="none"/>
    <ellipse cx="5" cy="1" rx="4.5" ry="0.5" fill="none"/>
  </g>
  <path id="Trazado_1308" data-name="Trazado 1308" d="M-1232.789,259.537a8.757,8.757,0,0,0-3.463-.656c-2.838-.075-6.211,1.709-6.367,5.578S-1236,275.68-1236,275.68l4.082-5.476" transform="translate(1246 -257)" fill="none" stroke="#666" stroke-width="1.5"/>
  <g id="Trazado_1309" data-name="Trazado 1309" transform="translate(8 1.854)" fill="none">
    <path d="M6,0A6,6,0,1,1,0,6,6,6,0,0,1,6,0Z" stroke="none"/>
    <path d="M 6 1.500000953674316 C 3.51869010925293 1.500000953674316 1.5 3.518710136413574 1.5 6.00005054473877 C 1.5 8.481389999389648 3.51869010925293 10.50010013580322 6 10.50010013580322 C 8.48130989074707 10.50010013580322 10.5 8.481389999389648 10.5 6.00005054473877 C 10.5 3.518710136413574 8.48130989074707 1.500000953674316 6 1.500000953674316 M 6 9.5367431640625e-07 C 9.31371021270752 9.5367431640625e-07 12 2.686310768127441 12 6.00005054473877 C 12 9.313790321350098 9.31371021270752 12.00010013580322 6 12.00010013580322 C 2.68628978729248 12.00010013580322 0 9.313790321350098 0 6.00005054473877 C 0 2.686310768127441 2.68628978729248 9.5367431640625e-07 6 9.5367431640625e-07 Z" stroke="none" fill="#666"/>
  </g>
  <path id="Trazado_1310" data-name="Trazado 1310" d="M.32-10.741A.851.851,0,0,1,.7-11.39,1.65,1.65,0,0,1,1.761-11.7a1.787,1.787,0,0,1,1.127.335,1.023,1.023,0,0,1,.432.841,1.7,1.7,0,0,1-.82,1.3,1.207,1.207,0,0,0-.282.3.728.728,0,0,0-.11.256,2.267,2.267,0,0,0-.018.338q0,.292-.432.292a.406.406,0,0,1-.315-.1.59.59,0,0,1-.088-.378,1.348,1.348,0,0,1,.49-1.083q.022-.021.19-.15a2.851,2.851,0,0,0,.234-.192,1.025,1.025,0,0,0,.146-.2A.508.508,0,0,0,2.4-10.4a.409.409,0,0,0-.183-.36.829.829,0,0,0-.476-.125.869.869,0,0,0-.41.085.472.472,0,0,0-.212.189.692.692,0,0,1-.139.189.3.3,0,0,1-.22.085.478.478,0,0,1-.3-.107A.36.36,0,0,1,.32-10.741Zm.79,3.747a.522.522,0,0,1,.165-.388.542.542,0,0,1,.391-.16.544.544,0,0,1,.4.164.525.525,0,0,1,.165.385.525.525,0,0,1-.165.385.544.544,0,0,1-.4.164.532.532,0,0,1-.4-.164A.531.531,0,0,1,1.11-6.995Z" transform="translate(12.68 16.696)" fill="#666"/>
</svg>
