<svg id="ico-proyectos" xmlns="http://www.w3.org/2000/svg" width="20" height="20" viewBox="0 0 20 20">
  <rect id="Rectángulo_201" data-name="Rectángulo 201" width="20" height="20" fill="none"/>
  <g id="Grupo_1588" data-name="Grupo 1588" transform="translate(-288.962 -540.941)">
    <g id="Trazado_676" data-name="Trazado 676" transform="translate(210 -34)" fill="none" stroke-linecap="square" stroke-linejoin="round">
      <path d="M80.962,577.941h5l2.285,3h8.715v10h-16Z" stroke="none"/>
      <path d="M 80.96204376220703 577.941162109375 L 80.96204376220703 590.941162109375 L 96.96204376220703 590.941162109375 L 96.96204376220703 580.9411010742188 L 88.24701690673828 580.9411010742188 L 85.9620361328125 577.941162109375 L 80.96204376220703 577.941162109375 M 80.96204376220703 576.441162109375 L 85.9620361328125 576.441162109375 C 86.43025207519531 576.441162109375 86.87160491943359 576.6597900390625 87.15531158447266 577.0322875976562 L 88.99005889892578 579.4411010742188 L 96.96204376220703 579.4411010742188 C 97.79047393798828 579.4411010742188 98.46204376220703 580.1126708984375 98.46204376220703 580.9411010742188 L 98.46204376220703 590.941162109375 C 98.46204376220703 591.7695922851562 97.79047393798828 592.441162109375 96.96204376220703 592.441162109375 L 80.96204376220703 592.441162109375 C 80.13361358642578 592.441162109375 79.46204376220703 591.7695922851562 79.46204376220703 590.941162109375 L 79.46204376220703 577.941162109375 C 79.46204376220703 577.1127319335938 80.13361358642578 576.441162109375 80.96204376220703 576.441162109375 Z" stroke="none" fill="#666"/>
    </g>
    <line id="Línea_34" data-name="Línea 34" x2="6" transform="translate(293.962 550.941)" fill="none" stroke="#666" stroke-linecap="square" stroke-width="1.5"/>
    <line id="Línea_35" data-name="Línea 35" x2="9" transform="translate(293.962 553.941)" fill="none" stroke="#666" stroke-linecap="square" stroke-width="1.5"/>
  </g>
</svg>
