<svg xmlns="http://www.w3.org/2000/svg" width="21.344" height="20" viewBox="0 0 21.344 20"><g transform="translate(0.75)"><rect width="20" height="20" fill="none"/><g transform="translate(-627.954 -144)"><path d="M-289.3,384.969c.015.019.014,1.619,0,1.653,0,.328.112,1.149-1.579,1.205s-11.155,0-11.155,0a1.148,1.148,0,0,1-1.238-1.205c-.032.013,0-1.65,0-1.653,0-.7.8-1.34,1.238-1.714,1.82-1.371,4.34-2.96,4.34-2.96h2.759s4.193,2.418,4.785,2.96A2.341,2.341,0,0,1-289.3,384.969Z" transform="translate(934.292 -225.853)" fill="none" stroke="#6a6b75" stroke-width="1.5"/><g transform="translate(634 145)" fill="none" stroke="#6a6b75" stroke-width="1.5"><rect width="8.21" height="10.155" rx="4.105" stroke="none"/><rect x="0.75" y="0.75" width="6.71" height="8.655" rx="3.355" fill="none"/></g><path d="M-413.292,522.612s4.506-2.022,6.922-.737" transform="translate(1047.752 -372.763)" fill="none" stroke="#6a6b75" stroke-width="1.5"/></g><path d="M2506.052,277.1s-2.453,2.012-3.062,2.569a3.712,3.712,0,0,0-.908,2.912c0,1.463.348,2.233,1.338,2.288,1.049.035,3.338,0,3.338,0" transform="translate(-2502.082 -266.999)" fill="none" stroke="#6a6b75" stroke-width="1.5"/><path d="M2502.788,277.1s2.453,2.012,3.062,2.569a3.712,3.712,0,0,1,.908,2.912c0,1.463-1.63,2.538-3.969,2.366" transform="translate(-2486.914 -266.999)" fill="none" stroke="#6a6b75" stroke-width="1.5"/><path d="M2508.671,270.086a3.589,3.589,0,0,0-1.68-.5,2.835,2.835,0,0,0-2.868,2.645c-.039,1.5-.031,1.606,0,3.03s1.356,2.506,3.195,2.473,2.252-.938,2.252-.938" transform="translate(-2501.243 -267.399)" fill="none" stroke="#6a6b75" stroke-width="1.5"/><path d="M2505.885,269.842a2.911,2.911,0,0,1,4.258,2.394c.039,1.5.031,1.606,0,3.03s-1.453,2.784-4.258,2.581" transform="translate(-2493.179 -267.399)" fill="none" stroke="#6a6b75" stroke-width="1.5"/><path d="M2504.131,273.027l4.085-1.29" transform="translate(-2501.082 -267.308)" fill="none" stroke="#6a6b75" stroke-width="1"/><path d="M2509.254,273.027l-3.358-.988" transform="translate(-2492.459 -267.308)" fill="none" stroke="#6a6b75" stroke-width="1"/></g></svg>