<svg id="ico-niveles-CO2" xmlns="http://www.w3.org/2000/svg" width="20" height="20" viewBox="0 0 20 20">
  <rect id="Rectángulo_276" data-name="Rectángulo 276" width="20" height="20" fill="none" opacity="0.5"/>
  <g id="Grupo_1702" data-name="Grupo 1702" transform="translate(-4099.688 -194)">
    <path id="Trazado_915" data-name="Trazado 915" d="M4221.456,256.721s5.219.008,5.2,0a3.833,3.833,0,0,0,4.05-4.182,3.994,3.994,0,0,0-2.728-3.933c-.215.023.659-1.888-.478-3.268s-3.263-.627-3.333-.7c-1.007-1.806-2.673-4-5.855-2.954-2.817.928-3.021,4.294-2.565,5.577-1.629,1.428-3.3,3.205-3.007,5.768a3.9,3.9,0,0,0,3.921,3.688S4221.456,256.721,4221.456,256.721Z" transform="translate(-112.02 -43.725)" fill="none" stroke="#666" stroke-linecap="round" stroke-linejoin="round" stroke-width="1.5"/>
    <path id="Trazado_916" data-name="Trazado 916" d="M.736-7.653V-9.792a1.836,1.836,0,0,1,.518-1.444,1.962,1.962,0,0,1,1.353-.46,2.224,2.224,0,0,1,1.407.428,1.411,1.411,0,0,1,.55,1.178.621.621,0,0,1-.14.472.7.7,0,0,1-.468.125q-.585,0-.608-.379-.023-.726-.694-.726-.7,0-.7.807v2.138q0,.807.709.807a.8.8,0,0,0,.363-.073.424.424,0,0,0,.207-.222,1.376,1.376,0,0,0,.082-.246,2.656,2.656,0,0,0,.035-.266q.031-.379.6-.379a.713.713,0,0,1,.476.125.621.621,0,0,1,.14.472A1.513,1.513,0,0,1,4.014-6.2a2.143,2.143,0,0,1-1.407.452,1.962,1.962,0,0,1-1.353-.46A1.836,1.836,0,0,1,.736-7.653Zm4.381,0V-9.792a1.829,1.829,0,0,1,.522-1.444,2.023,2.023,0,0,1,1.388-.46,2.035,2.035,0,0,1,1.4.46,1.829,1.829,0,0,1,.522,1.444v2.138a1.829,1.829,0,0,1-.522,1.444,2.035,2.035,0,0,1-1.4.46,2.023,2.023,0,0,1-1.388-.46A1.829,1.829,0,0,1,5.117-7.653Zm1.216,0q0,.807.694.807t.7-.807V-9.792q0-.807-.7-.807t-.694.807Z" transform="translate(4104.118 216.696)" fill="#666"/>
    <path id="Trazado_917" data-name="Trazado 917" d="M.368-9.19v-.356a.533.533,0,0,1,.115-.316,1.38,1.38,0,0,1,.278-.282l.326-.249a1.716,1.716,0,0,0,.282-.26.414.414,0,0,0,.115-.264.272.272,0,0,0-.067-.182.251.251,0,0,0-.2-.079.278.278,0,0,0-.191.066.266.266,0,0,0-.074.209.183.183,0,0,1-.08.147.333.333,0,0,1-.211.062q-.248,0-.248-.3A.624.624,0,0,1,.65-11.5a.869.869,0,0,1,.562-.193.879.879,0,0,1,.578.205.682.682,0,0,1,.248.554.81.81,0,0,1-.113.415,1.211,1.211,0,0,1-.273.327q-.159.132-.321.242a2.413,2.413,0,0,0-.275.215.284.284,0,0,0-.113.193v.033h.929a.141.141,0,0,1,.117.073.3.3,0,0,1,.05.172.318.318,0,0,1-.05.176.141.141,0,0,1-.117.077H.609a.3.3,0,0,1-.161-.051A.148.148,0,0,1,.368-9.19Z" transform="translate(4113.18 219.696)" fill="#666"/>
  </g>
</svg>
