<svg xmlns="http://www.w3.org/2000/svg" width="20" height="20" viewBox="0 0 20 20"><rect width="20" height="20" fill="none"/><g transform="translate(2 2)"><path d="M14.364,8.327V5.055L10,2,5.636,5.055V8.327L2,10.873v4.073L6.364,18,10,15.418,13.636,18,18,14.909V10.873ZM9.273,14.145,6.364,16.218,3.455,14.182V11.636L6.327,9.6l2.945,2.073ZM7.091,8.327V5.818L10,3.782l2.909,2.036V8.327L10,10.364Zm9.455,5.818-2.909,2.073-2.909-2.036V11.673L13.636,9.6l2.909,2.036Z" transform="translate(-2 -2)" fill="#707070"/></g></svg>