<svg id="ico-razones" xmlns="http://www.w3.org/2000/svg" width="20" height="20" viewBox="0 0 20 20">
  <line id="Línea_315" data-name="Línea 315" x2="8" transform="translate(5.5 5)" fill="none" stroke="#666" stroke-linecap="round" stroke-width="1.5"/>
  <line id="Línea_316" data-name="Línea 316" x2="2" transform="translate(5.5 9)" fill="none" stroke="#666" stroke-linecap="round" stroke-width="1.5"/>
  <rect id="Rectángulo_309" data-name="Rectángulo 309" width="20" height="20" fill="none" opacity="0.5"/>
  <path id="Trazado_1247" data-name="Trazado 1247" d="M1718.011-364.717V-370.7h-17.252v17.144l4.623-5.688h2.3" transform="translate(-1700 372)" fill="none" stroke="#707070" stroke-linecap="round" stroke-linejoin="round" stroke-width="1.5"/>
  <g id="Trazado_1248" data-name="Trazado 1248" transform="translate(7 5)" fill="none">
    <path d="M6.5,0A6.5,6.5,0,1,1,0,6.5,6.5,6.5,0,0,1,6.5,0Z" stroke="none"/>
    <path d="M 6.5 1.5 C 3.742989540100098 1.5 1.5 3.742989540100098 1.5 6.5 C 1.5 9.257009506225586 3.742989540100098 11.5 6.5 11.5 C 9.257009506225586 11.5 11.5 9.257009506225586 11.5 6.5 C 11.5 3.742989540100098 9.257009506225586 1.5 6.5 1.5 M 6.5 0 C 10.0898494720459 0 13 2.910149574279785 13 6.5 C 13 10.0898494720459 10.0898494720459 13 6.5 13 C 2.910149574279785 13 0 10.0898494720459 0 6.5 C 0 2.910149574279785 2.910149574279785 0 6.5 0 Z" stroke="none" fill="#666"/>
  </g>
  <path id="Trazado_1249" data-name="Trazado 1249" d="M.32-10.428a1.137,1.137,0,0,1,.492-.861A2.093,2.093,0,0,1,2.184-11.7a2.268,2.268,0,0,1,1.457.445A1.371,1.371,0,0,1,4.2-10.135,2.264,2.264,0,0,1,3.139-8.4a1.586,1.586,0,0,0-.364.393.982.982,0,0,0-.142.341,3.092,3.092,0,0,0-.024.449q0,.388-.558.388a.516.516,0,0,1-.407-.132.8.8,0,0,1-.114-.5,1.81,1.81,0,0,1,.634-1.438q.028-.028.246-.2a3.71,3.71,0,0,0,.3-.255,1.359,1.359,0,0,0,.189-.26.687.687,0,0,0,.1-.355.547.547,0,0,0-.237-.478,1.05,1.05,0,0,0-.615-.166,1.1,1.1,0,0,0-.53.114.616.616,0,0,0-.274.251.917.917,0,0,1-.18.251.385.385,0,0,1-.284.114A.607.607,0,0,1,.5-10.031.483.483,0,0,1,.32-10.428ZM1.342-5.452a.7.7,0,0,1,.213-.516.691.691,0,0,1,.506-.213.7.7,0,0,1,.516.218.707.707,0,0,1,.213.511.707.707,0,0,1-.213.511.7.7,0,0,1-.516.218.679.679,0,0,1-.511-.218A.715.715,0,0,1,1.342-5.452Z" transform="translate(11.68 19.696)" fill="#666"/>
</svg>
