<svg id="ico-contrato-SAP" xmlns="http://www.w3.org/2000/svg" width="20" height="20" viewBox="0 0 20 20">
  <rect id="Rectángulo_354" data-name="Rectángulo 354" width="20" height="20" fill="none"/>
  <g id="Trazado_1370" data-name="Trazado 1370" transform="translate(2)" fill="none">
    <path d="M0,0H10.286L16,5.75V20H0Z" stroke="none"/>
    <path d="M 1.5 1.5 L 1.5 18.5 L 14.5 18.5 L 14.5 6.368584632873535 L 9.661651611328125 1.5 L 1.5 1.5 M 0 0 L 10.28570938110352 0 L 16 5.75 L 16 20 L 0 20 L 0 0 Z" stroke="none" fill="#707070"/>
  </g>
  <path id="Trazado_1371" data-name="Trazado 1371" d="M-133.175,430.691v5.177h5.281" transform="translate(145 -430)" fill="none" stroke="#707070" stroke-width="1.54"/>
  <line id="Línea_378" data-name="Línea 378" x2="8" transform="translate(5.105 14.895)" fill="none" stroke="#666" stroke-width="1.5"/>
  <path id="Trazado_1372" data-name="Trazado 1372" d="M.228-5.54a.512.512,0,0,1,.108-.3.307.307,0,0,1,.25-.15.337.337,0,0,1,.176.062,1.253,1.253,0,0,1,.179.137.783.783,0,0,0,.229.137.794.794,0,0,0,.31.062.7.7,0,0,0,.357-.088.287.287,0,0,0,.152-.265.389.389,0,0,0-.171-.311A2,2,0,0,0,1.4-6.5q-.244-.11-.491-.246a1.21,1.21,0,0,1-.418-.388,1.043,1.043,0,0,1-.171-.6.949.949,0,0,1,.394-.833,1.616,1.616,0,0,1,.951-.276,2.686,2.686,0,0,1,.286.016,2.607,2.607,0,0,1,.336.062.721.721,0,0,1,.3.147.314.314,0,0,1,.118.246.578.578,0,0,1-.087.289.266.266,0,0,1-.239.15.845.845,0,0,1-.268-.1,1,1,0,0,0-.452-.1.679.679,0,0,0-.394.094.274.274,0,0,0-.131.228.291.291,0,0,0,.123.225,1.129,1.129,0,0,0,.307.174,4.021,4.021,0,0,1,.4.187,3.1,3.1,0,0,1,.4.252,1.053,1.053,0,0,1,.307.383,1.238,1.238,0,0,1,.123.562,1.1,1.1,0,0,1-.362.876,1.4,1.4,0,0,1-.951.313,1.771,1.771,0,0,1-.888-.214Q.228-5.272.228-5.54Zm3.246.3A.3.3,0,0,1,3.485-5.3l.977-3.266a.342.342,0,0,1,.192-.206A.782.782,0,0,1,5-8.844a.782.782,0,0,1,.344.072.342.342,0,0,1,.192.206L6.516-5.3a.3.3,0,0,1,.011.059A.288.288,0,0,1,6.356-5,.683.683,0,0,1,6-4.9q-.226,0-.268-.155l-.179-.669H4.446l-.179.669Q4.226-4.9,4-4.9A.683.683,0,0,1,3.645-5,.288.288,0,0,1,3.474-5.24Zm1.14-1.124h.767L5-7.8Zm2.742,1.21V-8.56a.23.23,0,0,1,.084-.177.319.319,0,0,1,.221-.075H8.748a1.317,1.317,0,0,1,.9.3,1.18,1.18,0,0,1,.339.934v.027a1.169,1.169,0,0,1-.355.94,1.4,1.4,0,0,1-.938.3h-.52v1.157a.208.208,0,0,1-.121.19.588.588,0,0,1-.289.067.588.588,0,0,1-.289-.067A.208.208,0,0,1,7.356-5.155Zm.819-1.8H8.7q.473,0,.473-.535v-.059q0-.535-.473-.535h-.52Z" transform="translate(4.772 16.844)" fill="#666"/>
  <line id="Línea_379" data-name="Línea 379" x2="4.395" transform="translate(5.105 4.895)" fill="none" stroke="#666" stroke-width="1.5"/>
</svg>
