<svg xmlns="http://www.w3.org/2000/svg" width="20.31" height="20.125" viewBox="0 0 20.31 20.125"><g transform="translate(-1.875 -1.875)"><path d="M5,11.25H7.5V12.5H5Z" transform="translate(0.923 2.422)" fill="#6a6b75"/><path d="M8.75,11.25h2.5V12.5H8.75Z" transform="translate(2.03 2.422)" fill="#6a6b75"/><path d="M5,8.75H7.5V10H5Z" transform="translate(0.923 1.776)" fill="#6a6b75"/><path d="M8.75,13.75h2.5V15H8.75Z" transform="translate(2.03 3.068)" fill="#6a6b75"/><path d="M12.5,8.75H15V10H12.5Z" transform="translate(3.138 1.776)" fill="#6a6b75"/><path d="M12.5,13.75H15V15H12.5Z" transform="translate(3.138 3.068)" fill="#6a6b75"/><path d="M20.623,1.875H3.437A1.557,1.557,0,0,0,1.875,3.423V20.452A1.557,1.557,0,0,0,3.437,22H20.623a1.557,1.557,0,0,0,1.562-1.548V3.423a1.557,1.557,0,0,0-1.562-1.548Zm0,1.548v3.1H3.437v-3.1ZM3.437,20.452V8.067H20.623V20.452Z" transform="translate(0)" fill="#6a6b75"/></g></svg>