<svg id="ico-BD-connections" xmlns="http://www.w3.org/2000/svg" width="20" height="20" viewBox="0 0 20 20">
  <g id="Trazado_815" data-name="Trazado 815" transform="translate(4.246 3.786)" fill="none" stroke-linecap="round">
    <path d="M0,0H11.508V7.311c0,2.167-2.886,4.4-5.763,4.4S0,9.8,0,7.311,0,0,0,0Z" stroke="none"/>
    <path d="M 1.499999046325684 1.499999046325684 L 1.499999046325684 7.310829162597656 C 1.499999046325684 8.802928924560547 3.562849044799805 10.21363925933838 5.744709014892578 10.21363925933838 C 6.772599220275879 10.21363925933838 7.911659240722656 9.810349464416504 8.791688919067383 9.134828567504883 C 9.541738510131836 8.559089660644531 10.0076789855957 7.860169410705566 10.0076789855957 7.310829162597656 L 10.0076789855957 1.499999046325684 L 1.499999046325684 1.499999046325684 M -9.5367431640625e-07 -9.5367431640625e-07 L 11.5076789855957 -9.5367431640625e-07 C 11.5076789855957 -9.5367431640625e-07 11.5076789855957 5.144248962402344 11.5076789855957 7.310829162597656 C 11.5076789855957 9.477398872375488 8.621628761291504 11.71363925933838 5.744709014892578 11.71363925933838 C 2.867789268493652 11.71363925933838 -9.5367431640625e-07 9.802699089050293 -9.5367431640625e-07 7.310829162597656 C -9.5367431640625e-07 4.818949222564697 -9.5367431640625e-07 -9.5367431640625e-07 -9.5367431640625e-07 -9.5367431640625e-07 Z" stroke="none" fill="#666"/>
  </g>
  <line id="Línea_302" data-name="Línea 302" x2="10" transform="translate(5 9)" fill="none" stroke="#666" stroke-width="1.5"/>
  <line id="Línea_171" data-name="Línea 171" y1="3" transform="translate(7.5 1)" fill="none" stroke="#666" stroke-linecap="round" stroke-width="1.5"/>
  <line id="Línea_172" data-name="Línea 172" y1="3" transform="translate(12.5 1)" fill="none" stroke="#666" stroke-linecap="round" stroke-width="1.5"/>
  <rect id="Rectángulo_560" data-name="Rectángulo 560" width="20" height="20" fill="none"/>
  <path id="Trazado_1263" data-name="Trazado 1263" d="M-2576,1416.053v1.955c-.012,1.2.393,1.96,1.555,1.96s1.687-.592,1.65-2.115a1.292,1.292,0,0,1,2.15-1.043" transform="translate(2586 -1401)" fill="none" stroke="#666" stroke-width="1.5"/>
</svg>
