<svg id="ico-factura-linea" xmlns="http://www.w3.org/2000/svg" width="20" height="20" viewBox="0 0 20 20">
  <rect id="Rectángulo_254" data-name="Rectángulo 254" width="20" height="20" fill="none"/>
  <g id="Rectángulo_349" data-name="Rectángulo 349" transform="translate(0 4)" fill="none" stroke="#707070" stroke-linecap="round" stroke-linejoin="round" stroke-width="1.5">
    <rect width="20" height="14" stroke="none"/>
    <rect x="0.75" y="0.75" width="18.5" height="12.5" fill="none"/>
  </g>
  <line id="Línea_373" data-name="Línea 373" x2="8" transform="translate(9 8)" fill="none" stroke="#707070" stroke-width="1.5"/>
  <line id="Línea_374" data-name="Línea 374" x2="8" transform="translate(9 11)" fill="none" stroke="#707070" stroke-width="1.5"/>
  <line id="Línea_375" data-name="Línea 375" x2="8" transform="translate(9 14)" fill="none" stroke="#707070" stroke-width="1.5"/>
  <path id="Trazado_1378" data-name="Trazado 1378" d="M.415-6.7a.353.353,0,0,1-.079-.237.357.357,0,0,1,.083-.24.267.267,0,0,1,.212-.1H.962v-.5H.631a.276.276,0,0,1-.212-.09A.33.33,0,0,1,.336-8.1a.357.357,0,0,1,.083-.24.267.267,0,0,1,.212-.1H.962v-.158a1.565,1.565,0,0,1,.457-1.244,1.769,1.769,0,0,1,1.205-.4,1.948,1.948,0,0,1,1.234.373,1.207,1.207,0,0,1,.478,1,.417.417,0,0,1-.108.337.584.584,0,0,1-.36.086q-.468,0-.468-.273A.794.794,0,0,0,3.235-9.2a.678.678,0,0,0-.576-.219q-.763,0-.763.825v.158h.676a.28.28,0,0,1,.209.1.336.336,0,0,1,.094.237.311.311,0,0,1-.094.229.289.289,0,0,1-.209.093H1.9v.5h.676a.28.28,0,0,1,.209.1.327.327,0,0,1,.094.229.32.32,0,0,1-.094.237.289.289,0,0,1-.209.093H1.9v.122A.812.812,0,0,0,2.07-6a.7.7,0,0,0,.6.233.665.665,0,0,0,.565-.222A.874.874,0,0,0,3.4-6.534a.221.221,0,0,1,.112-.212.78.78,0,0,1,.356-.061.564.564,0,0,1,.363.09.438.438,0,0,1,.1.341,1.269,1.269,0,0,1-.478,1.04,1.9,1.9,0,0,1-1.234.387A1.7,1.7,0,0,1,1.4-5.368,1.48,1.48,0,0,1,.962-6.49v-.122H.631A.293.293,0,0,1,.415-6.7Z" transform="translate(2.898 17.516)" fill="#666"/>
</svg>
