<svg id="ico-tipo-transmisiones" xmlns="http://www.w3.org/2000/svg" width="20" height="20" viewBox="0 0 20 20">
  <rect id="Rectángulo_338" data-name="Rectángulo 338" width="20" height="20" fill="none"/>
  <g id="Grupo_1762" data-name="Grupo 1762" transform="translate(-4251 -123)">
    <path id="Trazado_852" data-name="Trazado 852" d="M1773.207,233.634c4.168-3.87,11.984-3.956,16.886,0" transform="translate(2479.351 -105.429)" fill="none" stroke="#666" stroke-linecap="round" stroke-width="1.5"/>
    <path id="Trazado_853" data-name="Trazado 853" d="M1772.586,233.375c3.64-3.66,10.7-3.067,14,0" transform="translate(2481.414 -102.883)" fill="none" stroke="#666" stroke-linecap="round" stroke-width="1.5"/>
    <path id="Trazado_855" data-name="Trazado 855" d="M1772.586,232.46h0c2.394-2.451,7.3-2,9.381,0" transform="translate(2483.723 -99.952)" fill="none" stroke="#666" stroke-linecap="round" stroke-width="1.5"/>
    <g id="Sustracción_8" data-name="Sustracción 8" transform="translate(4107 1711)" fill="none" stroke-linecap="round" stroke-linejoin="round">
      <path d="M159.975-1568H148.024c-.017-.169-.025-.337-.025-.5a5.773,5.773,0,0,1,6-5.5,5.773,5.773,0,0,1,6,5.5c0,.167-.008.334-.024.5Z" stroke="none"/>
      <path d="M 158.3573760986328 -1569.499877929688 C 157.8567657470703 -1571.223266601562 156.093017578125 -1572.500122070312 154.0000915527344 -1572.500122070312 C 151.9067230224609 -1572.500122070312 150.1426086425781 -1571.223266601562 149.6418914794922 -1569.499877929688 L 158.3573760986328 -1569.499877929688 M 159.9751129150391 -1567.999877929688 L 159.97412109375 -1567.999877929688 L 148.0241241455078 -1567.999877929688 C 148.0074920654297 -1568.1689453125 147.9996185302734 -1568.337036132812 147.9996185302734 -1568.500244140625 C 147.9996185302734 -1571.532958984375 150.6914215087891 -1574.000122070312 154.0000915527344 -1574.000122070312 C 157.3082427978516 -1574.000122070312 159.9996185302734 -1571.532958984375 159.9996185302734 -1568.500244140625 C 159.9996185302734 -1568.333740234375 159.9914093017578 -1568.165771484375 159.9752197265625 -1568.000732421875 L 159.9751129150391 -1567.999877929688 Z" stroke="none" fill="#666"/>
    </g>
    <line id="Línea_224" data-name="Línea 224" y1="4" transform="translate(4261 135)" fill="none" stroke="#666" stroke-linecap="round" stroke-width="1.5"/>
  </g>
</svg>
