<svg xmlns="http://www.w3.org/2000/svg" width="20" height="20" viewBox="0 0 20 20"><g transform="translate(-438.298 -609.138)"><rect width="20" height="20" transform="translate(438.298 609.138)" fill="none"/></g><g transform="translate(-438.298 -609.138)"><path d="M446.836,616.075v-.692a.115.115,0,0,0-.113-.115h-.791v-.921a.555.555,0,0,1,.526-.582h.008a.6.6,0,0,1,.592.582.115.115,0,0,0,.113.115h.678a.113.113,0,0,0,.113-.115h0a1.517,1.517,0,0,0-1.5-1.5,1.471,1.471,0,0,0-1.439,1.5v.921h-.79a.115.115,0,0,0-.113.115h0v.692a.115.115,0,0,0,.113.115h.79v2.074a.564.564,0,1,1-1.128,0h0a.115.115,0,0,0-.114-.115h-.677a.113.113,0,0,0-.113.115h0a1.468,1.468,0,0,0,2.935.076c0-.025,0-.051,0-.076V616.19h.79a.115.115,0,0,0,.116-.113Z" fill="#6a6b75"/><path d="M448.383,618.563l.4-.4a.466.466,0,0,0-.658-.657l-.4.4-.4-.4a.466.466,0,0,0-.658.659l.4.4-.4.4a.466.466,0,0,0,.658.659l.4-.4.4.4a.466.466,0,0,0,.658-.659Z" fill="#6a6b75"/></g><circle cx="6" cy="6" r="6" transform="translate(1.817 1.739)" fill="none" stroke="#6a6b75" stroke-miterlimit="10" stroke-width="2"/><path d="M451.322,613.894a6,6,0,1,1-8.192,8.191" transform="translate(-438.298 -609.138)" fill="none" stroke="#6a6b75" stroke-miterlimit="10" stroke-width="2"/><path d="M453.432,616a6,6,0,1,1-8.191,8.191" transform="translate(-438.298 -609.138)" fill="none" stroke="#6a6b75" stroke-miterlimit="10" stroke-width="2"/></svg>