<svg id="ico-business-partners" xmlns="http://www.w3.org/2000/svg" width="20" height="20" viewBox="0 0 20 20">
  <rect id="Rectángulo_3110" data-name="Rectángulo 3110" width="20" height="20" fill="none"/>
  <path id="Trazado_2763" data-name="Trazado 2763" d="M107.579,68.935l-2.636-2.5A1.57,1.57,0,0,0,103.859,66l-3.363-.008a.3.3,0,0,0-.221.1L97.8,68.648H96V66.654h1l1.913-1.977A2.223,2.223,0,0,1,100.5,64h9.113a2.23,2.23,0,0,1,1.591.677l1.912,1.977H114v1.99h-1.683l-2.479-2.559-.229-.1H107.33l1.555,1.475a3.044,3.044,0,0,1,.177,4.208,2.845,2.845,0,0,1-4.078.183l-.329-.312-4.347,3.647a.347.347,0,0,0-.048.469h0L101.308,77a.317.317,0,0,0,.454.05l.96-.806,1.205,1.516a.525.525,0,0,0,.723.1l1.479-1.308.627.8a1.565,1.565,0,0,0,2.222.274l3.909-3.655H114v1.994h-.362l-3.4,3.173A3.444,3.444,0,0,1,106,79.29a2.4,2.4,0,0,1-1.651.66,2.429,2.429,0,0,1-1.961-1,2.207,2.207,0,0,1-2.571-.7L98.76,76.914a2.313,2.313,0,0,1-.438-.955H96V73.965h2.78a2.291,2.291,0,0,1,.309-.32l4.126-3.464-.5-.474a.68.68,0,0,1-.04-.939l.438-.486a.631.631,0,0,1,.908-.042l2.218,2.1a1,1,0,0,0,1.39,0A1.009,1.009,0,0,0,107.579,68.935Z" transform="translate(-94.977 -62)" fill="#6a6b75"/>
</svg>
