<svg id="btn-menu-panel-right" xmlns="http://www.w3.org/2000/svg" width="20" height="21" viewBox="0 0 20 21">
  <rect id="Rectángulo_1772" data-name="Rectángulo 1772" width="20" height="20" transform="translate(0 1)" fill="none"/>
  <g id="Componente_1929_23" data-name="Componente 1929 – 23">
    <g id="Grupo_7664" data-name="Grupo 7664">
      <g id="map-filters">
        <rect id="Rectángulo_3063" data-name="Rectángulo 3063" width="20" height="20" fill="none"/>
        <g id="Grupo_7701" data-name="Grupo 7701" transform="translate(-270 -270.255)">
          <g id="Unión_39" data-name="Unión 39" transform="translate(272 270.255)" fill="none">
            <path d="M.937,17.727c0-.933,1.747-1.734,4.247-2.085C2.88,13.369,0,9.984,0,7.273,0,2.754,3.582,0,8,0s8,2.754,8,7.273c0,2.711-2.88,6.1-5.184,8.37,2.5.35,4.246,1.152,4.246,2.085C15.062,18.983,11.9,20,8,20S.937,18.983.937,17.727Z" stroke="none"/>
            <path d="M 8.000100135803223 18.50069999694824 C 9.433660507202148 18.50069999694824 10.83512020111084 18.34886932373047 11.94634056091309 18.07316970825195 C 12.4075174331665 17.95874786376953 12.76126670837402 17.83770370483398 13.02546977996826 17.72707366943359 C 12.54018688201904 17.52413940429688 11.76278972625732 17.29000282287598 10.60850048065186 17.12826919555664 L 8.000119209289551 16.76279258728027 L 5.391660213470459 17.12825012207031 C 4.237287521362305 17.28998565673828 3.459643840789795 17.52414321899414 2.97418999671936 17.72708511352539 C 3.238445520401001 17.83770370483398 3.592242002487183 17.95873641967773 4.053410053253174 18.07313919067383 C 5.164840221405029 18.3488597869873 6.566470146179199 18.50069999694824 8.000100135803223 18.50069999694824 M 8.000095367431641 16.31521034240723 L 9.762920379638672 14.57522964477539 C 12.77353000640869 11.60361957550049 14.50020027160645 8.94202995300293 14.50020027160645 7.272900104522705 C 14.50020027160645 5.560850143432617 13.86911010742188 4.109560012817383 12.67514991760254 3.075929880142212 C 11.50127983093262 2.059669971466064 9.840980529785156 1.5 8.000100135803223 1.5 C 6.159220218658447 1.5 4.49891996383667 2.059669971466064 3.325050115585327 3.075929880142212 C 2.13109016418457 4.109560012817383 1.50000011920929 5.560850143432617 1.50000011920929 7.272900104522705 C 1.50000011920929 8.94202995300293 3.226660251617432 11.60361957550049 6.237250328063965 14.57520961761475 L 8.000095367431641 16.31521034240723 M 8.000100135803223 20.00069999694824 C 4.099500179290771 20.00069999694824 0.9369001388549805 18.9827995300293 0.9369001388549805 17.7273006439209 C 0.9369001388549805 16.79470062255859 2.684340238571167 15.99291038513184 5.183530330657959 15.64276027679443 C 2.879550218582153 13.36863040924072 1.358032193365943e-07 9.984129905700684 1.358032193365943e-07 7.272900104522705 C 1.358032193365943e-07 2.753999948501587 3.582000017166138 -1.525879866903779e-09 8.000100135803223 -1.525879866903779e-09 C 12.41820049285889 -1.525879866903779e-09 16.00020027160645 2.753999948501587 16.00020027160645 7.272900104522705 C 16.00020027160645 9.984129905700684 13.12061977386475 13.36865043640137 10.81663990020752 15.64278030395508 C 13.31556987762451 15.992919921875 15.06239986419678 16.79470062255859 15.06239986419678 17.7273006439209 C 15.06239986419678 18.9827995300293 11.90070056915283 20.00069999694824 8.000100135803223 20.00069999694824 Z" stroke="none" fill="#6a6b75"/>
          </g>
          <path id="Trazado_2699" data-name="Trazado 2699" d="M146.567,558.725l1.353,1.436,1.664-1.756" transform="translate(131.984 -272.38)" fill="none" stroke="#6a6b75" stroke-width="1.5"/>
        </g>
        <g id="Elipse_551" data-name="Elipse 551" transform="translate(8 3)" fill="none" stroke="#6a6b75" stroke-width="1.5">
          <circle cx="2" cy="2" r="2" stroke="none"/>
          <circle cx="2" cy="2" r="1.25" fill="none"/>
        </g>
      </g>
    </g>
  </g>
</svg>
