<svg id="ico-tipo-residuos" xmlns="http://www.w3.org/2000/svg" width="20" height="20" viewBox="0 0 20 20">
  <rect id="Rect치ngulo_335" data-name="Rect치ngulo 335" width="20" height="20" fill="none"/>
  <g id="Grupo_1777" data-name="Grupo 1777" transform="translate(-2281 -350)">
    <g id="Rect치ngulo_136" data-name="Rect치ngulo 136" transform="translate(2283 353.633)" fill="none" stroke="#666" stroke-linecap="round" stroke-linejoin="round" stroke-width="1.5">
      <rect width="16.238" height="3.881" stroke="none"/>
      <rect x="0.75" y="0.75" width="14.738" height="2.381" fill="none"/>
    </g>
    <path id="Trazado_919" data-name="Trazado 919" d="M4214.926,239.526a25.863,25.863,0,0,1,2.806-2.39c.3-.027,6.621,0,6.621,0l2.658,2.39" transform="translate(-1929.972 114.479)" fill="none" stroke="#666" stroke-linecap="round" stroke-linejoin="round" stroke-width="1.5"/>
    <g id="Trazado_1317" data-name="Trazado 1317" transform="translate(2293.149 363.782)" fill="none">
      <path d="M3.045,0A2.98,2.98,0,0,1,6.089,2.911,2.98,2.98,0,0,1,3.045,5.821,2.98,2.98,0,0,1,0,2.911,2.98,2.98,0,0,1,3.045,0Z" stroke="none"/>
      <path d="M 3.04460883140564 1.500002384185791 C 2.192908763885498 1.500002384185791 1.499999046325684 2.132792234420776 1.499999046325684 2.910592317581177 C 1.499999046325684 3.688392400741577 2.192908763885498 4.321182250976562 3.04460883140564 4.321182250976562 C 3.896308898925781 4.321182250976562 4.589219093322754 3.688392400741577 4.589219093322754 2.910592317581177 C 4.589219093322754 2.132792234420776 3.896308898925781 1.500002384185791 3.04460883140564 1.500002384185791 M 3.04460883140564 2.384185791015625e-06 C 4.726099014282227 2.384185791015625e-06 6.089218616485596 1.303112506866455 6.089218616485596 2.910592317581177 C 6.089218616485596 4.518072128295898 4.726099014282227 5.821182250976562 3.04460883140564 5.821182250976562 C 1.363118648529053 5.821182250976562 -9.5367431640625e-07 4.518072128295898 -9.5367431640625e-07 2.910592317581177 C -9.5367431640625e-07 1.303112506866455 1.363118648529053 2.384185791015625e-06 3.04460883140564 2.384185791015625e-06 Z" stroke="none" fill="#666"/>
    </g>
    <path id="Trazado_924" data-name="Trazado 924" d="M0,2.165A1.835,1.835,0,0,1,1.867.074,2.331,2.331,0,0,1,4.41,2.182" transform="matrix(-0.899, 0.438, -0.438, -0.899, 2294.026, 363.537)" fill="none" stroke="#666" stroke-width="1.5"/>
    <path id="Trazado_925" data-name="Trazado 925" d="M0,1.976A1.842,1.842,0,0,1,1.989,0,2.308,2.308,0,0,1,4.41,2.182" transform="matrix(0.899, -0.438, 0.438, 0.899, 2287.659, 360.692)" fill="none" stroke="#666" stroke-width="1.5"/>
    <path id="Trazado_1306" data-name="Trazado 1306" d="M2401.962-320.21l.884,9.055a2.909,2.909,0,0,0,2.837,2.759c2.681.074,6.025,0,6.025,0" transform="translate(-116.971 676.675)" fill="none" stroke="#666" stroke-width="1.5"/>
    <path id="Trazado_1307" data-name="Trazado 1307" d="M2414.114-321.087l-.77,8.312" transform="translate(-116.707 677.677)" fill="none" stroke="#666" stroke-width="1.5"/>
  </g>
</svg>
