<svg id="ico-tipo-swapping" xmlns="http://www.w3.org/2000/svg" width="20" height="20" viewBox="0 0 20 20">
  <rect id="Rectángulo_337" data-name="Rectángulo 337" width="20" height="20" fill="none"/>
  <g id="Grupo_1760" data-name="Grupo 1760" transform="translate(-4227 -188)">
    <path id="Unión_3" data-name="Unión 3" d="M156.23-1565.491c0-.318,0-.841,0-1.463h-6.975a2.1,2.1,0,0,1-2.028-2.161,2.1,2.1,0,0,1,2.028-2.162h6.98c0-.617,0-1.063-.007-1.184-.016-.4.091-.851.959-.367.6.334,3.1,1.743,4.887,2.782.427.247.689.8,0,1.3-1.107.8-3.947,2.847-4.887,3.553a1.246,1.246,0,0,1-.545.158C156.4-1565.037,156.23-1565.169,156.23-1565.491Z" transform="translate(4083.5 1772.037)" fill="none" stroke="#666" stroke-linecap="round" stroke-width="1.5"/>
    <path id="Unión_4" data-name="Unión 4" d="M156.23-1565.491c0-.318,0-.841,0-1.463h-6.559a2.059,2.059,0,0,1-1.939-2.161,2.059,2.059,0,0,1,1.939-2.162h6.563c0-.617,0-1.063-.007-1.184-.016-.4.091-.851.959-.367.6.334,3.1,1.743,4.887,2.782.427.247.689.8,0,1.3-1.107.8-3.947,2.847-4.887,3.553a1.246,1.246,0,0,1-.545.158C156.4-1565.037,156.23-1565.169,156.23-1565.491Z" transform="translate(4390.5 -1376.037) rotate(180)" fill="none" stroke="#666" stroke-linecap="round" stroke-width="1.5"/>
  </g>
</svg>
