<svg id="ico-coste" xmlns="http://www.w3.org/2000/svg" width="20" height="20.001" viewBox="0 0 20 20.001">
  <rect id="Rect치ngulo_235" data-name="Rect치ngulo 235" width="20" height="20" transform="translate(0 0)" fill="none"/>
  <g id="Grupo_1642" data-name="Grupo 1642" transform="translate(-587 -336)">
    <g id="Uni칩n_14" data-name="Uni칩n 14" transform="translate(753 -315)" fill="none">
      <path d="M-161.291,666.513A8.129,8.129,0,0,1-166,659.125,8.1,8.1,0,0,1-157.928,651a8.066,8.066,0,0,1,7.22,4.487A8.129,8.129,0,0,1-146,662.875,8.1,8.1,0,0,1-154.072,671,8.067,8.067,0,0,1-161.291,666.513Z" stroke="none"/>
      <path d="M -154.0718994140625 669.5004272460938 C -150.4480285644531 669.5004272460938 -147.4998016357422 666.5283813476562 -147.4998016357422 662.875244140625 C -147.4998016357422 660.2911376953125 -149.0062866210938 657.9254760742188 -151.3377380371094 656.8484497070312 L -151.8162078857422 656.62744140625 L -152.0512542724609 656.1557006835938 C -153.1748657226562 653.9005737304688 -155.4268493652344 652.4996948242188 -157.9284057617188 652.4996948242188 C -161.5517730712891 652.4996948242188 -164.4996032714844 655.4717407226562 -164.4996032714844 659.1249389648438 C -164.4996032714844 661.7091064453125 -162.9933776855469 664.07470703125 -160.6623382568359 665.1516723632812 L -160.1839447021484 665.3726806640625 L -159.9488983154297 665.8443603515625 C -158.8251037597656 668.0994873046875 -156.5731658935547 669.5004272460938 -154.0718994140625 669.5004272460938 M -154.0718994140625 671.0004272460938 C -157.2304382324219 671.0004272460938 -159.9654541015625 669.1742553710938 -161.2914428710938 666.5133666992188 C -164.0701446533203 665.2296142578125 -165.9996032714844 662.4041748046875 -165.9996032714844 659.1249389648438 C -165.9996032714844 654.6375122070312 -162.3861083984375 650.9996948242188 -157.9284057617188 650.9996948242188 C -154.7692260742188 650.9996948242188 -152.0344696044922 652.8258666992188 -150.7086791992188 655.4867553710938 C -147.9297180175781 656.7705078125 -145.9998016357422 659.595947265625 -145.9998016357422 662.875244140625 C -145.9998016357422 667.3626098632812 -149.6141967773438 671.0004272460938 -154.0718994140625 671.0004272460938 Z" stroke="none" fill="#6a6b75"/>
    </g>
    <path id="Trazado_715" data-name="Trazado 715" d="M.416-6.149a.76.76,0,0,1,.161-.444.456.456,0,0,1,.37-.224.575.575,0,0,1,.336.158,4.726,4.726,0,0,0,.488.339,1.536,1.536,0,0,0,.654.22V-8q-.351-.134-.535-.21a3.893,3.893,0,0,1-.474-.248,1.706,1.706,0,0,1-.441-.353,1.8,1.8,0,0,1-.27-.468,1.659,1.659,0,0,1-.118-.64,1.634,1.634,0,0,1,.521-1.3,2.44,2.44,0,0,1,1.317-.559v-.267a.207.207,0,0,1,.095-.167.366.366,0,0,1,.227-.072.372.372,0,0,1,.223.072.2.2,0,0,1,.1.167v.248a3.649,3.649,0,0,1,1.109.2q.512.181.512.554a.853.853,0,0,1-.133.434.411.411,0,0,1-.37.224,1.41,1.41,0,0,1-.426-.162,1.9,1.9,0,0,0-.692-.191v1.68a5.6,5.6,0,0,1,.644.277,3.679,3.679,0,0,1,.554.368,1.432,1.432,0,0,1,.445.587,2.1,2.1,0,0,1,.147.812,1.929,1.929,0,0,1-.483,1.375,2.216,2.216,0,0,1-1.308.649v.3a.2.2,0,0,1-.1.167.372.372,0,0,1-.223.072.366.366,0,0,1-.227-.072A.207.207,0,0,1,2.425-4.7v-.267a2.73,2.73,0,0,1-1.417-.391Q.416-5.729.416-6.149Zm1.327-3.9a.574.574,0,0,0,.19.454,2,2,0,0,0,.569.32v-1.442Q1.743-10.589,1.743-10.044ZM2.994-6.111A.756.756,0,0,0,3.7-6.894a.744.744,0,0,0-.185-.525,1.588,1.588,0,0,0-.526-.353Z" transform="translate(596.584 356.051)" fill="#6a6b75"/>
    <path id="Trazado_1137" data-name="Trazado 1137" d="M758.311-274.82c-.929-2.686-.916-6.219,1.464-8.543s5.379-2.386,8.04-1.573" transform="translate(-166 626)" fill="none" stroke="#6a6b75" stroke-width="1.5"/>
  </g>
</svg>
