<svg id="ico-trash-16p" xmlns="http://www.w3.org/2000/svg" width="16" height="16" viewBox="0 0 16 16">
  <rect id="Rect치ngulo_2421" data-name="Rect치ngulo 2421" width="16" height="16" fill="none"/>
  <g id="Grupo_6319" data-name="Grupo 6319" transform="translate(-4103.917 -1904.801)">
    <path id="Trazado_1886" data-name="Trazado 1886" d="M3832.9,4466.311h13.834" transform="translate(272.1 -2557.846)" fill="none" stroke="#3a3a40" stroke-width="1.5"/>
    <path id="Trazado_1887" data-name="Trazado 1887" d="M3834.486,4466.21v8.671s-.137,2.241,1.868,2.3,4.839,0,5.974,0a1.96,1.96,0,0,0,2.155-2.3c-.043-1.806,0-8.671,0-8.671" transform="translate(272.433 -2557.409)" fill="none" stroke="#3a3a40" stroke-width="1.5"/>
    <g id="Sustracci칩n_1" data-name="Sustracci칩n 1" transform="translate(4106.917 1904.801)" fill="none">
      <path d="M10,4H0V2A2,2,0,0,1,2,0H8a2,2,0,0,1,2,2V4Z" stroke="none"/>
      <path d="M 8.499899864196777 2.499600172042847 L 8.499899864196777 1.999800086021423 C 8.499899864196777 1.724210143089294 8.275690078735352 1.50000011920929 8.000100135803223 1.50000011920929 L 1.999799966812134 1.50000011920929 C 1.724209904670715 1.50000011920929 1.49999988079071 1.724210143089294 1.49999988079071 1.999800086021423 L 1.49999988079071 2.499600172042847 L 8.499899864196777 2.499600172042847 M 9.999899864196777 3.999600172042847 L 9.998899459838867 3.999600172042847 L -6.790160966829717e-08 3.999600172042847 L -6.790160966829717e-08 1.999800086021423 C -6.790160966829717e-08 0.8971101045608521 0.8971099257469177 8.602142287372772e-08 1.999799966812134 8.602142287372772e-08 L 8.000100135803223 8.602142287372772e-08 C 9.102789878845215 8.602142287372772e-08 9.999899864196777 0.8971101045608521 9.999899864196777 1.999800086021423 L 9.999899864196777 3.998600006103516 L 9.999899864196777 3.999600172042847 Z" stroke="none" fill="#3a3a40"/>
    </g>
    <path id="Trazado_1889" data-name="Trazado 1889" d="M3837.863,4469.494v6" transform="translate(276.354 -2558.692)" fill="none" stroke="#3a3a40" stroke-width="1.5"/>
    <path id="Trazado_2524" data-name="Trazado 2524" d="M3837.863,4469.494v6" transform="translate(271.654 -2558.692)" fill="none" stroke="#3a3a40" stroke-width="1.5"/>
    <path id="Trazado_1890" data-name="Trazado 1890" d="M3837.863,4469.494v6" transform="translate(274.054 -2558.692)" fill="none" stroke="#3a3a40" stroke-width="1.5"/>
  </g>
</svg>
