<svg xmlns="http://www.w3.org/2000/svg" width="20.297" height="20.192" viewBox="0 0 20.297 20.192"><g transform="translate(0.297 0.024)"><g transform="translate(-755 -277)"><rect width="20" height="20" transform="translate(755 277)" fill="none"/><g transform="translate(2.273 1)"><g transform="translate(759.227 281.508)"><g transform="translate(0 0)"><g fill="none" stroke="#666" stroke-width="1.5"><rect width="7" height="9.139" rx="3.5" stroke="none"/><rect x="0.75" y="0.75" width="5.5" height="7.639" rx="2.75" fill="none"/></g><path d="M-413.292,522.448l6.211-1.338" transform="translate(413.707 -518.051)" fill="none" stroke="#666" stroke-width="1.5"/></g></g></g><path d="M4938.986-1224.423c-3.856,2.044-3.583,6.842-3.583,6.842h11.443s.054-5.282-3.982-7.079" transform="translate(-4176 1514)" fill="none" stroke="#666" stroke-width="1.5"/><path d="M4947.424-1223.892l.6-1.712h2.077v-3.014h-2.077l-.9-2.81,1.466-1.507-2.525-2.036-1.466,2.036-1.833-.937v-2.4h-3.909v2.4l-1.792.937-1.833-1.547-2.118,2.362,1.874,1.629-1.018,1.873h-2.525v3.665h2.321l.653,1.061" transform="translate(-4176 1514)" fill="none" stroke="#666" stroke-linecap="round" stroke-linejoin="round" stroke-width="1.5"/></g><path d="M-2056.864,2099.66a7.71,7.71,0,0,0,4.02,1.561,8.515,8.515,0,0,0,4.17-1.561" transform="translate(2062.66 -2085.103)" fill="none" stroke="#666" stroke-width="1.5"/></g></svg>