<svg id="ico-tipo-contrato" xmlns="http://www.w3.org/2000/svg" width="20" height="20" viewBox="0 0 20 20">
  <rect id="Rectángulo_199" data-name="Rectángulo 199" width="18.949" height="18.949" transform="translate(0 0.379)" fill="none"/>
  <path id="Trazado_43" data-name="Trazado 43" d="M138.325,585.386a1.293,1.293,0,0,1,1.5-1.352c1.583.05,11.538-.063,12.139,0a1.918,1.918,0,0,1,1.854,2.2l-.173,1.681,2,3.638-2,2.231.173,3.664h1.829v2.906s.228,1.28-2.014,1.28H142.991s-2.037.138-1.931-1.8,0-10.921,0-10.921h-2.735Z" transform="translate(-137.325 -582.635)" fill="none" stroke="#666" stroke-width="1.5"/>
  <path id="Trazado_44" data-name="Trazado 44" d="M153.607,602.332l-9.8.029v2.621s.16,1.7-1.2,1.594" transform="translate(-136.679 -587.583)" fill="none" stroke="#666" stroke-width="1.5"/>
  <path id="Trazado_45" data-name="Trazado 45" d="M141.731,588.478s-.03-2.768,0-2.8c0-1.53-1.056-2.2-2.452-1.474" transform="translate(-137.889 -582.502)" fill="none" stroke="#666" stroke-width="1.5"/>
  <path id="Trazado_2762" data-name="Trazado 2762" d="M9.313,3.726a2.423,2.423,0,0,0-1.639-.417A2.43,2.43,0,0,0,7.1,3.1v-.93a2.171,2.171,0,1,0-4.343,0V4.42a3.015,3.015,0,0,0-.585-.057A2.172,2.172,0,0,0,0,6.765C0,7.947,1.267,8.252,2.056,8.741a6.423,6.423,0,0,1,.868.675l0,0,0,0a2.637,2.637,0,0,1,.563.6h.034a1.648,1.648,0,0,0,1.646,1.646H9.017a1.648,1.648,0,0,0,1.646-1.646h0c.143-.728,1.024-1.692,1.024-3.132V6.334A2.374,2.374,0,0,0,9.313,3.726Zm-.3,6.69H5.176a.394.394,0,0,1-.394-.394h.009A2.548,2.548,0,0,0,3.758,8.48a7.581,7.581,0,0,0-1.041-.8c-.61-.378-1.464-.682-1.464-.912,0-.61.23-1.148.919-1.148.919,0,1.385.689,1.837.689V2.171a.95.95,0,0,1,.919-.919.935.935,0,0,1,.919.919V4.547a1.177,1.177,0,0,1,1.593.129,1.083,1.083,0,0,1,1.4.337c1.021-.17,1.6.263,1.6,1.321V6.89c0,1.187-.937,2.015-1.035,3.132h.007A.394.394,0,0,1,9.017,10.416Z" transform="translate(3.482 8.268) rotate(-45)" fill="#666"/>
</svg>
