<svg id="ico-colors" xmlns="http://www.w3.org/2000/svg" width="20" height="20" viewBox="0 0 20 20">
  <rect id="Rectángulo_234" data-name="Rectángulo 234" width="20" height="20" fill="none"/>
  <g id="Grupo_1637" data-name="Grupo 1637" transform="translate(-4274 -123)">
    <path id="Trazado_1015" data-name="Trazado 1015" d="M4169.221,1667.2c.7,1.2,2.092.49,3.6,0s2.575-.525,3.52.469a4.071,4.071,0,0,1,.368,4.8,11.055,11.055,0,0,1-8.257,4.587c-3.535,0-6.36-1.3-7.963-3.982a9.689,9.689,0,0,1-.525-8.25,9.133,9.133,0,0,1,4.872-4.889,9.976,9.976,0,0,1,5.393-.764c1.992.22,2.59,1.163,2.592,2.146s-1.19,2.041-2.016,2.912S4168.522,1666.007,4169.221,1667.2Z" transform="translate(115.681 -1535.059)" fill="none" stroke="#666" stroke-width="1.5"/>
    <g id="Elipse_118" data-name="Elipse 118" transform="translate(4282 126)" fill="none" stroke="#666" stroke-width="1">
      <circle cx="1.5" cy="1.5" r="1.5" stroke="none"/>
      <circle cx="1.5" cy="1.5" r="1" fill="none"/>
    </g>
    <g id="Elipse_119" data-name="Elipse 119" transform="translate(4278 128)" fill="none" stroke="#666" stroke-width="1">
      <circle cx="1.5" cy="1.5" r="1.5" stroke="none"/>
      <circle cx="1.5" cy="1.5" r="1" fill="none"/>
    </g>
    <g id="Elipse_120" data-name="Elipse 120" transform="translate(4277 132)" fill="none" stroke="#666" stroke-width="1">
      <circle cx="1.5" cy="1.5" r="1.5" stroke="none"/>
      <circle cx="1.5" cy="1.5" r="1" fill="none"/>
    </g>
    <g id="Elipse_121" data-name="Elipse 121" transform="translate(4279 136)" fill="none" stroke="#666" stroke-width="1">
      <circle cx="1.5" cy="1.5" r="1.5" stroke="none"/>
      <circle cx="1.5" cy="1.5" r="1" fill="none"/>
    </g>
    <g id="Elipse_122" data-name="Elipse 122" transform="translate(4283 137)" fill="none" stroke="#666" stroke-width="1">
      <circle cx="1.5" cy="1.5" r="1.5" stroke="none"/>
      <circle cx="1.5" cy="1.5" r="1" fill="none"/>
    </g>
    <g id="Elipse_123" data-name="Elipse 123" transform="translate(4287 135)" fill="none" stroke="#666" stroke-width="1">
      <circle cx="1.5" cy="1.5" r="1.5" stroke="none"/>
      <circle cx="1.5" cy="1.5" r="1" fill="none"/>
    </g>
  </g>
</svg>
