<svg id="ico-tipo-cerradura" xmlns="http://www.w3.org/2000/svg" width="20" height="20" viewBox="0 0 20 20">
  <rect id="Rectángulo_324" data-name="Rectángulo 324" width="20" height="20" fill="none"/>
  <g id="Grupo_1742" data-name="Grupo 1742" transform="translate(-4305 -87)">
    <g id="Trazado_1292" data-name="Trazado 1292" transform="translate(4310.333 88)" fill="none">
      <path d="M4.667,0A4.572,4.572,0,0,1,9.333,4.471v5.816c0,.073-9.232.085-9.333,0V4.471A4.572,4.572,0,0,1,4.667,0Z" stroke="none"/>
      <path d="M 4.666719436645508 1.500004768371582 C 2.920579433441162 1.500004768371582 1.499999523162842 2.832604885101318 1.499999523162842 4.470584869384766 L 1.499999523162842 8.832718849182129 C 2.222562313079834 8.84068775177002 3.218908309936523 8.846014976501465 4.443199157714844 8.846014976501465 C 5.817811012268066 8.846014976501465 6.995418548583984 8.83939266204834 7.833439350128174 8.829961776733398 L 7.833439350128174 4.470584869384766 C 7.833439350128174 2.832604885101318 6.412859439849854 1.500004768371582 4.666719436645508 1.500004768371582 M 4.666719436645508 4.76837158203125e-06 C 7.24406909942627 4.76837158203125e-06 9.333439826965332 2.001554489135742 9.333439826965332 4.470584869384766 L 9.333439826965332 10.28696441650391 C 9.333740234375 10.32467174530029 6.848627090454102 10.3460168838501 4.443199157714844 10.3460168838501 C 2.2115478515625 10.3460168838501 0.04858779907226562 10.32766056060791 -9.5367431640625e-07 10.28696441650391 L -9.5367431640625e-07 4.470584869384766 C -9.5367431640625e-07 2.001554489135742 2.089359283447266 4.76837158203125e-06 4.666719436645508 4.76837158203125e-06 Z" stroke="none" fill="#666"/>
    </g>
    <g id="Rectángulo_143" data-name="Rectángulo 143" transform="translate(4308 96.941)" fill="none" stroke="#666" stroke-linecap="round" stroke-linejoin="round" stroke-width="1.5">
      <rect width="14" height="10.059" stroke="none"/>
      <rect x="0.75" y="0.75" width="12.5" height="8.559" fill="none"/>
    </g>
  </g>
  <circle id="Elipse_175" data-name="Elipse 175" cx="1.5" cy="1.5" r="1.5" transform="translate(8.5 13)" fill="#666"/>
  <line id="Línea_319" data-name="Línea 319" y2="2" transform="translate(10 15.5)" fill="none" stroke="#666" stroke-width="1"/>
</svg>
