<svg id="ico-proteccionesIndividuales" xmlns="http://www.w3.org/2000/svg" width="20" height="20" viewBox="0 0 20 20">
  <rect id="Rectángulo_308" data-name="Rectángulo 308" width="20" height="20" fill="none" opacity="0.5"/>
  <g id="Grupo_1714" data-name="Grupo 1714" transform="translate(2 1.003)">
    <path id="Trazado_820" data-name="Trazado 820" d="M1772.913,232.427c0,7.781,7.85,9.716,7.947,9.713s8.053-2.322,8.053-10.139l-.034-6.529a35.919,35.919,0,0,1-8.019-1.248,36.2,36.2,0,0,1-7.947,1.269Z" transform="translate(-1772.913 -224.224)" fill="none" stroke="#666" stroke-linecap="round" stroke-linejoin="round" stroke-width="1.5"/>
  </g>
  <path id="Trazado_1242" data-name="Trazado 1242" d="M.624-6.223A.616.616,0,0,1,.81-6.675a.631.631,0,0,1,.466-.187.618.618,0,0,1,.453.191.613.613,0,0,1,.191.448.613.613,0,0,1-.191.448.618.618,0,0,1-.453.191.628.628,0,0,1-.461-.191A.613.613,0,0,1,.624-6.223ZM.649-11.19a.445.445,0,0,1,.174-.369.7.7,0,0,1,.445-.137.683.683,0,0,1,.436.137.445.445,0,0,1,.174.369q0,.5-.059,1.7T1.759-7.8a.3.3,0,0,1-.157.269.632.632,0,0,1-.334.1q-.5,0-.5-.365,0-.489-.059-1.692T.649-11.19Z" transform="translate(8.758 17.559)" fill="#666"/>
  <g id="Trazado_1243" data-name="Trazado 1243" transform="translate(4.01 3.013)" fill="none">
    <path d="M6,0A6,6,0,1,1,0,6,6,6,0,0,1,6,0Z" stroke="none"/>
    <path d="M 6 1.5 C 3.51869010925293 1.5 1.5 3.51869010925293 1.5 6 C 1.5 8.48130989074707 3.51869010925293 10.5 6 10.5 C 8.48130989074707 10.5 10.5 8.48130989074707 10.5 6 C 10.5 3.51869010925293 8.48130989074707 1.5 6 1.5 M 6 0 C 9.31371021270752 0 12 2.68628978729248 12 6 C 12 9.31371021270752 9.31371021270752 12 6 12 C 2.68628978729248 12 0 9.31371021270752 0 6 C 0 2.68628978729248 2.68628978729248 0 6 0 Z" stroke="none" fill="#666"/>
  </g>
</svg>
