<svg id="btn_history_grid" xmlns="http://www.w3.org/2000/svg" xmlns:xlink="http://www.w3.org/1999/xlink" width="20" height="20" viewBox="0 0 20 20">
  <defs>
    <clipPath id="clip-path">
      <path id="Trazado_2041" data-name="Trazado 2041" d="M0-29H20V-9H0Z" transform="translate(0 29)" fill="none"/>
    </clipPath>
  </defs>
  <rect id="Rectángulo_1152" data-name="Rectángulo 1152" width="20" height="20" fill="none" opacity="0.2"/>
  <path id="Trazado_1506" data-name="Trazado 1506" d="M0,0,3.966.472,2.424,4.006" transform="translate(2.115 2.942) rotate(-20)" fill="none" stroke="#6a6b75" stroke-linejoin="round" stroke-width="1.6"/>
  <path id="Trazado_1507" data-name="Trazado 1507" d="M11704-1698.189v3.333h2.8" transform="translate(-11694.143 1705.43)" fill="none" stroke="#6a6b75" stroke-width="2"/>
  <g id="Grupo_3840" data-name="Grupo 3840" clip-path="url(#clip-path)">
    <g id="Grupo_3838" data-name="Grupo 3838" transform="translate(1.724 1.724)">
      <path id="Trazado_2039" data-name="Trazado 2039" d="M-3.274-.027a8.38,8.38,0,0,1,1-.059A8.276,8.276,0,0,1,6,8.19a8.276,8.276,0,0,1-8.276,8.276A8.276,8.276,0,0,1-10.551,8.19,8.259,8.259,0,0,1-7.582,1.839" transform="translate(10.551 0.086)" fill="none" stroke="#6a6b75" stroke-linecap="round" stroke-width="1.6"/>
    </g>
    <g id="Grupo_3839" data-name="Grupo 3839" transform="translate(4.693 2.957)">
      <path id="Trazado_2040" data-name="Trazado 2040" d="M0-.311A8.251,8.251,0,0,1,.959-1" transform="translate(0 1.003)" fill="none" stroke="#6a6b75" stroke-linecap="round" stroke-width="2"/>
    </g>
  </g>
</svg>
