<svg id="ico-tipo-parcelas" xmlns="http://www.w3.org/2000/svg" width="20" height="20" viewBox="0 0 20 20">
  <rect id="Rectángulo_334" data-name="Rectángulo 334" width="20" height="20" fill="none"/>
  <path id="Trazado_988" data-name="Trazado 988" d="M4212.731,212.473s-.06-18.048,0-18a2.743,2.743,0,0,1,2.867,2.727v15.274Z" transform="translate(-4211.705 -193.473)" fill="none" stroke="#666" stroke-linecap="round" stroke-linejoin="round" stroke-width="1.5"/>
  <path id="Trazado_989" data-name="Trazado 989" d="M4215.571,212.473s.06-18.048,0-18a2.743,2.743,0,0,0-2.867,2.727v15.274Z" transform="translate(-4196.598 -193.473)" fill="none" stroke="#666" stroke-linecap="round" stroke-linejoin="round" stroke-width="1.5"/>
  <path id="Trazado_990" data-name="Trazado 990" d="M4210.371,212.473V197.2s.035-2.727,1.935-2.727,1.922,2.727,1.922,2.727v15.274Z" transform="translate(-4201.979 -193.473)" fill="none" stroke="#666" stroke-linecap="round" stroke-linejoin="round" stroke-width="1.5"/>
  <path id="Trazado_1302" data-name="Trazado 1302" d="M2394.893-367.247h4.475" transform="translate(-2391 373)" fill="none" stroke="#666" stroke-width="1.5"/>
  <path id="Trazado_1304" data-name="Trazado 1304" d="M2394.893-367.247h4.475" transform="translate(-2383 373)" fill="none" stroke="#666" stroke-width="1.5"/>
  <path id="Trazado_1303" data-name="Trazado 1303" d="M2394.893-367.247h4.475" transform="translate(-2391 383)" fill="none" stroke="#666" stroke-width="1.5"/>
  <path id="Trazado_1305" data-name="Trazado 1305" d="M2394.893-367.247h4.475" transform="translate(-2383 383)" fill="none" stroke="#666" stroke-width="1.5"/>
</svg>
