<svg id="ico-regulaciones" xmlns="http://www.w3.org/2000/svg" width="20" height="20" viewBox="0 0 20 20">
  <rect id="Rectángulo_199" data-name="Rectángulo 199" width="20" height="20" fill="none"/>
  <g id="Grupo_1577" data-name="Grupo 1577" transform="translate(-105 -513)">
    <path id="Trazado_43" data-name="Trazado 43" d="M138.326,585.415a1.33,1.33,0,0,1,1.557-1.381c1.645.051,11.985-.065,12.609,0a1.974,1.974,0,0,1,1.926,2.246c0,1.921.023,11.443,0,11.456s1.9,0,1.9,0V600.7s.237,1.307-2.092,1.307H143.172s-2.116.141-2.005-1.842,0-11.156,0-11.156h-2.841Z" transform="translate(-32.325 -70.014)" fill="none" stroke="#666" stroke-width="1.5"/>
    <path id="Trazado_44" data-name="Trazado 44" d="M153.607,602.332l-9.8.029v2.621s.16,1.7-1.2,1.594" transform="translate(-31.237 -74.583)" fill="none" stroke="#666" stroke-width="1.5"/>
    <path id="Trazado_45" data-name="Trazado 45" d="M141.731,588.478s-.03-2.768,0-2.8c0-1.53-1.056-2.2-2.452-1.474" transform="translate(-32.889 -69.881)" fill="none" stroke="#666" stroke-width="1.5"/>
    <line id="Línea_285" data-name="Línea 285" x2="3" transform="translate(112 521)" fill="none" stroke="#666" stroke-width="1.5"/>
    <path id="Trazado_1096" data-name="Trazado 1096" d="M0,0H6" transform="translate(112 524)" fill="none" stroke="#666" stroke-width="1.5"/>
    <g id="Trazado_46" data-name="Trazado 46" transform="translate(116 516.205)" fill="#fff">
      <path d="M 2.052658319473267 2.986190795898438 C 1.774345517158508 2.813058137893677 1.254631400108337 2.406128644943237 0.75 1.964941143989563 L 0.75 0.5448682308197021 L 3.25 0.5448682308197021 L 3.25 1.981420397758484 C 2.791532516479492 2.412509918212891 2.314708471298218 2.812096834182739 2.052658319473267 2.986190795898438 Z" stroke="none"/>
      <path d="M 1.5 1.294868230819702 L 1.5 1.620234608650208 C 1.689553260803223 1.780073881149292 1.874738931655884 1.929963111877441 2.03653359413147 2.054779529571533 C 2.178532600402832 1.936922430992126 2.338170051574707 1.798333644866943 2.5 1.652165412902832 L 2.5 1.294868230819702 L 1.5 1.294868230819702 M 0 -0.2051317691802979 L 4 -0.2051317691802979 L 4 2.301348209381104 C 4 2.301348209381104 2.473850011825562 3.794868230819702 2.059689998626709 3.794868230819702 C 1.645529985427856 3.794868230819702 0 2.301348209381104 0 2.301348209381104 L 0 -0.2051317691802979 Z" stroke="none" fill="#666"/>
    </g>
  </g>
</svg>
