<svg xmlns="http://www.w3.org/2000/svg" width="20" height="20" viewBox="0 0 20 20">
  <g id="ico-inflacciones" transform="translate(0 0)">
    <rect id="Rect치ngulo_257" data-name="Rect치ngulo 257" width="20" height="20" fill="none"/>
    <path id="Uni칩n_18" data-name="Uni칩n 18" d="M-150.624,668.772c-.395-.548-1.089-1.588-1.732-2.542a8.2,8.2,0,0,1-4.395,1.27A8.259,8.259,0,0,1-165,659.25,8.26,8.26,0,0,1-156.75,651a8.263,8.263,0,0,1,8.195,7.291,1.577,1.577,0,0,1,.311.936v4.367c.544,0,.937,0,1.043-.006.351-.014.75.08.324.845-.294.527-1.689,2.762-2.6,4.34a.682.682,0,0,1-.559.373A.744.744,0,0,1-150.624,668.772Z" transform="translate(165.75 -650.25)" fill="none" stroke="#666" stroke-width="1.5"/>
    <path id="Trazado_1051" data-name="Trazado 1051" d="M.416-5.427a.846.846,0,0,1,.181-.5.514.514,0,0,1,.416-.251A.648.648,0,0,1,1.391-6a5.318,5.318,0,0,0,.549.379,1.735,1.735,0,0,0,.736.245V-7.5q-.394-.149-.6-.235a4.39,4.39,0,0,1-.533-.277,1.917,1.917,0,0,1-.5-.395,2.006,2.006,0,0,1-.3-.523,1.844,1.844,0,0,1-.133-.715A1.821,1.821,0,0,1,1.194-11.1a2.755,2.755,0,0,1,1.482-.624v-.3a.231.231,0,0,1,.107-.187.414.414,0,0,1,.256-.08.421.421,0,0,1,.251.08.229.229,0,0,1,.112.187v.277a4.129,4.129,0,0,1,1.247.224q.576.2.576.619a.949.949,0,0,1-.149.486.462.462,0,0,1-.416.251,1.593,1.593,0,0,1-.48-.181,2.154,2.154,0,0,0-.778-.213v1.878a6.323,6.323,0,0,1,.725.309,4.141,4.141,0,0,1,.624.411,1.6,1.6,0,0,1,.5.656,2.333,2.333,0,0,1,.165.907,2.147,2.147,0,0,1-.544,1.537A2.5,2.5,0,0,1,3.4-4.136V-3.8a.229.229,0,0,1-.112.187.421.421,0,0,1-.251.08.414.414,0,0,1-.256-.08A.231.231,0,0,1,2.676-3.8v-.3a3.086,3.086,0,0,1-1.594-.437Q.416-4.957.416-5.427ZM1.909-9.78a.639.639,0,0,0,.213.507,2.257,2.257,0,0,0,.64.357v-1.611Q1.909-10.389,1.909-9.78Zm1.407,4.4a.847.847,0,0,0,.8-.875.829.829,0,0,0-.208-.587,1.787,1.787,0,0,0-.592-.395Z" transform="translate(6.434 16.734)" fill="#666"/>
    <path id="Trazado_1171" data-name="Trazado 1171" d="M1060.386,49.665c0-2.048-3.788-1.932-3.711,0-.012.044.027,4.371,0,4.417.036.083-2.3-.371-1.294,1.06.054.067,2.976,4.34,2.976,4.34" transform="translate(-1042.895 -40.538)" fill="none" stroke="#666" stroke-width="1.5"/>
  </g>
</svg>
