<svg id="ico-aprobacion-contratos" xmlns="http://www.w3.org/2000/svg" width="20" height="20" viewBox="0 0 20 20">
  <g id="Grupo_1800" data-name="Grupo 1800" transform="translate(-463 -421)">
    <rect id="Rectángulo_199" data-name="Rectángulo 199" width="20" height="20" transform="translate(463 421)" fill="none"/>
    <path id="Trazado_43" data-name="Trazado 43" d="M138.326,585.415a1.33,1.33,0,0,1,1.557-1.381c1.645.051,11.985-.065,12.609,0a1.974,1.974,0,0,1,1.926,2.246c0,1.921.023,11.443,0,11.456s1.9,0,1.9,0V600.7s.237,1.307-2.092,1.307H143.172s-2.116.141-2.005-1.842,0-11.156,0-11.156h-2.841Z" transform="translate(325.675 -162.014)" fill="none" stroke="#666" stroke-width="1.5"/>
    <path id="Trazado_44" data-name="Trazado 44" d="M153.607,602.332l-9.8.029v2.621s.16,1.7-1.2,1.594" transform="translate(326.763 -166.583)" fill="none" stroke="#666" stroke-width="1.5"/>
    <path id="Trazado_45" data-name="Trazado 45" d="M141.731,588.478s-.03-2.768,0-2.8c0-1.53-1.056-2.2-2.452-1.474" transform="translate(325.111 -161.881)" fill="none" stroke="#666" stroke-width="1.5"/>
    <line id="Línea_356" data-name="Línea 356" x2="3" transform="translate(469 429)" fill="none" stroke="#666" stroke-width="1.5"/>
    <path id="Trazado_1096" data-name="Trazado 1096" d="M0,0H5" transform="translate(469 432)" fill="none" stroke="#666" stroke-width="1.5"/>
  </g>
  <g id="Grupo_1822" data-name="Grupo 1822" transform="translate(-553.495 -236.078)">
    <path id="Trazado_1314" data-name="Trazado 1314" d="M.393.5,2.975,2.965" transform="translate(563.102 240.114)" fill="none" stroke="#707070" stroke-width="1.5"/>
    <line id="Línea_334" data-name="Línea 334" x1="3" y2="3.067" transform="translate(565.5 239.5)" fill="none" stroke="#707070" stroke-width="1.5"/>
  </g>
</svg>
