<svg id="ico-transporte-residuos" xmlns="http://www.w3.org/2000/svg" width="20" height="20" viewBox="0 0 20 20">
  <rect id="Rectángulo_339" data-name="Rectángulo 339" width="20" height="20" fill="none"/>
  <path id="Trazado_681" data-name="Trazado 681" d="M466.178,353.348l3.156-.648,2.927,5.292V362.7c0,.633.012,1.681-.749,1.67s-14.938,0-15.92,0a.936.936,0,0,1-1.021-.863s.007-8.521,0-8.469c0-1.255.463-1.551,1.392-1.692,1.038-.305,6-1.157,6-1.157l2.338-.457Z" transform="translate(-453.257 -349.263)" fill="none" stroke="#666" stroke-linecap="round" stroke-linejoin="round" stroke-width="1.5"/>
  <path id="Trazado_682" data-name="Trazado 682" d="M480.589,352.023v7.852" transform="translate(-467.553 -347.843)" fill="none" stroke="#666" stroke-width="1.5"/>
  <path id="Trazado_683" data-name="Trazado 683" d="M492.251,359.13h-3.073a.744.744,0,0,1-.8-.8,20.212,20.212,0,0,1,0-2.383l1.768-.572" transform="translate(-473.38 -350.213)" fill="none" stroke="#666" stroke-linecap="round" stroke-linejoin="round" stroke-width="1.5"/>
  <path id="Trazado_928" data-name="Trazado 928" d="M0,1.731A1.492,1.492,0,0,1,1.694,0a1.849,1.849,0,0,1,2,1.841" transform="matrix(-0.848, 0.53, -0.53, -0.848, 9.98, 9.727)" fill="none" stroke="#666" stroke-width="1.5"/>
  <path id="Trazado_929" data-name="Trazado 929" d="M0,1.731A1.492,1.492,0,0,1,1.694,0a1.849,1.849,0,0,1,2,1.841" transform="matrix(0.848, -0.53, 0.53, 0.848, 4.387, 7.803)" fill="none" stroke="#666" stroke-width="1.5"/>
  <g id="Trazado_1309" data-name="Trazado 1309" transform="translate(1.844 12.144)" fill="none" stroke-linecap="round">
    <path d="M6.76,2.764a3.611,3.611,0,0,1-3.38,3.8A3.611,3.611,0,0,1,0,2.764C.058,2.681,6.8,2.689,6.76,2.764Z" stroke="none"/>
    <path d="M 3.290387392044067 4.204936981201172 C 2.779043197631836 4.204936981201172 2.318040370941162 4.20673131942749 1.917260646820068 4.209753513336182 C 2.262159824371338 4.732682704925537 2.789702415466309 5.067707061767578 3.379847526550293 5.067707061767578 C 3.96967625617981 5.067707061767578 4.496914863586426 4.733123779296875 4.841825008392334 4.210676670074463 C 4.402333736419678 4.207140445709229 3.883726835250854 4.204936981201172 3.290387392044067 4.204936981201172 M 3.290383815765381 2.704940319061279 C 5.019360065460205 2.704940319061279 6.779242515563965 2.725714206695557 6.759697437286377 2.764106750488281 C 6.759697437286377 4.864777088165283 5.246487617492676 6.567707061767578 3.379847526550293 6.567707061767578 C 1.51320743560791 6.567707061767578 -2.384185791015625e-06 4.864777088165283 -2.384185791015625e-06 2.764106750488281 C 0.02840185165405273 2.723757266998291 1.645426273345947 2.704940319061279 3.290383815765381 2.704940319061279 Z" stroke="none" fill="#666"/>
  </g>
  <g id="Trazado_1310" data-name="Trazado 1310" transform="translate(11.5 12.144)" fill="none" stroke-linecap="round">
    <path d="M6.76,2.764a3.611,3.611,0,0,1-3.38,3.8A3.611,3.611,0,0,1,0,2.764C.058,2.681,6.8,2.689,6.76,2.764Z" stroke="none"/>
    <path d="M 3.290387392044067 4.204936981201172 C 2.779043197631836 4.204936981201172 2.318040370941162 4.20673131942749 1.917260646820068 4.209753513336182 C 2.262159824371338 4.732682704925537 2.789702415466309 5.067707061767578 3.379847526550293 5.067707061767578 C 3.96967625617981 5.067707061767578 4.496914863586426 4.733123779296875 4.841825008392334 4.210676670074463 C 4.402333736419678 4.207140445709229 3.883726835250854 4.204936981201172 3.290387392044067 4.204936981201172 M 3.290383815765381 2.704940319061279 C 5.019360065460205 2.704940319061279 6.779242515563965 2.725714206695557 6.759697437286377 2.764106750488281 C 6.759697437286377 4.864777088165283 5.246487617492676 6.567707061767578 3.379847526550293 6.567707061767578 C 1.51320743560791 6.567707061767578 -2.384185791015625e-06 4.864777088165283 -2.384185791015625e-06 2.764106750488281 C 0.02840185165405273 2.723757266998291 1.645426273345947 2.704940319061279 3.290383815765381 2.704940319061279 Z" stroke="none" fill="#666"/>
  </g>
</svg>
