<svg xmlns="http://www.w3.org/2000/svg" width="20" height="20" viewBox="0 0 20 20"><rect width="20" height="20" fill="none"/><g transform="translate(-424.047 -250.044)"><g transform="translate(425.498 250.94)"><path d="M431.127,254.129l-.039-2.189,4.126,3.37-4.006,3.512-.038-2.19a2.807,2.807,0,0,0-2.731.439A10.3,10.3,0,0,0,426,260.023l-.5-.5s-.144-3.009,1.851-4.505A4.313,4.313,0,0,1,431.127,254.129Z" transform="translate(-425.498 -251.94)" fill="none" stroke="#6a6b75" stroke-linecap="round" stroke-linejoin="round" stroke-width="1.5" style="isolation:isolate"/></g><path d="M437.443,264.7h-1.2l-4.173,2.834s-1.069.7-1.069,1.479c0,1.355,1.069,1.355,1.069,1.355h10.686s1.069,0,1.069-1.355c0-.782-1.069-1.479-1.069-1.479L438.52,264.7Z" transform="translate(-1.226 -1.319)" fill="none" stroke="#6a6b75" stroke-linecap="round" stroke-linejoin="round" stroke-width="1.6"/><g transform="translate(433.839 256.857)"><path d="M437.321,258.6h0a2.516,2.516,0,0,1,2.515,2.517v1.459a2.516,2.516,0,0,1-2.515,2.517h0a2.516,2.516,0,0,1-2.517-2.517v-1.459A2.517,2.517,0,0,1,437.321,258.6Z" transform="translate(-434.804 -258.595)" fill="none" stroke="#6a6b75" stroke-width="1.6"/></g></g></svg>