<svg id="ico-alert" xmlns="http://www.w3.org/2000/svg" width="20" height="20" viewBox="0 0 20 20">
  <rect id="Rectángulo_192" data-name="Rectángulo 192" width="20" height="20" fill="none"/>
  <g id="Trazado_1092" data-name="Trazado 1092" fill="none" stroke-linecap="round" stroke-linejoin="round">
    <path d="M10.119.293l.719,1.435L20,20H0Z" stroke="none"/>
    <path d="M 10.10325527191162 3.60748291015625 L 2.456384658813477 18.5 L 17.56997108459473 18.5 L 10.10325527191162 3.60748291015625 M 10.11919975280762 0.29254150390625 L 10.83854961395264 1.727291107177734 L 20 20 L 0 20 L 10.11919975280762 0.29254150390625 Z" stroke="none" fill="#666"/>
  </g>
  <path id="Trazado_1093" data-name="Trazado 1093" d="M.783,12.91A.869.869,0,0,1,.5,12.262a.858.858,0,0,1,.287-.648,1,1,0,0,1,.713-.27,1.008,1.008,0,0,1,.706.27.853.853,0,0,1,0,1.289.994.994,0,0,1-.706.277A1.027,1.027,0,0,1,.783,12.91Zm-.2-7.789a.84.84,0,0,1,.253-.745,1.051,1.051,0,0,1,.654-.2,1.058,1.058,0,0,1,.662.2.837.837,0,0,1,.234.739c0,.594-.175,4.145-.175,4.739a.689.689,0,0,1-.721.69.679.679,0,0,1-.721-.69C.769,9.266.6,5.736.582,5.121Z" transform="translate(8.703 3.82)" fill="#666"/>
</svg>
