<svg id="ico-operaciones" xmlns="http://www.w3.org/2000/svg" width="20" height="20" viewBox="0 0 20 20">
  <g id="Sustracción_15" data-name="Sustracción 15" transform="translate(6.06 5.549)" fill="#fff">
    <path d="M 2.618850231170654 4.805789947509766 L 2.618840217590332 4.805789947509766 C 2.121910095214844 4.805789947509766 1.878660202026367 4.774829864501953 1.721340179443359 4.691539764404297 C 1.55292022228241 4.60237979888916 1.370500206947327 4.386370182037354 1.111380219459534 3.969239950180054 L 1.1044602394104 3.95809006690979 L 1.097140192985535 3.947190046310425 C 0.9530001878738403 3.732310056686401 0.7500002384185791 3.125119924545288 0.7500002384185791 2.447999954223633 L 0.7500002384185791 0.75 L 7.465200424194336 0.75 L 7.465200424194336 2.447999954223633 C 7.465200424194336 3.073070049285889 7.296410083770752 3.621939897537231 6.882620334625244 4.34250020980835 L 6.878330230712891 4.349969863891602 L 6.874210357666016 4.357530117034912 C 6.717140197753906 4.646200180053711 6.652980327606201 4.704529762268066 6.610939979553223 4.723509788513184 C 6.443410396575928 4.799160003662109 5.933120250701904 4.799160003662109 5.68789005279541 4.799160003662109 C 5.513230323791504 4.799160003662109 5.318070411682129 4.797140121459961 5.098790168762207 4.7948899269104 C 4.810210227966309 4.791940212249756 4.48412036895752 4.788599967956543 4.107600212097168 4.788599967956543 C 3.758460283279419 4.788599967956543 3.453150272369385 4.794000148773193 3.183780193328857 4.798759937286377 C 2.970210313796997 4.802539825439453 2.785920143127441 4.805789947509766 2.618850231170654 4.805789947509766 Z" stroke="none"/>
    <path d="M 2.618850231170654 4.055789947509766 C 2.779300212860107 4.055789947509766 2.960520267486572 4.052589893341064 3.170520305633545 4.048880100250244 C 3.443000316619873 4.044059753417969 3.751830101013184 4.038599967956543 4.107600212097168 4.038599967956543 C 4.487960338592529 4.038599967956543 4.816090106964111 4.041959762573242 5.106490135192871 4.044929981231689 C 5.322900295257568 4.047150135040283 5.515510082244873 4.049160003662109 5.68789005279541 4.049160003662109 C 5.933027744293213 4.049160003662109 6.091663837432861 4.044028759002686 6.194294452667236 4.037484645843506 C 6.200907707214355 4.025600433349609 6.207949638366699 4.01280689239502 6.21543025970459 3.999059915542603 L 6.223659992218018 3.98393988609314 L 6.232230186462402 3.968999862670898 C 6.63306999206543 3.27101993560791 6.715200424194336 2.856159925460815 6.715200424194336 2.447999954223633 L 6.715200424194336 1.5 L 1.500000238418579 1.5 L 1.500000238418579 2.447999954223633 C 1.500000238418579 2.991163015365601 1.662140369415283 3.430874824523926 1.722914576530457 3.533740520477295 L 1.734610199928284 3.551179885864258 L 1.748460173606873 3.573479890823364 C 1.939157247543335 3.880454778671265 2.03715181350708 3.990122079849243 2.074517011642456 4.025941848754883 C 2.127689123153687 4.037838459014893 2.266396760940552 4.055789947509766 2.618840217590332 4.055789947509766 L 2.618850231170654 4.055789947509766 M 2.618850231170654 5.555789947509766 C 1.496450185775757 5.555799961090088 1.126960158348083 5.415629863739014 0.47430020570755 4.364999771118164 C 0.2458702176809311 4.02446985244751 2.120971629437918e-07 3.279309988021851 2.120971629437918e-07 2.447999954223633 L 2.120971629437918e-07 -1.945495675670372e-08 L 8.215200424194336 -1.945495675670372e-08 L 8.215200424194336 2.447999954223633 C 8.215200424194336 3.205049991607666 8.01117992401123 3.88332986831665 7.532999992370605 4.716000080108643 C 7.134730339050293 5.447929859161377 6.910560131072998 5.549160003662109 5.68789005279541 5.549160003662109 C 5.510869979858398 5.549160003662109 5.313060283660889 5.547130107879639 5.090800285339355 5.544849872589111 C 4.804590225219727 5.541920185089111 4.480530261993408 5.538599967956543 4.107600212097168 5.538599967956543 C 3.765000104904175 5.538599967956543 3.463150262832642 5.54394006729126 3.196830272674561 5.548649787902832 C 2.979400157928467 5.552489757537842 2.792240142822266 5.555789947509766 2.618850231170654 5.555789947509766 Z" stroke="none" fill="#666"/>
  </g>
  <path id="Trazado_1330" data-name="Trazado 1330" d="M1949.729,697.392a6.52,6.52,0,0,1,.409-2.6c.454-.69,1.452-.879,1.881-1.167.011.008-.023-1.312,0-1.291.616,0,3.721-.02,3.71,0,.032.005.071,1.431.086,1.438.24.062,2.183.289,2.127,3.719" transform="translate(-1943.614 -691.46)" fill="none" stroke="#666" stroke-width="1.5"/>
  <path id="Trazado_1333" data-name="Trazado 1333" d="M-.539,0H10.62" transform="translate(5.086 6.266)" fill="none" stroke="#666" stroke-linecap="round" stroke-width="1.5"/>
  <path id="Trazado_1331" data-name="Trazado 1331" d="M1397.591-195.092v-2.228h3.46v2.228" transform="translate(-1389.051 198.32)" fill="none" stroke="#666" stroke-linecap="round" stroke-linejoin="round" stroke-width="1.5"/>
  <rect id="Rectángulo_342" data-name="Rectángulo 342" width="20" height="20" fill="none"/>
  <path id="Trazado_1327" data-name="Trazado 1327" d="M-619.375,358.7s.315,2.675,2.286,2.653,11.428-.027,11.42,0a2.426,2.426,0,0,0,2.291-2.653" transform="translate(621.375 -351)" fill="none" stroke="#666" stroke-width="1.5"/>
  <path id="Trazado_1328" data-name="Trazado 1328" d="M-618.725,370.458s.392,2.663,2.4,2.663h10.738a2.588,2.588,0,0,0,2.534-2.839" transform="translate(621 -353.992)" fill="none" stroke="#666" stroke-width="1.5"/>
  <path id="Trazado_1335" data-name="Trazado 1335" d="M-619.446,364.967l2.174-.984.153.981,1.059,0a1.869,1.869,0,0,1,.613,1.388,2.842,2.842,0,0,1-.613,1.625l-2.425,0-.545-1.625Z" transform="translate(634.446 -352)" fill="none" stroke="#666" stroke-width="1.5"/>
  <path id="Trazado_1345" data-name="Trazado 1345" d="M-615.446,364.967l-2.174-.984-.153.981-1.059,0a1.869,1.869,0,0,0-.613,1.388,2.841,2.841,0,0,0,.613,1.625l2.425,0,.545-1.625Z" transform="translate(620.446 -351.807)" fill="none" stroke="#666" stroke-width="1.5"/>
  <line id="Línea_357" data-name="Línea 357" y1="6" transform="translate(2 6.5)" fill="none" stroke="#666" stroke-width="1.5"/>
  <line id="Línea_358" data-name="Línea 358" y1="6" transform="translate(18 6.5)" fill="none" stroke="#666" stroke-width="1.5"/>
</svg>
