<svg id="ico-management" xmlns="http://www.w3.org/2000/svg" width="20" height="20" viewBox="0 0 20 20">
  <g id="Grupo_1029" data-name="Grupo 1029" transform="translate(2 2)">
    <path id="Trazado_692" data-name="Trazado 692" d="M2329.36,1009.786a15.48,15.48,0,0,0,4.963-3.519c1.326-1.762,3.557-7.007,2.839-7.731s-5.4.753-8.065,2.92a11.1,11.1,0,0,0-3.472,5.094Z" transform="translate(-2322.045 -998.35)" fill="none" stroke="#6a6b75" stroke-width="1.5"/>
    <path id="Trazado_693" data-name="Trazado 693" d="M2326.807,1003.749c-1.352.214-2.358.183-3.279,1.375a12.332,12.332,0,0,0-1.961,2.921c-.026.1,1.818-.736,2.476-.882a1.724,1.724,0,0,1,.99,0S2326.717,1003.832,2326.807,1003.749Z" transform="translate(-2321.567 -999.01)" fill="none" stroke="#6a6b75" stroke-width="1.5"/>
    <path id="Trazado_694" data-name="Trazado 694" d="M2332.581,1009.544a5.548,5.548,0,0,1-.8,3.061,8.353,8.353,0,0,1-3.213,2.386,9.69,9.69,0,0,0,1.226-3.69C2329.784,1011.265,2332.581,1009.544,2332.581,1009.544Z" transform="translate(-2322.392 -999.717)" fill="none" stroke="#6a6b75" stroke-width="1.5"/>
    <line id="Línea_147" data-name="Línea 147" x2="4.411" y2="4.389" transform="translate(9.645 1.009)" fill="none" stroke="#6a6b75" stroke-width="1.5"/>
    <path id="Trazado_695" data-name="Trazado 695" d="M1.838,0,.628,1.284" transform="translate(2.513 12.422)" fill="none" stroke="#6a6b75" stroke-linecap="round" stroke-width="1.5"/>
    <line id="Línea_149" data-name="Línea 149" x1="1.764" y2="1.756" transform="translate(0.823 10.666)" fill="none" stroke="#6a6b75" stroke-linecap="round" stroke-width="1.5"/>
  </g>
  <rect id="Rectángulo_3070" data-name="Rectángulo 3070" width="20" height="20" fill="none"/>
</svg>
