<svg xmlns="http://www.w3.org/2000/svg" width="20" height="20" viewBox="0 0 20 20">
  <g id="ico-penalizaciones" transform="translate(0 0)">
    <rect id="Rectángulo_305" data-name="Rectángulo 305" width="20" height="20" fill="none" opacity="0.5"/>
    <g id="Grupo_1709" data-name="Grupo 1709" transform="translate(-1213.421 -652)">
      <path id="Trazado_1240" data-name="Trazado 1240" d="M1785.092,219.957h7.817v-2.711h-7.817Z" transform="translate(-567.521 450.295)" fill="none" stroke="#666" stroke-linecap="round" stroke-linejoin="round" stroke-width="1.5"/>
      <g id="Grupo_1708" data-name="Grupo 1708" transform="translate(0 -41.331)">
        <g id="Trazado_1236" data-name="Trazado 1236" transform="translate(1221.655 702.744) rotate(-45)" fill="none">
          <path d="M4.081.775l-.155,7.85a2.059,2.059,0,0,1-2,2A1.871,1.871,0,0,1,0,8.7L.156.853C.177-.231,4.1-.309,4.081.775Z" stroke="none"/>
          <path d="M 2.239648342132568 1.499997138977051 C 2.00462007522583 1.499997138977051 1.801633834838867 1.521330833435059 1.642286062240601 1.548949241638184 L 1.500098466873169 8.732407569885254 C 1.497278451919556 8.874677658081055 1.556048393249512 8.96507740020752 1.605838298797607 9.015867233276367 C 1.655438423156738 9.066457748413086 1.744028329849243 9.126757621765137 1.884448289871216 9.126757621765137 L 1.894348382949829 9.126657485961914 C 2.17188835144043 9.121167182922363 2.420168399810791 8.87288761138916 2.425658226013184 8.595357894897461 L 2.565814971923828 1.514508247375488 C 2.471263885498047 1.505685806274414 2.362430572509766 1.499997138977051 2.239648342132568 1.499997138977051 M 2.239651679992676 1.9073486328125e-06 C 3.184219360351562 1.9073486328125e-06 4.091089725494385 0.2525453567504883 4.080748558044434 0.7750873565673828 L 3.925368309020996 8.62503719329834 C 3.903908252716064 9.708887100219727 3.007888317108154 10.60490798950195 1.924038410186768 10.62636756896973 C 1.910873889923096 10.62662792205811 1.897547721862793 10.62675952911377 1.88444995880127 10.62675952911377 C 0.8191931247711182 10.62675952911377 -0.02080106735229492 9.773412704467773 0.0003881454467773438 8.702727317810059 L 0.1557683944702148 0.8527774810791016 C 0.1668820381164551 0.2914695739746094 1.225009679794312 1.9073486328125e-06 2.239651679992676 1.9073486328125e-06 Z" stroke="none" fill="#666"/>
        </g>
        <g id="Trazado_1237" data-name="Trazado 1237" transform="translate(1216.956 700.139) rotate(-45)" fill="none" stroke-linecap="round" stroke-linejoin="round">
          <path d="M.1.181,7.312,0l-.1,6.542L0,6.723Z" stroke="none"/>
          <path d="M 5.788011074066162 1.53879976272583 L 1.579317569732666 1.644608974456787 L 1.524160861968994 5.18408727645874 L 5.732848644256592 5.078278064727783 L 5.788011074066162 1.53879976272583 M 7.312177181243896 3.337860107421875e-06 L 7.210227012634277 6.541613578796387 L -2.86102294921875e-06 6.722883701324463 L 0.1019372940063477 0.1812734603881836 L 7.312177181243896 3.337860107421875e-06 Z" stroke="none" fill="#666"/>
        </g>
        <g id="Trazado_1238" data-name="Trazado 1238" transform="translate(1215.421 701.858) rotate(-45)" fill="none" stroke-linecap="round" stroke-linejoin="round">
          <path d="M.129.078,4.054,0,3.925,6.542,0,6.619Z" stroke="none"/>
          <path d="M 2.523825168609619 1.530594348907471 L 1.600656032562256 1.548867702484131 L 1.530591011047363 5.088706016540527 L 2.453760147094727 5.070433139801025 L 2.523825168609619 1.530594348907471 M 4.054418087005615 4.76837158203125e-07 L 3.924938201904297 6.541610240936279 L -1.9073486328125e-06 6.619300365447998 L 0.1294779777526855 0.07769060134887695 L 4.054418087005615 4.76837158203125e-07 Z" stroke="none" fill="#666"/>
        </g>
        <g id="Trazado_1239" data-name="Trazado 1239" transform="translate(1220.862 696.197) rotate(-45)" fill="none" stroke-linecap="square" stroke-linejoin="round">
          <path d="M.129.078,4.054,0,3.925,6.542,0,6.619Z" stroke="none"/>
          <path d="M 2.523825168609619 1.530594348907471 L 1.600656032562256 1.548867702484131 L 1.530591011047363 5.088706016540527 L 2.453760147094727 5.070433139801025 L 2.523825168609619 1.530594348907471 M 4.054418087005615 4.76837158203125e-07 L 3.924938201904297 6.541610240936279 L -1.9073486328125e-06 6.619300365447998 L 0.1294779777526855 0.07769060134887695 L 4.054418087005615 4.76837158203125e-07 Z" stroke="none" fill="#666"/>
        </g>
      </g>
    </g>
  </g>
</svg>
