<svg id="ico_geolocation" xmlns="http://www.w3.org/2000/svg" width="20" height="20" viewBox="0 0 20 20">
  <rect id="Rectángulo_2585" data-name="Rectángulo 2585" width="20" height="20" fill="none"/>
  <g id="Trazado_2506" data-name="Trazado 2506" transform="translate(1)" fill="none">
    <path d="M9,0c4.971,0,9,3.029,9,8S9,20,9,20,0,12.971,0,8,4.029,0,9,0Z" stroke="none"/>
    <path d="M 9 1.5 C 6.877799987792969 1.5 4.961879730224609 2.132480621337891 3.605190277099609 3.280920028686523 C 2.227959632873535 4.446749687194824 1.5 6.078579902648926 1.5 8 C 1.5 8.934040069580078 2.028129577636719 11.06042957305908 5.565150260925293 14.80718040466309 C 6.85435962677002 16.17283248901367 8.158750534057617 17.33830642700195 8.999997138977051 18.0553092956543 C 9.841325759887695 17.33824157714844 11.14563941955566 16.17283248901367 12.43485069274902 14.80718040466309 C 15.97187042236328 11.06042957305908 16.5 8.934040069580078 16.5 8 C 16.5 6.078579902648926 15.77203941345215 4.446749687194824 14.39480972290039 3.280920028686523 C 13.03812026977539 2.132480621337891 11.12220001220703 1.5 9 1.5 M 9 0 C 13.97056007385254 0 18 3.029439926147461 18 8 C 18 12.97056007385254 9 20 9 20 C 9 20 0 12.97056007385254 0 8 C 0 3.029439926147461 4.029439926147461 0 9 0 Z" stroke="none" fill="#6a6b75"/>
  </g>
  <g id="Elipse_451" data-name="Elipse 451" transform="translate(7 3)" fill="none" stroke="#6a6b75" stroke-width="1.5">
    <circle cx="3" cy="3" r="3" stroke="none"/>
    <circle cx="3" cy="3" r="2.25" fill="none"/>
  </g>
</svg>
