<svg id="ico-contribuyentes" xmlns="http://www.w3.org/2000/svg" width="20" height="20" viewBox="0 0 20 20">
  <rect id="Rect치ngulo_347" data-name="Rect치ngulo 347" width="20" height="20" fill="none"/>
  <g id="Grupo_1794" data-name="Grupo 1794" transform="translate(-626 -144)">
    <path id="Trazado_65" data-name="Trazado 65" d="M-288.3,384.937c.016.019.015,1.608,0,1.642,0,.326.12,1.141-1.692,1.2s-11.952,0-11.952,0-1.328.067-1.326-1.2c-.035.013-.012-1.629,0-1.642a2.669,2.669,0,0,1,1.326-1.7c2.159-1.36,4.65-2.94,4.65-2.94h1.884s5.563,2.4,6.2,2.94A2.265,2.265,0,0,1-288.3,384.937Z" transform="translate(933.292 -225.831)" fill="none" stroke="#6a6b75" stroke-width="1.5"/>
    <g id="Rect치ngulo_35" data-name="Rect치ngulo 35" transform="translate(632.761 144.97)" fill="none" stroke="#6a6b75" stroke-width="1.5">
      <rect width="8.21" height="10.155" rx="4.105" stroke="none"/>
      <rect x="0.75" y="0.75" width="6.71" height="8.655" rx="3.355" fill="none"/>
    </g>
    <path id="Trazado_70" data-name="Trazado 70" d="M-413.292,522.612s4.646-2.022,7.138-.737" transform="translate(1046.537 -371.763)" fill="none" stroke="#6a6b75" stroke-width="1.5"/>
  </g>
  <path id="Trazado_1323" data-name="Trazado 1323" d="M2506.18,277.065s-2.512,1.522-3.148,1.937a2.323,2.323,0,0,0-.949,2.168c0,1.089.364,1.662,1.4,1.7,1.1.026,2.171,0,2.171,0" transform="translate(-2501 -265)" fill="none" stroke="#6a6b75" stroke-width="1.5"/>
  <path id="Trazado_1324" data-name="Trazado 1324" d="M2508.427,270.087a2.117,2.117,0,0,0-1.594-.419,2.748,2.748,0,0,0-2.711,2.353c-.037,1.379-.03,1.473,0,2.778s1.287,2.3,3.031,2.267a4.276,4.276,0,0,0,2.926-1.5" transform="translate(-2501 -265)" fill="none" stroke="#6a6b75" stroke-width="1.5"/>
  <path id="Trazado_1325" data-name="Trazado 1325" d="M2504.893,269.992a1.63,1.63,0,0,1,1.23-.325,2.123,2.123,0,0,1,2.093,1.821c.029,1.067.023,1.14,0,2.15a2.086,2.086,0,0,1-2.34,1.755,4.2,4.2,0,0,1-2.106-1.076" transform="translate(-2490.639 -264.325)" fill="none" stroke="#6a6b75" stroke-width="1.5"/>
  <path id="Trazado_1326" data-name="Trazado 1326" d="M2504.131,272.719l4.351-1.4" transform="translate(-2501 -265)" fill="none" stroke="#6a6b75" stroke-width="1"/>
  <path id="Trazado_1327" data-name="Trazado 1327" d="M2518.316,275.723a4.943,4.943,0,0,1,1.422,3.465" transform="translate(-2501 -265)" fill="none" stroke="#6a6b75" stroke-width="1.5"/>
</svg>
