<svg id="ico-modalidades" xmlns="http://www.w3.org/2000/svg" width="20" height="20" viewBox="0 0 20 20">
  <g id="Grupo_1690" data-name="Grupo 1690" transform="translate(-1237 -409)">
    <g id="Uni칩n_19" data-name="Uni칩n 19" transform="translate(1408 -267)" fill="none">
      <path d="M-163,696v-4h-4v-4h-4V676h12v4h4v4h4v12Z" stroke="none"/>
      <path d="M -152.5001983642578 694.4996948242188 L -152.5001983642578 685.5 L -154.9998016357422 685.5 L -156.4998016357422 685.5 L -156.4998016357422 684 L -156.4998016357422 681.5004272460938 L -159.0003051757812 681.5004272460938 L -160.5003051757812 681.5004272460938 L -160.5003051757812 680.0004272460938 L -160.5003051757812 677.4999389648438 L -169.5 677.4999389648438 L -169.5 686.4996337890625 L -167.0003967285156 686.4996337890625 L -165.5003967285156 686.4996337890625 L -165.5003967285156 687.9996337890625 L -165.5003967285156 690.5001220703125 L -162.9999084472656 690.5001220703125 L -161.4999084472656 690.5001220703125 L -161.4999084472656 692.0001220703125 L -161.4999084472656 694.4996948242188 L -152.5001983642578 694.4996948242188 M -151.0001983642578 695.9996948242188 L -162.9999084472656 695.9996948242188 L -162.9999084472656 692.0001220703125 L -167.0003967285156 692.0001220703125 L -167.0003967285156 687.9996337890625 L -171 687.9996337890625 L -171 675.9999389648438 L -159.0003051757812 675.9999389648438 L -159.0003051757812 680.0004272460938 L -154.9998016357422 680.0004272460938 L -154.9998016357422 684 L -151.0001983642578 684 L -151.0001983642578 695.9996948242188 Z" stroke="none" fill="#707070"/>
    </g>
    <path id="Trazado_1203" data-name="Trazado 1203" d="M1374.906-240.331h-7.156v6.712" transform="translate(-121.991 658.077)" fill="none" stroke="#707070" stroke-width="1.5"/>
    <path id="Trazado_1204" data-name="Trazado 1204" d="M1374.906-240.331h-7.156v6.712" transform="translate(-125.991 654.077)" fill="none" stroke="#707070" stroke-width="1.5"/>
  </g>
  <rect id="Rect치ngulo_271" data-name="Rect치ngulo 271" width="20" height="20" transform="translate(0 0)" fill="none"/>
</svg>
