<svg id="ico.financiero" xmlns="http://www.w3.org/2000/svg" width="20" height="20" viewBox="0 0 20 20">
  <path id="Trazado_1360" data-name="Trazado 1360" d="M.415-6.7a.354.354,0,0,1-.079-.237.358.358,0,0,1,.082-.24.265.265,0,0,1,.212-.1H.96v-.5H.63a.275.275,0,0,1-.212-.09A.331.331,0,0,1,.336-8.1a.358.358,0,0,1,.082-.24.265.265,0,0,1,.212-.1H.96v-.158a1.568,1.568,0,0,1,.455-1.244,1.76,1.76,0,0,1,1.2-.4,1.938,1.938,0,0,1,1.23.373,1.208,1.208,0,0,1,.477,1,.418.418,0,0,1-.108.337.581.581,0,0,1-.359.086q-.466,0-.466-.273A.8.8,0,0,0,3.226-9.2a.675.675,0,0,0-.574-.219q-.76,0-.76.825v.158h.674a.279.279,0,0,1,.208.1.336.336,0,0,1,.093.237.312.312,0,0,1-.093.229.288.288,0,0,1-.208.093H1.892v.5h.674a.279.279,0,0,1,.208.1.328.328,0,0,1,.093.229.321.321,0,0,1-.093.237.288.288,0,0,1-.208.093H1.892v.122A.814.814,0,0,0,2.064-6a.693.693,0,0,0,.6.233.662.662,0,0,0,.563-.222.876.876,0,0,0,.169-.545A.221.221,0,0,1,3.5-6.745a.775.775,0,0,1,.355-.061.561.561,0,0,1,.362.09.439.439,0,0,1,.1.341,1.27,1.27,0,0,1-.477,1.04,1.889,1.889,0,0,1-1.23.387A1.689,1.689,0,0,1,1.4-5.368,1.483,1.483,0,0,1,.96-6.49v-.122H.63A.292.292,0,0,1,.415-6.7Z" transform="translate(4.898 14.516)" fill="#666"/>
  <rect id="Rectángulo_348" data-name="Rectángulo 348" width="20" height="20" fill="none"/>
  <g id="Trazado_1359" data-name="Trazado 1359" transform="translate(2)" fill="none">
    <path d="M0,0H10.286L16,5.75V20H0Z" stroke="none"/>
    <path d="M 1.5 1.5 L 1.5 18.5 L 14.5 18.5 L 14.5 6.368584632873535 L 9.661651611328125 1.5 L 1.5 1.5 M 0 0 L 10.28570938110352 0 L 16 5.75 L 16 20 L 0 20 L 0 0 Z" stroke="none" fill="#707070"/>
  </g>
  <path id="Trazado_1358" data-name="Trazado 1358" d="M-133.175,430.691v5.177h5.281" transform="translate(145 -430)" fill="none" stroke="#707070" stroke-width="1.54"/>
  <line id="Línea_367" data-name="Línea 367" x2="8" transform="translate(5.105 14.895)" fill="none" stroke="#666" stroke-width="1.5"/>
  <line id="Línea_368" data-name="Línea 368" x2="4.395" transform="translate(5.105 11.895)" fill="none" stroke="#666" stroke-width="1.5"/>
</svg>
