<svg id="ico_mn_colocation" xmlns="http://www.w3.org/2000/svg" width="20.081" height="20" viewBox="0 0 20.081 20">
  <rect id="Rectángulo_333" data-name="Rectángulo 333" width="20" height="20" fill="none"/>
  <path id="Trazado_1319" data-name="Trazado 1319" d="M-970.055,323.887s3.222-5.472,9.3-5.472,9.185,5.472,9.185,5.472" transform="translate(971 -306)" fill="none" stroke="#3a3a40" stroke-width="1.5"/>
  <g id="Trazado_1320" data-name="Trazado 1320" transform="translate(5.736 1)" fill="none">
    <path d="M4.764,0a4.84,4.84,0,0,1,4.8,5.11c0,3.038-4.735,6.379-4.8,6.5S.032,8.148.032,5.11A4.791,4.791,0,0,1,4.764,0Z" stroke="none"/>
    <path d="M 4.763671398162842 1.500004768371582 C 3.88529109954834 1.500004768371582 3.08065128326416 1.837344169616699 2.497961044311523 2.449884414672852 C 1.865890979766846 3.114344596862793 1.531801223754883 4.034284591674805 1.531801223754883 5.110264301300049 C 1.531801223754883 5.883314609527588 2.140081405639648 7.01747465133667 3.200661182403564 8.221924781799316 C 3.737446784973145 8.831521034240723 4.284351825714111 9.344917297363281 4.707398414611816 9.709198951721191 C 5.230356693267822 9.266250610351562 5.915159225463867 8.648403167724609 6.535211086273193 7.948034286499023 C 7.51793098449707 6.838014602661133 8.059141159057617 5.830214500427246 8.059141159057617 5.110264301300049 C 8.059141159057617 3.01833438873291 6.673191070556641 1.500004768371582 4.763671398162842 1.500004768371582 M 4.763671398162842 4.76837158203125e-06 C 7.394571304321289 4.76837158203125e-06 9.559141159057617 2.072694778442383 9.559141159057617 5.110264301300049 C 9.559141159057617 8.147824287414551 4.824090957641602 11.48897457122803 4.763671398162842 11.60980415344238 C 4.762679100036621 11.61178779602051 4.760414123535156 11.61277961730957 4.756977081298828 11.61277961730957 C 4.551084041595459 11.61277961730957 0.03180122375488281 8.097951889038086 0.03180122375488281 5.110264301300049 C 0.03180122375488281 2.072694778442383 2.132771015167236 4.76837158203125e-06 4.763671398162842 4.76837158203125e-06 Z" stroke="none" fill="#3a3a40"/>
  </g>
  <circle id="Elipse_170" data-name="Elipse 170" cx="1.5" cy="1.5" r="1.5" transform="translate(9 4)" fill="#3a3a40"/>
  <path id="Trazado_1323" data-name="Trazado 1323" d="M-966.9,320.223a10.394,10.394,0,0,0,6.2,2.087,9.629,9.629,0,0,0,5.861-2.087" transform="translate(971 -306)" fill="none" stroke="#3a3a40" stroke-width="1.5"/>
</svg>
