<svg id="ico_factura" xmlns="http://www.w3.org/2000/svg" width="20" height="20" viewBox="0 0 20 20">
  <rect id="Rectángulo_199" data-name="Rectángulo 199" width="20" height="20" fill="none"/>
  <g id="Grupo_1577" data-name="Grupo 1577" transform="translate(-105 -513)">
    <path id="Trazado_43" data-name="Trazado 43" d="M138.326,585.415a1.33,1.33,0,0,1,1.557-1.381c1.645.051,11.985-.065,12.609,0a1.974,1.974,0,0,1,1.926,2.246c0,1.921.023,11.443,0,11.456s1.9,0,1.9,0V600.7s.237,1.307-2.092,1.307H143.172s-2.116.141-2.005-1.842,0-11.156,0-11.156h-2.841Z" transform="translate(-32.325 -70.014)" fill="none" stroke="#3a3a40" stroke-width="1.5"/>
    <path id="Trazado_44" data-name="Trazado 44" d="M153.607,602.332l-9.8.029v2.621s.16,1.7-1.2,1.594" transform="translate(-31.237 -74.583)" fill="none" stroke="#3a3a40" stroke-width="1.5"/>
    <path id="Trazado_45" data-name="Trazado 45" d="M141.731,588.478s-.03-2.768,0-2.8c0-1.53-1.056-2.2-2.452-1.474" transform="translate(-32.889 -69.881)" fill="none" stroke="#3a3a40" stroke-width="1.5"/>
    <line id="Línea_285" data-name="Línea 285" x2="3" transform="translate(111 521)" fill="none" stroke="#3a3a40" stroke-width="1.5"/>
    <path id="Trazado_1096" data-name="Trazado 1096" d="M0,0H5" transform="translate(111 524)" fill="none" stroke="#3a3a40" stroke-width="1.5"/>
  </g>
  <path id="Trazado_1318" data-name="Trazado 1318" d="M.416-6.8a.657.657,0,0,1,.152-.4.436.436,0,0,1,.349-.2.558.558,0,0,1,.318.141,4.479,4.479,0,0,0,.461.3,1.508,1.508,0,0,0,.618.2v-1.7q-.331-.12-.506-.188a3.758,3.758,0,0,1-.448-.222,1.6,1.6,0,0,1-.416-.316A1.589,1.589,0,0,1,.689-9.6a1.413,1.413,0,0,1-.112-.572,1.423,1.423,0,0,1,.493-1.165,2.374,2.374,0,0,1,1.245-.5v-.239a.183.183,0,0,1,.09-.149.36.36,0,0,1,.215-.064.365.365,0,0,1,.21.064.181.181,0,0,1,.094.149v.222a3.624,3.624,0,0,1,1.048.179q.484.162.484.5a.734.734,0,0,1-.125.388.391.391,0,0,1-.349.2,1.382,1.382,0,0,1-.4-.145,1.88,1.88,0,0,0-.654-.171v1.5a5.456,5.456,0,0,1,.609.248,3.5,3.5,0,0,1,.524.329,1.29,1.29,0,0,1,.421.525,1.788,1.788,0,0,1,.139.726,1.67,1.67,0,0,1-.457,1.229,2.139,2.139,0,0,1-1.236.58V-5.5a.181.181,0,0,1-.094.149.365.365,0,0,1-.21.064A.36.36,0,0,1,2.4-5.352a.183.183,0,0,1-.09-.149V-5.74A2.691,2.691,0,0,1,.976-6.09Q.416-6.423.416-6.8ZM1.67-10.282a.5.5,0,0,0,.179.405,1.923,1.923,0,0,0,.537.286v-1.289Q1.67-10.768,1.67-10.282ZM2.852-6.765q.672-.128.672-.7a.644.644,0,0,0-.175-.47,1.508,1.508,0,0,0-.5-.316Z" transform="translate(10.584 15)" fill="#3a3a40"/>
</svg>
