<svg id="ico_mn_agencias" xmlns="http://www.w3.org/2000/svg" width="20" height="20" viewBox="0 0 20 20">
  <rect id="Rectángulo_184" data-name="Rectángulo 184" width="20" height="20" fill="none"/>
  <g id="Grupo_1562" data-name="Grupo 1562" transform="translate(3.189 -0.615)">
    <path id="Trazado_20" data-name="Trazado 20" d="M815.953,282.308v-5.185" transform="translate(-814.058 -270.308)" fill="none" stroke="#3a3a40" stroke-linecap="round" stroke-width="1.5"/>
    <path id="Trazado_22" data-name="Trazado 22" d="M815.953,283.6v-7.227" transform="translate(-803.793 -269.562)" fill="none" stroke="#3a3a40" stroke-linecap="round" stroke-width="1.5"/>
    <path id="Trazado_19" data-name="Trazado 19" d="M813.784,267.055c.142-.107,7.8-7.189,7.8-7.189s5.988,5.582,7.752,7.189" transform="translate(-814.522 -257.915)" fill="none" stroke="#3a3a40" stroke-linecap="round" stroke-linejoin="round" stroke-width="1.5"/>
  </g>
  <path id="Trazado_1104" data-name="Trazado 1104" d="M808.435,298.225c.382-.025,7.717,0,7.813,0a1.723,1.723,0,0,1,1.953,2c-.975.51-3.064,1.485-3.064,1.485s7.077-1.094,8.584-1.485c1.31-.367,2.338-.051,2.683.84a1.656,1.656,0,0,1-1.033,2.406,34.533,34.533,0,0,1-7.17,1.753c-.872-.064-9.766,0-9.766,0Z" transform="translate(-807.499 -286.725)" fill="none" stroke="#3a3a40" stroke-linecap="round" stroke-linejoin="round" stroke-width="1.5"/>
</svg>
